<?xml version="1.0" encoding="utf-8"?>
<!-- Generator: Adobe Illustrator 15.0.2, SVG Export Plug-In . SVG Version: 6.00 Build 0)  -->
<!DOCTYPE svg PUBLIC "-//W3C//DTD SVG 1.1//EN" "http://www.w3.org/Graphics/SVG/1.1/DTD/svg11.dtd">
<svg version="1.1" id="Capa_1" xmlns="http://www.w3.org/2000/svg" xmlns:xlink="http://www.w3.org/1999/xlink" x="0px" y="0px"
	 width="30px" height="30px" viewBox="0 0 30 30" enable-background="new 0 0 30 30" xml:space="preserve">
<g>
	<defs>
		<circle id="SVGID_1_" cx="15" cy="15.001" r="13.651"/>
	</defs>
	<use xlink:href="#SVGID_1_"  overflow="visible" fill="#00FF00"/>
	<clipPath id="SVGID_2_">
		<use xlink:href="#SVGID_1_"  overflow="visible"/>
	</clipPath>
	<g clip-path="url(#SVGID_2_)">
		<path stroke="#000000" stroke-width="0.4" stroke-miterlimit="10" d="M13.688,7.238c-0.977,1.762-2.795,4.383-2.76,6.944
			c0.016,1.134,1.147,1.767,4.735,2.72c3.587,0.949,5.589,2.982,5.757,5.806s-0.898,3.967-0.898,3.967l-0.911-0.229
			c0,0,2.836-4.199-0.345-7.083c-2.82-2.559-5.708-1.099-8.284-3.498c-2.576-2.4,1.464-7.808,1.961-8.783
			c0.473-0.924,1.017-2.275,0.71-2.903L14.29,4.56C14.29,4.56,14.391,5.973,13.688,7.238z"/>
		<path stroke="#000000" stroke-width="0.4" stroke-miterlimit="10" d="M7.043,5.294c0,0-0.716,2.035,4.158,3.788
			c4.873,1.753,6.38,2.389,6.756,4.001c0.646,2.774-1.459,5.784-2.003,6.872c-0.543,1.089-1.816,2.739-0.925,3.089
			c0.894,0.349,3.808,0.322,6.162,2.039l-0.419,0.904c0,0-1.869-1.184-4.349-1.72c-2.484-0.539-3.091-1.056-2.09-3.264
			c1-2.203,3.853-5.484,2.85-8.251c-0.438-1.202-5.377-2.492-6.37-2.933C9.778,9.36,6.77,8.212,6.616,6.009L7.043,5.294z"/>
		<line fill="none" stroke="#000000" stroke-width="0.4" stroke-miterlimit="10" x1="10.691" y1="14.462" x2="16.749" y2="11.856"/>
		<line fill="none" stroke="#000000" stroke-width="0.4" stroke-miterlimit="10" x1="11.291" y1="15.272" x2="17.349" y2="12.667"/>
		<line fill="none" stroke="#000000" stroke-width="0.4" stroke-miterlimit="10" x1="14.822" y1="23.228" x2="20.836" y2="20.525"/>
		<line fill="none" stroke="#000000" stroke-width="0.4" stroke-miterlimit="10" x1="7.082" y1="6.305" x2="14.03" y2="5.012"/>
		<line fill="none" stroke="#000000" stroke-width="0.4" stroke-miterlimit="10" x1="12.029" y1="16.026" x2="17.624" y2="13.67"/>
		<line fill="none" stroke="#000000" stroke-width="0.4" stroke-miterlimit="10" x1="14.629" y1="21.978" x2="20.352" y2="19.956"/>
		<line fill="none" stroke="#000000" stroke-width="0.4" stroke-miterlimit="10" x1="10.53" y1="13.562" x2="16.125" y2="11.205"/>
		<line fill="none" stroke="#000000" stroke-width="0.4" stroke-miterlimit="10" x1="16.184" y1="23.796" x2="20.973" y2="21.284"/>
		<line fill="none" stroke="#000000" stroke-width="0.4" stroke-miterlimit="10" x1="8.063" y1="7.621" x2="13.797" y2="5.627"/>
		<line fill="none" stroke="#000000" stroke-width="0.4" stroke-miterlimit="10" x1="12.895" y1="16.508" x2="17.703" y2="14.59"/>
		<line fill="none" stroke="#000000" stroke-width="0.4" stroke-miterlimit="10" x1="17.541" y1="24.147" x2="21.156" y2="22.167"/>
		<line fill="none" stroke="#000000" stroke-width="0.4" stroke-miterlimit="10" x1="14.899" y1="20.695" x2="19.897" y2="19.349"/>
		<line fill="none" stroke="#000000" stroke-width="0.4" stroke-miterlimit="10" x1="10.465" y1="12.615" x2="15.274" y2="10.698"/>
		<line fill="none" stroke="#000000" stroke-width="0.4" stroke-miterlimit="10" x1="8.796" y1="8.505" x2="13.577" y2="6.516"/>
		<line fill="none" stroke="#000000" stroke-width="0.4" stroke-miterlimit="10" x1="14.265" y1="17.081" x2="17.395" y2="15.872"/>
		<line fill="none" stroke="#000000" stroke-width="0.4" stroke-miterlimit="10" x1="15.568" y1="19.299" x2="18.834" y2="18.539"/>
		<line fill="none" stroke="#000000" stroke-width="0.4" stroke-miterlimit="10" x1="11.002" y1="11.539" x2="14.132" y2="10.331"/>
		<line fill="none" stroke="#000000" stroke-width="0.4" stroke-miterlimit="10" x1="18.079" y1="24.531" x2="21.21" y2="23.324"/>
		<line fill="none" stroke="#000000" stroke-width="0.4" stroke-miterlimit="10" x1="9.877" y1="9.383" x2="12.856" y2="7.844"/>
	</g>
	<linearGradient id="SVGID_3_" gradientUnits="userSpaceOnUse" x1="15.3994" y1="12.4697" x2="15.3994" y2="-1.5225">
		<stop  offset="0" style="stop-color:#FFFFFF"/>
		<stop  offset="1" style="stop-color:#FFFFFF;stop-opacity:0"/>
	</linearGradient>
	<path opacity="0.65" clip-path="url(#SVGID_2_)" fill="url(#SVGID_3_)" d="M0.298,12.3c0,0,12.798-11.092,30.203,0.17
		c0,0-0.768-13.992-15.613-13.992S0.298,12.3,0.298,12.3z"/>
	<linearGradient id="SVGID_4_" gradientUnits="userSpaceOnUse" x1="15.0229" y1="31.666" x2="15.0229" y2="17.6758">
		<stop  offset="0" style="stop-color:#000000;stop-opacity:0"/>
		<stop  offset="0.7758" style="stop-color:#000000;stop-opacity:0.9636"/>
		<stop  offset="1" style="stop-color:#000000"/>
	</linearGradient>
	<path opacity="0.5" clip-path="url(#SVGID_2_)" fill="url(#SVGID_4_)" d="M29.733,17.846c0,0-12.03,11.091-29.436-0.17
		c0,0,0.769,13.99,15.614,13.99C30.757,31.666,29.733,17.846,29.733,17.846z"/>
	<use xlink:href="#SVGID_1_"  overflow="visible" fill="none" stroke="#000000" stroke-width="0.25" stroke-miterlimit="10"/>
</g>
</svg>
