<?xml version="1.0" encoding="utf-8"?>
<!-- Generator: Adobe Illustrator 15.0.2, SVG Export Plug-In . SVG Version: 6.00 Build 0)  -->
<!DOCTYPE svg PUBLIC "-//W3C//DTD SVG 1.1//EN" "http://www.w3.org/Graphics/SVG/1.1/DTD/svg11.dtd">
<svg version="1.1" id="Capa_1" xmlns="http://www.w3.org/2000/svg" xmlns:xlink="http://www.w3.org/1999/xlink" x="0px" y="0px"
	 width="30px" height="30px" viewBox="0 0 30 30" enable-background="new 0 0 30 30" xml:space="preserve">
<g>
	<g>
		<circle id="SVGID_1_" fill="#FF9100" cx="15.018" cy="15.026" r="13.682"/>
	</g>
	<g>
		<defs>
			<circle id="SVGID_3_" cx="15.018" cy="15.026" r="13.682"/>
		</defs>
		<clipPath id="SVGID_4_">
			<use xlink:href="#SVGID_3_"  overflow="visible"/>
		</clipPath>
		<g id="XMLID_3_" clip-path="url(#SVGID_4_)">
			<g>
				<path d="M24.71,11.52c-0.28-0.02-0.38,0.13-0.69,0.07C23.811,11.16,24.66,11.12,24.71,11.52z"/>
				<path d="M22.79,10.98c0.03-0.38,0.71-0.41,1.03-0.28C23.71,11.1,23.12,11.16,22.79,10.98z"/>
				<path d="M23.471,15.77c-0.5-0.318-1,0.092-1.841,0c0.091-0.298,0.649-0.129,0.89-0.278c-0.26-0.42-0.84-0.53-1.1-0.96
					c0.09,0,0.18,0,0.28,0c-0.08-0.19-0.28-0.26-0.479-0.34c-0.061-0.22,0.221-0.09,0.199-0.27c-0.01-0.18-0.1-0.27-0.27-0.27
					c-0.301,0.09,0.06,0.42-0.211,0.54c-0.149,0.02-0.221-0.05-0.199-0.2c-0.221,0.25-0.25,0.43-0.211,0.82
					c-0.119-0.01-0.141,0.08-0.271,0.07c-0.149-0.16-0.05-0.45,0.142-0.48c-0.03-0.13-0.271-0.06-0.211-0.28
					c0.09-0.16,0.25,0.08,0.271-0.06c-0.13-0.25-0.51-0.09-0.681,0.06c-0.149,0.15,0.091,0.26,0.201,0.35
					c-0.07,0.15-0.201,0.24-0.41,0.27c-0.062-0.07-0.131-0.14-0.2-0.21c-0.3,0-0.399,0.2-0.55,0.35c-0.521-0.23,0-0.47-0.682-0.62
					c-0.148,0.22-0.289,0.45-0.279,0.82c0.051,0.28,0.431,0.21,0.351,0.62c-0.16,0.09-0.39,0.109-0.55,0.199
					c-0.07,0.641,0.55,0.601,1.09,0.619c-0.01,0.121,0.09,0.142,0.07,0.271c-0.34,0.221-0.62-0.12-1.03-0.07
					c0.04,0.36,0.33,0.45,0.69,0.48c0.06,0.26,0.18,0.46,0.27,0.689c-0.29,0.159-0.67-0.08-0.891-0.211
					c0,0.73,1.33,0.67,1.851,1.102c0.3-0.03,0.569-0.021,0.479,0.34c-0.739-0.29-1.561-0.5-2.33-0.75
					c-0.359,0.129-0.56,0.439-0.68,0.818c0.67,1.061,1.711,1.761,2.391,2.801c-1.149-0.381-1.629-2.01-2.939-2.461
					c-0.05,0.011-0.07,0.07-0.13,0.07c0.61,1.391,1.71,2.289,2.46,3.561c0.221,0.029,0.141-0.34,0.34-0.141
					c0.061,0.221-0.06,0.26-0.14,0.34c0.108,0.279,0.771,0.301,0.479,0.75c-0.971-0.399-1.16-1.569-1.979-2.119
					c-0.08-0.561-0.49-0.78-0.75-1.16c0.04,0.3,0.149,0.529,0.34,0.68c-0.84-0.369-1.06-1.949-2.05-2.39
					c-0.09,0.021-0.11,0.12-0.21,0.14c0.19,1.021,0.829,1.59,0.89,2.73c-0.33-0.311-0.35-0.932-0.55-1.37
					c-0.21,0.021-0.11,0.34-0.13,0.55c-0.25,0.12-0.67,0.41-0.89,0.141c-0.17,0.039,0.01,0.42-0.14,0.479
					c-0.27-0.19,0.19-1.33-0.34-1.44c-0.27,0.121-0.46,0.19-0.62-0.068c-0.97,0.58-0.76,2.699-1.91,2.88
					c0.46-1.091,1.2-1.899,1.43-3.22c-1.26,0.199-1.41,1.51-2.12,2.26c-0.38-0.29,0.14-0.682,0.34-0.82
					c0.48-1.05,1.25-1.811,1.71-2.88c-0.29,0.14-1.12,0.34-1.3,0.819c-0.74-0.129-1.02,0.631-1.84,0.621
					c0.34-0.61,0.93-0.98,1.5-1.371c-0.2-0.279-0.35-0.609-0.55-0.891c-0.3-0.029-0.51,0.041-0.75,0.07
					c0.08-0.35-0.42-0.12-0.48-0.34c0.09-0.46,0.86-0.24,1.03-0.62c0.06-0.37-0.55-0.09-0.69-0.271
					c0.06-0.289,0.53-0.289,0.28-0.689c0.08-0.07,0.24-0.07,0.41-0.061C10.2,15.47,9.72,15.58,9.65,15.29
					c0.32-0.15,0.23-0.45,0.28-0.76c0.24-0.11,0.53,0.03,0.75,0.14c0.42-0.31-0.19-0.59-0.34-0.75c0.27-0.34-0.09-0.34-0.07-0.75
					c0.57-0.03,0.48,0.61,1.16,0.48c0.03-0.51-0.39-0.57-0.48-0.96c0.28-0.02,0.19,0.31,0.41,0.34c-0.14-0.27-0.33-0.49-0.41-0.82
					c0.31,0.22,0.47,0.58,0.69,0.89c0.01,0.26-0.06,0.02-0.21,0.07c0.07,0.13,0.12,0.29,0.28,0.34c0.16-0.021,0.15-0.21,0.27-0.28
					c-0.2-0.36-0.4-0.74-0.41-1.3c0.29-0.08,0.55-0.04,0.75,0c-0.01,0.18-0.27,0.1-0.27,0.28c-0.05,0.37,0.2,0.43,0.27,0.68
					c0.69,0.07,0.5-0.37,0.41-0.82c0.08,0.01,0.12-0.01,0.14-0.07c0.31-0.01,0.22,0.38,0.34,0.55c0.23-0.19-0.2-0.57,0-0.75
					c0.28-0.03,0.18,0.32,0.27,0.48c0.37-0.15-0.03-0.71,0.48-0.76c-0.05-0.19-0.42-0.08-0.54-0.2c-0.05-0.23,0.25-0.11,0.27-0.27
					c-0.06-0.13-0.24-0.13-0.34-0.21c0.12-0.08-0.04-0.45,0.27-0.34c-0.05-0.06-0.07-0.16-0.07-0.28c-0.24-0.14-0.51-0.25-0.89-0.27
					c0.19-0.21-0.18-0.27,0-0.41c0.24-0.03,0.08,0.33,0.28,0.34c0.15-0.04-0.09-0.1,0.07-0.2c0.21,0.06,0.28,0.26,0.54,0.27
					c0.09-0.18,0.21-0.34,0.28-0.55c-0.03-0.15-0.37,0-0.41-0.13c0.08-0.54-0.31-0.61-0.41-0.96c-0.39,0-0.271,0.51-0.62,0.55
					c-0.02-0.29,0.11-0.45,0.14-0.69c-0.16-0.24-0.39,0.23-0.55,0c0.23-0.24,0.07-0.4-0.21-0.48c0.29-0.4,0.16-1.03,0.62-1.37
					c0.03-0.48-0.36-0.55-0.41-0.95c0.35,0.12,0.47,0.48,0.62,0.82c0.8,0.23,0.34-0.79,0.88-0.82C13.42,5.71,13.29,6,13.35,6.46
					c0.29-0.01,0.34-0.25,0.55-0.34c-0.07-0.19-0.26,0.13-0.28-0.14c0.02-0.32,0.38-0.15,0.55-0.13c0.02,0.2-0.16,0.21-0.14,0.41
					c0.06,0.1,0.17,0.14,0.34,0.13c-0.14,0.41,0.06,0.54-0.2,0.96c0.08,0.4,0.5,0.46,0.75,0.68c-0.03-0.35-0.48-0.29-0.41-0.75
					c0.55,0.14,0.52,0.85,1.23,0.82c0.18-0.05,0.14-0.32,0.279-0.41c0.25-0.07,0.131,0.23,0.271,0.28
					c0.271-0.28,0.14-0.56,0.21-0.96c0.26,0.25,0.16,0.89,0.609,0.96c0.141-0.11,0.061-0.45,0.41-0.35
					C17.5,7.5,17.4,7.47,17.25,7.49c0.061-0.24,0.1-0.49,0.2-0.69c0.18,0.1,0.159,0.4,0.34,0.48c0.08,0.26-0.14,0.22-0.2,0.34
					c0.03,0.09,0.09,0.14,0.2,0.14c0.16-0.03,0.03-0.34,0.069-0.48c0.641-0.14,0.779-1.13,1.229-1.23
					c-0.26,0.61-0.46,1.27-0.95,1.64c-0.148,0.62,0.28,0.9,0.75,0.69c0.53,0.26,0.131,1.05,0.82,1.09c0.029-0.23-0.3-0.11-0.2-0.41
					c0.05-0.06,0.181-0.04,0.2-0.14c0.189,0.01,0.16,0.33,0.07,0.41c0.238,0.04,0.17-0.24,0.41-0.2c0.26,0.49,0,1.09,0.619,1.23
					c0.239-0.16,0.141-0.68,0.409-0.82c0.421,0.35-0.31,0.81,0.062,1.16c-0.102,0.11-0.391,0.1-0.34-0.13
					c-0.15,0.09-0.381,0.12-0.342,0.41c0.012,0.19,0.471-0.06,0.48,0.13c0.09,0.27-0.16,0.21-0.34,0.21
					c0.06,0.53,0.8,0.38,0.818,0.96c0.16,0.02,0.15-0.13,0.342-0.07c-0.201,0.42,0.188,0.38,0.408,0.55
					c0.041,0.31-0.369,0.17-0.609,0.2c-0.119,0.46,0.221,0.46,0.271,0.75c-0.271-0.04-0.18,0.29-0.34,0.35
					c0.5,0.36,0.54,1.19,1.229,1.36c0.189-0.06-0.101-0.18,0.07-0.27C23.09,15.37,23.471,15.38,23.471,15.77z"/>
				<path d="M22.311,7.83C22.42,7.81,22.43,7.89,22.52,7.9c-0.02,0.21-0.289,0.37-0.41,0.27C22.15,8.03,22.25,7.95,22.311,7.83z"/>
				<path d="M21.76,21.58c-0.01,0.21,0.16,0.391,0,0.55C21.46,22.21,21.46,21.5,21.76,21.58z"/>
				<path d="M21.561,5.09c0.021,0.36-0.319,0.36-0.41,0.62C21.01,5.5,21.33,5.16,21.561,5.09z"/>
				<path d="M21.49,8.99c0.05,0.31-0.12,0.38-0.34,0.41C21.12,9.12,21.221,8.97,21.49,8.99z"/>
				<path d="M21.279,22.609c0.029,0.141-0.039,0.181-0.061,0.271c-0.119-0.01-0.16-0.12-0.14-0.271
					C21.15,22.609,21.221,22.609,21.279,22.609z"/>
				<path d="M20.46,15.49c0.24,0.02,0.3,0.21,0.351,0.411C20.6,15.859,20.46,15.75,20.46,15.49z"/>
				<path d="M20.4,8.79C20.43,9,20.34,9.09,20.12,9.06C20.09,8.85,20.18,8.76,20.4,8.79z"/>
				<path d="M20.811,16.25c-0.391,0.38-0.83,0.26-1.17,0.061C19.87,16.09,20.33,16.25,20.811,16.25z"/>
				<path d="M20.189,5.64c0.021,0.22-0.08,0.33-0.271,0.34c-0.149-0.14-0.021-0.3,0.062-0.41C20.09,5.55,20.1,5.64,20.189,5.64z"/>
				<path d="M19.92,7.08c0.311,0.16-0.199,0.47-0.41,0.54C19.55,7.35,19.8,7.28,19.92,7.08z"/>
				<path d="M18.55,15.49c0.229-0.32,0.761-0.68,1.229-0.54c-0.039,0.54-0.689,0.09-0.689,0.6C18.93,15.38,18.79,15.45,18.55,15.49z
					"/>
				<path d="M19.439,5.85c0.061,0.21-0.109,0.21-0.141,0.34c-0.189,0-0.16-0.33-0.068-0.41C19.34,5.76,19.35,5.84,19.439,5.85z"/>
				<path d="M18.891,8.03C19.061,7.9,19.3,7.85,19.37,8.1c-0.03,0.2-0.149,0.32-0.341,0.35C18.971,8.32,18.84,8.27,18.891,8.03z"/>
				<path d="M12.46,8.92c0.25,0,0.55-0.05,0.48,0.28C12.68,9.2,12.38,9.25,12.46,8.92z"/>
				<path d="M12.94,10.63c0.06,0.3-0.17,0.3-0.41,0.28c0-0.07,0-0.14,0-0.21C12.61,10.62,12.77,10.63,12.94,10.63z"/>
				<path d="M12.05,9.27c0.25-0.01,0.55-0.06,0.48,0.27c-0.28-0.09-0.22,0.15-0.41,0.14C12.17,9.47,12,9.48,12.05,9.27z"/>
				<path d="M11.84,9.61c0.4,1.43-1.61,1.92-1.91,0.61c-0.25,0.02-0.48,0.02-0.41-0.27c0.25-0.02,0.44,0.01,0.61,0.07
					c0.01-0.21-0.21-0.2-0.13-0.48c0.18,0.05,0.13-0.14,0.2-0.21c0.17-0.01,0.28,0.04,0.34,0.14c0.3-0.1,0.04-0.5,0.07-0.75
					c0.31-0.03,0.15,0.4,0.34,0.48c0.13-0.41,0.38,0.12,0.41-0.28C11.67,9,11.3,9.77,11.84,9.61z"/>
				<path d="M11.43,6.87c0.1-0.11,0.39-0.1,0.34,0.14C11.67,7.12,11.38,7.11,11.43,6.87z"/>
				<path d="M9.86,22.88C9.94,22.87,9.98,22.9,10,22.95c-0.15,0.35-0.25,0.76-0.62,0.89C9.44,23.42,9.66,23.16,9.86,22.88z"/>
				<path d="M9.58,11.87c0,0.09,0,0.18,0,0.27c-0.08,0.09-0.29,0.07-0.47,0.07C9.08,11.92,9.34,11.67,9.58,11.87z"/>
				<path d="M9.45,15.42c0.07,0.43-0.55,0.53-0.75,0.28C8.6,15.24,9.31,15.04,9.45,15.42z"/>
				<path d="M9.38,20.01c0.01,0.17,0.01,0.33-0.07,0.41c-0.19,0.061-0.18-0.1-0.34-0.07c-0.01-0.17-0.01-0.33,0.07-0.408
					C9.2,19.92,9.3,19.95,9.38,20.01z"/>
				<path d="M9.24,13.78c0.1,0.22-0.39,0.33-0.34,0.07C8.98,13.79,9.08,13.76,9.24,13.78z"/>
				<path d="M8.63,8.79c0.02,0.18-0.1,0.22-0.28,0.2C8.32,8.85,8.4,8.81,8.42,8.72C8.53,8.7,8.54,8.78,8.63,8.79z"/>
				<path d="M8.42,16.45c0,0.09,0,0.18,0,0.271c-0.25,0.01-0.19,0.079-0.41,0C8.02,16.5,8.17,16.42,8.42,16.45z"/>
				<path d="M8.15,15.29c0.16-0.21,0.35-0.38,0.68-0.41C8.76,15.14,8.31,15.33,8.15,15.29z"/>
				<path d="M8.01,9.06c0.28,0.05,0.2,0.44,0.21,0.75C7.95,9.83,7.69,9.9,7.46,9.75C7.48,9.35,7.85,9.31,8.01,9.06z"/>
				<path d="M8.08,7.42c0.09,0.41-0.46,0.3-0.41,0C7.81,7.42,7.94,7.42,8.08,7.42z"/>
				<path d="M8.15,22.811c-0.04,0.279-0.29,0.351-0.41,0.551C7.57,23.141,7.94,22.88,8.15,22.811z"/>
				<path d="M7.05,12.28c0.01,0.2-0.24,0.17-0.41,0.2c-0.03-0.11-0.21-0.06-0.13-0.27C6.67,12.25,7,12.12,7.05,12.28z"/>
				<path d="M6.92,13.85c0.07,0.24-0.42,0.18-0.28-0.07C6.75,13.79,6.9,13.75,6.92,13.85z"/>
				<path d="M6.51,16.04c0.32,0.01,0.37-0.261,0.68-0.271C7.15,16.12,6.65,16,6.57,16.311C6.48,16.29,6.52,16.141,6.51,16.04z"/>
				<path d="M6.57,8.45C6.52,8.68,6.23,8.68,6.03,8.58C5.99,8.17,6.47,8.19,6.57,8.45z"/>
				<path d="M5.62,13.99c-0.15-0.47,0.54-0.54,0.61-0.21C6.23,14.09,5.84,14.09,5.62,13.99z"/>
			</g>
		</g>
	</g>
	<g>
		<defs>
			<circle id="SVGID_5_" cx="15.018" cy="15.026" r="13.682"/>
		</defs>
		<clipPath id="SVGID_6_">
			<use xlink:href="#SVGID_5_"  overflow="visible"/>
		</clipPath>
		<linearGradient id="SVGID_7_" gradientUnits="userSpaceOnUse" x1="15.3677" y1="12.4897" x2="15.3677" y2="-1.5352">
			<stop  offset="0" style="stop-color:#FFFFFF"/>
			<stop  offset="1" style="stop-color:#FFFFFF;stop-opacity:0"/>
		</linearGradient>
		<path opacity="0.65" clip-path="url(#SVGID_6_)" fill="url(#SVGID_7_)" d="M0.232,12.319c0,0,12.828-11.117,30.271,0.171
			c0,0-0.771-14.025-15.649-14.025C-0.025-1.535,0.232,12.319,0.232,12.319z"/>
	</g>
	<g>
		<defs>
			<circle id="SVGID_8_" cx="15.018" cy="15.026" r="13.682"/>
		</defs>
		<clipPath id="SVGID_9_">
			<use xlink:href="#SVGID_8_"  overflow="visible"/>
		</clipPath>
		<linearGradient id="SVGID_10_" gradientUnits="userSpaceOnUse" x1="14.9907" y1="31.7305" x2="14.9907" y2="17.707">
			<stop  offset="0" style="stop-color:#000000;stop-opacity:0"/>
			<stop  offset="0.7758" style="stop-color:#000000;stop-opacity:0.9636"/>
			<stop  offset="1" style="stop-color:#000000"/>
		</linearGradient>
		<path opacity="0.5" clip-path="url(#SVGID_9_)" fill="url(#SVGID_10_)" d="M29.734,17.878c0,0-12.059,11.117-29.502-0.171
			c0,0,0.77,14.023,15.648,14.023C30.762,31.73,29.734,17.878,29.734,17.878z"/>
	</g>
	<g>
		
			<circle id="SVGID_2_" fill="none" stroke="#000000" stroke-width="0.25" stroke-miterlimit="10" cx="15.018" cy="15.026" r="13.682"/>
	</g>
</g>
</svg>
