<?xml version="1.0" encoding="utf-8"?>
<!-- Generator: Adobe Illustrator 15.0.2, SVG Export Plug-In . SVG Version: 6.00 Build 0)  -->
<!DOCTYPE svg PUBLIC "-//W3C//DTD SVG 1.1//EN" "http://www.w3.org/Graphics/SVG/1.1/DTD/svg11.dtd">
<svg version="1.1" id="Capa_1" xmlns="http://www.w3.org/2000/svg" xmlns:xlink="http://www.w3.org/1999/xlink" x="0px" y="0px"
	 width="30px" height="30px" viewBox="0 0 30 30" enable-background="new 0 0 30 30" xml:space="preserve">
<g>
	<g>
		<circle id="SVGID_1_" fill="#00714B" cx="15" cy="15" r="13.656"/>
	</g>
	<g>
		<defs>
			<circle id="SVGID_3_" cx="15" cy="15" r="13.656"/>
		</defs>
		<clipPath id="SVGID_4_">
			<use xlink:href="#SVGID_3_"  overflow="visible"/>
		</clipPath>
		<path clip-path="url(#SVGID_4_)" d="M8.31,17.604c0,2.646,0,5.291,0,7.938c2.924,0,5.849,0,8.773,0
			c-0.011-0.411-0.207-0.63-0.487-0.761c-0.935-2.043,0.989-3.393,2.111-4.561c0.279-0.291,0.633-0.548,0.895-0.845
			c0.543-0.614,0.955-1.004,1.299-1.772c0.111-0.148,0.39-0.148,0.488,0c-0.033,0.178,0.057,0.224,0.082,0.336
			c-0.068,0.576-1.091,0.164-1.058,0.847c0.399,0.524,1.142,0.032,1.543-0.169c0.542-0.646,0.528-2.346-0.162-3.041
			c-0.496-0.5-1.354-0.518-1.866-0.93c0.504-0.684,0.903-1.884,1.461-2.786c0.205-0.331,0.539-0.551,0.567-0.846
			c0.062-0.563-0.373-0.887-0.567-1.435c-0.057-0.16,0.127-0.413-0.162-0.508c0.299-0.328,0.4-0.84,0.649-1.184
			c0.054-0.073,0.222-0.048,0.325-0.168c0.051-0.06,0.023-0.282,0.08-0.338c0.146-0.14,0.453-0.067,0.488-0.337
			c0.035-1.19-0.354-1.941-0.895-2.535c-0.633,0.096-1.059-0.226-1.544-0.168c-0.582,0.068-0.981,0.605-1.543,0.929
			c-0.167,0.095-0.336,0.699-0.528,0.791c-0.472,0.229-0.854,0.229-1.584,0.265c-0.178,0.009-0.699,0.038-0.822,0.116
			c-0.771,0.494-1.187,0.491-2.192,0.655c-0.325,0.053-0.894,0.327-1.413,0.717c-0.188,0.144-0.198,0.093-0.365,0.243
			c-0.212,0.194-0.529,0.446-0.649,0.592c-0.816,0.978-0.987,2.712-1.381,4.054c-0.625,1.206-0.613,3.048-0.325,4.563
			C8.907,17.508,8.886,17.113,8.31,17.604z M19.033,8.733c0.179-0.042,0.32,0.164,0.563,0.454c0.102,0.122,0.422,0.052,0.422,0.052
			c0.026,0.04-0.188,0.091-0.137,0.248c0.208,0.651,0.539,1.307,0.532,1.526c-0.019,0.531-0.956,0.819-1.138,1.183
			C19.343,10.195,18.921,10.116,19.033,8.733z M14.321,14.562c0.366-1.03,0.944-1.249,1.272-2.108
			c0.187,0.256,0.031,1.781,0.47,2.108C15.473,14.522,15.047,14.781,14.321,14.562z M8.96,17.771
			c-0.049,0.006-0.096,0.013-0.082,0.084c-0.055,0-0.108,0-0.162,0C8.59,17.648,8.992,17.605,8.96,17.771z"/>
	</g>
	<g>
		<defs>
			<circle id="SVGID_5_" cx="15" cy="15" r="13.656"/>
		</defs>
		<clipPath id="SVGID_6_">
			<use xlink:href="#SVGID_5_"  overflow="visible"/>
		</clipPath>
		<linearGradient id="SVGID_7_" gradientUnits="userSpaceOnUse" x1="15.4004" y1="12.4692" x2="15.4004" y2="-1.5288">
			<stop  offset="0" style="stop-color:#FFFFFF"/>
			<stop  offset="1" style="stop-color:#FFFFFF;stop-opacity:0"/>
		</linearGradient>
		<path opacity="0.65" clip-path="url(#SVGID_6_)" fill="url(#SVGID_7_)" d="M0.293,12.298c0,0,12.803-11.096,30.215,0.171
			c0,0-0.77-13.998-15.62-13.998C0.037-1.529,0.293,12.298,0.293,12.298z"/>
	</g>
	<g>
		<defs>
			<circle id="SVGID_8_" cx="15" cy="15" r="13.656"/>
		</defs>
		<clipPath id="SVGID_9_">
			<use xlink:href="#SVGID_8_"  overflow="visible"/>
		</clipPath>
		<linearGradient id="SVGID_10_" gradientUnits="userSpaceOnUse" x1="15.0229" y1="31.6729" x2="15.0229" y2="17.6758">
			<stop  offset="0" style="stop-color:#000000;stop-opacity:0"/>
			<stop  offset="0.7758" style="stop-color:#000000;stop-opacity:0.9636"/>
			<stop  offset="1" style="stop-color:#000000"/>
		</linearGradient>
		<path opacity="0.5" clip-path="url(#SVGID_9_)" fill="url(#SVGID_10_)" d="M29.738,17.848c0,0-12.033,11.094-29.445-0.172
			c0,0,0.768,13.997,15.619,13.997C30.764,31.673,29.738,17.848,29.738,17.848z"/>
	</g>
	<g>
		<circle id="SVGID_2_" fill="none" stroke="#000000" stroke-width="0.25" stroke-miterlimit="10" cx="15" cy="15" r="13.656"/>
	</g>
</g>
</svg>
