<?xml version="1.0" encoding="utf-8"?>
<!-- Generator: Adobe Illustrator 15.0.2, SVG Export Plug-In . SVG Version: 6.00 Build 0)  -->
<!DOCTYPE svg PUBLIC "-//W3C//DTD SVG 1.1//EN" "http://www.w3.org/Graphics/SVG/1.1/DTD/svg11.dtd">
<svg version="1.1" id="Capa_1" xmlns="http://www.w3.org/2000/svg" xmlns:xlink="http://www.w3.org/1999/xlink" x="0px" y="0px"
	 width="30px" height="30px" viewBox="0 0 30 30" enable-background="new 0 0 30 30" xml:space="preserve">
<g>
	<defs>
		<circle id="SVGID_9_" cx="15" cy="15" r="13.688"/>
	</defs>
	<use xlink:href="#SVGID_9_"  overflow="visible" fill="#000059"/>
	<clipPath id="SVGID_1_">
		<use xlink:href="#SVGID_9_"  overflow="visible"/>
	</clipPath>
	<g clip-path="url(#SVGID_1_)">
		<polygon fill="#FFFFFF" stroke="#000000" stroke-width="0.25" stroke-miterlimit="10" points="20.96,22.282 7.957,23.902 
			7.791,7.045 20.795,5.425 		"/>
		
			<line fill="none" stroke="#000000" stroke-width="0.25" stroke-miterlimit="10" x1="19.484" y1="18.142" x2="16.761" y2="18.479"/>
		<line fill="none" stroke="#000000" stroke-width="0.25" stroke-miterlimit="10" x1="19.842" y1="7.115" x2="15.348" y2="7.675"/>
		<line fill="none" stroke="#000000" stroke-width="0.25" stroke-miterlimit="10" x1="8.656" y1="8.509" x2="13.104" y2="7.956"/>
		<g>
			
				<line fill="none" stroke="#000000" stroke-width="0.25" stroke-miterlimit="10" x1="10.314" y1="10.482" x2="13.422" y2="10.094"/>
			<line fill="none" stroke="#000000" stroke-width="0.25" stroke-miterlimit="10" x1="16.625" y1="9.695" x2="17.915" y2="9.536"/>
		</g>
		<g>
			
				<line fill="none" stroke="#000000" stroke-width="0.25" stroke-miterlimit="10" x1="10.32" y1="11.043" x2="13.427" y2="10.657"/>
			
				<line fill="none" stroke="#000000" stroke-width="0.25" stroke-miterlimit="10" x1="16.628" y1="10.257" x2="17.922" y2="10.097"/>
		</g>
		<g>
			
				<line fill="none" stroke="#000000" stroke-width="0.25" stroke-miterlimit="10" x1="10.324" y1="11.606" x2="13.432" y2="11.219"/>
			
				<line fill="none" stroke="#000000" stroke-width="0.25" stroke-miterlimit="10" x1="16.636" y1="10.82" x2="17.929" y2="10.659"/>
		</g>
		<g>
			
				<line fill="none" stroke="#000000" stroke-width="0.25" stroke-miterlimit="10" x1="10.331" y1="12.167" x2="13.438" y2="11.781"/>
			
				<line fill="none" stroke="#000000" stroke-width="0.25" stroke-miterlimit="10" x1="16.642" y1="11.382" x2="17.933" y2="11.221"/>
		</g>
		<g>
			
				<line fill="none" stroke="#000000" stroke-width="0.25" stroke-miterlimit="10" x1="10.403" y1="14.667" x2="13.512" y2="14.279"/>
			
				<line fill="none" stroke="#000000" stroke-width="0.25" stroke-miterlimit="10" x1="16.714" y1="13.88" x2="18.005" y2="13.719"/>
		</g>
		<g>
			
				<line fill="none" stroke="#000000" stroke-width="0.25" stroke-miterlimit="10" x1="10.412" y1="15.299" x2="13.516" y2="14.912"/>
			
				<line fill="none" stroke="#000000" stroke-width="0.25" stroke-miterlimit="10" x1="16.721" y1="14.512" x2="18.012" y2="14.352"/>
		</g>
		<g>
			
				<line fill="none" stroke="#000000" stroke-width="0.25" stroke-miterlimit="10" x1="10.416" y1="15.931" x2="13.523" y2="15.544"/>
			
				<line fill="none" stroke="#000000" stroke-width="0.25" stroke-miterlimit="10" x1="16.727" y1="15.145" x2="18.019" y2="14.982"/>
		</g>
		<g>
			
				<line fill="none" stroke="#000000" stroke-width="0.25" stroke-miterlimit="10" x1="10.424" y1="16.563" x2="13.528" y2="16.175"/>
			
				<line fill="none" stroke="#000000" stroke-width="0.25" stroke-miterlimit="10" x1="16.733" y1="15.776" x2="18.024" y2="15.616"/>
		</g>
	</g>
	<linearGradient id="SVGID_2_" gradientUnits="userSpaceOnUse" x1="15" y1="12.4614" x2="15" y2="-1.5679">
		<stop  offset="0" style="stop-color:#FFFFFF"/>
		<stop  offset="1" style="stop-color:#FFFFFF;stop-opacity:0"/>
	</linearGradient>
	<path opacity="0.65" clip-path="url(#SVGID_1_)" fill="url(#SVGID_2_)" d="M-0.142,12.291c0,0,12.832-11.121,30.283,0.171
		c0,0-0.77-14.029-15.655-14.029C-0.398-1.568-0.142,12.291-0.142,12.291z"/>
	<linearGradient id="SVGID_3_" gradientUnits="userSpaceOnUse" x1="15.0005" y1="31.71" x2="15.0005" y2="17.6797">
		<stop  offset="0" style="stop-color:#000000;stop-opacity:0"/>
		<stop  offset="0.7758" style="stop-color:#000000;stop-opacity:0.9636"/>
		<stop  offset="1" style="stop-color:#000000"/>
	</linearGradient>
	<path opacity="0.5" clip-path="url(#SVGID_1_)" fill="url(#SVGID_3_)" d="M29.75,17.852c0,0-12.062,11.121-29.514-0.172
		c0,0,0.77,14.03,15.655,14.03C30.776,31.71,29.75,17.852,29.75,17.852z"/>
	<use xlink:href="#SVGID_9_"  overflow="visible" fill="none" stroke="#000000" stroke-width="0.25" stroke-miterlimit="10"/>
</g>
</svg>
