<?xml version="1.0" encoding="utf-8"?>
<!-- Generator: Adobe Illustrator 15.0.2, SVG Export Plug-In . SVG Version: 6.00 Build 0)  -->
<!DOCTYPE svg PUBLIC "-//W3C//DTD SVG 1.1//EN" "http://www.w3.org/Graphics/SVG/1.1/DTD/svg11.dtd">
<svg version="1.1" id="Capa_1" xmlns="http://www.w3.org/2000/svg" xmlns:xlink="http://www.w3.org/1999/xlink" x="0px" y="0px"
	 width="30px" height="30px" viewBox="0 0 30 30" enable-background="new 0 0 30 30" xml:space="preserve">
<g>
	<defs>
		<circle id="SVGID_1_" cx="15" cy="15" r="13.625"/>
	</defs>
	<linearGradient id="SVGID_2_" gradientUnits="userSpaceOnUse" x1="15.0005" y1="28.625" x2="15.0005" y2="1.3755">
		<stop  offset="0" style="stop-color:#CE291A"/>
		<stop  offset="0.0652" style="stop-color:#D7564A"/>
		<stop  offset="0.1469" style="stop-color:#E2877F"/>
		<stop  offset="0.227" style="stop-color:#EAB0AB"/>
		<stop  offset="0.3037" style="stop-color:#F1D0CD"/>
		<stop  offset="0.3761" style="stop-color:#F6E7E6"/>
		<stop  offset="0.4423" style="stop-color:#F9F5F5"/>
		<stop  offset="0.497" style="stop-color:#FAFAFA"/>
		<stop  offset="0.559" style="stop-color:#F6F8F9"/>
		<stop  offset="0.6225" style="stop-color:#EAF3F7"/>
		<stop  offset="0.6868" style="stop-color:#D5EAF3"/>
		<stop  offset="0.7516" style="stop-color:#B8DDEE"/>
		<stop  offset="0.8169" style="stop-color:#93CDE7"/>
		<stop  offset="0.8825" style="stop-color:#66B9DF"/>
		<stop  offset="0.9471" style="stop-color:#31A2D6"/>
		<stop  offset="1" style="stop-color:#008DCD"/>
	</linearGradient>
	<use xlink:href="#SVGID_1_"  overflow="visible" fill="url(#SVGID_2_)"/>
	<clipPath id="SVGID_3_">
		<use xlink:href="#SVGID_1_"  overflow="visible"/>
	</clipPath>
	<linearGradient id="SVGID_4_" gradientUnits="userSpaceOnUse" x1="15.3984" y1="12.4741" x2="15.3984" y2="-1.4917">
		<stop  offset="0" style="stop-color:#FFFFFF"/>
		<stop  offset="1" style="stop-color:#FFFFFF;stop-opacity:0"/>
	</linearGradient>
	<path opacity="0.65" clip-path="url(#SVGID_3_)" fill="url(#SVGID_4_)" d="M0.326,12.303c0,0,12.773-11.07,30.145,0.171
		c0,0-0.766-13.966-15.582-13.966C0.071-1.492,0.326,12.303,0.326,12.303z"/>
	<linearGradient id="SVGID_5_" gradientUnits="userSpaceOnUse" x1="15.0229" y1="31.6338" x2="15.0229" y2="17.6689">
		<stop  offset="0" style="stop-color:#000000;stop-opacity:0"/>
		<stop  offset="0.7758" style="stop-color:#000000;stop-opacity:0.9636"/>
		<stop  offset="1" style="stop-color:#000000"/>
	</linearGradient>
	<path opacity="0.5" clip-path="url(#SVGID_3_)" fill="url(#SVGID_5_)" d="M29.705,17.84c0,0-12.008,11.07-29.379-0.171
		c0,0,0.767,13.965,15.584,13.965C30.727,31.634,29.705,17.84,29.705,17.84z"/>
	<g id="XMLID_2_" clip-path="url(#SVGID_3_)">
		<g>
			<path fill="#AE0F0A" d="M22.975,10.702c0,0,0.783,3.485,0,5.927c-0.568,1.786,0,3.827,0,3.827s-2.395,1.746-5.793-0.274
				l0.014-0.021c0,0-0.401-2.843,0.481-4.615c0.869-1.76,0.188-4.75,0.188-4.75C20.895,12.214,22.975,10.702,22.975,10.702z"/>
			<path fill="#FFFFFF" d="M11.034,19.098c0,0-0.548-2.047,0.161-3.994c0.709-1.94,0.776-4.663,0.421-5.76
				c1.927-0.067,4.007,0.134,5.458,1.023c0.268,0.167,0.535,0.308,0.79,0.428c0,0,0.682,2.99-0.188,4.75
				c-0.883,1.772-0.481,4.615-0.481,4.615l-0.014,0.021c-0.033-0.014-0.073-0.04-0.107-0.061c-1.599-0.977-3.96-1.124-6.041-0.996
				V19.098z"/>
			<path fill="#0076C0" d="M6.585,19.787c0,0-0.629-1.92,0-4.402c0.763-2.957,0-5.352,0-5.352s2.368-0.602,5.031-0.689
				c0.354,1.097,0.288,3.82-0.421,5.76c-0.709,1.947-0.161,3.994-0.161,3.994v0.027C8.619,19.271,6.585,19.787,6.585,19.787z"/>
		</g>
		<g>
			<path fill="none" stroke="#000000" stroke-width="0.15" stroke-miterlimit="10" d="M17.864,10.796
				c3.03,1.418,5.11-0.094,5.11-0.094s0.783,3.485,0,5.927c-0.568,1.786,0,3.827,0,3.827s-2.395,1.746-5.793-0.274
				c-0.033-0.014-0.073-0.04-0.107-0.061c-1.599-0.977-3.96-1.124-6.041-0.996c-2.415,0.146-4.449,0.662-4.449,0.662
				s-0.629-1.92,0-4.402c0.763-2.957,0-5.352,0-5.352s2.368-0.602,5.031-0.689c1.927-0.067,4.007,0.134,5.458,1.023
				C17.342,10.535,17.609,10.676,17.864,10.796z"/>
			<path fill="none" stroke="#000000" stroke-width="0.15" stroke-miterlimit="10" d="M11.034,19.098c0,0-0.548-2.047,0.161-3.994
				c0.709-1.94,0.776-4.663,0.421-5.76c-0.007-0.007-0.007-0.007-0.007-0.013"/>
			<path fill="none" stroke="#000000" stroke-width="0.15" stroke-miterlimit="10" d="M17.195,20.161c0,0-0.401-2.843,0.481-4.615
				c0.869-1.76,0.188-4.75,0.188-4.75"/>
		</g>
	</g>
	<use xlink:href="#SVGID_1_"  overflow="visible" fill="none" stroke="#000000" stroke-width="0.25" stroke-miterlimit="10"/>
</g>
</svg>
