<?xml version="1.0" encoding="utf-8"?>
<!-- Generator: Adobe Illustrator 15.0.2, SVG Export Plug-In . SVG Version: 6.00 Build 0)  -->
<!DOCTYPE svg PUBLIC "-//W3C//DTD SVG 1.1//EN" "http://www.w3.org/Graphics/SVG/1.1/DTD/svg11.dtd">
<svg version="1.1" id="Capa_1" xmlns="http://www.w3.org/2000/svg" xmlns:xlink="http://www.w3.org/1999/xlink" x="0px" y="0px"
	 width="30px" height="30px" viewBox="0 0 30 30" enable-background="new 0 0 30 30" xml:space="preserve">
<g>
	<defs>
		<circle id="SVGID_1_" cx="15" cy="15" r="13.656"/>
	</defs>
	<use xlink:href="#SVGID_1_"  overflow="visible" fill="#7AFFFF"/>
	<clipPath id="SVGID_2_">
		<use xlink:href="#SVGID_1_"  overflow="visible"/>
	</clipPath>
	<g id="XMLID_5_" clip-path="url(#SVGID_2_)">
		<g>
			<path fill="#14D9FF" d="M15.688,15.963c11.389,0,15.145-16.497,15.145-16.497v30.945H0.789
				C0.789,30.411,4.313,15.963,15.688,15.963z"/>
			<path fill="#FF2600" d="M30.833-0.534c0,0-3.756,16.497-15.145,16.497c-11.376,0-14.899,14.448-14.899,14.448V-0.534H30.833z"/>
		</g>
		<g>
		</g>
	</g>
	<linearGradient id="SVGID_3_" gradientUnits="userSpaceOnUse" x1="15" y1="12.4688" x2="15" y2="-1.5288">
		<stop  offset="0" style="stop-color:#FFFFFF"/>
		<stop  offset="1" style="stop-color:#FFFFFF;stop-opacity:0"/>
	</linearGradient>
	<path opacity="0.65" clip-path="url(#SVGID_2_)" fill="url(#SVGID_3_)" d="M-0.107,12.298c0,0,12.803-11.096,30.215,0.171
		c0,0-0.769-13.998-15.619-13.998C-0.363-1.529-0.107,12.298-0.107,12.298z"/>
	<linearGradient id="SVGID_4_" gradientUnits="userSpaceOnUse" x1="15.001" y1="31.6729" x2="15.001" y2="17.6748">
		<stop  offset="0" style="stop-color:#000000;stop-opacity:0"/>
		<stop  offset="0.7758" style="stop-color:#000000;stop-opacity:0.9636"/>
		<stop  offset="1" style="stop-color:#000000"/>
	</linearGradient>
	<path opacity="0.5" clip-path="url(#SVGID_2_)" fill="url(#SVGID_4_)" d="M29.717,17.846c0,0-12.035,11.096-29.447-0.171
		c0,0,0.769,13.998,15.62,13.998C30.74,31.673,29.717,17.846,29.717,17.846z"/>
	<use xlink:href="#SVGID_1_"  overflow="visible" fill="none" stroke="#000000" stroke-width="0.25" stroke-miterlimit="10"/>
</g>
</svg>
