<?xml version="1.0" encoding="utf-8"?>
<!-- Generator: Adobe Illustrator 15.0.2, SVG Export Plug-In . SVG Version: 6.00 Build 0)  -->
<!DOCTYPE svg PUBLIC "-//W3C//DTD SVG 1.1//EN" "http://www.w3.org/Graphics/SVG/1.1/DTD/svg11.dtd">
<svg version="1.1" id="Capa_1" xmlns="http://www.w3.org/2000/svg" xmlns:xlink="http://www.w3.org/1999/xlink" x="0px" y="0px"
	 width="30px" height="30px" viewBox="0 0 30 30" enable-background="new 0 0 30 30" xml:space="preserve">
<g>
	<defs>
		<circle id="SVGID_1_" cx="15" cy="15" r="13.613"/>
	</defs>
	<use xlink:href="#SVGID_1_"  overflow="visible" fill="#D7C400"/>
	<clipPath id="SVGID_2_">
		<use xlink:href="#SVGID_1_"  overflow="visible"/>
	</clipPath>
	<g clip-path="url(#SVGID_2_)">
		<g>
			<path d="M25.629,22.867l-8.878-3.828c0,0-1.39-1.111-2.862,0l-9.715,3.1V8.675l9.715-3.1c1.473-1.11,2.862,0,2.862,0l8.878,3.828
				V22.867z"/>
			<path fill="#FAF5C0" stroke="#000000" stroke-width="0.1" stroke-miterlimit="10" d="M16.25,5.726c0,0-0.735-0.589-1.9,0.034
				c-1.164,0.625-9.808,3.193-9.808,3.193l0.123,13.15l1.655,0.868c0,0,7.708-2.742,8.95-4.095c0.98,1.369,8.276,4.685,8.276,4.685
				l1.684-1.111V9.612L16.25,5.726z"/>
			<path fill="none" stroke="#000000" stroke-width="0.1" stroke-miterlimit="10" d="M6.319,22.972V10.099
				c0,0,7.708-2.742,8.95-4.095c0.98,1.37,8.276,4.684,8.276,4.684v12.874"/>
			<line fill="none" stroke="#000000" stroke-width="0.1" stroke-miterlimit="10" x1="4.542" y1="8.953" x2="6.319" y2="10.099"/>
			<line fill="none" stroke="#000000" stroke-width="0.1" stroke-miterlimit="10" x1="23.546" y1="10.688" x2="25.159" y2="9.694"/>
			<line fill="none" stroke="#000000" stroke-width="0.05" stroke-miterlimit="10" x1="15.27" y1="6.004" x2="15.27" y2="18.877"/>
			<line fill="none" stroke="#000000" stroke-width="0.05" stroke-miterlimit="10" x1="4.848" y1="9.352" x2="4.848" y2="22.172"/>
			<line fill="none" stroke="#000000" stroke-width="0.05" stroke-miterlimit="10" x1="5.124" y1="11.242" x2="5.124" y2="17.385"/>
			<line fill="none" stroke="#000000" stroke-width="0.05" stroke-miterlimit="10" x1="5.261" y1="9.422" x2="5.261" y2="22.208"/>
			<line fill="none" stroke="#000000" stroke-width="0.05" stroke-miterlimit="10" x1="5.921" y1="9.855" x2="5.921" y2="21.219"/>
			<line fill="none" stroke="#000000" stroke-width="0.05" stroke-miterlimit="10" x1="5.645" y1="14.783" x2="5.645" y2="22.657"/>
			
				<line fill="none" stroke="#000000" stroke-width="0.05" stroke-miterlimit="10" x1="25.026" y1="10.642" x2="25.026" y2="22.185"/>
			<line fill="none" stroke="#000000" stroke-width="0.05" stroke-miterlimit="10" x1="24.75" y1="10.479" x2="24.75" y2="18.621"/>
			
				<line fill="none" stroke="#000000" stroke-width="0.05" stroke-miterlimit="10" x1="24.611" y1="10.046" x2="24.611" y2="22.832"/>
			
				<line fill="none" stroke="#000000" stroke-width="0.05" stroke-miterlimit="10" x1="23.954" y1="12.515" x2="23.954" y2="23.271"/>
			
				<line fill="none" stroke="#000000" stroke-width="0.05" stroke-miterlimit="10" x1="24.229" y1="10.642" x2="24.229" y2="22.462"/>
		</g>
		<g>
			<g>
				<path d="M14.897,11.521c0,0-0.151,0.024-0.157,0.098c-0.006,0.071-0.007,0.286-0.077,0.32c-0.073,0.033-0.216,0.004-0.244,0.092
					c-0.028,0.089-0.023,0.017-0.084-0.036c-0.062-0.053-0.187-0.055-0.216-0.018c-0.029,0.032,0.061-0.204-0.004-0.359
					c-0.063-0.156-0.01-0.196,0.093-0.195c0.104,0.001,0.259,0.03,0.251-0.145c0,0-0.01-0.027,0.08-0.051s0.154-0.094,0.17-0.143
					c0.016-0.048,0.061-0.187,0.127-0.192c0.064-0.006,0.157,0.006,0.184-0.117c0.061-0.261,0.1-0.025,0.1-0.025
					c0,0,0.209,0.089,0.238,0.082c0.029-0.01,0.301-0.044,0.331-0.095s0.093-0.108,0.057-0.31c-0.039-0.2,0.175-0.225,0.173-0.24
					c-0.007-0.017-0.008-0.108-0.084-0.062c-0.077,0.047-0.251,0.196-0.282,0.343s-0.053,0.237-0.136,0.247
					c-0.082,0.014-0.223,0.014-0.227-0.049c-0.004-0.065-0.01-0.145-0.061-0.113c-0.049,0.029-0.308,0.118-0.236-0.158
					c0.07-0.277,0.183-0.144,0.26-0.219c0.076-0.079,0.149-0.086,0.201-0.15c0.051-0.061,0.115-0.198,0.285-0.182
					c0.166,0.016,0.416-0.11,0.796,0.111c0.378,0.225,0.237,0.207,0.376,0.229c0.138,0.022,0.447-0.047,0.631-0.008
					c0.188,0.035,0.568,0.087,0.652,0.041c0.091-0.051,0.238-0.228,0.347,0.029c0,0.002,0.024,0.115,0.504,0.11
					c0.479-0.001,0.889,0.143,1.018,0.207c0.134,0.049,1.024,0.731,1.328,1.04c0.316,0.288,0.86,0.722,1.066,0.887
					c0.209,0.153,0.676,0.702,0.704,0.739c0.033,0.032,0.328,0.569-0.051,0.575c-0.38,0.013-0.411-0.506-0.548-0.294
					c-0.139,0.215-0.219,0.395-0.305,0.226c-0.087-0.167,0.003-0.466,0.139-0.426c0.136,0.044,0.211-0.003,0.05-0.146
					c-0.165-0.143-0.126,0.058-0.314-0.094c-0.188-0.151-0.507-0.41-0.596-0.315c-0.087,0.099-0.074,0.186,0.018,0.275
					c0.088,0.086,0.153,0.273,0.099,0.3c-0.057,0.025-0.387,0.276-0.595,0.095c-0.21-0.183-0.157,0.117-0.158,0.154
					c0.002,0.041,0.045,0.176,0.01,0.214c-0.037,0.038-0.054,0.258-0.1,0.116c-0.045-0.143-0.077-0.408-0.04-0.475
					c0.037-0.066-0.157-0.035-0.199,0.063c-0.04,0.098,0.069,0.431-0.068,0.571c-0.141,0.14,0.022,0.31-0.176,0.282
					c-0.199-0.032-0.697-0.161-0.574,0.107c0.12,0.265-0.005,0.537-0.085,0.503c-0.081-0.038-0.218-0.421-0.227-0.292
					c-0.01,0.125-0.099,0.079-0.15,0.038c-0.051-0.04,0.083-0.281,0.011-0.361c-0.073-0.082-0.141-0.177-0.113-0.356
					c0.029-0.18-0.225-0.176-0.315-0.146c-0.092,0.027-0.4,0.245-0.41,0.557c-0.01,0.309-0.212-0.133-0.194-0.381
					c0.019-0.247-0.153-0.639-0.233-0.723c-0.078-0.082-0.454-0.222-0.451-0.11c0.003,0.107,0.095,0.184,0.025,0.193
					c-0.074-0.001-0.815,0.398-0.767,0.44c0.049,0.032,0.305,0,0.305,0.001c0,0,0.084,0-0.035,0.307
					c-0.122,0.303-0.602,0.602-0.568,0.993c0.031,0.391,0.044,0.546-0.14,0.652c-0.184,0.109-0.049,0.319-0.086,0.396
					c-0.04,0.073-0.082,0.093-0.096,0.194c-0.016,0.098-0.147,0.274-0.166,0.272c-0.016-0.002-0.213,0.138-0.352,0.081
					c-0.139-0.061-0.179-0.217-0.24-0.383c-0.061-0.169-0.061-0.516-0.144-0.544c-0.083-0.029,0.016-0.661,0.017-0.66
					c-0.001,0,0.035-0.078-0.155-0.584c0,0-0.025-0.049,0.024-0.132c0.049-0.083,0.012-0.167-0.086-0.183
					c-0.099-0.018-0.14-0.077-0.14-0.135c-0.001-0.059-0.155-0.053-0.327,0.072c-0.172,0.12-0.457,0.011-0.548-0.214
					c-0.089-0.228-0.22-0.255-0.188-0.603c0.032-0.345-0.024-0.296-0.001-0.398c0.023-0.104,0.087-0.119,0.127-0.192
					c0.041-0.075,0.149-0.159,0.17-0.17c0.019-0.012-0.025-0.172,0.041-0.246c0.065-0.076,0.188-0.144,0.215-0.2
					c0.026-0.055,0.068,0.05,0.085,0.07c0.015,0.021,0.079-0.018,0.169-0.128c0.09-0.107,0.127-0.018,0.203-0.008
					c0.076,0.011,0.092,0.022,0.168,0.005c0.074-0.014,0.114-0.077,0.174,0.052c0.06,0.131,0.162,0.192,0.256,0.217
					c0.094,0.026,0.195-0.08,0.301-0.021c0.105,0.053,0.438,0.137,0.475,0.095c0.038-0.044,0.148-0.153,0.095-0.197
					s-0.126-0.107-0.207-0.105c-0.08,0.003-0.091-0.02-0.145-0.094c-0.056-0.075-0.06-0.028-0.116,0.042
					c-0.058,0.069-0.064-0.01-0.147-0.167c-0.086-0.155-0.083-0.117-0.064-0.164c0.016-0.047-0.081-0.043-0.128-0.066
					c-0.049-0.023-0.09,0.007-0.046,0.092c0.042,0.089,0.002,0.14,0.033,0.142c0.032,0.001,0.063-0.04,0.068,0.009
					c0.006,0.047-0.062,0.092-0.114,0.095c-0.052,0.002-0.07,0.001-0.076-0.086c-0.001-0.083-0.043-0.308-0.088-0.311
					C15.22,11.615,15.074,11.506,14.897,11.521z"/>
				<path d="M11.564,14.159c0,0,0.139-0.038,0.236,0.119c0.098,0.156,0.19,0.185,0.285,0.133c0.099-0.053,0.26,0.171,0.257,0.285
					c-0.003,0.113,0.134,0.088,0.187,0.091c0.049,0.005,0.177,0.098,0.222,0.097c0.044-0.002,0.225-0.057,0.239,0.021
					c0.016,0.079,0.066,0.309,0.008,0.441c-0.058,0.132-0.111,0.165-0.102,0.316c0.008,0.15-0.01,0.477-0.153,0.581
					c-0.142,0.103-0.243,0.267-0.237,0.393c0.002,0.129-0.148,0.419-0.2,0.489c-0.051,0.071-0.087,0.141-0.081,0.218
					c0.007,0.079-0.067,0.109-0.129,0.129c-0.06,0.019-0.079,0.136-0.119,0.215c-0.038,0.076-0.009,0.286-0.066,0.321
					c-0.058,0.038-0.037,0.08-0.033,0.132c0.006,0.057,0.053,0.089,0.014,0.135c-0.042,0.047-0.036,0.045-0.002,0.179
					c0.031,0.138,0.063,0.221-0.066,0.212c-0.13-0.013-0.277-0.19-0.275-0.454c0.004-0.261,0.055-0.256-0.008-0.369
					c-0.063-0.116-0.1-0.362-0.086-0.434c0.012-0.07,0.059-0.166,0.039-0.308c-0.02-0.14,0-0.308,0.016-0.358
					c0.018-0.046-0.037-0.164-0.057-0.252c-0.02-0.091-0.023-0.325-0.119-0.379c-0.098-0.055-0.224-0.084-0.246-0.237
					c-0.023-0.154-0.084-0.129-0.144-0.168c-0.06-0.041-0.092-0.313-0.001-0.491c0.09-0.177-0.02-0.165,0.114-0.211
					c0.134-0.044,0.019-0.177-0.008-0.216c-0.026-0.039-0.023-0.105,0.013-0.191c0.036-0.089,0.025-0.084-0.01-0.154
					c-0.036-0.066,0.049-0.175,0.125-0.202c0.076-0.03,0.137-0.036,0.197-0.064C11.434,14.146,11.564,14.159,11.564,14.159z"/>
				<path d="M11.912,11.585c-0.035-0.07-0.061-0.007-0.094-0.03c-0.031-0.023-0.11-0.033-0.133-0.067
					c-0.021-0.035,0.038-0.067,0.085-0.162c0.048-0.094-0.028-0.058-0.028-0.058s-0.105-0.001-0.143-0.005
					c-0.037-0.004-0.096-0.118-0.117-0.159c-0.021-0.041-0.06-0.044-0.128-0.046c-0.067-0.002-0.094,0.056-0.155,0.1
					c-0.064,0.047-0.034-0.028-0.088-0.017c-0.055,0.011-0.061-0.044-0.112-0.082c-0.053-0.039,0.017-0.063,0.078-0.077
					c0.06-0.013,0.263-0.091,0.22-0.1c-0.045-0.009-0.023-0.105-0.051-0.13c-0.025-0.022,0.051-0.048,0.102-0.122
					c0.051-0.071-0.034-0.094-0.104-0.112c-0.07-0.016-0.06-0.029-0.109-0.027c-0.049,0-0.036-0.061-0.084-0.094
					c-0.047-0.032-0.113-0.024-0.169-0.003c-0.054,0.02-0.128,0.032-0.189-0.018c-0.062-0.05-0.156,0.004-0.231,0.052
					c-0.076,0.047-0.299,0.012-0.436,0.076c-0.137,0.063-0.284,0.119-0.346,0.215c-0.062,0.096-0.077,0.212-0.141,0.337
					c-0.063,0.124-0.234,0.092-0.273-0.01s-0.092-0.073-0.162,0.033c-0.07,0.106-0.332,0.198-0.401,0.219
					c-0.071,0.018-0.27,0.113-0.367,0.224c-0.097,0.11,0.003,0.201,0.068,0.233c0.067,0.031,0,0,0.001,0.033
					c-0.001,0.033-0.109,0.039-0.166,0.055c-0.059,0.016-0.123,0.028-0.188,0.169c-0.068,0.138-0.541,0.461-0.642,0.555
					c-0.102,0.085-0.349,0.324-0.528,0.448c-0.182,0.121-0.344,0.391-0.239,0.362c0.106-0.026,0.015,0.066,0.015,0.066
					c-0.154,0.314,0.015,0.163,0.105,0.081c0.094-0.086,0.162-0.071,0.07,0.02C6.74,13.636,6.66,13.738,6.66,13.738
					c-0.229,0.677,0.369-0.133,0.33,0.024c-0.043,0.149,0.094,0.065,0.254-0.189c0.16-0.261,0.699-0.661,1.008-0.666
					c0.306-0.008,0.435,0.349,0.462,0.744c0.026,0.396,0.07,0.248,0.07,0.248c-0.001,0,0.089-0.152,0.112-0.016
					c0.023,0.137,0.173,0.148,0.234,0.219c0.063,0.068,0.23,0.05,0.25,0.139c0.02,0.087,0.006,0.187,0.113,0.149
					c0.107-0.038,0.143-0.19,0.149-0.022c0.009,0.169,0.411,0.231,0.494,0.192c0.083-0.042,0.122-0.134,0.149-0.056
					c0.027,0.076,0.159,0.06,0.242,0.055c0.084-0.003,0.02,0.106,0.215,0.202c0.195,0.092,0.321-0.074,0.322-0.074
					c0.021,0.001-0.143-0.167-0.166-0.231c-0.024-0.063-0.018-0.059-0.082-0.032c-0.064,0.027-0.056-0.081-0.058-0.155
					c-0.003-0.072-0.036-0.025-0.06-0.024c-0.022,0.004-0.098,0.075-0.143,0.08c-0.045,0.004-0.021-0.128-0.025-0.16
					s0.01-0.062,0.051-0.098c0.041-0.034-0.02-0.115-0.032-0.181c-0.015-0.068-0.046-0.079-0.052-0.002
					c-0.009,0.077-0.038,0.026-0.073,0.017c-0.035-0.008-0.085,0.015-0.15,0.078c-0.065,0.067-0.048,0.067-0.04,0.127
					c0.008,0.062-0.068,0-0.109-0.002c-0.039-0.006-0.068-0.082-0.092-0.136c-0.023-0.056-0.027-0.12-0.029-0.174
					c-0.002-0.058,0.084-0.103,0.109-0.172c0.025-0.07,0.084-0.057,0.137-0.058c0.053,0,0.17-0.073,0.184-0.109
					c0.012-0.04,0.027-0.055,0.097-0.109c0.067-0.056,0.062-0.02,0.071,0.066c0.01,0.088,0.01,0.076,0.027,0.12
					c0.016,0.042,0.036,0.024,0.098,0.105c0.061,0.08,0.023,0.065,0.023,0.145c-0.004,0.083,0.012,0.077,0.119,0.057
					c0.106-0.018,0.07,0.013,0.086,0.105c0.016,0.091,0.06-0.024,0.105-0.074s0.039-0.063-0.01-0.044
					c-0.051,0.02-0.022-0.099-0.063-0.098c-0.041-0.002-0.048-0.013-0.094-0.07c-0.045-0.054,0.025-0.183-0.006-0.209
					c-0.031-0.029-0.049-0.07-0.094-0.069c-0.046,0.004-0.035-0.107-0.053-0.206c-0.017-0.1-0.008-0.069,0.066-0.14
					c0.073-0.073,0.09-0.153,0.086-0.231c-0.002-0.081,0.07-0.109,0.092-0.142c0.021-0.034,0.051-0.119,0.051-0.201
					c-0.004-0.079,0.08-0.143,0.114-0.155s0.104-0.101,0.127-0.166c0.024-0.066,0.116-0.105,0.152-0.092
					c0.038,0.012,0.097-0.056,0.142-0.086c0.047-0.032,0.054-0.096,0.056-0.131c0.003-0.033-0.001-0.08-0.032-0.03
					c-0.033,0.05-0.067,0.055-0.103,0.065c-0.036,0.012-0.075-0.025-0.075-0.025s-0.023-0.065-0.074-0.072
					c-0.047-0.008-0.021-0.106-0.007-0.152c0.015-0.046,0.042-0.079,0.071-0.032c0.026,0.049,0.113-0.012,0.16-0.026
					c0.048-0.016,0.066-0.005,0.102,0.042c0.033,0.047,0.042,0.069,0.036,0.142c-0.007,0.074,0.084,0,0.166-0.023
					C11.957,11.694,11.948,11.657,11.912,11.585z M10.749,11.48c-0.049,0.06-0.11,0.101-0.111,0.159
					c0.001,0,0.091,0.224-0.011,0.224c-0.102,0-0.144,0.011-0.141-0.072c0.002-0.082-0.136-0.079-0.136-0.079
					c0,0-0.1-0.015-0.175,0.011c-0.075,0.027-0.154,0.023-0.172,0.032c-0.016,0.008-0.098-0.011-0.089-0.08
					c0.01-0.07-0.113-0.167,0.076-0.31c0.19-0.139,0.17-0.202,0.284-0.18c0.113,0.025,0.158,0.047,0.205-0.022
					c0.049-0.07,0.081-0.115,0.039-0.155c-0.041-0.042-0.072-0.036-0.07-0.125c0.003-0.094,0.02-0.108,0.06-0.132
					c0.041-0.025,0.096-0.088,0.105,0.005c0.011,0.095-0.022,0.124,0.02,0.18c0.044,0.056,0.081,0.051,0.041,0.14
					s-0.035,0.079-0.04,0.136c-0.006,0.062,0,0.11,0.039,0.142C10.715,11.388,10.797,11.421,10.749,11.48z"/>
				<path d="M11.363,13.912c0-0.001-0.198,0.054-0.168-0.093c0.029-0.151,0.057-0.11,0.063-0.163
					c0.007-0.051,0.046-0.008,0.08-0.004c0.035,0.004,0.104,0.004,0.164-0.031c0.061-0.037,0.078-0.02,0.075,0.056
					c-0.005,0.074,0.026,0.183-0.022,0.199S11.392,13.901,11.363,13.912z"/>
				<path d="M13.821,12.463c-0.04,0.029-0.134,0.057-0.08,0.097c0.056,0.043,0.085,0.088,0.085,0.088s0.018-0.058,0.027-0.09
					c0.012-0.035,0.029-0.059,0.027-0.101c-0.001-0.039-0.061-0.057-0.061-0.024C13.821,12.463,13.821,12.463,13.821,12.463z"/>
				<path d="M13.723,10.344c-0.086,0.009-0.318-0.149-0.297-0.228c0.021-0.075,0.033-0.12,0.123-0.12
					c0.087,0,0.197,0.025,0.228,0.07c0.031,0.045,0.036,0.061,0.065,0.058c0.029-0.002,0.041-0.003,0.01,0.069
					C13.82,10.265,13.723,10.344,13.723,10.344z"/>
				<path d="M14.57,11.088c0.036-0.017,0.098,0.014,0.109-0.061c0.013-0.075-0.029-0.138-0.053-0.137
					c-0.027,0-0.043-0.038-0.066-0.078c-0.026-0.042-0.044-0.121-0.076-0.148c-0.033-0.025-0.018-0.058-0.043-0.088
					c-0.025-0.031-0.111,0.011-0.123,0.022c-0.013,0.011-0.045,0.055-0.024,0.07c0.021,0.015,0.009,0.032,0.035,0.063
					c0.024,0.029,0.044-0.002,0.05,0.05c0.004,0.052,0.002,0.095,0.005,0.127c0.005,0.032,0.001,0.085,0.025,0.106
					c0.025,0.02-0.03,0.088-0.035,0.125C14.371,11.176,14.57,11.087,14.57,11.088z"/>
				<path d="M14.24,10.762c0,0,0.063-0.015,0.072,0.07c0.01,0.086-0.01,0.134,0.016,0.149c0.023,0.014-0.02,0.08-0.045,0.087
					c-0.023,0.005-0.098,0.031-0.118,0.011c-0.02-0.021-0.038-0.092-0.035-0.14c0.003-0.049,0.024-0.103,0.047-0.111
					C14.201,10.822,14.235,10.778,14.24,10.762z"/>
				<path d="M16.763,16.34c0,0,0.032-0.274,0.069-0.364c0.035-0.09,0.049-0.125,0.064-0.202c0.016-0.078-0.003-0.155-0.005-0.202
					c-0.003-0.049-0.008-0.14-0.057-0.076c-0.045,0.063-0.038,0.144-0.094,0.148c-0.055,0.007-0.129-0.015-0.117,0.084
					c0.011,0.099,0.04,0.178,0.003,0.258c-0.037,0.081-0.074,0.011-0.045,0.16c0.029,0.148,0.074,0.206,0.102,0.203
					S16.763,16.34,16.763,16.34z"/>
				<path d="M19.317,14.783c-0.04,0.021-0.081,0.043-0.121,0.066c0,0-0.007,0.079,0.016,0.134c0.023,0.053,0.031,0.15,0.021,0.167
					c-0.01,0.018-0.056,0.042-0.065-0.008c-0.008-0.048,0.018-0.114-0.018-0.134c-0.033-0.022-0.118-0.081-0.111-0.024
					c0.009,0.059,0.08,0.167,0.101,0.22c0.02,0.053,0.141,0.4,0.177,0.537c0.035,0.14,0.011,0.287,0.11,0.372
					c0.1,0.081,0.23,0.152,0.279,0.14c0.048-0.01,0.045-0.085-0.017-0.137c-0.062-0.049-0.202-0.105-0.2-0.181
					c0.003-0.076,0.037-0.164,0.014-0.23c-0.025-0.07-0.078-0.106-0.094-0.181c-0.016-0.074,0.018-0.2,0.005-0.295
					c-0.014-0.092-0.033-0.219-0.065-0.289C19.315,14.872,19.333,14.913,19.317,14.783z"/>
				<path d="M19.729,15.499c0.078,0.042,0.099-0.128,0.09-0.146c-0.01-0.016,0.063-0.06,0.11-0.031
					c0.048,0.025,0.067,0.009,0.081-0.032c0.015-0.043,0.045,0.068,0.055,0.107c0.009,0.038,0.057,0.155,0.022,0.19
					s-0.061-0.012-0.069,0.05c-0.01,0.061-0.021,0.115-0.036,0.162c-0.012,0.048-0.013,0.116-0.045,0.143
					c-0.031,0.024-0.057,0.051-0.055,0.092c-0.001,0.038-0.104,0.041-0.17-0.041c-0.067-0.082-0.116-0.135-0.102-0.194
					c0.016-0.055-0.022-0.144-0.018-0.2c0.003-0.061-0.008-0.203,0.047-0.169C19.693,15.463,19.697,15.482,19.729,15.499z"/>
				<path d="M20.319,14.657c0,0,0.06,0.159,0.044,0.247c-0.018,0.083-0.059,0.13-0.028,0.211c0.027,0.08,0.096,0.17,0.091,0.202
					c-0.005,0.03-0.008,0.163-0.024,0.215c-0.016,0.05-0.033,0.101-0.075,0.036c-0.041-0.067-0.087-0.126-0.075-0.204
					c0.012-0.076,0.031-0.146,0.009-0.193c-0.022-0.048,0.011-0.028-0.043-0.115c-0.052-0.088-0.053-0.155-0.033-0.228
					c0.016-0.072,0.082-0.128,0.082-0.128C20.283,14.685,20.301,14.671,20.319,14.657z"/>
				<path d="M20.607,16.218c0-0.001-0.105-0.117-0.09,0.063c0.018,0.18,0.047,0.216,0.095,0.256
					c0.046,0.037,0.073,0.057,0.081,0.121c0.006,0.06,0.03,0.104,0.007,0.14c-0.023,0.034-0.084,0.031-0.015,0.124
					c0.067,0.096,0.122,0.14,0.153,0.159c0.032,0.018,0.09,0.076,0.146,0.142c0.054,0.065,0.067,0.091,0.108,0.109
					c0.04,0.021,0.034,0.051,0.012-0.059c-0.024-0.11-0.006-0.07-0.032-0.217c-0.023-0.145-0.027-0.209-0.07-0.253
					c-0.044-0.046-0.025-0.093-0.092-0.147c-0.063-0.056-0.086-0.048-0.126-0.146c-0.04-0.096-0.039-0.123-0.074-0.183
					C20.674,16.267,20.616,16.273,20.607,16.218z"/>
				<path d="M20.38,16.841c0,0,0.126,0.021,0.173,0.118c0.047,0.094,0.063,0.09,0.057,0.124c-0.007,0.035-0.077,0.171-0.033,0.208
					c0.046,0.039,0.104,0.138,0.141,0.108c0.036-0.031,0.073-0.254,0.106-0.253c0.035,0.003,0.075,0.126,0.084,0.287
					c0.009,0.16-0.031,0.226,0.024,0.338c0.055,0.112,0.105,0.218,0.091,0.256c-0.014,0.043,0.028,0.1,0.039,0.167
					c0.011,0.065,0.014,0.247-0.004,0.318c-0.018,0.075-0.003,0.235-0.06,0.252c-0.055,0.017-0.063,0.018-0.075,0.069
					c-0.013,0.054-0.025,0.147-0.063,0.146c-0.039-0.004-0.102,0.05-0.146,0.071c-0.042,0.026-0.054-0.053-0.127-0.127
					c-0.072-0.072-0.092-0.073-0.121-0.186c-0.03-0.113-0.101-0.311-0.13-0.337c-0.028-0.026-0.087-0.11-0.12-0.195
					c-0.034-0.084-0.1-0.112-0.121-0.085c-0.021,0.025-0.075,0.006-0.117-0.021c-0.043-0.027-0.062-0.005-0.085-0.001
					c-0.023,0.001-0.049-0.015-0.096-0.014c-0.047-0.001-0.081,0.018-0.113,0.016c-0.033-0.004-0.111-0.064-0.127-0.138
					c-0.011-0.075,0.004-0.099-0.006-0.209c-0.012-0.113,0.033-0.166,0.038-0.24c0.002-0.075,0.003-0.12-0.018-0.202
					c-0.018-0.082,0.018-0.176,0.064-0.183c0.048-0.007,0.117-0.016,0.136-0.028c0.019-0.012,0.068-0.016,0.09-0.064
					c0.021-0.049,0.052-0.064,0.091-0.02c0.038,0.047,0.058,0.022,0.095-0.058c0.038-0.084,0.084-0.044,0.123-0.047
					s0.086,0.056,0.103,0.06C20.288,16.978,20.301,16.846,20.38,16.841z"/>
				<path d="M21.697,19.614c0.004-0.019-0.04-0.033-0.049,0.018c-0.009,0.049-0.009,0.108,0.001,0.145
					c0.012,0.034,0.021,0.067,0.017,0.089c-0.004,0.019-0.014,0.059-0.021,0.09c-0.008,0.035-0.015,0.088,0.001,0.104
					c0.017,0.016,0.038,0.052,0.054,0.002c0.018-0.047,0.033-0.047,0.04-0.114c0.006-0.065,0.01-0.12,0.005-0.181
					C21.739,19.705,21.691,19.64,21.697,19.614z"/>
				<path d="M21.539,19.896c-0.029-0.017-0.038,0.015-0.083,0c-0.046-0.014-0.054-0.016-0.11,0.007
					c-0.056,0.022-0.061,0.06-0.062,0.095s-0.017,0.091,0.022,0.134c0.039,0.042,0.05,0.095,0.101,0.062
					c0.052-0.032,0.121-0.041,0.137-0.054c0.016-0.014,0.037-0.028,0.04-0.084c0.004-0.057,0.031-0.083,0.008-0.106
					C21.568,19.925,21.539,19.896,21.539,19.896z"/>
				<path d="M21.286,13.773c0,0,0.005,0.128-0.057,0.158c-0.063,0.026-0.252-0.03-0.271-0.003c-0.02,0.026-0.106,0.025-0.114,0.07
					c-0.008,0.047-0.042,0.135-0.014,0.173c0.029,0.034,0.061,0.028,0.102,0.022c0.044-0.005,0.123,0.01,0.154,0.023
					c0.035,0.011,0.139,0.082,0.173,0.042c0.032-0.039,0.087-0.084,0.104-0.121c0.02-0.039,0.058-0.084,0.058-0.147
					c-0.001-0.063,0.017-0.095-0.016-0.13C21.374,13.825,21.338,13.764,21.286,13.773z"/>
				<path d="M21.462,13.611c0,0-0.108,0-0.113,0.053c-0.005,0.055,0.017,0.144,0.051,0.169c0.033,0.023,0.101,0.056,0.123,0.063
					c0.021,0.004,0.021,0.074,0.066,0.034c0.045-0.038,0.014-0.12-0.035-0.192C21.505,13.667,21.451,13.641,21.462,13.611z"/>
			</g>
		</g>
	</g>
	<linearGradient id="SVGID_3_" gradientUnits="userSpaceOnUse" x1="15.3989" y1="12.4761" x2="15.3989" y2="-1.4775">
		<stop  offset="0" style="stop-color:#FFFFFF"/>
		<stop  offset="1" style="stop-color:#FFFFFF;stop-opacity:0"/>
	</linearGradient>
	<path opacity="0.65" clip-path="url(#SVGID_2_)" fill="url(#SVGID_3_)" d="M0.339,12.306c0,0,12.762-11.061,30.12,0.17
		c0,0-0.767-13.954-15.57-13.954C0.084-1.478,0.339,12.306,0.339,12.306z"/>
	<linearGradient id="SVGID_4_" gradientUnits="userSpaceOnUse" x1="15.0234" y1="31.6201" x2="15.0234" y2="17.667">
		<stop  offset="0" style="stop-color:#000000;stop-opacity:0"/>
		<stop  offset="0.7758" style="stop-color:#000000;stop-opacity:0.9636"/>
		<stop  offset="1" style="stop-color:#000000"/>
	</linearGradient>
	<path opacity="0.5" clip-path="url(#SVGID_2_)" fill="url(#SVGID_4_)" d="M29.692,17.837c0,0-11.996,11.061-29.353-0.17
		c0,0,0.766,13.953,15.57,13.953C30.714,31.62,29.692,17.837,29.692,17.837z"/>
	<use xlink:href="#SVGID_1_"  overflow="visible" fill="none" stroke="#000000" stroke-width="0.25" stroke-miterlimit="10"/>
</g>
</svg>
