<?xml version="1.0" encoding="utf-8"?>
<!-- Generator: Adobe Illustrator 15.0.2, SVG Export Plug-In . SVG Version: 6.00 Build 0)  -->
<!DOCTYPE svg PUBLIC "-//W3C//DTD SVG 1.1//EN" "http://www.w3.org/Graphics/SVG/1.1/DTD/svg11.dtd">
<svg version="1.1" id="Capa_1" xmlns="http://www.w3.org/2000/svg" xmlns:xlink="http://www.w3.org/1999/xlink" x="0px" y="0px"
	 width="30px" height="30px" viewBox="0 0 30 30" enable-background="new 0 0 30 30" xml:space="preserve">
<g>
	<defs>
		<circle id="SVGID_1_" cx="15" cy="15" r="13.698"/>
	</defs>
	<use xlink:href="#SVGID_1_"  overflow="visible"/>
	<clipPath id="SVGID_2_">
		<use xlink:href="#SVGID_1_"  overflow="visible"/>
	</clipPath>
	<g clip-path="url(#SVGID_2_)">
		<path fill="#FFFFFF" d="M26.836,4.501c0,0.134-0.013,0.256-0.04,0.365c-0.026,0.111-0.066,0.205-0.122,0.284
			c-0.055,0.079-0.121,0.141-0.203,0.183c-0.08,0.044-0.175,0.066-0.283,0.066c-0.094,0-0.18-0.018-0.256-0.054
			c-0.076-0.035-0.142-0.09-0.196-0.162c-0.055-0.073-0.097-0.167-0.126-0.279c-0.029-0.114-0.044-0.248-0.044-0.403
			c0-0.134,0.014-0.257,0.041-0.366c0.027-0.111,0.067-0.206,0.121-0.285c0.055-0.079,0.121-0.139,0.203-0.183
			c0.081-0.043,0.175-0.064,0.283-0.064c0.094,0,0.18,0.018,0.256,0.052c0.076,0.036,0.142,0.09,0.196,0.163
			c0.055,0.074,0.097,0.167,0.126,0.281C26.821,4.211,26.836,4.346,26.836,4.501z M25.801,4.494c0,0.027,0,0.055,0.001,0.083
			c0,0.026,0.002,0.053,0.004,0.08l0.74-0.547c-0.014-0.046-0.031-0.087-0.051-0.125c-0.021-0.038-0.046-0.07-0.073-0.098
			c-0.028-0.027-0.062-0.048-0.098-0.063c-0.036-0.016-0.078-0.023-0.123-0.023c-0.061,0-0.115,0.015-0.166,0.044
			c-0.049,0.029-0.091,0.073-0.126,0.131c-0.035,0.059-0.062,0.131-0.08,0.217C25.811,4.281,25.801,4.38,25.801,4.494z M26.601,4.51
			c0-0.031-0.001-0.061-0.004-0.091c-0.001-0.029-0.004-0.059-0.007-0.087l-0.739,0.55c0.013,0.045,0.03,0.088,0.051,0.128
			c0.02,0.039,0.045,0.072,0.074,0.101c0.028,0.028,0.062,0.051,0.1,0.065C26.111,5.192,26.154,5.2,26.201,5.2
			c0.06,0,0.114-0.015,0.165-0.044c0.049-0.029,0.092-0.074,0.126-0.131c0.035-0.059,0.062-0.129,0.08-0.216
			C26.592,4.722,26.601,4.622,26.601,4.51z"/>
		<path fill="#FFFFFF" d="M26.781,8.115h-1.099V7.898h0.45V6.622l-0.419,0.227l-0.086-0.198l0.557-0.293h0.206v1.54h0.391V8.115z"/>
		<path fill="#FFFFFF" d="M26.781,10.854h-1.099v-0.217h0.45V9.361l-0.419,0.228l-0.086-0.198l0.557-0.293h0.206v1.54h0.391V10.854z
			"/>
		<path fill="#FFFFFF" d="M26.781,13.594h-1.099v-0.217h0.45v-1.276l-0.419,0.228l-0.086-0.198l0.557-0.293h0.206v1.54h0.391V13.594
			z"/>
		<path fill="#FFFFFF" d="M26.836,15.46c0,0.134-0.013,0.256-0.04,0.365c-0.026,0.111-0.066,0.205-0.122,0.284
			c-0.055,0.078-0.121,0.14-0.203,0.183c-0.08,0.044-0.175,0.065-0.283,0.065c-0.094,0-0.18-0.017-0.256-0.053
			c-0.076-0.035-0.142-0.09-0.196-0.162c-0.055-0.074-0.097-0.167-0.126-0.279c-0.029-0.114-0.044-0.248-0.044-0.403
			c0-0.134,0.014-0.257,0.041-0.366c0.027-0.111,0.067-0.206,0.121-0.285c0.055-0.079,0.121-0.139,0.203-0.183
			c0.081-0.043,0.175-0.064,0.283-0.064c0.094,0,0.18,0.018,0.256,0.052c0.076,0.036,0.142,0.09,0.196,0.163
			c0.055,0.074,0.097,0.167,0.126,0.281C26.821,15.17,26.836,15.305,26.836,15.46z M25.801,15.452c0,0.027,0,0.055,0.001,0.083
			c0,0.026,0.002,0.054,0.004,0.08l0.74-0.547c-0.014-0.045-0.031-0.087-0.051-0.125c-0.021-0.038-0.046-0.07-0.073-0.098
			c-0.028-0.027-0.062-0.048-0.098-0.063c-0.036-0.016-0.078-0.022-0.123-0.022c-0.061,0-0.115,0.015-0.166,0.044
			c-0.049,0.029-0.091,0.074-0.126,0.131c-0.035,0.059-0.062,0.131-0.08,0.217C25.811,15.239,25.801,15.338,25.801,15.452z
			 M26.601,15.468c0-0.031-0.001-0.06-0.004-0.091c-0.001-0.03-0.004-0.059-0.007-0.087l-0.739,0.549
			c0.013,0.046,0.03,0.089,0.051,0.129c0.02,0.038,0.045,0.072,0.074,0.1c0.028,0.028,0.062,0.052,0.1,0.066
			c0.036,0.016,0.079,0.023,0.126,0.023c0.06,0,0.114-0.015,0.165-0.044c0.049-0.029,0.092-0.073,0.126-0.131
			c0.035-0.059,0.062-0.13,0.08-0.217C26.592,15.681,26.601,15.581,26.601,15.468z"/>
		<path fill="#FFFFFF" d="M26.781,20.578h-1.099v-0.217h0.45v-1.276l-0.419,0.228l-0.086-0.197l0.557-0.292h0.206v1.538h0.391
			V20.578z"/>
		<path fill="#FFFFFF" d="M26.836,22.445c0,0.134-0.013,0.255-0.04,0.365c-0.026,0.111-0.066,0.205-0.122,0.284
			c-0.055,0.079-0.121,0.141-0.203,0.183c-0.08,0.043-0.175,0.064-0.283,0.064c-0.094,0-0.18-0.016-0.256-0.052
			s-0.142-0.09-0.196-0.162c-0.055-0.073-0.097-0.167-0.126-0.281c-0.029-0.112-0.044-0.246-0.044-0.401
			c0-0.134,0.014-0.257,0.041-0.366c0.027-0.111,0.067-0.206,0.121-0.285c0.055-0.078,0.121-0.14,0.203-0.183
			c0.081-0.043,0.175-0.064,0.283-0.064c0.094,0,0.18,0.016,0.256,0.052s0.142,0.09,0.196,0.163c0.055,0.074,0.097,0.168,0.126,0.28
			C26.821,22.155,26.836,22.291,26.836,22.445z M25.801,22.438c0,0.027,0,0.055,0.001,0.083c0,0.027,0.002,0.054,0.004,0.08
			l0.74-0.548c-0.014-0.046-0.031-0.086-0.051-0.123c-0.021-0.038-0.046-0.07-0.073-0.098c-0.028-0.028-0.062-0.049-0.098-0.063
			c-0.036-0.016-0.078-0.023-0.123-0.023c-0.061,0-0.115,0.016-0.166,0.045c-0.049,0.029-0.091,0.072-0.126,0.131
			c-0.035,0.06-0.062,0.132-0.08,0.217C25.811,22.224,25.801,22.324,25.801,22.438z M26.601,22.454c0-0.031-0.001-0.062-0.004-0.091
			c-0.001-0.03-0.004-0.06-0.007-0.089l-0.739,0.551c0.013,0.046,0.03,0.089,0.051,0.129c0.02,0.039,0.045,0.072,0.074,0.101
			c0.028,0.027,0.062,0.049,0.1,0.065c0.036,0.016,0.079,0.023,0.126,0.023c0.06,0,0.114-0.016,0.165-0.045
			c0.049-0.029,0.092-0.072,0.126-0.131c0.035-0.058,0.062-0.129,0.08-0.216C26.592,22.665,26.601,22.566,26.601,22.454z"/>
		<path fill="#FFFFFF" d="M26.781,26.058h-1.099v-0.217h0.45v-1.276l-0.419,0.228l-0.086-0.198l0.557-0.291h0.206v1.538h0.391
			V26.058z"/>
		<path fill="#FFFFFF" d="M26.781,28.797h-1.099V28.58h0.45v-1.275l-0.419,0.228l-0.086-0.198l0.557-0.292h0.206v1.538h0.391V28.797
			z"/>
		<path fill="#FFFFFF" d="M26.781,31.537h-1.099V31.32h0.45v-1.276l-0.419,0.228l-0.086-0.198l0.557-0.291h0.206v1.538h0.391V31.537
			z"/>
		<path fill="#FFFFFF" d="M24.042,1.882h-1.099V1.666h0.449V0.39l-0.418,0.227l-0.086-0.198l0.557-0.293h0.206v1.54h0.391V1.882z"/>
		<path fill="#FFFFFF" d="M24.097,3.749c0,0.134-0.014,0.255-0.04,0.365c-0.027,0.111-0.067,0.205-0.122,0.284
			c-0.055,0.079-0.122,0.14-0.203,0.183c-0.08,0.044-0.176,0.065-0.284,0.065c-0.093,0-0.179-0.017-0.255-0.053
			c-0.076-0.035-0.142-0.09-0.197-0.162c-0.055-0.074-0.096-0.167-0.125-0.28c-0.029-0.113-0.045-0.247-0.045-0.402
			c0-0.134,0.014-0.257,0.042-0.367c0.026-0.111,0.066-0.206,0.12-0.285c0.055-0.079,0.122-0.139,0.203-0.184
			c0.082-0.042,0.176-0.064,0.284-0.064c0.094,0,0.179,0.017,0.255,0.052c0.077,0.036,0.143,0.089,0.197,0.163
			s0.096,0.167,0.126,0.281C24.082,3.458,24.097,3.593,24.097,3.749z M23.062,3.74c0,0.027,0,0.055,0.001,0.083
			c0,0.027,0.001,0.054,0.004,0.081l0.74-0.547c-0.014-0.045-0.031-0.087-0.051-0.125c-0.021-0.037-0.046-0.069-0.074-0.098
			c-0.028-0.026-0.062-0.048-0.098-0.063c-0.036-0.016-0.077-0.023-0.123-0.023c-0.061,0-0.115,0.015-0.166,0.044
			c-0.048,0.03-0.091,0.074-0.125,0.131c-0.035,0.059-0.062,0.131-0.081,0.217C23.07,3.528,23.062,3.627,23.062,3.74z M23.861,3.756
			c0-0.031-0.002-0.06-0.004-0.091c-0.002-0.029-0.005-0.059-0.007-0.087l-0.74,0.55c0.014,0.045,0.031,0.088,0.051,0.128
			c0.021,0.039,0.046,0.072,0.075,0.1c0.028,0.028,0.062,0.051,0.099,0.066c0.036,0.016,0.079,0.024,0.126,0.024
			c0.061,0,0.115-0.015,0.166-0.044c0.048-0.03,0.091-0.074,0.126-0.131c0.034-0.059,0.062-0.13,0.08-0.217
			C23.852,3.969,23.861,3.869,23.861,3.756z"/>
		<path fill="#FFFFFF" d="M24.097,6.488c0,0.134-0.014,0.255-0.04,0.365c-0.027,0.111-0.067,0.205-0.122,0.283
			c-0.055,0.079-0.122,0.141-0.203,0.184c-0.08,0.044-0.176,0.065-0.284,0.065c-0.093,0-0.179-0.018-0.255-0.054
			c-0.076-0.035-0.142-0.089-0.197-0.162c-0.055-0.074-0.096-0.167-0.125-0.28c-0.029-0.114-0.045-0.248-0.045-0.402
			c0-0.134,0.014-0.257,0.042-0.367c0.026-0.111,0.066-0.206,0.12-0.285c0.055-0.079,0.122-0.139,0.203-0.183
			c0.082-0.043,0.176-0.064,0.284-0.064c0.094,0,0.179,0.017,0.255,0.052c0.077,0.036,0.143,0.09,0.197,0.164
			c0.055,0.073,0.096,0.167,0.126,0.281C24.082,6.198,24.097,6.333,24.097,6.488z M23.062,6.48c0,0.027,0,0.055,0.001,0.083
			c0,0.027,0.001,0.054,0.004,0.08l0.74-0.547c-0.014-0.045-0.031-0.087-0.051-0.125c-0.021-0.038-0.046-0.069-0.074-0.098
			c-0.028-0.027-0.062-0.048-0.098-0.063c-0.036-0.016-0.077-0.022-0.123-0.022c-0.061,0-0.115,0.015-0.166,0.044
			c-0.048,0.029-0.091,0.074-0.125,0.131c-0.035,0.059-0.062,0.131-0.081,0.217C23.07,6.268,23.062,6.366,23.062,6.48z
			 M23.861,6.496c0-0.031-0.002-0.06-0.004-0.091c-0.002-0.03-0.005-0.059-0.007-0.087l-0.74,0.55
			c0.014,0.045,0.031,0.088,0.051,0.128c0.021,0.039,0.046,0.072,0.075,0.1c0.028,0.028,0.062,0.051,0.099,0.065
			c0.036,0.016,0.079,0.024,0.126,0.024c0.061,0,0.115-0.015,0.166-0.044c0.048-0.029,0.091-0.073,0.126-0.131
			c0.034-0.059,0.062-0.13,0.08-0.217C23.852,6.709,23.861,6.608,23.861,6.496z"/>
		<path fill="#FFFFFF" d="M24.042,11.607h-1.099v-0.217h0.449v-1.276l-0.418,0.228l-0.086-0.198l0.557-0.293h0.206v1.54h0.391
			V11.607z"/>
		<path fill="#FFFFFF" d="M24.042,14.347h-1.099V14.13h0.449v-1.276l-0.418,0.227l-0.086-0.198l0.557-0.293h0.206v1.54h0.391V14.347
			z"/>
		<path fill="#FFFFFF" d="M24.097,16.213c0,0.134-0.014,0.256-0.04,0.365c-0.027,0.111-0.067,0.205-0.122,0.284
			s-0.122,0.141-0.203,0.183c-0.08,0.045-0.176,0.066-0.284,0.066c-0.093,0-0.179-0.018-0.255-0.054
			c-0.076-0.035-0.142-0.09-0.197-0.162c-0.055-0.073-0.096-0.167-0.125-0.279c-0.029-0.114-0.045-0.248-0.045-0.403
			c0-0.134,0.014-0.257,0.042-0.366c0.026-0.111,0.066-0.206,0.12-0.285c0.055-0.079,0.122-0.139,0.203-0.183
			c0.082-0.042,0.176-0.064,0.284-0.064c0.094,0,0.179,0.017,0.255,0.052c0.077,0.036,0.143,0.089,0.197,0.163
			c0.055,0.074,0.096,0.168,0.126,0.281C24.082,15.923,24.097,16.059,24.097,16.213z M23.062,16.205c0,0.027,0,0.055,0.001,0.083
			c0,0.027,0.001,0.054,0.004,0.08l0.74-0.547c-0.014-0.046-0.031-0.087-0.051-0.124c-0.021-0.038-0.046-0.07-0.074-0.098
			s-0.062-0.049-0.098-0.063c-0.036-0.016-0.077-0.022-0.123-0.022c-0.061,0-0.115,0.015-0.166,0.044
			c-0.048,0.029-0.091,0.074-0.125,0.131c-0.035,0.06-0.062,0.132-0.081,0.217C23.07,15.992,23.062,16.092,23.062,16.205z
			 M23.861,16.222c0-0.031-0.002-0.061-0.004-0.091s-0.005-0.06-0.007-0.088l-0.74,0.55c0.014,0.046,0.031,0.089,0.051,0.129
			c0.021,0.039,0.046,0.072,0.075,0.101c0.028,0.027,0.062,0.051,0.099,0.065c0.036,0.016,0.079,0.023,0.126,0.023
			c0.061,0,0.115-0.015,0.166-0.044c0.048-0.029,0.091-0.073,0.126-0.131c0.034-0.059,0.062-0.13,0.08-0.217
			C23.852,16.434,23.861,16.334,23.861,16.222z"/>
		<path fill="#FFFFFF" d="M24.042,19.826h-1.099v-0.217h0.449v-1.275l-0.418,0.227l-0.086-0.197l0.557-0.295h0.206v1.541h0.391
			V19.826z"/>
		<path fill="#FFFFFF" d="M24.097,21.691c0,0.134-0.014,0.257-0.04,0.366c-0.027,0.11-0.067,0.205-0.122,0.284
			c-0.055,0.078-0.122,0.139-0.203,0.183c-0.08,0.044-0.176,0.065-0.284,0.065c-0.093,0-0.179-0.019-0.255-0.053
			c-0.076-0.035-0.142-0.09-0.197-0.164c-0.055-0.071-0.096-0.165-0.125-0.277c-0.029-0.114-0.045-0.249-0.045-0.404
			c0-0.134,0.014-0.256,0.042-0.366c0.026-0.11,0.066-0.205,0.12-0.284c0.055-0.079,0.122-0.139,0.203-0.184
			c0.082-0.044,0.176-0.065,0.284-0.065c0.094,0,0.179,0.02,0.255,0.054c0.077,0.035,0.143,0.09,0.197,0.163
			c0.055,0.074,0.096,0.167,0.126,0.281C24.082,21.402,24.097,21.536,24.097,21.691z M23.062,21.684c0,0.027,0,0.056,0.001,0.083
			c0,0.027,0.001,0.055,0.004,0.08l0.74-0.546c-0.014-0.046-0.031-0.089-0.051-0.126c-0.021-0.037-0.046-0.069-0.074-0.097
			c-0.028-0.026-0.062-0.048-0.098-0.063c-0.036-0.015-0.077-0.021-0.123-0.021c-0.061,0-0.115,0.014-0.166,0.043
			c-0.048,0.029-0.091,0.074-0.125,0.132c-0.035,0.058-0.062,0.13-0.081,0.217C23.07,21.472,23.062,21.571,23.062,21.684z
			 M23.861,21.699c0-0.029-0.002-0.059-0.004-0.09c-0.002-0.03-0.005-0.059-0.007-0.087l-0.74,0.549
			c0.014,0.047,0.031,0.09,0.051,0.128c0.021,0.04,0.046,0.074,0.075,0.103c0.028,0.027,0.062,0.051,0.099,0.065
			c0.036,0.015,0.079,0.022,0.126,0.022c0.061,0,0.115-0.014,0.166-0.043c0.048-0.029,0.091-0.073,0.126-0.131
			c0.034-0.059,0.062-0.131,0.08-0.217S23.861,21.813,23.861,21.699z"/>
		<path fill="#FFFFFF" d="M24.097,24.431c0,0.134-0.014,0.257-0.04,0.367c-0.027,0.109-0.067,0.204-0.122,0.283
			s-0.122,0.139-0.203,0.184c-0.08,0.044-0.176,0.065-0.284,0.065c-0.093,0-0.179-0.019-0.255-0.054s-0.142-0.09-0.197-0.163
			c-0.055-0.072-0.096-0.166-0.125-0.278c-0.029-0.113-0.045-0.249-0.045-0.404c0-0.134,0.014-0.255,0.042-0.366
			c0.026-0.109,0.066-0.205,0.12-0.283c0.055-0.079,0.122-0.14,0.203-0.184c0.082-0.044,0.176-0.065,0.284-0.065
			c0.094,0,0.179,0.019,0.255,0.054c0.077,0.034,0.143,0.089,0.197,0.163c0.055,0.073,0.096,0.167,0.126,0.28
			C24.082,24.142,24.097,24.275,24.097,24.431z M23.062,24.423c0,0.028,0,0.057,0.001,0.083c0,0.028,0.001,0.055,0.004,0.08
			l0.74-0.546c-0.014-0.045-0.031-0.088-0.051-0.125c-0.021-0.038-0.046-0.07-0.074-0.097c-0.028-0.027-0.062-0.048-0.098-0.064
			c-0.036-0.015-0.077-0.021-0.123-0.021c-0.061,0-0.115,0.014-0.166,0.043c-0.048,0.029-0.091,0.075-0.125,0.133
			c-0.035,0.058-0.062,0.13-0.081,0.217C23.07,24.212,23.062,24.311,23.062,24.423z M23.861,24.438c0-0.029-0.002-0.059-0.004-0.089
			c-0.002-0.031-0.005-0.06-0.007-0.087l-0.74,0.548c0.014,0.047,0.031,0.09,0.051,0.129c0.021,0.04,0.046,0.073,0.075,0.102
			c0.028,0.028,0.062,0.051,0.099,0.065c0.036,0.015,0.079,0.022,0.126,0.022c0.061,0,0.115-0.013,0.166-0.043
			c0.048-0.029,0.091-0.073,0.126-0.131c0.034-0.059,0.062-0.131,0.08-0.217C23.852,24.653,23.861,24.553,23.861,24.438z"/>
		<path fill="#FFFFFF" d="M24.042,29.552h-1.099v-0.217h0.449v-1.276l-0.418,0.228l-0.086-0.198l0.557-0.294h0.206v1.541h0.391
			V29.552z"/>
		<path fill="#FFFFFF" d="M24.097,31.416c0,0.134-0.014,0.257-0.04,0.367c-0.027,0.109-0.067,0.204-0.122,0.283
			s-0.122,0.14-0.203,0.184c-0.08,0.044-0.176,0.065-0.284,0.065c-0.093,0-0.179-0.019-0.255-0.054
			c-0.076-0.034-0.142-0.09-0.197-0.163c-0.055-0.072-0.096-0.166-0.125-0.278c-0.029-0.113-0.045-0.249-0.045-0.404
			c0-0.133,0.014-0.255,0.042-0.366c0.026-0.109,0.066-0.204,0.12-0.283c0.055-0.079,0.122-0.14,0.203-0.184
			c0.082-0.044,0.176-0.065,0.284-0.065c0.094,0,0.179,0.019,0.255,0.054c0.077,0.034,0.143,0.09,0.197,0.163
			s0.096,0.167,0.126,0.281C24.082,31.128,24.097,31.262,24.097,31.416z M23.062,31.408c0,0.028,0,0.057,0.001,0.083
			c0,0.028,0.001,0.055,0.004,0.08l0.74-0.546c-0.014-0.045-0.031-0.088-0.051-0.125c-0.021-0.038-0.046-0.07-0.074-0.097
			s-0.062-0.048-0.098-0.064c-0.036-0.015-0.077-0.021-0.123-0.021c-0.061,0-0.115,0.014-0.166,0.043
			c-0.048,0.029-0.091,0.075-0.125,0.133c-0.035,0.058-0.062,0.13-0.081,0.217C23.07,31.197,23.062,31.296,23.062,31.408z
			 M23.861,31.425c0-0.029-0.002-0.06-0.004-0.09c-0.002-0.031-0.005-0.059-0.007-0.087l-0.74,0.549
			c0.014,0.046,0.031,0.089,0.051,0.128c0.021,0.04,0.046,0.073,0.075,0.102c0.028,0.028,0.062,0.051,0.099,0.065
			c0.036,0.015,0.079,0.023,0.126,0.023c0.061,0,0.115-0.014,0.166-0.043c0.048-0.029,0.091-0.074,0.126-0.132
			c0.034-0.059,0.062-0.131,0.08-0.216C23.852,31.639,23.861,31.538,23.861,31.425z"/>
		<path fill="#FFFFFF" d="M24.042,35.031h-1.099v-0.217h0.449v-1.276l-0.418,0.228l-0.086-0.198l0.557-0.294h0.206v1.541h0.391
			V35.031z"/>
		<path fill="#FFFFFF" d="M21.356,7.241c0,0.134-0.013,0.255-0.04,0.365C21.29,7.717,21.25,7.811,21.195,7.89
			c-0.056,0.079-0.122,0.14-0.204,0.183c-0.08,0.044-0.175,0.065-0.283,0.065c-0.094,0-0.18-0.017-0.256-0.053
			c-0.076-0.035-0.142-0.09-0.196-0.162c-0.055-0.073-0.097-0.167-0.126-0.279c-0.029-0.114-0.044-0.248-0.044-0.403
			c0-0.134,0.014-0.257,0.042-0.367c0.026-0.111,0.066-0.206,0.12-0.285c0.055-0.079,0.121-0.139,0.203-0.184
			c0.082-0.042,0.175-0.064,0.283-0.064c0.094,0,0.18,0.018,0.256,0.052c0.076,0.036,0.142,0.089,0.196,0.163
			c0.056,0.074,0.097,0.167,0.126,0.281C21.342,6.951,21.356,7.086,21.356,7.241z M20.321,7.233c0,0.026,0,0.055,0.002,0.083
			c0,0.027,0.001,0.054,0.004,0.081l0.739-0.547c-0.014-0.045-0.03-0.087-0.051-0.124c-0.02-0.038-0.045-0.07-0.073-0.098
			c-0.028-0.027-0.062-0.048-0.098-0.063c-0.036-0.016-0.078-0.023-0.123-0.023c-0.061,0-0.115,0.015-0.166,0.044
			c-0.048,0.029-0.091,0.073-0.126,0.131c-0.034,0.059-0.062,0.131-0.08,0.217C20.331,7.021,20.321,7.12,20.321,7.233z
			 M21.121,7.249c0-0.031-0.001-0.06-0.004-0.091C21.116,7.129,21.113,7.1,21.11,7.071l-0.739,0.55
			c0.014,0.045,0.03,0.088,0.051,0.128c0.02,0.039,0.045,0.072,0.075,0.101c0.027,0.028,0.062,0.051,0.099,0.065
			c0.036,0.016,0.079,0.024,0.126,0.024c0.06,0,0.115-0.015,0.166-0.044c0.048-0.03,0.091-0.074,0.125-0.131
			c0.035-0.059,0.062-0.13,0.081-0.217C21.112,7.462,21.121,7.362,21.121,7.249z"/>
		<path fill="#FFFFFF" d="M21.302,10.854h-1.098v-0.217h0.449V9.361l-0.419,0.228l-0.086-0.198l0.557-0.293h0.206v1.54h0.391V10.854
			z"/>
		<path fill="#FFFFFF" d="M21.356,12.721c0,0.134-0.013,0.255-0.04,0.365c-0.026,0.111-0.066,0.205-0.121,0.283
			c-0.056,0.079-0.122,0.141-0.204,0.184c-0.08,0.044-0.175,0.065-0.283,0.065c-0.094,0-0.18-0.018-0.256-0.054
			c-0.076-0.035-0.142-0.089-0.196-0.162c-0.055-0.074-0.097-0.167-0.126-0.28c-0.029-0.114-0.044-0.248-0.044-0.402
			c0-0.134,0.014-0.257,0.042-0.367c0.026-0.111,0.066-0.206,0.12-0.285c0.055-0.079,0.121-0.139,0.203-0.183
			c0.082-0.043,0.175-0.064,0.283-0.064c0.094,0,0.18,0.017,0.256,0.052c0.076,0.036,0.142,0.09,0.196,0.164
			c0.056,0.073,0.097,0.167,0.126,0.281C21.342,12.43,21.356,12.565,21.356,12.721z M20.321,12.712c0,0.027,0,0.055,0.002,0.083
			c0,0.027,0.001,0.054,0.004,0.08l0.739-0.547c-0.014-0.045-0.03-0.087-0.051-0.125c-0.02-0.038-0.045-0.069-0.073-0.098
			c-0.028-0.027-0.062-0.048-0.098-0.063c-0.036-0.016-0.078-0.022-0.123-0.022c-0.061,0-0.115,0.015-0.166,0.044
			c-0.048,0.029-0.091,0.074-0.126,0.131c-0.034,0.059-0.062,0.131-0.08,0.217C20.331,12.5,20.321,12.599,20.321,12.712z
			 M21.121,12.729c0-0.031-0.001-0.06-0.004-0.091c-0.001-0.029-0.004-0.059-0.007-0.087l-0.739,0.55
			c0.014,0.045,0.03,0.088,0.051,0.128c0.02,0.039,0.045,0.072,0.075,0.1c0.027,0.028,0.062,0.051,0.099,0.065
			c0.036,0.016,0.079,0.024,0.126,0.024c0.06,0,0.115-0.015,0.166-0.044c0.048-0.029,0.091-0.073,0.125-0.131
			c0.035-0.059,0.062-0.13,0.081-0.217C21.112,12.941,21.121,12.841,21.121,12.729z"/>
		<path fill="#FFFFFF" d="M21.302,17.839h-1.098v-0.216h0.449v-1.276l-0.419,0.228l-0.086-0.197l0.557-0.293h0.206v1.539h0.391
			V17.839z"/>
		<path fill="#FFFFFF" d="M21.302,20.578h-1.098v-0.217h0.449v-1.276l-0.419,0.228l-0.086-0.197l0.557-0.292h0.206v1.538h0.391
			V20.578z"/>
		<path fill="#FFFFFF" d="M21.302,23.318h-1.098v-0.217h0.449v-1.276l-0.419,0.228l-0.086-0.198l0.557-0.292h0.206v1.539h0.391
			V23.318z"/>
		<path fill="#FFFFFF" d="M21.356,25.186c0,0.134-0.013,0.254-0.04,0.365c-0.026,0.11-0.066,0.204-0.121,0.283
			c-0.056,0.079-0.122,0.141-0.204,0.184c-0.08,0.043-0.175,0.064-0.283,0.064c-0.094,0-0.18-0.017-0.256-0.053
			s-0.142-0.09-0.196-0.162c-0.055-0.073-0.097-0.167-0.126-0.28c-0.029-0.112-0.044-0.246-0.044-0.401
			c0-0.134,0.014-0.257,0.042-0.366c0.026-0.111,0.066-0.206,0.12-0.285c0.055-0.079,0.121-0.141,0.203-0.184
			s0.175-0.064,0.283-0.064c0.094,0,0.18,0.017,0.256,0.053s0.142,0.09,0.196,0.163c0.056,0.073,0.097,0.167,0.126,0.279
			C21.342,24.896,21.356,25.03,21.356,25.186z M20.321,25.178c0,0.026,0,0.055,0.002,0.083c0,0.026,0.001,0.053,0.004,0.08
			l0.739-0.549c-0.014-0.045-0.03-0.086-0.051-0.123c-0.02-0.037-0.045-0.069-0.073-0.098s-0.062-0.048-0.098-0.063
			c-0.036-0.017-0.078-0.024-0.123-0.024c-0.061,0-0.115,0.016-0.166,0.046c-0.048,0.029-0.091,0.072-0.126,0.131
			c-0.034,0.059-0.062,0.131-0.08,0.217C20.331,24.963,20.321,25.063,20.321,25.178z M21.121,25.193c0-0.03-0.001-0.062-0.004-0.091
			c-0.001-0.029-0.004-0.059-0.007-0.088l-0.739,0.551c0.014,0.045,0.03,0.088,0.051,0.128c0.02,0.039,0.045,0.072,0.075,0.101
			c0.027,0.028,0.062,0.05,0.099,0.065c0.036,0.017,0.079,0.024,0.126,0.024c0.06,0,0.115-0.017,0.166-0.046
			c0.048-0.029,0.091-0.072,0.125-0.131c0.035-0.058,0.062-0.128,0.081-0.215C21.112,25.404,21.121,25.306,21.121,25.193z"/>
		<path fill="#FFFFFF" d="M21.302,28.797h-1.098V28.58h0.449v-1.275l-0.419,0.228l-0.086-0.198l0.557-0.292h0.206v1.538h0.391
			V28.797z"/>
		<path fill="#FFFFFF" d="M18.617,2.515c0,0.134-0.014,0.255-0.04,0.365c-0.026,0.111-0.067,0.205-0.122,0.284
			c-0.055,0.079-0.121,0.14-0.203,0.183c-0.08,0.044-0.175,0.065-0.283,0.065c-0.094,0-0.18-0.017-0.256-0.053
			c-0.076-0.035-0.142-0.09-0.196-0.162c-0.056-0.074-0.097-0.167-0.126-0.28c-0.029-0.113-0.044-0.247-0.044-0.402
			c0-0.134,0.013-0.257,0.041-0.367c0.027-0.111,0.067-0.206,0.12-0.285c0.056-0.079,0.122-0.139,0.204-0.184
			c0.081-0.042,0.175-0.064,0.283-0.064c0.094,0,0.18,0.017,0.256,0.052c0.076,0.036,0.142,0.089,0.196,0.163
			s0.097,0.167,0.126,0.281C18.603,2.225,18.617,2.36,18.617,2.515z M17.582,2.507c0,0.027,0,0.055,0.001,0.083
			c0,0.027,0.002,0.054,0.004,0.081l0.74-0.547c-0.014-0.045-0.031-0.087-0.051-0.125c-0.021-0.037-0.046-0.069-0.074-0.098
			c-0.027-0.026-0.062-0.048-0.098-0.063c-0.036-0.016-0.077-0.023-0.123-0.023c-0.06,0-0.114,0.015-0.166,0.044
			c-0.048,0.03-0.091,0.074-0.125,0.131c-0.035,0.059-0.062,0.131-0.08,0.217C17.591,2.294,17.582,2.394,17.582,2.507z
			 M18.382,2.523c0-0.031-0.001-0.06-0.004-0.091c-0.002-0.029-0.004-0.059-0.007-0.087l-0.74,0.55
			c0.014,0.045,0.031,0.088,0.051,0.128c0.021,0.039,0.046,0.072,0.075,0.1c0.028,0.028,0.062,0.051,0.1,0.066
			c0.036,0.016,0.078,0.024,0.125,0.024c0.061,0,0.115-0.015,0.166-0.044c0.049-0.03,0.091-0.074,0.126-0.131
			c0.035-0.059,0.062-0.13,0.08-0.217C18.372,2.736,18.382,2.635,18.382,2.523z"/>
		<path fill="#FFFFFF" d="M18.617,5.255c0,0.134-0.014,0.255-0.04,0.365c-0.026,0.111-0.067,0.205-0.122,0.283
			c-0.055,0.079-0.121,0.141-0.203,0.184c-0.08,0.044-0.175,0.065-0.283,0.065c-0.094,0-0.18-0.018-0.256-0.054
			c-0.076-0.035-0.142-0.089-0.196-0.162c-0.056-0.074-0.097-0.167-0.126-0.28c-0.029-0.114-0.044-0.248-0.044-0.402
			c0-0.134,0.013-0.257,0.041-0.367c0.027-0.111,0.067-0.206,0.12-0.285c0.056-0.079,0.122-0.139,0.204-0.183
			c0.081-0.043,0.175-0.064,0.283-0.064c0.094,0,0.18,0.017,0.256,0.052c0.076,0.036,0.142,0.09,0.196,0.164
			c0.055,0.073,0.097,0.167,0.126,0.281C18.603,4.964,18.617,5.1,18.617,5.255z M17.582,5.247c0,0.027,0,0.055,0.001,0.083
			c0,0.027,0.002,0.054,0.004,0.08l0.74-0.547c-0.014-0.045-0.031-0.087-0.051-0.125c-0.021-0.038-0.046-0.069-0.074-0.098
			c-0.027-0.027-0.062-0.048-0.098-0.063c-0.036-0.016-0.077-0.022-0.123-0.022c-0.06,0-0.114,0.015-0.166,0.044
			c-0.048,0.03-0.091,0.074-0.125,0.131c-0.035,0.059-0.062,0.131-0.08,0.217C17.591,5.034,17.582,5.133,17.582,5.247z
			 M18.382,5.263c0-0.031-0.001-0.06-0.004-0.091c-0.002-0.029-0.004-0.059-0.007-0.087l-0.74,0.55
			c0.014,0.045,0.031,0.088,0.051,0.128c0.021,0.039,0.046,0.072,0.075,0.1c0.028,0.028,0.062,0.051,0.1,0.065
			c0.036,0.016,0.078,0.024,0.125,0.024c0.061,0,0.115-0.015,0.166-0.044c0.049-0.029,0.091-0.073,0.126-0.131
			c0.035-0.059,0.062-0.13,0.08-0.217C18.372,5.476,18.382,5.375,18.382,5.263z"/>
		<path fill="#FFFFFF" d="M18.563,8.868h-1.099V8.651h0.449V7.375l-0.418,0.228l-0.086-0.198l0.557-0.293h0.206v1.54h0.391V8.868z"
			/>
		<path fill="#FFFFFF" d="M18.563,11.607h-1.099v-0.217h0.449v-1.276l-0.418,0.228l-0.086-0.198l0.557-0.293h0.206v1.54h0.391
			V11.607z"/>
		<path fill="#FFFFFF" d="M18.617,13.474c0,0.134-0.014,0.255-0.04,0.365c-0.026,0.111-0.067,0.205-0.122,0.284
			c-0.055,0.079-0.121,0.14-0.203,0.183c-0.08,0.044-0.175,0.065-0.283,0.065c-0.094,0-0.18-0.017-0.256-0.053
			c-0.076-0.035-0.142-0.09-0.196-0.162c-0.056-0.073-0.097-0.167-0.126-0.279c-0.029-0.114-0.044-0.248-0.044-0.403
			c0-0.134,0.013-0.257,0.041-0.367c0.027-0.111,0.067-0.206,0.12-0.285c0.056-0.079,0.122-0.139,0.204-0.183
			c0.081-0.043,0.175-0.064,0.283-0.064c0.094,0,0.18,0.018,0.256,0.052c0.076,0.036,0.142,0.089,0.196,0.163
			s0.097,0.167,0.126,0.281C18.603,13.184,18.617,13.318,18.617,13.474z M17.582,13.466c0,0.026,0,0.055,0.001,0.083
			c0,0.027,0.002,0.054,0.004,0.081l0.74-0.547c-0.014-0.045-0.031-0.087-0.051-0.124c-0.021-0.038-0.046-0.07-0.074-0.098
			c-0.027-0.027-0.062-0.048-0.098-0.063c-0.036-0.016-0.077-0.023-0.123-0.023c-0.06,0-0.114,0.015-0.166,0.044
			c-0.048,0.029-0.091,0.073-0.125,0.131c-0.035,0.059-0.062,0.131-0.08,0.217C17.591,13.253,17.582,13.352,17.582,13.466z
			 M18.382,13.481c0-0.031-0.001-0.06-0.004-0.091c-0.002-0.029-0.004-0.059-0.007-0.087l-0.74,0.55
			c0.014,0.045,0.031,0.088,0.051,0.128c0.021,0.039,0.046,0.072,0.075,0.101c0.028,0.028,0.062,0.051,0.1,0.065
			c0.036,0.016,0.078,0.024,0.125,0.024c0.061,0,0.115-0.015,0.166-0.044c0.049-0.03,0.091-0.074,0.126-0.131
			c0.035-0.059,0.062-0.129,0.08-0.217C18.372,13.694,18.382,13.594,18.382,13.481z"/>
		<path fill="#FFFFFF" d="M18.617,16.213c0,0.134-0.014,0.256-0.04,0.365c-0.026,0.111-0.067,0.205-0.122,0.284
			s-0.121,0.141-0.203,0.183c-0.08,0.045-0.175,0.066-0.283,0.066c-0.094,0-0.18-0.018-0.256-0.054
			c-0.076-0.035-0.142-0.09-0.196-0.162c-0.056-0.073-0.097-0.167-0.126-0.279c-0.029-0.114-0.044-0.248-0.044-0.403
			c0-0.134,0.013-0.257,0.041-0.366c0.027-0.111,0.067-0.206,0.12-0.285c0.056-0.079,0.122-0.139,0.204-0.183
			c0.081-0.042,0.175-0.064,0.283-0.064c0.094,0,0.18,0.017,0.256,0.052c0.076,0.036,0.142,0.089,0.196,0.163
			c0.055,0.074,0.097,0.168,0.126,0.281C18.603,15.923,18.617,16.059,18.617,16.213z M17.582,16.205c0,0.027,0,0.055,0.001,0.083
			c0,0.027,0.002,0.054,0.004,0.08l0.74-0.547c-0.014-0.046-0.031-0.087-0.051-0.124c-0.021-0.038-0.046-0.07-0.074-0.098
			c-0.027-0.027-0.062-0.049-0.098-0.063c-0.036-0.016-0.077-0.022-0.123-0.022c-0.06,0-0.114,0.015-0.166,0.044
			c-0.048,0.029-0.091,0.074-0.125,0.131c-0.035,0.06-0.062,0.132-0.08,0.217C17.591,15.992,17.582,16.092,17.582,16.205z
			 M18.382,16.222c0-0.031-0.001-0.061-0.004-0.091c-0.002-0.03-0.004-0.06-0.007-0.088l-0.74,0.55
			c0.014,0.046,0.031,0.089,0.051,0.129c0.021,0.039,0.046,0.072,0.075,0.101c0.028,0.027,0.062,0.051,0.1,0.065
			c0.036,0.016,0.078,0.023,0.125,0.023c0.061,0,0.115-0.015,0.166-0.044c0.049-0.029,0.091-0.073,0.126-0.131
			c0.035-0.059,0.062-0.13,0.08-0.217C18.372,16.434,18.382,16.334,18.382,16.222z"/>
		<path fill="#FFFFFF" d="M18.563,19.826h-1.099v-0.217h0.449v-1.275l-0.418,0.227l-0.086-0.197l0.557-0.295h0.206v1.541h0.391
			V19.826z"/>
		<path fill="#FFFFFF" d="M18.563,22.566h-1.099V22.35h0.449v-1.276l-0.418,0.228l-0.086-0.198l0.557-0.294h0.206v1.541h0.391
			V22.566z"/>
		<path fill="#FFFFFF" d="M18.563,25.306h-1.099v-0.217h0.449v-1.276l-0.418,0.228l-0.086-0.197l0.557-0.295h0.206v1.541h0.391
			V25.306z"/>
		<path fill="#FFFFFF" d="M18.617,27.171c0,0.134-0.014,0.257-0.04,0.366s-0.067,0.205-0.122,0.283
			c-0.055,0.079-0.121,0.14-0.203,0.184c-0.08,0.044-0.175,0.065-0.283,0.065c-0.094,0-0.18-0.019-0.256-0.054
			c-0.076-0.034-0.142-0.089-0.196-0.163c-0.056-0.072-0.097-0.166-0.126-0.278c-0.029-0.113-0.044-0.248-0.044-0.403
			c0-0.134,0.013-0.256,0.041-0.367c0.027-0.109,0.067-0.204,0.12-0.283c0.056-0.079,0.122-0.14,0.204-0.184
			c0.081-0.044,0.175-0.065,0.283-0.065c0.094,0,0.18,0.019,0.256,0.054s0.142,0.09,0.196,0.163s0.097,0.167,0.126,0.281
			C18.603,26.882,18.617,27.016,18.617,27.171z M17.582,27.162c0,0.028,0,0.057,0.001,0.083c0,0.028,0.002,0.056,0.004,0.081
			l0.74-0.546c-0.014-0.046-0.031-0.089-0.051-0.126c-0.021-0.037-0.046-0.069-0.074-0.097c-0.027-0.026-0.062-0.048-0.098-0.063
			s-0.077-0.021-0.123-0.021c-0.06,0-0.114,0.013-0.166,0.042c-0.048,0.03-0.091,0.075-0.125,0.133
			c-0.035,0.058-0.062,0.13-0.08,0.217C17.591,26.951,17.582,27.05,17.582,27.162z M18.382,27.179c0-0.029-0.001-0.059-0.004-0.09
			c-0.002-0.03-0.004-0.059-0.007-0.087l-0.74,0.549c0.014,0.047,0.031,0.089,0.051,0.128c0.021,0.04,0.046,0.074,0.075,0.102
			c0.028,0.028,0.062,0.051,0.1,0.065c0.036,0.015,0.078,0.023,0.125,0.023c0.061,0,0.115-0.014,0.166-0.043
			c0.049-0.029,0.091-0.073,0.126-0.131c0.035-0.06,0.062-0.132,0.08-0.217C18.372,27.393,18.382,27.292,18.382,27.179z"/>
		<path fill="#FFFFFF" d="M18.563,30.785h-1.099v-0.217h0.449v-1.276l-0.418,0.228l-0.086-0.198l0.557-0.294h0.206v1.541h0.391
			V30.785z"/>
		<path fill="#FFFFFF" d="M18.563,33.524h-1.099v-0.217h0.449v-1.275l-0.418,0.227l-0.086-0.197l0.557-0.295h0.206v1.541h0.391
			V33.524z"/>
		<path fill="#FFFFFF" d="M15.878,1.009c0,0.134-0.014,0.255-0.04,0.365c-0.027,0.111-0.067,0.205-0.122,0.284
			c-0.055,0.079-0.122,0.14-0.203,0.183c-0.081,0.044-0.176,0.065-0.284,0.065c-0.094,0-0.18-0.017-0.256-0.053
			c-0.076-0.035-0.141-0.09-0.196-0.162c-0.055-0.073-0.097-0.167-0.126-0.279c-0.029-0.114-0.043-0.248-0.043-0.403
			c0-0.134,0.013-0.257,0.041-0.367c0.026-0.111,0.066-0.206,0.12-0.285c0.055-0.079,0.122-0.139,0.203-0.184
			c0.082-0.042,0.175-0.064,0.284-0.064c0.094,0,0.179,0.018,0.255,0.052c0.076,0.036,0.142,0.089,0.197,0.163
			c0.055,0.074,0.096,0.167,0.125,0.281C15.863,0.719,15.878,0.854,15.878,1.009z M14.842,1.001c0,0.026,0,0.055,0.002,0.083
			c0,0.027,0.001,0.054,0.004,0.081l0.739-0.547c-0.013-0.045-0.03-0.087-0.051-0.124c-0.02-0.038-0.046-0.07-0.073-0.098
			c-0.028-0.027-0.062-0.048-0.098-0.063c-0.036-0.016-0.078-0.023-0.123-0.023c-0.061,0-0.115,0.015-0.166,0.044
			c-0.048,0.029-0.091,0.073-0.125,0.131c-0.035,0.059-0.063,0.131-0.081,0.217C14.852,0.788,14.842,0.887,14.842,1.001z
			 M15.643,1.017c0-0.031-0.002-0.06-0.005-0.091c-0.001-0.029-0.004-0.059-0.006-0.087l-0.74,0.55
			c0.013,0.045,0.03,0.088,0.051,0.128c0.021,0.039,0.046,0.072,0.075,0.101c0.027,0.028,0.062,0.051,0.099,0.065
			c0.036,0.016,0.079,0.024,0.126,0.024c0.061,0,0.115-0.015,0.166-0.044c0.048-0.03,0.091-0.074,0.126-0.131
			c0.034-0.059,0.062-0.13,0.08-0.217C15.633,1.229,15.643,1.129,15.643,1.017z"/>
		<path fill="#FFFFFF" d="M15.822,4.622h-1.098V4.405h0.449V3.129l-0.418,0.228L14.67,3.159l0.557-0.293h0.205v1.54h0.391V4.622z"/>
		<path fill="#FFFFFF" d="M15.878,6.488c0,0.134-0.014,0.255-0.04,0.365c-0.027,0.111-0.067,0.205-0.122,0.283
			c-0.055,0.079-0.122,0.141-0.203,0.184c-0.081,0.044-0.176,0.065-0.284,0.065c-0.094,0-0.18-0.018-0.256-0.054
			c-0.076-0.035-0.141-0.089-0.196-0.162c-0.055-0.074-0.097-0.167-0.126-0.28c-0.029-0.114-0.043-0.248-0.043-0.402
			c0-0.134,0.013-0.257,0.041-0.367c0.026-0.111,0.066-0.206,0.12-0.285c0.055-0.079,0.122-0.139,0.203-0.183
			c0.082-0.043,0.175-0.064,0.284-0.064c0.094,0,0.179,0.017,0.255,0.052c0.076,0.036,0.142,0.09,0.197,0.164
			c0.055,0.073,0.096,0.167,0.125,0.281C15.863,6.198,15.878,6.333,15.878,6.488z M14.842,6.48c0,0.027,0,0.055,0.002,0.083
			c0,0.027,0.001,0.054,0.004,0.08l0.739-0.547c-0.013-0.045-0.03-0.087-0.051-0.125c-0.02-0.038-0.046-0.069-0.073-0.098
			c-0.028-0.027-0.062-0.048-0.098-0.063c-0.036-0.016-0.078-0.022-0.123-0.022c-0.061,0-0.115,0.015-0.166,0.044
			c-0.048,0.029-0.091,0.074-0.125,0.131c-0.035,0.059-0.063,0.131-0.081,0.217C14.852,6.268,14.842,6.366,14.842,6.48z
			 M15.643,6.496c0-0.031-0.002-0.06-0.005-0.091c-0.001-0.03-0.004-0.059-0.006-0.087l-0.74,0.55
			c0.013,0.045,0.03,0.088,0.051,0.128c0.021,0.039,0.046,0.072,0.075,0.1c0.027,0.028,0.062,0.051,0.099,0.065
			c0.036,0.016,0.079,0.024,0.126,0.024c0.061,0,0.115-0.015,0.166-0.044c0.048-0.029,0.091-0.073,0.126-0.131
			c0.034-0.059,0.062-0.13,0.08-0.217C15.633,6.709,15.643,6.608,15.643,6.496z"/>
		<path fill="#FFFFFF" d="M15.822,11.607h-1.098v-0.217h0.449v-1.276l-0.418,0.228l-0.086-0.198l0.557-0.293h0.205v1.54h0.391
			V11.607z"/>
		<path fill="#FFFFFF" d="M15.822,14.347h-1.098V14.13h0.449v-1.276l-0.418,0.227l-0.086-0.198l0.557-0.293h0.205v1.54h0.391V14.347
			z"/>
		<path fill="#FFFFFF" d="M15.878,16.213c0,0.134-0.014,0.256-0.04,0.365c-0.027,0.111-0.067,0.205-0.122,0.284
			s-0.122,0.141-0.203,0.183c-0.081,0.045-0.176,0.066-0.284,0.066c-0.094,0-0.18-0.018-0.256-0.054
			c-0.076-0.035-0.141-0.09-0.196-0.162c-0.055-0.073-0.097-0.167-0.126-0.279c-0.029-0.114-0.043-0.248-0.043-0.403
			c0-0.134,0.013-0.257,0.041-0.366c0.026-0.111,0.066-0.206,0.12-0.285c0.055-0.079,0.122-0.139,0.203-0.183
			c0.082-0.042,0.175-0.064,0.284-0.064c0.094,0,0.179,0.017,0.255,0.052c0.076,0.036,0.142,0.089,0.197,0.163
			c0.055,0.074,0.096,0.168,0.125,0.281C15.863,15.923,15.878,16.059,15.878,16.213z M14.842,16.205c0,0.027,0,0.055,0.002,0.083
			c0,0.027,0.001,0.054,0.004,0.08l0.739-0.547c-0.013-0.046-0.03-0.087-0.051-0.124c-0.02-0.038-0.046-0.07-0.073-0.098
			c-0.028-0.027-0.062-0.049-0.098-0.063c-0.036-0.016-0.078-0.022-0.123-0.022c-0.061,0-0.115,0.015-0.166,0.044
			c-0.048,0.029-0.091,0.074-0.125,0.131c-0.035,0.06-0.063,0.132-0.081,0.217C14.852,15.992,14.842,16.092,14.842,16.205z
			 M15.643,16.222c0-0.031-0.002-0.061-0.005-0.091c-0.001-0.03-0.004-0.06-0.006-0.088l-0.74,0.55
			c0.013,0.046,0.03,0.089,0.051,0.129c0.021,0.039,0.046,0.072,0.075,0.101c0.027,0.027,0.062,0.051,0.099,0.065
			c0.036,0.016,0.079,0.023,0.126,0.023c0.061,0,0.115-0.015,0.166-0.044c0.048-0.029,0.091-0.073,0.126-0.131
			c0.034-0.059,0.062-0.13,0.08-0.217C15.633,16.434,15.643,16.334,15.643,16.222z"/>
		<path fill="#FFFFFF" d="M15.878,20.458c0,0.134-0.014,0.257-0.04,0.366c-0.027,0.11-0.067,0.205-0.122,0.284
			c-0.055,0.078-0.122,0.139-0.203,0.183s-0.176,0.065-0.284,0.065c-0.094,0-0.18-0.019-0.256-0.053
			c-0.076-0.035-0.141-0.09-0.196-0.164c-0.055-0.071-0.097-0.165-0.126-0.277c-0.029-0.114-0.043-0.249-0.043-0.404
			c0-0.134,0.013-0.256,0.041-0.366c0.026-0.11,0.066-0.205,0.12-0.284c0.055-0.079,0.122-0.139,0.203-0.184
			c0.082-0.044,0.175-0.065,0.284-0.065c0.094,0,0.179,0.02,0.255,0.054c0.076,0.035,0.142,0.09,0.197,0.163
			c0.055,0.074,0.096,0.168,0.125,0.281C15.863,20.169,15.878,20.303,15.878,20.458z M14.842,20.45c0,0.027,0,0.056,0.002,0.083
			c0,0.027,0.001,0.055,0.004,0.08l0.739-0.546c-0.013-0.046-0.03-0.089-0.051-0.126c-0.02-0.037-0.046-0.069-0.073-0.096
			c-0.028-0.027-0.062-0.049-0.098-0.064c-0.036-0.015-0.078-0.021-0.123-0.021c-0.061,0-0.115,0.014-0.166,0.043
			c-0.048,0.029-0.091,0.074-0.125,0.132c-0.035,0.058-0.063,0.13-0.081,0.217S14.842,20.338,14.842,20.45z M15.643,20.466
			c0-0.029-0.002-0.059-0.005-0.09c-0.001-0.03-0.004-0.059-0.006-0.087l-0.74,0.549c0.013,0.047,0.03,0.09,0.051,0.128
			c0.021,0.041,0.046,0.074,0.075,0.103c0.027,0.027,0.062,0.051,0.099,0.065c0.036,0.015,0.079,0.022,0.126,0.022
			c0.061,0,0.115-0.014,0.166-0.043c0.048-0.029,0.091-0.073,0.126-0.131c0.034-0.059,0.062-0.131,0.08-0.217
			S15.643,20.58,15.643,20.466z"/>
		<path fill="#FFFFFF" d="M15.822,24.072h-1.098v-0.217h0.449v-1.276l-0.418,0.228l-0.086-0.197l0.557-0.295h0.205v1.541h0.391
			V24.072z"/>
		<path fill="#FFFFFF" d="M15.822,26.813h-1.098v-0.217h0.449v-1.276l-0.418,0.228l-0.086-0.198l0.557-0.294h0.205v1.541h0.391
			V26.813z"/>
		<path fill="#FFFFFF" d="M15.822,29.552h-1.098v-0.217h0.449v-1.276l-0.418,0.228l-0.086-0.198l0.557-0.294h0.205v1.541h0.391
			V29.552z"/>
		<path fill="#FFFFFF" d="M15.878,31.416c0,0.134-0.014,0.257-0.04,0.367c-0.027,0.109-0.067,0.204-0.122,0.283
			s-0.122,0.14-0.203,0.184s-0.176,0.065-0.284,0.065c-0.094,0-0.18-0.019-0.256-0.054c-0.076-0.034-0.141-0.09-0.196-0.163
			c-0.055-0.072-0.097-0.166-0.126-0.278c-0.029-0.113-0.043-0.249-0.043-0.404c0-0.133,0.013-0.255,0.041-0.366
			c0.026-0.109,0.066-0.204,0.12-0.283c0.055-0.079,0.122-0.14,0.203-0.184c0.082-0.044,0.175-0.065,0.284-0.065
			c0.094,0,0.179,0.019,0.255,0.054c0.076,0.034,0.142,0.09,0.197,0.163c0.055,0.073,0.096,0.167,0.125,0.281
			C15.863,31.128,15.878,31.262,15.878,31.416z M14.842,31.408c0,0.028,0,0.057,0.002,0.083c0,0.028,0.001,0.055,0.004,0.08
			l0.739-0.546c-0.013-0.045-0.03-0.088-0.051-0.125c-0.02-0.038-0.046-0.07-0.073-0.097c-0.028-0.026-0.062-0.048-0.098-0.064
			c-0.036-0.015-0.078-0.021-0.123-0.021c-0.061,0-0.115,0.014-0.166,0.043c-0.048,0.029-0.091,0.075-0.125,0.133
			c-0.035,0.058-0.063,0.13-0.081,0.217S14.842,31.296,14.842,31.408z M15.643,31.425c0-0.029-0.002-0.06-0.005-0.09
			c-0.001-0.031-0.004-0.059-0.006-0.087l-0.74,0.549c0.013,0.046,0.03,0.089,0.051,0.128c0.021,0.04,0.046,0.073,0.075,0.102
			c0.027,0.028,0.062,0.051,0.099,0.065c0.036,0.015,0.079,0.023,0.126,0.023c0.061,0,0.115-0.014,0.166-0.043
			c0.048-0.029,0.091-0.074,0.126-0.132c0.034-0.059,0.062-0.131,0.08-0.216C15.633,31.639,15.643,31.538,15.643,31.425z"/>
		<path fill="#FFFFFF" d="M15.878,34.156c0,0.134-0.014,0.257-0.04,0.366c-0.027,0.11-0.067,0.205-0.122,0.284
			c-0.055,0.078-0.122,0.139-0.203,0.183s-0.176,0.065-0.284,0.065c-0.094,0-0.18-0.019-0.256-0.053
			c-0.076-0.035-0.141-0.09-0.196-0.164c-0.055-0.071-0.097-0.165-0.126-0.277c-0.029-0.114-0.043-0.249-0.043-0.404
			c0-0.134,0.013-0.256,0.041-0.366c0.026-0.11,0.066-0.205,0.12-0.284c0.055-0.079,0.122-0.139,0.203-0.184
			c0.082-0.044,0.175-0.065,0.284-0.065c0.094,0,0.179,0.02,0.255,0.054c0.076,0.035,0.142,0.09,0.197,0.163
			c0.055,0.074,0.096,0.168,0.125,0.281C15.863,33.867,15.878,34.001,15.878,34.156z M14.842,34.148c0,0.027,0,0.056,0.002,0.083
			c0,0.027,0.001,0.055,0.004,0.08l0.739-0.546c-0.013-0.046-0.03-0.089-0.051-0.126c-0.02-0.037-0.046-0.069-0.073-0.096
			c-0.028-0.027-0.062-0.049-0.098-0.064c-0.036-0.015-0.078-0.021-0.123-0.021c-0.061,0-0.115,0.014-0.166,0.043
			c-0.048,0.029-0.091,0.074-0.125,0.132c-0.035,0.058-0.063,0.13-0.081,0.217S14.842,34.036,14.842,34.148z M15.643,34.164
			c0-0.029-0.002-0.059-0.005-0.09c-0.001-0.03-0.004-0.059-0.006-0.087l-0.74,0.549c0.013,0.047,0.03,0.09,0.051,0.128
			c0.021,0.041,0.046,0.074,0.075,0.103c0.027,0.027,0.062,0.051,0.099,0.065c0.036,0.015,0.079,0.022,0.126,0.022
			c0.061,0,0.115-0.014,0.166-0.043c0.048-0.029,0.091-0.073,0.126-0.131c0.034-0.059,0.062-0.131,0.08-0.217
			S15.643,34.278,15.643,34.164z"/>
		<path fill="#FFFFFF" d="M13.138,4.501c0,0.134-0.013,0.256-0.04,0.365c-0.027,0.111-0.066,0.205-0.121,0.284
			s-0.122,0.141-0.204,0.183c-0.08,0.044-0.175,0.066-0.283,0.066c-0.094,0-0.179-0.018-0.256-0.054
			c-0.076-0.035-0.142-0.09-0.196-0.162c-0.055-0.073-0.097-0.167-0.126-0.279c-0.029-0.114-0.044-0.248-0.044-0.403
			c0-0.134,0.014-0.257,0.041-0.366c0.027-0.111,0.067-0.206,0.121-0.285c0.055-0.079,0.121-0.139,0.203-0.183
			c0.082-0.043,0.176-0.064,0.283-0.064c0.094,0,0.18,0.018,0.256,0.052c0.076,0.036,0.142,0.09,0.196,0.163
			c0.056,0.074,0.097,0.167,0.126,0.281C13.123,4.211,13.138,4.346,13.138,4.501z M12.103,4.494c0,0.027,0,0.055,0.001,0.083
			c0,0.026,0.002,0.053,0.004,0.08l0.74-0.547c-0.014-0.046-0.031-0.087-0.051-0.125c-0.02-0.038-0.045-0.07-0.074-0.098
			c-0.027-0.027-0.061-0.048-0.098-0.063c-0.035-0.016-0.077-0.023-0.123-0.023c-0.06,0-0.115,0.015-0.166,0.044
			c-0.047,0.029-0.09,0.073-0.125,0.131c-0.035,0.059-0.062,0.131-0.08,0.217C12.111,4.281,12.103,4.38,12.103,4.494z M12.902,4.51
			c0-0.031-0.002-0.061-0.004-0.091c-0.002-0.029-0.004-0.059-0.007-0.087l-0.739,0.55c0.014,0.045,0.03,0.088,0.051,0.128
			c0.02,0.039,0.045,0.072,0.074,0.101c0.028,0.028,0.063,0.051,0.1,0.065C12.413,5.192,12.455,5.2,12.502,5.2
			c0.061,0,0.115-0.015,0.166-0.044c0.049-0.029,0.092-0.074,0.126-0.131c0.035-0.059,0.062-0.129,0.081-0.216
			C12.893,4.722,12.902,4.622,12.902,4.51z"/>
		<path fill="#FFFFFF" d="M13.083,8.115h-1.099V7.898h0.449V6.622l-0.418,0.227L11.93,6.651l0.557-0.293h0.206v1.54h0.391V8.115z"/>
		<path fill="#FFFFFF" d="M13.083,10.854h-1.099v-0.217h0.449V9.361l-0.418,0.228L11.93,9.391l0.557-0.293h0.206v1.54h0.391V10.854z
			"/>
		<path fill="#FFFFFF" d="M13.083,13.594h-1.099v-0.217h0.449v-1.276l-0.418,0.228L11.93,12.13l0.557-0.293h0.206v1.54h0.391V13.594
			z"/>
		<path fill="#FFFFFF" d="M13.138,15.46c0,0.134-0.013,0.256-0.04,0.365c-0.027,0.111-0.066,0.205-0.121,0.284
			c-0.055,0.078-0.122,0.14-0.204,0.183c-0.08,0.044-0.175,0.065-0.283,0.065c-0.094,0-0.179-0.017-0.256-0.053
			c-0.076-0.035-0.142-0.09-0.196-0.162c-0.055-0.074-0.097-0.167-0.126-0.279c-0.029-0.114-0.044-0.248-0.044-0.403
			c0-0.134,0.014-0.257,0.041-0.366c0.027-0.111,0.067-0.206,0.121-0.285c0.055-0.079,0.121-0.139,0.203-0.183
			c0.082-0.043,0.176-0.064,0.283-0.064c0.094,0,0.18,0.018,0.256,0.052c0.076,0.036,0.142,0.09,0.196,0.163
			c0.056,0.074,0.097,0.167,0.126,0.281C13.123,15.17,13.138,15.305,13.138,15.46z M12.103,15.452c0,0.027,0,0.055,0.001,0.083
			c0,0.026,0.002,0.054,0.004,0.08l0.74-0.547c-0.014-0.045-0.031-0.087-0.051-0.125s-0.045-0.07-0.074-0.098
			c-0.027-0.027-0.061-0.048-0.098-0.063c-0.035-0.016-0.077-0.022-0.123-0.022c-0.06,0-0.115,0.015-0.166,0.044
			c-0.047,0.029-0.09,0.074-0.125,0.131c-0.035,0.059-0.062,0.131-0.08,0.217C12.111,15.239,12.103,15.338,12.103,15.452z
			 M12.902,15.468c0-0.031-0.002-0.06-0.004-0.091c-0.002-0.03-0.004-0.059-0.007-0.087l-0.739,0.549
			c0.014,0.046,0.03,0.089,0.051,0.129c0.02,0.038,0.045,0.072,0.074,0.1c0.028,0.028,0.063,0.052,0.1,0.066
			c0.036,0.016,0.078,0.023,0.125,0.023c0.061,0,0.115-0.015,0.166-0.044c0.049-0.029,0.092-0.073,0.126-0.131
			c0.035-0.059,0.062-0.13,0.081-0.217C12.893,15.681,12.902,15.581,12.902,15.468z"/>
		<path fill="#FFFFFF" d="M13.083,20.578h-1.099v-0.217h0.449v-1.276l-0.418,0.228l-0.086-0.197l0.557-0.292h0.206v1.538h0.391
			V20.578z"/>
		<path fill="#FFFFFF" d="M13.138,22.445c0,0.134-0.013,0.255-0.04,0.365c-0.027,0.111-0.066,0.205-0.121,0.284
			s-0.122,0.141-0.204,0.183c-0.08,0.043-0.175,0.064-0.283,0.064c-0.094,0-0.179-0.016-0.256-0.052
			c-0.076-0.036-0.142-0.09-0.196-0.162c-0.055-0.073-0.097-0.167-0.126-0.281c-0.029-0.112-0.044-0.246-0.044-0.401
			c0-0.134,0.014-0.257,0.041-0.366c0.027-0.111,0.067-0.206,0.121-0.285c0.055-0.078,0.121-0.14,0.203-0.183
			s0.176-0.064,0.283-0.064c0.094,0,0.18,0.016,0.256,0.052s0.142,0.09,0.196,0.163c0.056,0.074,0.097,0.168,0.126,0.28
			C13.123,22.155,13.138,22.291,13.138,22.445z M12.103,22.438c0,0.027,0,0.055,0.001,0.083c0,0.027,0.002,0.054,0.004,0.08
			l0.74-0.548c-0.014-0.046-0.031-0.086-0.051-0.123c-0.02-0.038-0.045-0.07-0.074-0.098c-0.027-0.028-0.061-0.049-0.098-0.063
			c-0.035-0.016-0.077-0.023-0.123-0.023c-0.06,0-0.115,0.016-0.166,0.045c-0.047,0.029-0.09,0.072-0.125,0.131
			c-0.035,0.06-0.062,0.132-0.08,0.217C12.111,22.224,12.103,22.324,12.103,22.438z M12.902,22.454c0-0.031-0.002-0.062-0.004-0.091
			c-0.002-0.03-0.004-0.06-0.007-0.089l-0.739,0.551c0.014,0.046,0.03,0.089,0.051,0.129c0.02,0.039,0.045,0.072,0.074,0.101
			c0.028,0.027,0.063,0.049,0.1,0.065c0.036,0.016,0.078,0.023,0.125,0.023c0.061,0,0.115-0.016,0.166-0.045
			c0.049-0.029,0.092-0.072,0.126-0.131c0.035-0.058,0.062-0.129,0.081-0.216C12.893,22.665,12.902,22.566,12.902,22.454z"/>
		<path fill="#FFFFFF" d="M13.083,26.058h-1.099v-0.217h0.449v-1.276l-0.418,0.228l-0.086-0.198l0.557-0.291h0.206v1.538h0.391
			V26.058z"/>
		<path fill="#FFFFFF" d="M13.083,28.797h-1.099V28.58h0.449v-1.275l-0.418,0.228l-0.086-0.198l0.557-0.292h0.206v1.538h0.391
			V28.797z"/>
		<path fill="#FFFFFF" d="M13.083,31.537h-1.099V31.32h0.449v-1.276l-0.418,0.228l-0.086-0.198l0.557-0.291h0.206v1.538h0.391
			V31.537z"/>
		<path fill="#FFFFFF" d="M10.344,1.882H9.245V1.666h0.45V0.39l-0.42,0.227L9.19,0.419l0.556-0.293h0.207v1.54h0.391V1.882z"/>
		<path fill="#FFFFFF" d="M10.398,3.749c0,0.134-0.014,0.255-0.041,0.365c-0.025,0.111-0.066,0.205-0.121,0.284
			c-0.055,0.079-0.121,0.14-0.203,0.183C9.953,4.625,9.857,4.646,9.75,4.646c-0.094,0-0.18-0.017-0.256-0.053
			c-0.076-0.035-0.143-0.09-0.197-0.162c-0.055-0.074-0.096-0.167-0.125-0.28C9.143,4.038,9.127,3.904,9.127,3.749
			c0-0.134,0.014-0.257,0.042-0.367c0.026-0.111,0.067-0.206,0.12-0.285c0.055-0.079,0.122-0.139,0.203-0.184
			C9.574,2.871,9.668,2.85,9.776,2.85c0.093,0,0.179,0.017,0.255,0.052c0.076,0.036,0.143,0.089,0.197,0.163
			s0.096,0.167,0.125,0.281C10.383,3.458,10.398,3.593,10.398,3.749z M9.363,3.74c0,0.027,0,0.055,0.001,0.083
			c0,0.027,0.001,0.054,0.004,0.081l0.739-0.547c-0.013-0.045-0.03-0.087-0.051-0.125c-0.02-0.037-0.045-0.069-0.073-0.098
			C9.955,3.108,9.922,3.086,9.886,3.072C9.85,3.056,9.809,3.049,9.763,3.049c-0.06,0-0.114,0.015-0.165,0.044
			c-0.049,0.03-0.092,0.074-0.127,0.131C9.437,3.283,9.41,3.355,9.391,3.441C9.372,3.528,9.363,3.627,9.363,3.74z M10.162,3.756
			c0-0.031,0-0.06-0.004-0.091c-0.001-0.029-0.004-0.059-0.006-0.087l-0.74,0.55c0.014,0.045,0.031,0.088,0.051,0.128
			c0.021,0.039,0.046,0.072,0.075,0.1C9.566,4.385,9.6,4.408,9.637,4.423c0.037,0.016,0.079,0.024,0.126,0.024
			c0.061,0,0.115-0.015,0.166-0.044c0.048-0.03,0.091-0.074,0.126-0.131c0.035-0.059,0.062-0.13,0.08-0.217
			C10.153,3.969,10.162,3.869,10.162,3.756z"/>
		<path fill="#FFFFFF" d="M10.398,6.488c0,0.134-0.014,0.255-0.041,0.365c-0.025,0.111-0.066,0.205-0.121,0.283
			c-0.055,0.079-0.121,0.141-0.203,0.184C9.953,7.364,9.857,7.386,9.75,7.386c-0.094,0-0.18-0.018-0.256-0.054
			C9.418,7.297,9.352,7.243,9.297,7.17c-0.055-0.074-0.096-0.167-0.125-0.28C9.143,6.777,9.127,6.643,9.127,6.488
			c0-0.134,0.014-0.257,0.042-0.367c0.026-0.111,0.067-0.206,0.12-0.285c0.055-0.079,0.122-0.139,0.203-0.183
			C9.574,5.61,9.668,5.589,9.776,5.589c0.093,0,0.179,0.017,0.255,0.052c0.076,0.036,0.143,0.09,0.197,0.164
			c0.055,0.073,0.096,0.167,0.125,0.281C10.383,6.198,10.398,6.333,10.398,6.488z M9.363,6.48c0,0.027,0,0.055,0.001,0.083
			c0,0.027,0.001,0.054,0.004,0.08l0.739-0.547c-0.013-0.045-0.03-0.087-0.051-0.125c-0.02-0.038-0.045-0.069-0.073-0.098
			C9.955,5.847,9.922,5.826,9.886,5.811C9.85,5.795,9.809,5.789,9.763,5.789c-0.06,0-0.114,0.015-0.165,0.044
			C9.549,5.862,9.506,5.906,9.471,5.964C9.437,6.022,9.41,6.095,9.391,6.181C9.372,6.268,9.363,6.366,9.363,6.48z M10.162,6.496
			c0-0.031,0-0.06-0.004-0.091c-0.001-0.03-0.004-0.059-0.006-0.087l-0.74,0.55c0.014,0.045,0.031,0.088,0.051,0.128
			c0.021,0.039,0.046,0.072,0.075,0.1C9.566,7.125,9.6,7.147,9.637,7.162c0.037,0.016,0.079,0.024,0.126,0.024
			c0.061,0,0.115-0.015,0.166-0.044c0.048-0.029,0.091-0.073,0.126-0.131c0.035-0.059,0.062-0.13,0.08-0.217
			C10.153,6.709,10.162,6.608,10.162,6.496z"/>
		<path fill="#FFFFFF" d="M10.344,11.607H9.245v-0.217h0.45v-1.276l-0.42,0.228L9.19,10.144l0.556-0.293h0.207v1.54h0.391V11.607z"
			/>
		<path fill="#FFFFFF" d="M10.344,14.347H9.245V14.13h0.45v-1.276l-0.42,0.227L9.19,12.884l0.556-0.293h0.207v1.54h0.391V14.347z"/>
		<path fill="#FFFFFF" d="M10.398,16.213c0,0.134-0.014,0.256-0.041,0.365c-0.025,0.111-0.066,0.205-0.121,0.284
			s-0.121,0.141-0.203,0.183c-0.08,0.045-0.176,0.066-0.283,0.066c-0.094,0-0.18-0.018-0.256-0.054
			c-0.076-0.035-0.143-0.09-0.197-0.162c-0.055-0.073-0.096-0.167-0.125-0.279c-0.029-0.114-0.045-0.248-0.045-0.403
			c0-0.134,0.014-0.257,0.042-0.366c0.026-0.111,0.067-0.206,0.12-0.285c0.055-0.079,0.122-0.139,0.203-0.183
			c0.082-0.042,0.176-0.064,0.284-0.064c0.093,0,0.179,0.017,0.255,0.052c0.076,0.036,0.143,0.089,0.197,0.163
			c0.055,0.074,0.096,0.168,0.125,0.281C10.383,15.923,10.398,16.059,10.398,16.213z M9.363,16.205c0,0.027,0,0.055,0.001,0.083
			c0,0.027,0.001,0.054,0.004,0.08l0.739-0.547c-0.013-0.046-0.03-0.087-0.051-0.124c-0.02-0.038-0.045-0.07-0.073-0.098
			s-0.062-0.049-0.098-0.063c-0.036-0.016-0.077-0.022-0.123-0.022c-0.06,0-0.114,0.015-0.165,0.044
			c-0.049,0.029-0.092,0.074-0.127,0.131c-0.034,0.06-0.061,0.132-0.08,0.217C9.372,15.992,9.363,16.092,9.363,16.205z
			 M10.162,16.222c0-0.031,0-0.061-0.004-0.091c-0.001-0.03-0.004-0.06-0.006-0.088l-0.74,0.55c0.014,0.046,0.031,0.089,0.051,0.129
			c0.021,0.039,0.046,0.072,0.075,0.101c0.028,0.027,0.062,0.051,0.099,0.065c0.037,0.016,0.079,0.023,0.126,0.023
			c0.061,0,0.115-0.015,0.166-0.044c0.048-0.029,0.091-0.073,0.126-0.131c0.035-0.059,0.062-0.13,0.08-0.217
			C10.153,16.434,10.162,16.334,10.162,16.222z"/>
		<path fill="#FFFFFF" d="M10.344,19.826H9.245v-0.217h0.45v-1.275l-0.42,0.227L9.19,18.363l0.556-0.295h0.207v1.541h0.391V19.826z"
			/>
		<path fill="#FFFFFF" d="M10.398,21.691c0,0.134-0.014,0.257-0.041,0.366c-0.025,0.11-0.066,0.205-0.121,0.284
			c-0.055,0.078-0.121,0.139-0.203,0.183c-0.08,0.044-0.176,0.065-0.283,0.065c-0.094,0-0.18-0.019-0.256-0.053
			c-0.076-0.035-0.143-0.09-0.197-0.164c-0.055-0.071-0.096-0.165-0.125-0.277c-0.029-0.114-0.045-0.249-0.045-0.404
			c0-0.134,0.014-0.256,0.042-0.366c0.026-0.11,0.067-0.205,0.12-0.284c0.055-0.079,0.122-0.139,0.203-0.184
			c0.082-0.044,0.176-0.065,0.284-0.065c0.093,0,0.179,0.02,0.255,0.054c0.076,0.035,0.143,0.09,0.197,0.163
			c0.055,0.074,0.096,0.167,0.125,0.281C10.383,21.402,10.398,21.536,10.398,21.691z M9.363,21.684c0,0.027,0,0.056,0.001,0.083
			c0,0.027,0.001,0.055,0.004,0.08l0.739-0.546c-0.013-0.046-0.03-0.089-0.051-0.126c-0.02-0.037-0.045-0.069-0.073-0.097
			c-0.028-0.026-0.062-0.048-0.098-0.063C9.85,21,9.809,20.993,9.763,20.993c-0.06,0-0.114,0.014-0.165,0.043
			c-0.049,0.029-0.092,0.074-0.127,0.132c-0.034,0.058-0.061,0.13-0.08,0.217C9.372,21.472,9.363,21.571,9.363,21.684z
			 M10.162,21.699c0-0.029,0-0.059-0.004-0.09c-0.001-0.03-0.004-0.059-0.006-0.087l-0.74,0.549c0.014,0.047,0.031,0.09,0.051,0.128
			c0.021,0.04,0.046,0.074,0.075,0.103c0.028,0.027,0.062,0.051,0.099,0.065s0.079,0.022,0.126,0.022
			c0.061,0,0.115-0.014,0.166-0.043c0.048-0.029,0.091-0.073,0.126-0.131c0.035-0.059,0.062-0.131,0.08-0.217
			S10.162,21.813,10.162,21.699z"/>
		<path fill="#FFFFFF" d="M10.398,24.431c0,0.134-0.014,0.257-0.041,0.367c-0.025,0.109-0.066,0.204-0.121,0.283
			s-0.121,0.139-0.203,0.184c-0.08,0.044-0.176,0.065-0.283,0.065c-0.094,0-0.18-0.019-0.256-0.054s-0.143-0.09-0.197-0.163
			c-0.055-0.072-0.096-0.166-0.125-0.278c-0.029-0.113-0.045-0.249-0.045-0.404c0-0.134,0.014-0.255,0.042-0.366
			c0.026-0.109,0.067-0.205,0.12-0.283c0.055-0.079,0.122-0.14,0.203-0.184c0.082-0.044,0.176-0.065,0.284-0.065
			c0.093,0,0.179,0.019,0.255,0.054c0.076,0.034,0.143,0.089,0.197,0.163c0.055,0.073,0.096,0.167,0.125,0.28
			C10.383,24.142,10.398,24.275,10.398,24.431z M9.363,24.423c0,0.028,0,0.057,0.001,0.083c0,0.028,0.001,0.055,0.004,0.08
			l0.739-0.546c-0.013-0.045-0.03-0.088-0.051-0.125c-0.02-0.038-0.045-0.07-0.073-0.097c-0.028-0.027-0.062-0.048-0.098-0.064
			c-0.036-0.015-0.077-0.021-0.123-0.021c-0.06,0-0.114,0.014-0.165,0.043c-0.049,0.029-0.092,0.075-0.127,0.133
			c-0.034,0.058-0.061,0.13-0.08,0.217C9.372,24.212,9.363,24.311,9.363,24.423z M10.162,24.438c0-0.029,0-0.059-0.004-0.089
			c-0.001-0.031-0.004-0.06-0.006-0.087l-0.74,0.548c0.014,0.047,0.031,0.09,0.051,0.129c0.021,0.04,0.046,0.073,0.075,0.102
			c0.028,0.028,0.062,0.051,0.099,0.065s0.079,0.022,0.126,0.022c0.061,0,0.115-0.013,0.166-0.043
			c0.048-0.029,0.091-0.073,0.126-0.131c0.035-0.059,0.062-0.131,0.08-0.217C10.153,24.653,10.162,24.553,10.162,24.438z"/>
		<path fill="#FFFFFF" d="M10.344,29.552H9.245v-0.217h0.45v-1.276l-0.42,0.228L9.19,28.088l0.556-0.294h0.207v1.541h0.391V29.552z"
			/>
		<path fill="#FFFFFF" d="M10.398,31.416c0,0.134-0.014,0.257-0.041,0.367c-0.025,0.109-0.066,0.204-0.121,0.283
			s-0.121,0.14-0.203,0.184c-0.08,0.044-0.176,0.065-0.283,0.065c-0.094,0-0.18-0.019-0.256-0.054
			c-0.076-0.034-0.143-0.09-0.197-0.163c-0.055-0.072-0.096-0.166-0.125-0.278c-0.029-0.113-0.045-0.249-0.045-0.404
			c0-0.133,0.014-0.255,0.042-0.366c0.026-0.109,0.067-0.204,0.12-0.283c0.055-0.079,0.122-0.14,0.203-0.184
			c0.082-0.044,0.176-0.065,0.284-0.065c0.093,0,0.179,0.019,0.255,0.054c0.076,0.034,0.143,0.09,0.197,0.163
			s0.096,0.167,0.125,0.281C10.383,31.128,10.398,31.262,10.398,31.416z M9.363,31.408c0,0.028,0,0.057,0.001,0.083
			c0,0.028,0.001,0.055,0.004,0.08l0.739-0.546c-0.013-0.045-0.03-0.088-0.051-0.125c-0.02-0.038-0.045-0.07-0.073-0.097
			s-0.062-0.048-0.098-0.064c-0.036-0.015-0.077-0.021-0.123-0.021c-0.06,0-0.114,0.014-0.165,0.043
			c-0.049,0.029-0.092,0.075-0.127,0.133c-0.034,0.058-0.061,0.13-0.08,0.217C9.372,31.197,9.363,31.296,9.363,31.408z
			 M10.162,31.425c0-0.029,0-0.06-0.004-0.09c-0.001-0.031-0.004-0.059-0.006-0.087l-0.74,0.549
			c0.014,0.046,0.031,0.089,0.051,0.128c0.021,0.04,0.046,0.073,0.075,0.102c0.028,0.028,0.062,0.051,0.099,0.065
			s0.079,0.023,0.126,0.023c0.061,0,0.115-0.014,0.166-0.043c0.048-0.029,0.091-0.074,0.126-0.132
			c0.035-0.059,0.062-0.131,0.08-0.216C10.153,31.639,10.162,31.538,10.162,31.425z"/>
		<path fill="#FFFFFF" d="M10.344,35.031H9.245v-0.217h0.45v-1.276l-0.42,0.228L9.19,33.567l0.556-0.294h0.207v1.541h0.391V35.031z"
			/>
		<path fill="#FFFFFF" d="M7.658,6.488c0,0.134-0.014,0.255-0.039,0.365C7.592,6.964,7.552,7.058,7.496,7.137
			C7.441,7.216,7.375,7.277,7.293,7.32C7.213,7.364,7.118,7.386,7.01,7.386c-0.094,0-0.18-0.018-0.256-0.054
			C6.678,7.297,6.612,7.243,6.558,7.17c-0.055-0.074-0.097-0.167-0.126-0.28C6.402,6.777,6.388,6.643,6.388,6.488
			c0-0.134,0.014-0.257,0.042-0.367c0.026-0.111,0.066-0.206,0.12-0.285c0.055-0.079,0.122-0.139,0.203-0.183
			C6.834,5.61,6.928,5.589,7.037,5.589c0.094,0,0.179,0.017,0.255,0.052c0.076,0.036,0.142,0.09,0.196,0.164
			c0.055,0.073,0.097,0.167,0.126,0.281C7.645,6.198,7.658,6.333,7.658,6.488z M6.623,6.48c0,0.027,0,0.055,0.002,0.083
			c0,0.027,0.001,0.054,0.004,0.08l0.739-0.547c-0.013-0.045-0.03-0.087-0.051-0.125S7.271,5.902,7.244,5.874
			C7.216,5.847,7.182,5.826,7.146,5.811C7.11,5.795,7.068,5.789,7.023,5.789c-0.061,0-0.115,0.015-0.166,0.044
			C6.809,5.862,6.766,5.906,6.731,5.964C6.697,6.022,6.67,6.095,6.651,6.181C6.633,6.268,6.623,6.366,6.623,6.48z M7.424,6.496
			c0-0.031-0.002-0.06-0.005-0.091c-0.001-0.03-0.004-0.059-0.007-0.087l-0.739,0.55c0.013,0.045,0.03,0.088,0.051,0.128
			c0.021,0.039,0.046,0.072,0.075,0.1c0.027,0.028,0.061,0.051,0.099,0.065c0.036,0.016,0.079,0.024,0.126,0.024
			c0.061,0,0.115-0.015,0.166-0.044c0.048-0.029,0.09-0.073,0.125-0.131c0.035-0.059,0.063-0.13,0.08-0.217
			C7.414,6.709,7.424,6.608,7.424,6.496z"/>
		<path fill="#FFFFFF" d="M7.604,10.101H6.506V9.885h0.449V8.608L6.536,8.836L6.451,8.638l0.557-0.293h0.205v1.54h0.391V10.101z"/>
		<path fill="#FFFFFF" d="M7.658,11.967c0,0.134-0.014,0.255-0.039,0.365c-0.027,0.111-0.067,0.205-0.123,0.284
			c-0.055,0.079-0.121,0.141-0.203,0.183c-0.08,0.044-0.175,0.066-0.283,0.066c-0.094,0-0.18-0.018-0.256-0.054
			c-0.076-0.035-0.142-0.09-0.196-0.162c-0.055-0.073-0.097-0.167-0.126-0.279c-0.029-0.114-0.044-0.248-0.044-0.403
			c0-0.134,0.014-0.257,0.042-0.366c0.026-0.111,0.066-0.206,0.12-0.285c0.055-0.079,0.122-0.139,0.203-0.183
			c0.081-0.043,0.175-0.064,0.284-0.064c0.094,0,0.179,0.018,0.255,0.052c0.076,0.036,0.142,0.09,0.196,0.163
			c0.055,0.074,0.097,0.167,0.126,0.281C7.645,11.677,7.658,11.812,7.658,11.967z M6.623,11.959c0,0.027,0,0.055,0.002,0.083
			c0,0.026,0.001,0.053,0.004,0.08l0.739-0.547c-0.013-0.045-0.03-0.087-0.051-0.124c-0.021-0.038-0.046-0.07-0.073-0.098
			c-0.028-0.027-0.063-0.048-0.098-0.063c-0.036-0.016-0.078-0.023-0.123-0.023c-0.061,0-0.115,0.015-0.166,0.044
			c-0.049,0.029-0.092,0.073-0.126,0.131c-0.034,0.059-0.062,0.131-0.08,0.217C6.633,11.747,6.623,11.846,6.623,11.959z
			 M7.424,11.976c0-0.031-0.002-0.061-0.005-0.091c-0.001-0.029-0.004-0.059-0.007-0.087l-0.739,0.55
			c0.013,0.045,0.03,0.088,0.051,0.128c0.021,0.039,0.046,0.072,0.075,0.101c0.027,0.028,0.061,0.051,0.099,0.065
			c0.036,0.016,0.079,0.024,0.126,0.024c0.061,0,0.115-0.015,0.166-0.044c0.048-0.029,0.09-0.074,0.125-0.131
			c0.035-0.059,0.063-0.129,0.08-0.216C7.414,12.188,7.424,12.088,7.424,11.976z"/>
		<path fill="#FFFFFF" d="M7.604,17.087H6.506V16.87h0.449v-1.276l-0.419,0.228l-0.085-0.198l0.557-0.292h0.205v1.54h0.391V17.087z"
			/>
		<path fill="#FFFFFF" d="M7.604,19.826H6.506v-0.217h0.449v-1.275l-0.419,0.227l-0.085-0.197l0.557-0.295h0.205v1.541h0.391V19.826
			z"/>
		<path fill="#FFFFFF" d="M7.604,24.072H6.506v-0.217h0.449v-1.276l-0.419,0.228l-0.085-0.197l0.557-0.295h0.205v1.541h0.391V24.072
			z"/>
		<path fill="#FFFFFF" d="M7.658,25.938c0,0.134-0.014,0.257-0.039,0.366c-0.027,0.109-0.067,0.205-0.123,0.283
			c-0.055,0.079-0.121,0.14-0.203,0.184c-0.08,0.044-0.175,0.065-0.283,0.065c-0.094,0-0.18-0.019-0.256-0.054
			c-0.076-0.034-0.142-0.089-0.196-0.163c-0.055-0.072-0.097-0.166-0.126-0.278c-0.029-0.113-0.044-0.248-0.044-0.403
			c0-0.134,0.014-0.256,0.042-0.367c0.026-0.109,0.066-0.204,0.12-0.283c0.055-0.079,0.122-0.14,0.203-0.184
			s0.175-0.065,0.284-0.065c0.094,0,0.179,0.019,0.255,0.054s0.142,0.09,0.196,0.163s0.097,0.167,0.126,0.281
			C7.645,25.648,7.658,25.782,7.658,25.938z M6.623,25.929c0,0.028,0,0.057,0.002,0.083c0,0.028,0.001,0.056,0.004,0.081
			l0.739-0.546c-0.013-0.046-0.03-0.089-0.051-0.126s-0.046-0.069-0.073-0.097c-0.028-0.026-0.063-0.048-0.098-0.063
			c-0.036-0.016-0.078-0.021-0.123-0.021c-0.061,0-0.115,0.013-0.166,0.042c-0.049,0.03-0.092,0.075-0.126,0.133
			s-0.062,0.13-0.08,0.217S6.623,25.816,6.623,25.929z M7.424,25.945c0-0.029-0.002-0.059-0.005-0.09
			c-0.001-0.03-0.004-0.059-0.007-0.087l-0.739,0.549c0.013,0.047,0.03,0.089,0.051,0.128c0.021,0.04,0.046,0.074,0.075,0.102
			c0.027,0.028,0.061,0.051,0.099,0.065c0.036,0.016,0.079,0.023,0.126,0.023c0.061,0,0.115-0.014,0.166-0.043
			c0.048-0.029,0.09-0.073,0.125-0.131c0.035-0.06,0.063-0.132,0.08-0.217C7.414,26.159,7.424,26.059,7.424,25.945z"/>
		<path fill="#FFFFFF" d="M7.604,29.552H6.506v-0.217h0.449v-1.276l-0.419,0.228l-0.085-0.198l0.557-0.294h0.205v1.541h0.391V29.552
			z"/>
		<path fill="#FFFFFF" d="M4.919,1.762c0,0.134-0.013,0.256-0.04,0.365C4.852,2.238,4.812,2.332,4.757,2.411
			C4.702,2.49,4.635,2.551,4.554,2.594C4.474,2.638,4.378,2.66,4.27,2.66c-0.093,0-0.179-0.018-0.255-0.054
			C3.938,2.571,3.873,2.517,3.818,2.444c-0.055-0.074-0.096-0.167-0.125-0.28c-0.03-0.114-0.044-0.248-0.044-0.403
			c0-0.134,0.014-0.257,0.042-0.366C3.716,1.284,3.756,1.189,3.81,1.11c0.055-0.079,0.122-0.139,0.203-0.183
			c0.082-0.043,0.175-0.064,0.284-0.064c0.094,0,0.179,0.018,0.255,0.052c0.077,0.036,0.142,0.09,0.197,0.163
			c0.055,0.074,0.096,0.167,0.126,0.281C4.904,1.472,4.919,1.607,4.919,1.762z M3.884,1.754c0,0.027,0,0.055,0.001,0.083
			c0,0.027,0.001,0.053,0.004,0.08l0.74-0.547C4.615,1.325,4.598,1.283,4.578,1.246s-0.045-0.07-0.073-0.098
			C4.476,1.121,4.443,1.1,4.407,1.085C4.371,1.069,4.329,1.063,4.284,1.063c-0.061,0-0.115,0.015-0.166,0.044
			C4.069,1.136,4.027,1.18,3.992,1.237C3.957,1.296,3.93,1.369,3.912,1.454C3.893,1.541,3.884,1.64,3.884,1.754z M4.684,1.77
			c0-0.031-0.001-0.06-0.004-0.091C4.678,1.649,4.675,1.62,4.673,1.592l-0.74,0.549C3.946,2.188,3.964,2.23,3.984,2.271
			c0.02,0.039,0.045,0.072,0.075,0.1C4.087,2.399,4.12,2.421,4.158,2.436C4.194,2.452,4.237,2.46,4.284,2.46
			c0.06,0,0.115-0.015,0.166-0.044c0.048-0.029,0.091-0.074,0.126-0.131c0.035-0.059,0.062-0.13,0.08-0.217
			C4.674,1.982,4.684,1.882,4.684,1.77z"/>
		<path fill="#FFFFFF" d="M4.919,4.501c0,0.134-0.013,0.256-0.04,0.365C4.852,4.978,4.812,5.071,4.757,5.15
			C4.702,5.229,4.635,5.291,4.554,5.333C4.474,5.378,4.378,5.399,4.27,5.399c-0.093,0-0.179-0.018-0.255-0.054
			c-0.076-0.035-0.142-0.09-0.197-0.162C3.763,5.11,3.722,5.017,3.692,4.904c-0.03-0.114-0.044-0.248-0.044-0.403
			c0-0.134,0.014-0.257,0.042-0.366C3.716,4.024,3.756,3.929,3.81,3.85c0.055-0.079,0.122-0.139,0.203-0.183
			c0.082-0.043,0.175-0.064,0.284-0.064c0.094,0,0.179,0.018,0.255,0.052c0.077,0.036,0.142,0.09,0.197,0.163
			c0.055,0.074,0.096,0.167,0.126,0.281C4.904,4.211,4.919,4.346,4.919,4.501z M3.884,4.494c0,0.027,0,0.055,0.001,0.083
			c0,0.026,0.001,0.053,0.004,0.08l0.74-0.547C4.615,4.064,4.598,4.022,4.578,3.985c-0.02-0.038-0.045-0.07-0.073-0.098
			C4.476,3.861,4.443,3.839,4.407,3.825C4.371,3.809,4.329,3.802,4.284,3.802c-0.061,0-0.115,0.015-0.166,0.044
			C4.069,3.875,4.027,3.919,3.992,3.977C3.957,4.036,3.93,4.108,3.912,4.194C3.893,4.281,3.884,4.38,3.884,4.494z M4.684,4.51
			c0-0.031-0.001-0.061-0.004-0.091C4.678,4.389,4.675,4.36,4.673,4.332l-0.74,0.55C3.946,4.927,3.964,4.97,3.984,5.01
			c0.02,0.039,0.045,0.072,0.075,0.101C4.087,5.138,4.12,5.161,4.158,5.176C4.194,5.192,4.237,5.2,4.284,5.2
			c0.06,0,0.115-0.015,0.166-0.044c0.048-0.029,0.091-0.074,0.126-0.131c0.035-0.059,0.062-0.129,0.08-0.216
			C4.674,4.722,4.684,4.622,4.684,4.51z"/>
		<path fill="#FFFFFF" d="M4.864,8.115H3.766V7.898h0.45V6.622L3.796,6.849L3.711,6.651l0.557-0.293h0.206v1.54h0.391V8.115z"/>
		<path fill="#FFFFFF" d="M4.864,10.854H3.766v-0.217h0.45V9.361L3.796,9.589L3.711,9.391l0.557-0.293h0.206v1.54h0.391V10.854z"/>
		<path fill="#FFFFFF" d="M4.919,14.227c0,0.134-0.013,0.256-0.04,0.365c-0.027,0.111-0.067,0.205-0.122,0.284
			c-0.055,0.079-0.122,0.141-0.204,0.184c-0.08,0.044-0.175,0.065-0.284,0.065c-0.093,0-0.179-0.018-0.255-0.054
			c-0.076-0.035-0.142-0.089-0.197-0.162c-0.055-0.074-0.096-0.167-0.125-0.28c-0.03-0.114-0.044-0.248-0.044-0.403
			c0-0.133,0.014-0.257,0.042-0.366c0.027-0.111,0.067-0.206,0.121-0.285c0.055-0.079,0.122-0.139,0.203-0.183
			c0.082-0.043,0.175-0.064,0.284-0.064c0.094,0,0.179,0.018,0.255,0.052c0.077,0.036,0.142,0.09,0.197,0.164
			c0.055,0.073,0.096,0.167,0.126,0.281C4.904,13.937,4.919,14.072,4.919,14.227z M3.884,14.219c0,0.027,0,0.055,0.001,0.083
			c0,0.027,0.001,0.053,0.004,0.08l0.74-0.547c-0.014-0.045-0.031-0.087-0.051-0.125s-0.045-0.069-0.073-0.098
			c-0.028-0.027-0.062-0.048-0.098-0.063c-0.036-0.016-0.078-0.022-0.123-0.022c-0.061,0-0.115,0.015-0.166,0.044
			c-0.048,0.029-0.091,0.074-0.126,0.131c-0.035,0.059-0.062,0.131-0.08,0.216C3.893,14.006,3.884,14.105,3.884,14.219z
			 M4.684,14.235c0-0.031-0.001-0.06-0.004-0.091c-0.001-0.03-0.004-0.059-0.007-0.087l-0.74,0.55
			c0.013,0.045,0.031,0.088,0.051,0.128c0.02,0.039,0.045,0.072,0.075,0.1c0.028,0.028,0.062,0.051,0.099,0.065
			c0.036,0.016,0.079,0.024,0.126,0.024c0.06,0,0.115-0.015,0.166-0.044c0.048-0.029,0.091-0.074,0.126-0.131
			c0.035-0.059,0.062-0.13,0.08-0.217C4.674,14.448,4.684,14.347,4.684,14.235z"/>
		<path fill="#FFFFFF" d="M4.919,16.967c0,0.134-0.013,0.255-0.04,0.365s-0.067,0.204-0.122,0.283
			c-0.055,0.079-0.122,0.141-0.204,0.184c-0.08,0.043-0.175,0.063-0.284,0.063c-0.093,0-0.179-0.016-0.255-0.052
			s-0.142-0.09-0.197-0.162c-0.055-0.073-0.096-0.167-0.125-0.279c-0.03-0.113-0.044-0.247-0.044-0.402
			c0-0.134,0.014-0.257,0.042-0.367c0.027-0.11,0.067-0.206,0.121-0.284c0.055-0.079,0.122-0.14,0.203-0.184
			c0.082-0.043,0.175-0.064,0.284-0.064c0.094,0,0.179,0.018,0.255,0.053c0.077,0.036,0.142,0.089,0.197,0.163
			c0.055,0.073,0.096,0.167,0.126,0.28C4.904,16.676,4.919,16.812,4.919,16.967z M3.884,16.958c0,0.027,0,0.056,0.001,0.083
			c0,0.027,0.001,0.054,0.004,0.081l0.74-0.548c-0.014-0.045-0.031-0.087-0.051-0.124s-0.045-0.069-0.073-0.098
			c-0.028-0.027-0.062-0.048-0.098-0.063c-0.036-0.017-0.078-0.023-0.123-0.023c-0.061,0-0.115,0.015-0.166,0.044
			c-0.048,0.03-0.091,0.074-0.126,0.132c-0.035,0.059-0.062,0.131-0.08,0.217C3.893,16.746,3.884,16.845,3.884,16.958z
			 M4.684,16.975c0-0.031-0.001-0.061-0.004-0.091c-0.001-0.029-0.004-0.06-0.007-0.087l-0.74,0.55
			c0.013,0.045,0.031,0.088,0.051,0.128c0.02,0.039,0.045,0.072,0.075,0.101c0.028,0.028,0.062,0.051,0.099,0.065
			c0.036,0.016,0.079,0.024,0.126,0.024c0.06,0,0.115-0.015,0.166-0.045c0.048-0.029,0.091-0.073,0.126-0.131
			c0.035-0.059,0.062-0.13,0.08-0.217C4.674,17.188,4.684,17.087,4.684,16.975z"/>
		<path fill="#FFFFFF" d="M4.864,20.578H3.766v-0.217h0.45v-1.276l-0.419,0.228l-0.085-0.197l0.557-0.292h0.206v1.538h0.391V20.578z
			"/>
		<path fill="#FFFFFF" d="M4.864,23.318H3.766v-0.217h0.45v-1.276l-0.419,0.228l-0.085-0.198l0.557-0.292h0.206v1.539h0.391V23.318z
			"/>
		<path fill="#FFFFFF" d="M4.864,26.058H3.766v-0.217h0.45v-1.276l-0.419,0.228l-0.085-0.198l0.557-0.291h0.206v1.538h0.391V26.058z
			"/>
		<path fill="#FFFFFF" d="M4.919,27.925c0,0.134-0.013,0.255-0.04,0.365c-0.027,0.111-0.067,0.205-0.122,0.284
			c-0.055,0.078-0.122,0.14-0.204,0.183c-0.08,0.043-0.175,0.064-0.284,0.064c-0.093,0-0.179-0.016-0.255-0.052
			s-0.142-0.09-0.197-0.162c-0.055-0.073-0.096-0.167-0.125-0.281c-0.03-0.112-0.044-0.246-0.044-0.401
			c0-0.134,0.014-0.257,0.042-0.366c0.027-0.111,0.067-0.206,0.121-0.285c0.055-0.079,0.122-0.141,0.203-0.184
			c0.082-0.042,0.175-0.063,0.284-0.063c0.094,0,0.179,0.016,0.255,0.052c0.077,0.036,0.142,0.09,0.197,0.163
			c0.055,0.074,0.096,0.167,0.126,0.28C4.904,27.635,4.919,27.77,4.919,27.925z M3.884,27.917c0,0.026,0,0.055,0.001,0.083
			c0,0.026,0.001,0.054,0.004,0.08l0.74-0.548c-0.014-0.046-0.031-0.086-0.051-0.124c-0.02-0.037-0.045-0.069-0.073-0.098
			c-0.028-0.027-0.062-0.048-0.098-0.063c-0.036-0.016-0.078-0.024-0.123-0.024c-0.061,0-0.115,0.017-0.166,0.046
			c-0.048,0.029-0.091,0.072-0.126,0.131c-0.035,0.06-0.062,0.132-0.08,0.217C3.893,27.703,3.884,27.804,3.884,27.917z
			 M4.684,27.933c0-0.03-0.001-0.062-0.004-0.091c-0.001-0.029-0.004-0.059-0.007-0.088l-0.74,0.551
			c0.013,0.046,0.031,0.089,0.051,0.129c0.02,0.038,0.045,0.072,0.075,0.101c0.028,0.027,0.062,0.049,0.099,0.065
			c0.036,0.016,0.079,0.023,0.126,0.023c0.06,0,0.115-0.016,0.166-0.045c0.048-0.029,0.091-0.072,0.126-0.132
			c0.035-0.057,0.062-0.128,0.08-0.215C4.674,28.145,4.684,28.046,4.684,27.933z"/>
		<path fill="#FFFFFF" d="M4.864,31.537H3.766V31.32h0.45v-1.276l-0.419,0.228l-0.085-0.198l0.557-0.291h0.206v1.538h0.391V31.537z"
			/>
		<path fill="#FFFFFF" d="M4.864,34.276H3.766V34.06h0.45v-1.276l-0.419,0.228l-0.085-0.197l0.557-0.292h0.206v1.538h0.391V34.276z"
			/>
	</g>
	<linearGradient id="SVGID_3_" gradientUnits="userSpaceOnUse" x1="14.9995" y1="12.4595" x2="14.9995" y2="-1.5811">
		<stop  offset="0" style="stop-color:#FFFFFF"/>
		<stop  offset="1" style="stop-color:#FFFFFF;stop-opacity:0"/>
	</linearGradient>
	<path opacity="0.65" clip-path="url(#SVGID_2_)" fill="url(#SVGID_3_)" d="M-0.154,12.289c0,0,12.842-11.13,30.307,0.171
		c0,0-0.771-14.041-15.667-14.041C-0.411-1.581-0.154,12.289-0.154,12.289z"/>
	<linearGradient id="SVGID_4_" gradientUnits="userSpaceOnUse" x1="15.001" y1="31.7227" x2="15.001" y2="17.6816">
		<stop  offset="0" style="stop-color:#000000;stop-opacity:0"/>
		<stop  offset="0.7758" style="stop-color:#000000;stop-opacity:0.9636"/>
		<stop  offset="1" style="stop-color:#000000"/>
	</linearGradient>
	<path opacity="0.5" clip-path="url(#SVGID_2_)" fill="url(#SVGID_4_)" d="M29.762,17.854c0,0-12.071,11.13-29.537-0.172
		c0,0,0.771,14.041,15.667,14.041C30.789,31.723,29.762,17.854,29.762,17.854z"/>
	<use xlink:href="#SVGID_1_"  overflow="visible" fill="none" stroke="#000000" stroke-width="0.25" stroke-miterlimit="10"/>
</g>
</svg>
