<?xml version="1.0" encoding="utf-8"?>
<!-- Generator: Adobe Illustrator 15.0.2, SVG Export Plug-In . SVG Version: 6.00 Build 0)  -->
<!DOCTYPE svg PUBLIC "-//W3C//DTD SVG 1.1//EN" "http://www.w3.org/Graphics/SVG/1.1/DTD/svg11.dtd">
<svg version="1.1" id="Capa_1" xmlns="http://www.w3.org/2000/svg" xmlns:xlink="http://www.w3.org/1999/xlink" x="0px" y="0px"
	 width="30px" height="30px" viewBox="0 0 30 30" enable-background="new 0 0 30 30" xml:space="preserve">
<g>
	<defs>
		<circle id="SVGID_1_" cx="15" cy="15" r="13.656"/>
	</defs>
	<linearGradient id="SVGID_2_" gradientUnits="userSpaceOnUse" x1="24.6572" y1="24.6572" x2="5.3444" y2="5.3444">
		<stop  offset="0" style="stop-color:#CE291A"/>
		<stop  offset="0.0652" style="stop-color:#D7564A"/>
		<stop  offset="0.1469" style="stop-color:#E2877F"/>
		<stop  offset="0.227" style="stop-color:#EAB0AB"/>
		<stop  offset="0.3037" style="stop-color:#F1D0CD"/>
		<stop  offset="0.3761" style="stop-color:#F6E7E6"/>
		<stop  offset="0.4423" style="stop-color:#F9F5F5"/>
		<stop  offset="0.497" style="stop-color:#FAFAFA"/>
		<stop  offset="0.559" style="stop-color:#F6F8F9"/>
		<stop  offset="0.6225" style="stop-color:#EAF3F7"/>
		<stop  offset="0.6868" style="stop-color:#D5EAF3"/>
		<stop  offset="0.7516" style="stop-color:#B8DDEE"/>
		<stop  offset="0.8169" style="stop-color:#93CDE7"/>
		<stop  offset="0.8825" style="stop-color:#66B9DF"/>
		<stop  offset="0.9471" style="stop-color:#31A2D6"/>
		<stop  offset="1" style="stop-color:#008DCD"/>
	</linearGradient>
	<use xlink:href="#SVGID_1_"  overflow="visible" fill="url(#SVGID_2_)"/>
	<clipPath id="SVGID_3_">
		<use xlink:href="#SVGID_1_"  overflow="visible"/>
	</clipPath>
	<g clip-path="url(#SVGID_3_)">
		<defs>
			<rect id="XMLID_4_" x="4.422" y="8.931" width="21.138" height="12.324"/>
		</defs>
		<use xlink:href="#XMLID_4_"  overflow="visible" fill="#312783"/>
		<clipPath id="XMLID_3_">
			<use xlink:href="#XMLID_4_"  overflow="visible"/>
		</clipPath>
		<g clip-path="url(#XMLID_3_)">
			<polygon fill="#FFFFFF" points="14.854,21.222 16.889,21.222 16.889,18.046 24.375,22.376 26.274,20.515 20.396,17.115 
				26.061,17.115 26.061,13.04 21.167,13.04 26.523,9.75 24.554,7.931 16.889,12.638 16.889,8.931 14.854,8.931 14.832,8.931 
				12.795,8.931 12.795,12.638 5.129,7.931 3.16,9.75 8.516,13.04 4.395,13.04 4.395,17.115 9.29,17.115 3.41,20.515 5.31,22.376 
				12.795,18.046 12.795,21.222 14.832,21.222 			"/>
			<rect x="4.379" y="13.962" fill="#E30613" width="21.186" height="2.304"/>
			<rect x="14.052" y="8.921" fill="#E30613" width="1.791" height="12.344"/>
			<polygon fill="#E30613" points="19.72,17.115 17.511,17.115 25.447,21.685 26.261,20.88 			"/>
			<polygon fill="#E30613" points="11.467,17.115 4.104,21.388 4.922,22.189 13.667,17.115 			"/>
			<polygon fill="#E30613" points="11.21,13.033 4.235,8.713 3.383,9.494 9.097,13.033 			"/>
			<polygon fill="#E30613" points="18.878,13.033 25.738,8.819 24.889,8.035 16.755,13.033 			"/>
		</g>
		<g clip-path="url(#XMLID_3_)">
			<rect x="-4.682" y="47.732" fill="none" width="47.186" height="41.651"/>
			<text transform="matrix(0.9872 0 0 1 -4.6807 59.3672)"><tspan x="0" y="0" stroke="#000000" stroke-miterlimit="10" font-family="'MyriadPro-Regular'" font-size="16.3875">Carpe</tspan><tspan x="0" y="19.665" stroke="#000000" stroke-miterlimit="10" font-family="'MyriadPro-Regular'" font-size="16.3875">diem</tspan></text>
		</g>
	</g>
	<linearGradient id="SVGID_4_" gradientUnits="userSpaceOnUse" x1="15.3999" y1="12.4688" x2="15.3999" y2="-1.5288">
		<stop  offset="0" style="stop-color:#FFFFFF"/>
		<stop  offset="1" style="stop-color:#FFFFFF;stop-opacity:0"/>
	</linearGradient>
	<path opacity="0.65" clip-path="url(#SVGID_3_)" fill="url(#SVGID_4_)" d="M0.293,12.298c0,0,12.803-11.096,30.214,0.171
		c0,0-0.768-13.998-15.619-13.998C0.037-1.529,0.293,12.298,0.293,12.298z"/>
	<linearGradient id="SVGID_5_" gradientUnits="userSpaceOnUse" x1="15.0239" y1="31.6729" x2="15.0239" y2="17.6748">
		<stop  offset="0" style="stop-color:#000000;stop-opacity:0"/>
		<stop  offset="0.7758" style="stop-color:#000000;stop-opacity:0.9636"/>
		<stop  offset="1" style="stop-color:#000000"/>
	</linearGradient>
	<path opacity="0.5" clip-path="url(#SVGID_3_)" fill="url(#SVGID_5_)" d="M29.739,17.846c0,0-12.035,11.096-29.446-0.171
		c0,0,0.768,13.998,15.619,13.998C30.764,31.673,29.739,17.846,29.739,17.846z"/>
	<use xlink:href="#SVGID_1_"  overflow="visible" fill="none" stroke="#000000" stroke-width="0.25" stroke-miterlimit="10"/>
</g>
</svg>
