<?xml version="1.0" encoding="utf-8"?>
<!-- Generator: Adobe Illustrator 15.0.2, SVG Export Plug-In . SVG Version: 6.00 Build 0)  -->
<!DOCTYPE svg PUBLIC "-//W3C//DTD SVG 1.1//EN" "http://www.w3.org/Graphics/SVG/1.1/DTD/svg11.dtd">
<svg version="1.1" id="Capa_1" xmlns="http://www.w3.org/2000/svg" xmlns:xlink="http://www.w3.org/1999/xlink" x="0px" y="0px"
	 width="30px" height="30px" viewBox="0 0 30 30" enable-background="new 0 0 30 30" xml:space="preserve">
<g>
	<defs>
		<circle id="SVGID_1_" cx="15" cy="15" r="13.677"/>
	</defs>
	<use xlink:href="#SVGID_1_"  overflow="visible" fill="#834600"/>
	<clipPath id="SVGID_2_">
		<use xlink:href="#SVGID_1_"  overflow="visible"/>
	</clipPath>
	<g clip-path="url(#SVGID_2_)">
		<path fill="#F2E6BB" d="M7.594,13.755C7.359,13.804,7,13.834,6.533,13.834c-2.662,0-3.326-1.591-3.326-2.31
			c0-1.281,1.179-2.912,3.934-3.404l0.117,0.656c-1.788,0.202-3.263,1.272-3.263,2.615c0,0.953,0.75,1.85,2.614,1.85
			c0.313,0,0.641-0.046,0.906-0.11L7.594,13.755z"/>
		<path fill="#F2E6BB" d="M8.001,13.507c0.375-0.665,2.405-4.419,2.561-4.676h0.016c0.601,0.944,2.286,3.934,2.748,4.627
			l-0.632,0.383c-0.125-0.25-0.859-1.561-0.929-1.678l-2.412,0.094c-0.094,0.21-0.641,1.367-0.75,1.593L8.001,13.507z
			 M11.522,11.688c-0.079-0.148-0.898-1.647-0.968-1.755c-0.101,0.154-0.874,1.723-0.937,1.833L11.522,11.688z"/>
		<path fill="#F2E6BB" d="M15.146,11.679c0,0.251,0.024,1.929,0.039,2.03h-0.733c0.023-0.156,0.015-2.264,0.015-2.404v-0.539
			c0-0.203-0.015-1.576-0.039-1.701c0.336,0,0.953-0.015,1.544,0.056c0.938,0.109,1.485,0.492,1.485,1.068
			c0,0.546-0.423,1.015-1.007,1.358c0.178,0.242,1.435,1.615,1.638,1.81l-0.536,0.477c-0.08-0.093-1.688-2.061-1.898-2.341
			c0.351-0.179,1.061-0.54,1.061-1.203c0-0.312-0.241-0.71-1.568-0.719V11.679z"/>
		<path fill="#F2E6BB" d="M19.247,13.709c0.017-0.288,0.029-1.881,0.029-2.357v-0.725c0-0.158-0.013-1.461-0.013-1.563
			c0.297,0,0.957,0.008,1.404,0.078c0.951,0.149,1.537,0.579,1.537,1.281c0,0.952-0.929,1.677-2.255,1.912v0.375
			c0,0.131,0,0.857,0.007,0.999H19.247z M19.95,11.821c0.842-0.165,1.535-0.556,1.535-1.32c0-0.243-0.155-0.897-1.535-0.913V11.821z
			"/>
		<path fill="#F2E6BB" d="M26.07,13.779c-0.232,0-2.372-0.07-2.512-0.07c0.022-0.352,0.022-1.772,0.022-1.928v-0.882
			c0-0.109-0.017-1.709-0.022-1.834c0.171,0,2.021-0.102,2.372-0.125l0.032,0.562c-0.305,0-1.587,0.031-1.702,0.031v1.623
			c0.132,0,1.036-0.029,1.467-0.069l0.024,0.569c-0.117,0-0.455-0.006-0.782-0.016c-0.319,0-0.63-0.007-0.709-0.007v1.577
			c0.17,0,1.123,0.016,1.786-0.023L26.07,13.779z"/>
		<path fill="#F2E6BB" d="M5.847,17.298c0-0.139-0.008-1.535-0.04-1.725c0.406,0,1.131-0.009,1.748,0.038
			c2.317,0.181,2.521,1.28,2.521,1.742c0,2.121-2.412,2.897-4.277,2.897c0.03-0.308,0.047-1.955,0.047-2.133V17.298z M6.518,19.67
			c1.904-0.125,2.84-1.193,2.84-2.162c0-1.021-1.053-1.442-2.84-1.412V19.67z"/>
		<path fill="#F2E6BB" d="M12.093,18.211c0,0.662,0.023,1.85,0.031,2.006h-0.733c0.016-0.287,0.022-1.842,0.022-2.014v-0.72
			c0-0.115-0.022-1.755-0.037-1.91h0.756c-0.016,0.116-0.039,1.123-0.039,1.919V18.211z"/>
		<path fill="#F2E6BB" d="M16.653,20.286c-0.234,0-2.373-0.069-2.513-0.069c0.022-0.352,0.022-1.771,0.022-1.929v-0.881
			c0-0.109-0.016-1.71-0.022-1.834c0.17,0,2.02-0.102,2.373-0.125l0.031,0.561c-0.305,0-1.585,0.031-1.702,0.031v1.624
			c0.132,0,1.038-0.03,1.466-0.07l0.024,0.568c-0.117,0-0.453-0.006-0.781-0.014c-0.32,0-0.632-0.008-0.709-0.008v1.576
			c0.171,0,1.125,0.017,1.787-0.024L16.653,20.286z"/>
		<path fill="#F2E6BB" d="M17.49,20.186c0.117-0.28,1.562-4.558,1.6-4.722h0.031c0.211,0.422,1.491,2.841,1.701,3.222
			c0.227-0.373,1.687-2.815,1.813-3.019h0.021c0.212,0.538,1.437,3.778,1.726,4.48l-0.646,0.242
			c-0.164-0.502-1.132-3.217-1.226-3.474c-0.227,0.364-1.46,2.396-1.765,2.879H20.73c-0.397-0.741-1.226-2.295-1.539-2.896
			c-0.124,0.414-0.991,3.232-1.061,3.491L17.49,20.186z"/>
	</g>
	<linearGradient id="SVGID_3_" gradientUnits="userSpaceOnUse" x1="15.3491" y1="12.4648" x2="15.3491" y2="-1.5537">
		<stop  offset="0" style="stop-color:#FFFFFF"/>
		<stop  offset="1" style="stop-color:#FFFFFF;stop-opacity:0"/>
	</linearGradient>
	<path opacity="0.65" clip-path="url(#SVGID_2_)" fill="url(#SVGID_3_)" d="M0.22,12.293c0,0,12.821-11.113,30.258,0.171
		c0,0-0.767-14.019-15.642-14.019C-0.037-1.554,0.22,12.293,0.22,12.293z"/>
	<linearGradient id="SVGID_4_" gradientUnits="userSpaceOnUse" x1="14.9736" y1="31.6963" x2="14.9736" y2="17.6787">
		<stop  offset="0" style="stop-color:#000000;stop-opacity:0"/>
		<stop  offset="0.7758" style="stop-color:#000000;stop-opacity:0.9636"/>
		<stop  offset="1" style="stop-color:#000000"/>
	</linearGradient>
	<path opacity="0.5" clip-path="url(#SVGID_2_)" fill="url(#SVGID_4_)" d="M29.712,17.851c0,0-12.054,11.112-29.492-0.172
		c0,0,0.769,14.018,15.642,14.018C30.736,31.696,29.712,17.851,29.712,17.851z"/>
	<use xlink:href="#SVGID_1_"  overflow="visible" fill="none" stroke="#000000" stroke-width="0.25" stroke-miterlimit="10"/>
</g>
</svg>
