<?xml version="1.0" encoding="utf-8"?>
<!-- Generator: Adobe Illustrator 15.0.2, SVG Export Plug-In . SVG Version: 6.00 Build 0)  -->
<!DOCTYPE svg PUBLIC "-//W3C//DTD SVG 1.1//EN" "http://www.w3.org/Graphics/SVG/1.1/DTD/svg11.dtd">
<svg version="1.1" id="Capa_1" xmlns="http://www.w3.org/2000/svg" xmlns:xlink="http://www.w3.org/1999/xlink" x="0px" y="0px"
	 width="30px" height="30px" viewBox="0 0 30 30" enable-background="new 0 0 30 30" xml:space="preserve">
<g>
	<g>
		<circle id="SVGID_1_" fill="#DE0000" cx="15" cy="15" r="13.642"/>
	</g>
	<g>
		<defs>
			<circle id="SVGID_3_" cx="15" cy="15" r="13.642"/>
		</defs>
		<clipPath id="SVGID_4_">
			<use xlink:href="#SVGID_3_"  overflow="visible"/>
		</clipPath>
		<g clip-path="url(#SVGID_4_)">
			<path d="M9.787,10.784h2.229c0.367-1.554,0.786-2.71,1.259-3.469c0.473-0.758,1.088-1.357,1.847-1.795
				c0.759-0.438,1.474-0.658,2.146-0.658c0.379,0,0.666,0.075,0.857,0.224s0.289,0.327,0.289,0.532c0,0.187-0.064,0.342-0.196,0.466
				c-0.131,0.125-0.302,0.187-0.514,0.187c-0.218,0-0.629-0.065-1.231-0.196c-0.3-0.062-0.533-0.093-0.701-0.093
				c-0.412,0-0.782,0.253-1.111,0.76c-0.33,0.507-0.595,1.192-0.793,2.056l-0.469,1.986h2.471l-0.148,0.663h-2.504l-1.46,5.95
				c-0.454,1.811-1.18,3.182-2.178,4.113s-2.081,1.398-3.25,1.398c-0.392,0-0.688-0.076-0.891-0.229
				c-0.203-0.154-0.303-0.341-0.303-0.564c0-0.192,0.07-0.348,0.21-0.461c0.14-0.115,0.34-0.174,0.602-0.174
				c0.13,0,0.323,0.017,0.578,0.047c0.435,0.057,0.852,0.084,1.25,0.084c0.616,0,1.063-0.145,1.343-0.434
				c0.28-0.289,0.56-0.996,0.839-2.121l1.893-7.611H9.619L9.787,10.784z"/>
			<path d="M16.454,12.062l-0.271-0.373c0.658-0.56,1.233-0.97,1.726-1.231c0.329-0.18,0.575-0.271,0.737-0.271
				c0.235,0,0.426,0.118,0.567,0.354c0.205,0.335,0.407,1.069,0.606,2.201c0.771-1.131,1.451-1.912,2.041-2.341
				c0.592-0.429,1.086-0.644,1.484-0.644c0.204,0,0.369,0.06,0.493,0.179s0.187,0.266,0.187,0.441c0,0.194-0.086,0.354-0.26,0.479
				c-0.125,0.087-0.465,0.15-1.018,0.188c-0.454,0.025-0.854,0.177-1.193,0.456c-0.548,0.452-1.076,1.112-1.586,1.979l0.598,2.789
				c0.254,1.226,0.521,2.133,0.802,2.724s0.622,1.045,1.026,1.36c0.229,0.182,0.483,0.271,0.765,0.271
				c0.397,0,0.687-0.242,0.866-0.727c0.119-0.317,0.309-0.478,0.57-0.478c0.123,0,0.231,0.052,0.325,0.153
				c0.093,0.104,0.14,0.232,0.14,0.388c0,0.306-0.172,0.585-0.518,0.84s-0.788,0.382-1.329,0.382c-0.597,0-1.167-0.188-1.711-0.563
				c-0.544-0.377-1.015-0.979-1.407-1.811c-0.396-0.83-0.762-2.148-1.097-3.958c-0.125,0.168-0.324,0.448-0.599,0.839
				c-0.782,1.106-1.389,1.818-1.817,2.136s-0.839,0.476-1.231,0.476c-0.273,0-0.5-0.076-0.681-0.229
				c-0.181-0.151-0.271-0.334-0.271-0.545c0-0.174,0.059-0.325,0.177-0.452c0.118-0.128,0.255-0.191,0.41-0.191
				c0.162,0,0.327,0.104,0.494,0.317c0.144,0.188,0.281,0.279,0.41,0.279c0.088,0,0.185-0.028,0.289-0.084
				c0.156-0.088,0.364-0.273,0.625-0.561c0.373-0.404,0.659-0.752,0.858-1.044l1.155-1.707l-0.381-1.744
				c-0.101-0.472-0.201-0.775-0.305-0.909c-0.104-0.134-0.216-0.201-0.34-0.201c-0.094,0-0.225,0.05-0.393,0.149
				C17.045,11.586,16.729,11.813,16.454,12.062z"/>
		</g>
	</g>
	<g>
		<defs>
			<circle id="SVGID_5_" cx="15" cy="15" r="13.642"/>
		</defs>
		<clipPath id="SVGID_6_">
			<use xlink:href="#SVGID_5_"  overflow="visible"/>
		</clipPath>
		<linearGradient id="SVGID_7_" gradientUnits="userSpaceOnUse" x1="15.3481" y1="12.4712" x2="15.3481" y2="-1.5142">
			<stop  offset="0" style="stop-color:#FFFFFF"/>
			<stop  offset="1" style="stop-color:#FFFFFF;stop-opacity:0"/>
		</linearGradient>
		<path opacity="0.65" clip-path="url(#SVGID_6_)" fill="url(#SVGID_7_)" d="M0.257,12.3c0,0,12.79-11.084,30.183,0.171
			c0,0-0.768-13.985-15.603-13.985C0.001-1.514,0.257,12.3,0.257,12.3z"/>
	</g>
	<g>
		<defs>
			<circle id="SVGID_8_" cx="15" cy="15" r="13.642"/>
		</defs>
		<clipPath id="SVGID_9_">
			<use xlink:href="#SVGID_8_"  overflow="visible"/>
		</clipPath>
		<linearGradient id="SVGID_10_" gradientUnits="userSpaceOnUse" x1="14.9722" y1="31.6543" x2="14.9722" y2="17.6729">
			<stop  offset="0" style="stop-color:#000000;stop-opacity:0"/>
			<stop  offset="0.7758" style="stop-color:#000000;stop-opacity:0.9636"/>
			<stop  offset="1" style="stop-color:#000000"/>
		</linearGradient>
		<path opacity="0.5" clip-path="url(#SVGID_9_)" fill="url(#SVGID_10_)" d="M29.673,17.842c0,0-12.021,11.086-29.416-0.169
			c0,0,0.767,13.981,15.603,13.981C30.695,31.654,29.673,17.842,29.673,17.842z"/>
	</g>
	<g>
		<circle id="SVGID_2_" fill="none" stroke="#000000" stroke-width="0.25" stroke-miterlimit="10" cx="15" cy="15" r="13.642"/>
	</g>
</g>
</svg>
