<?xml version="1.0" encoding="utf-8"?>
<!-- Generator: Adobe Illustrator 15.0.2, SVG Export Plug-In . SVG Version: 6.00 Build 0)  -->
<!DOCTYPE svg PUBLIC "-//W3C//DTD SVG 1.1//EN" "http://www.w3.org/Graphics/SVG/1.1/DTD/svg11.dtd">
<svg version="1.1" id="Capa_1" xmlns="http://www.w3.org/2000/svg" xmlns:xlink="http://www.w3.org/1999/xlink" x="0px" y="0px"
	 width="30px" height="30px" viewBox="0 0 30 30" enable-background="new 0 0 30 30" xml:space="preserve">
<g>
	<defs>
		<circle id="SVGID_1_" cx="15" cy="15" r="13.656"/>
	</defs>
	<use xlink:href="#SVGID_1_"  overflow="visible" fill="#00AD00"/>
	<clipPath id="SVGID_2_">
		<use xlink:href="#SVGID_1_"  overflow="visible"/>
	</clipPath>
	<linearGradient id="SVGID_3_" gradientUnits="userSpaceOnUse" x1="15.3491" y1="12.4688" x2="15.3491" y2="-1.5288">
		<stop  offset="0" style="stop-color:#FFFFFF"/>
		<stop  offset="1" style="stop-color:#FFFFFF;stop-opacity:0"/>
	</linearGradient>
	<path opacity="0.65" clip-path="url(#SVGID_2_)" fill="url(#SVGID_3_)" d="M0.242,12.298c0,0,12.803-11.096,30.214,0.171
		c0,0-0.768-13.998-15.619-13.998S0.242,12.298,0.242,12.298z"/>
	<linearGradient id="SVGID_4_" gradientUnits="userSpaceOnUse" x1="14.9731" y1="31.6729" x2="14.9731" y2="17.6758">
		<stop  offset="0" style="stop-color:#000000;stop-opacity:0"/>
		<stop  offset="0.7758" style="stop-color:#000000;stop-opacity:0.9636"/>
		<stop  offset="1" style="stop-color:#000000"/>
	</linearGradient>
	<path opacity="0.5" clip-path="url(#SVGID_2_)" fill="url(#SVGID_4_)" d="M29.688,17.846c0,0-12.035,11.096-29.446-0.17
		c0,0,0.768,13.997,15.62,13.997C30.713,31.673,29.688,17.846,29.688,17.846z"/>
	<g clip-path="url(#SVGID_2_)">
		<path fill="#FFFF52" stroke="#000000" stroke-width="0.15" stroke-linecap="round" stroke-miterlimit="10" d="M19.332,23.765
			c0,0,4.666-6.432-4.381-12.575c-4.653-3.162,2.731-5.235,3.528-5.18c-1.974,0.039-1.93,0.027-2.753,0.079
			c-2.748,0.171-8.911,1.856-3.677,7.547c5.234,5.691-2.503,10.129-2.503,10.129"/>
		
			<line fill="none" stroke="#000000" stroke-width="0.15" stroke-linecap="round" stroke-miterlimit="10" x1="13.982" y1="4.189" x2="15.918" y2="5.355"/>
		
			<line fill="none" stroke="#000000" stroke-width="0.15" stroke-linecap="round" stroke-miterlimit="10" x1="16.487" y1="3.478" x2="17.027" y2="4.873"/>
		
			<line fill="none" stroke="#000000" stroke-width="0.15" stroke-linecap="round" stroke-miterlimit="10" x1="18.905" y1="3.706" x2="18.166" y2="4.873"/>
		
			<line fill="none" stroke="#000000" stroke-width="0.15" stroke-linecap="round" stroke-miterlimit="10" x1="21.096" y1="4.616" x2="19.133" y2="5.385"/>
	</g>
	<use xlink:href="#SVGID_1_"  overflow="visible" fill="none" stroke="#000000" stroke-width="0.25" stroke-miterlimit="10"/>
</g>
</svg>
