<?xml version="1.0" encoding="utf-8"?>
<!-- Generator: Adobe Illustrator 15.0.2, SVG Export Plug-In . SVG Version: 6.00 Build 0)  -->
<!DOCTYPE svg PUBLIC "-//W3C//DTD SVG 1.1//EN" "http://www.w3.org/Graphics/SVG/1.1/DTD/svg11.dtd">
<svg version="1.1" id="Capa_1" xmlns="http://www.w3.org/2000/svg" xmlns:xlink="http://www.w3.org/1999/xlink" x="0px" y="0px"
	 width="30px" height="30px" viewBox="0 0 30 30" enable-background="new 0 0 30 30" xml:space="preserve">
<g>
	<defs>
		<circle id="SVGID_1_" cx="15" cy="15" r="13.667"/>
	</defs>
	<use xlink:href="#SVGID_1_"  overflow="visible" fill="#7AFFFF"/>
	<clipPath id="SVGID_2_">
		<use xlink:href="#SVGID_1_"  overflow="visible"/>
	</clipPath>
	<polygon clip-path="url(#SVGID_2_)" points="23.655,9.42 16.308,9.42 16.308,4.181 13.689,4.181 13.689,9.42 6.343,9.42 
		6.343,11.925 13.689,11.925 13.689,26.845 16.308,26.845 16.308,11.925 23.655,11.925 	"/>
	<linearGradient id="SVGID_3_" gradientUnits="userSpaceOnUse" x1="15" y1="12.4668" x2="15" y2="-1.542">
		<stop  offset="0" style="stop-color:#FFFFFF"/>
		<stop  offset="1" style="stop-color:#FFFFFF;stop-opacity:0"/>
	</linearGradient>
	<path opacity="0.65" clip-path="url(#SVGID_2_)" fill="url(#SVGID_3_)" d="M-0.119,12.296c0,0,12.813-11.104,30.238,0.171
		c0,0-0.769-14.009-15.632-14.009C-0.375-1.542-0.119,12.296-0.119,12.296z"/>
	<linearGradient id="SVGID_4_" gradientUnits="userSpaceOnUse" x1="15.0015" y1="31.6855" x2="15.0015" y2="17.6777">
		<stop  offset="0" style="stop-color:#000000;stop-opacity:0"/>
		<stop  offset="0.7758" style="stop-color:#000000;stop-opacity:0.9636"/>
		<stop  offset="1" style="stop-color:#000000"/>
	</linearGradient>
	<path opacity="0.5" clip-path="url(#SVGID_2_)" fill="url(#SVGID_4_)" d="M29.729,17.849c0,0-12.045,11.104-29.47-0.171
		c0,0,0.769,14.008,15.632,14.008C30.753,31.686,29.729,17.849,29.729,17.849z"/>
	<use xlink:href="#SVGID_1_"  overflow="visible" fill="none" stroke="#000000" stroke-width="0.25" stroke-miterlimit="10"/>
</g>
</svg>
