<?xml version="1.0" encoding="utf-8"?>
<!-- Generator: Adobe Illustrator 17.0.0, SVG Export Plug-In . SVG Version: 6.00 Build 0)  -->
<!DOCTYPE svg PUBLIC "-//W3C//DTD SVG 1.1//EN" "http://www.w3.org/Graphics/SVG/1.1/DTD/svg11.dtd">
<svg version="1.1" id="Isolation_Mode" xmlns="http://www.w3.org/2000/svg" xmlns:xlink="http://www.w3.org/1999/xlink" x="0px"
	 y="0px" width="800px" height="800px" viewBox="0 0 800 800" enable-background="new 0 0 800 800" xml:space="preserve">
<path fill="#C7C7C7" d="M560.534,53.035c7.539,0.005,15.127,0.427,22.736,1.281l10.288-33.565l71.377,21.52l-10.288,33.565
	c25.885,13.282,48.042,31.629,65.554,53.401l31.187-16.506l35.129,65.267l-31.19,16.511c8.494,26.542,11.525,54.996,8.254,83.732
	l33.833,10.2l-21.699,70.786l-33.833-10.2c-13.41,25.676-31.895,47.649-53.849,65.014l16.644,30.937l-65.812,34.831l-16.647-30.932
	c-19.732,6.21-40.52,9.476-61.685,9.464v-39.255c70.647,0.025,135.996-45.377,157.606-115.88
	c26.464-86.333-22.657-177.585-109.697-203.828c-15.949-4.807-32.063-7.089-47.908-7.094V53.035z M433.022,97.34l-16.647-30.935
	l65.805-34.838l16.666,30.934c19.729-6.213,40.513-9.484,61.687-9.467v39.248c-70.651-0.027-135.996,45.375-157.605,115.89
	c-26.464,86.323,22.642,177.575,109.687,203.815l0,0c15.951,4.809,32.066,7.091,47.918,7.096v39.255
	c-7.544-0.007-15.137-0.427-22.748-1.283l-10.285,33.567l-71.379-21.519l10.288-33.565c-25.898-13.285-48.032-31.627-65.542-53.396
	l-31.21,16.501l-35.117-65.267l31.19-16.521c-8.499-26.532-11.528-54.989-8.254-83.724l-33.837-10.2l21.701-70.796l33.838,10.2
	C392.581,136.669,411.066,114.703,433.022,97.34z"/>
<path fill="#C7C7C7" d="M176.297,192.291c5.416,0.005,10.869,0.307,16.337,0.92l7.391-24.118l51.288,15.464l-7.391,24.118
	c18.596,9.545,34.518,22.727,47.102,38.372l22.409-11.861l25.242,46.896l-22.412,11.864c6.104,19.071,8.281,39.518,5.931,60.166
	l24.312,7.327l-15.593,50.864l-24.309-7.329c-9.637,18.45-22.919,34.237-38.694,46.714l11.96,22.231l-47.287,25.028l-11.963-22.226
	c-14.177,4.461-29.114,6.809-44.323,6.799v-28.206c50.761,0.015,97.719-32.605,113.248-83.265
	c19.014-62.033-16.28-127.602-78.824-146.457c-11.458-3.455-23.038-5.094-34.424-5.099V192.291z M84.677,224.125l-11.963-22.228
	l47.282-25.031l11.978,22.226c14.175-4.463,29.109-6.814,44.323-6.802v28.201c-50.764-0.017-97.717,32.603-113.245,83.27
	C44.035,365.79,79.32,431.359,141.868,450.214l0,0c11.458,3.455,23.038,5.094,34.429,5.099v28.206
	c-5.421-0.005-10.877-0.307-16.345-0.92l-7.391,24.118l-51.288-15.464l7.393-24.118c-18.609-9.545-34.515-22.724-47.094-38.367
	l-22.426,11.856l-25.235-46.896l22.414-11.871c-6.109-19.063-8.284-39.51-5.933-60.159L6.078,314.37l15.595-50.869l24.312,7.329
	C55.617,252.385,68.901,236.6,84.677,224.125z"/>
<path fill="#C7C7C7" d="M373.589,442.603c5.169,0.002,10.37,0.292,15.583,0.878l7.049-23.004l48.918,14.749l-7.052,23.001
	c17.74,9.104,32.924,21.677,44.925,36.598l21.375-11.314l24.074,44.729l-21.375,11.317c5.822,18.19,7.898,37.69,5.656,57.383
	l23.189,6.988l-14.87,48.513l-23.188-6.991c-9.189,17.598-21.857,32.654-36.903,44.555l11.406,21.203l-45.102,23.87l-11.409-21.198
	c-13.522,4.255-27.768,6.495-42.275,6.485v-26.9c48.416,0.015,93.201-31.099,108.012-79.418
	c18.136-59.165-15.528-121.703-75.179-139.687c-10.929-3.293-21.971-4.858-32.833-4.863V442.603z M286.205,472.965l-11.409-21.2
	l45.095-23.875l11.423,21.2c13.522-4.257,27.766-6.5,42.275-6.488v26.895c-48.418-0.017-93.199,31.099-108.01,79.423
	c-18.136,59.16,15.516,121.696,75.172,139.682l0,0c10.931,3.296,21.976,4.858,32.838,4.863v26.9
	c-5.169-0.005-10.372-0.292-15.588-0.878l-7.052,23.004l-48.915-14.749l7.049-23.001c-17.748-9.106-32.917-21.674-44.914-36.593
	l-21.392,11.309l-24.067-44.729l21.377-11.324c-5.824-18.182-7.9-37.685-5.656-57.376l-23.191-6.991l14.873-48.518l23.188,6.991
	C258.488,499.92,271.159,484.866,286.205,472.965z"/>
<g>
	<path fill-rule="evenodd" clip-rule="evenodd" fill="#FFFFFF" d="M575.298,203.869c27.397,0,49.606,22.025,49.606,49.193
		c0,17.706-9.434,33.226-23.592,41.888l-5.233,40.548h-41.562l-5.23-40.548c-14.158-8.662-23.592-24.182-23.592-41.888
		C525.695,225.894,547.903,203.869,575.298,203.869z"/>
	<g>
		<path fill="#FD8E74" d="M567.16,314.703c0.255,1.048-0.393,2.105-1.45,2.358c-1.057,0.253-2.123-0.39-2.378-1.44l-8.432-34.107
			V265.51l0.195,0.39c-0.042-0.177-0.109-0.343-0.195-0.495v-0.076c0.72,0.753,1.504,1.465,2.341,2.132
			c4.867,3.884,11.238,5.923,17.542,5.955c6.27,0.03,12.445-1.926,16.963-6.026c0.745-0.677,1.457-1.428,2.128-2.255
			c0.683-0.839,1.922-0.974,2.771-0.297c0.636,0.508,0.871,1.327,0.658,2.061l-12.042,48.722c-0.257,1.05-1.321,1.693-2.378,1.44
			c-1.057-0.253-1.707-1.31-1.45-2.358l10.495-42.465c-4.936,3.455-11.028,5.109-17.161,5.079
			c-6.423-0.032-12.92-1.909-18.208-5.496L567.16,314.703z M554.9,281.513l-3.632-14.695c-0.255-1.048,0.393-2.103,1.452-2.356
			c0.76-0.184,1.522,0.098,1.984,0.66l0.196,0.206v0.076c-0.057-0.101-0.121-0.194-0.196-0.282l0.196,0.387V281.513z"/>
	</g>
	<path fill-rule="evenodd" clip-rule="evenodd" fill="#FD8E74" d="M547.136,310.71h56.323l-2.821,26.012
		c-0.507,4.704-0.68,6.939-6.997,6.939h-36.688c-6.317,0-6.49-2.233-6.997-6.939L547.136,310.71z"/>
	<g>
		<path fill="#FFFFFF" d="M605.501,162.565c0.463-1.268,1.875-1.924,3.155-1.465c1.279,0.461,1.94,1.862,1.477,3.131l-10.874,29.629
			c-0.465,1.269-1.878,1.924-3.155,1.463c-1.279-0.459-1.94-1.86-1.477-3.129L605.501,162.565z"/>
		<path fill="#FFFFFF" d="M634.524,178.191c0.873-1.033,2.429-1.17,3.474-0.304c1.042,0.866,1.18,2.41,0.307,3.443l-20.435,24.155
			c-0.873,1.035-2.43,1.173-3.474,0.307c-1.044-0.866-1.183-2.41-0.309-3.443L634.524,178.191z"/>
		<path fill="#FFFFFF" d="M656.41,202.724c1.178-0.677,2.685-0.277,3.367,0.891c0.681,1.165,0.28,2.662-0.898,3.337l-27.533,15.765
			c-1.178,0.677-2.684,0.28-3.367-0.888c-0.68-1.168-0.279-2.662,0.898-3.34L656.41,202.724z"/>
		<path fill="#FFFFFF" d="M668.524,233.192c1.341-0.231,2.62,0.66,2.855,1.99c0.233,1.332-0.666,2.599-2.007,2.832l-31.311,5.477
			c-1.341,0.233-2.62-0.66-2.855-1.99c-0.235-1.332,0.663-2.599,2.007-2.832L668.524,233.192z"/>
		<path fill="#FFFFFF" d="M572.829,157.722c0-1.352,1.106-2.449,2.469-2.449s2.472,1.097,2.472,2.449v31.533
			c0,1.352-1.108,2.449-2.472,2.449s-2.469-1.097-2.469-2.449V157.722z"/>
		<path fill="#FFFFFF" d="M540.466,164.232c-0.463-1.269,0.198-2.67,1.477-3.131c1.277-0.459,2.69,0.196,3.155,1.465l10.874,29.629
			c0.463,1.269-0.198,2.67-1.477,3.129c-1.279,0.461-2.689-0.194-3.155-1.463L540.466,164.232z"/>
		<path fill="#FFFFFF" d="M512.292,181.329c-0.873-1.033-0.735-2.576,0.309-3.443c1.044-0.866,2.598-0.729,3.471,0.304
			l20.437,24.157c0.873,1.033,0.737,2.576-0.307,3.443c-1.044,0.866-2.601,0.729-3.474-0.307L512.292,181.329z"/>
		<path fill="#FFFFFF" d="M491.719,206.951c-1.178-0.675-1.581-2.172-0.898-3.337c0.681-1.168,2.19-1.568,3.367-0.891l27.533,15.765
			c1.178,0.677,1.578,2.171,0.898,3.34c-0.683,1.168-2.192,1.565-3.367,0.888L491.719,206.951z"/>
		<path fill="#FFFFFF" d="M481.225,238.013c-1.341-0.233-2.242-1.499-2.007-2.832c0.235-1.33,1.514-2.221,2.855-1.99l31.311,5.477
			c1.341,0.233,2.241,1.499,2.006,2.832c-0.235,1.33-1.514,2.223-2.855,1.99L481.225,238.013z"/>
	</g>
</g>
<g>
	<polygon fill-rule="evenodd" clip-rule="evenodd" fill="#FFFFFF" points="325.81,546.623 344.87,531.05 413.431,612.951 
		394.37,628.527 	"/>
	<polygon fill-rule="evenodd" clip-rule="evenodd" fill="#FD8E74" points="332.605,547.26 395.013,621.813 406.636,612.317 
		344.228,537.764 	"/>
	<path fill-rule="evenodd" clip-rule="evenodd" fill="#FFFFFF" d="M325.087,502.386c9.98-1.407,20.444,2.196,27.337,10.435
		c10.54,12.591,8.755,31.242-3.994,41.657c-12.745,10.415-31.623,8.648-42.165-3.944c-6.896-8.239-8.514-19.067-5.241-28.488
		l10.791,12.897l5.747,6.86l8.888-1.482l8.889-1.484l3.143-8.35l3.145-8.344l-5.745-6.864L325.087,502.386z"/>
	<path fill-rule="evenodd" clip-rule="evenodd" fill="#FFFFFF" d="M438.216,637.529c3.271-9.421,1.653-20.249-5.243-28.488
		c-10.542-12.591-29.418-14.357-42.165-3.94c-12.747,10.411-14.534,29.063-3.994,41.655c6.898,8.239,17.36,11.842,27.337,10.433
		l-10.793-12.893l-5.743-6.864l3.141-8.344l3.145-8.348l8.889-1.486l8.886-1.482l5.747,6.862L438.216,637.529z"/>
	<path fill-rule="evenodd" clip-rule="evenodd" fill="#FD8E74" d="M434.961,626.156c-0.359-5.079-2.301-10.008-5.705-14.073
		c-8.845-10.564-24.681-12.046-35.371-3.309c-10.695,8.737-12.193,24.38-3.349,34.945c3.404,4.067,7.94,6.874,12.922,8.177
		l-11.34-13.546l8.231-21.854l23.273-3.886L434.961,626.156z"/>
	<path fill-rule="evenodd" clip-rule="evenodd" fill="#FD8E74" d="M304.129,533.24c0.357,5.077,2.301,10.007,5.705,14.074
		c8.843,10.564,24.677,12.046,35.372,3.307c10.693-8.737,12.191-24.382,3.347-34.944c-3.402-4.065-7.94-6.876-12.924-8.177
		l11.34,13.546l-8.229,21.852l-23.271,3.886L304.129,533.24z"/>
</g>
<g>
	<polygon fill="#F2F5F4" points="488.173,287.952 506.21,255.432 524.247,287.952 	"/>
	<rect x="501.895" y="345.105" fill-rule="evenodd" clip-rule="evenodd" fill="#F2F5F4" width="8.613" height="16.997"/>
	<rect x="501.895" y="320.54" fill-rule="evenodd" clip-rule="evenodd" fill="#F2F5F4" width="8.613" height="16.995"/>
	<rect x="501.895" y="295.976" fill-rule="evenodd" clip-rule="evenodd" fill="#F2F5F4" width="8.613" height="16.994"/>
	<ellipse fill-rule="evenodd" clip-rule="evenodd" fill="#F2F5F4" cx="506.21" cy="381.054" rx="12.196" ry="12.095"/>
</g>
<g>
	<polygon fill="#F2F5F4" points="600.087,363.164 632.88,381.052 600.087,398.94 	"/>
	<rect x="525.321" y="376.773" fill-rule="evenodd" clip-rule="evenodd" fill="#F2F5F4" width="17.136" height="8.541"/>
	<rect x="550.091" y="376.773" fill-rule="evenodd" clip-rule="evenodd" fill="#F2F5F4" width="17.139" height="8.541"/>
	<rect x="574.86" y="376.773" fill-rule="evenodd" clip-rule="evenodd" fill="#F2F5F4" width="17.139" height="8.541"/>
	<path fill-rule="evenodd" clip-rule="evenodd" fill="#F2F5F4" d="M506.208,368.96c6.737,0,12.195,5.413,12.195,12.092
		c0,6.679-5.458,12.095-12.195,12.095c-6.732,0-12.193-5.415-12.193-12.095C494.015,374.373,499.475,368.96,506.208,368.96z"/>
</g>
<g>
	<path fill-rule="evenodd" clip-rule="evenodd" fill="#FFFFFF" d="M160.369,270.68l-6.02,23.384
		c-0.131,0.508-0.255,1.009-0.366,1.499l0,0l-0.007,0.027c-7.163,31.06,16.884,38.872,14.645,47.573
		c-2.234,8.681-27.011,4.11-35.789,34.61l-0.062,0.206l0,0c-0.139,0.486-0.272,0.984-0.403,1.492l-6.017,23.384l65.866,16.673
		l6.02-23.384c0.131-0.506,0.252-1.004,0.366-1.499v-0.003l0.047-0.209c7.034-30.942-16.919-38.705-14.685-47.387
		c2.239-8.701,27.12-4.127,35.844-34.792l0.007-0.027l0,0c0.139-0.488,0.272-0.984,0.403-1.49l6.017-23.384L160.369,270.68z"/>
	<path fill-rule="evenodd" clip-rule="evenodd" fill="#FD8E74" d="M159.516,295.127l-0.062,0.231
		c-0.106,0.422-0.218,0.844-0.309,1.268l-0.007,0.027c-2.294,10.59-1.099,19.164,4.775,27.651c1.917,2.768,4.112,5.216,6.143,7.869
		c2.185,2.856,4.154,6.044,4.008,9.979c-0.03,0.775-0.144,1.548-0.336,2.304c-0.196,0.756-0.468,1.487-0.819,2.181
		c-1.774,3.524-5.047,5.379-8.348,6.839c-3.066,1.355-6.173,2.451-9.192,3.958c-9.229,4.613-14.41,11.508-17.493,21.858
		l-0.062,0.204c-0.126,0.42-0.233,0.844-0.342,1.269l-4.6,17.866l55.655,14.089l4.6-17.866c0.109-0.425,0.22-0.852,0.314-1.278
		l0.047-0.211c2.298-10.544,1.086-19.058-4.785-27.489c-1.923-2.76-4.122-5.199-6.158-7.845c-2.195-2.851-4.171-6.036-4.025-9.972
		c0.03-0.775,0.141-1.548,0.336-2.304c0.193-0.756,0.468-1.49,0.819-2.184c1.771-3.523,5.04-5.386,8.336-6.851
		c3.065-1.364,6.171-2.471,9.189-3.99c9.259-4.657,14.454-11.616,17.564-22l0.008-0.027c0.124-0.415,0.23-0.837,0.336-1.256
		l0.062-0.231L159.516,295.127z"/>
	<path fill-rule="evenodd" clip-rule="evenodd" fill="#FFFFFF" d="M236.452,285.827l-1.465,5.693
		c-0.69,2.684-3.291,4.365-5.775,3.737l-75.276-19.056c-2.484-0.63-3.951-3.34-3.261-6.024l1.465-5.695L236.452,285.827z"/>
	<path fill-rule="evenodd" clip-rule="evenodd" fill="#FFFFFF" d="M200.442,425.727l1.465-5.693
		c0.693-2.685-0.774-5.396-3.258-6.024l-75.278-19.056c-2.484-0.628-5.082,1.053-5.772,3.737l-1.465,5.693L200.442,425.727z"/>
</g>
</svg>
