<?xml version="1.0" encoding="utf-8"?>
<!-- Generator: Adobe Illustrator 17.0.0, SVG Export Plug-In . SVG Version: 6.00 Build 0)  -->
<!DOCTYPE svg PUBLIC "-//W3C//DTD SVG 1.1//EN" "http://www.w3.org/Graphics/SVG/1.1/DTD/svg11.dtd">
<svg version="1.1" id="Layer_1" xmlns="http://www.w3.org/2000/svg" xmlns:xlink="http://www.w3.org/1999/xlink" x="0px" y="0px"
	 width="512px" height="512px" viewBox="0 0 512 512" enable-background="new 0 0 512 512" xml:space="preserve">
<g>
	<g>
		<path fill="#FFFFFF" d="M349.626,302.849c22.344-31.192,35.624-69.264,35.624-110.475c0-105.442-85.968-190.875-192-190.875
			c-106.034,0-192,85.432-192,190.875c0,105.411,85.966,190.875,192,190.875c41.454,0,79.75-13.202,111.126-35.415l154.248,153.344
			c12.5,12.431,32.75,12.431,45.248,0c12.504-12.425,12.504-32.556,0-44.981L349.626,302.849z M327.7,271.391
			c-13.363,22.486-32.074,41.09-54.695,54.375c-22.991,13.477-49.48,21.734-78.099,21.734c-85.411,0-154.656-68.841-154.656-153.75
			S109.495,40,194.906,40c85.409,0,154.656,68.841,154.656,153.75C349.563,222.201,341.257,248.535,327.7,271.391z"/>
	</g>
</g>
</svg>
