<?xml version="1.0" encoding="utf-8"?>
<!-- Generator: Adobe Illustrator 17.0.0, SVG Export Plug-In . SVG Version: 6.00 Build 0)  -->
<!DOCTYPE svg PUBLIC "-//W3C//DTD SVG 1.1//EN" "http://www.w3.org/Graphics/SVG/1.1/DTD/svg11.dtd">
<svg version="1.1" id="Isolation_Mode" xmlns="http://www.w3.org/2000/svg" xmlns:xlink="http://www.w3.org/1999/xlink" x="0px"
	 y="0px" width="600px" height="450px" viewBox="0 0 600 450" enable-background="new 0 0 600 450" xml:space="preserve">
<g>
	<path opacity="0.1" d="M479.906,200.828c-0.626-22.43-7.255-44.347-18.774-63.565c-7.842-13.084-18.373-23.799-29.102-34.468
		c-12.58-12.508-25.071-25.106-37.63-37.635c-17.686-17.645-34.486-36.92-56.832-48.799C299.922-3.65,253.736-4.033,215.906,15.708
		c-36.624,19.112-62.804,55.187-69.033,96.109c-3.618,23.768,0.082,48.074,6.768,70.97c6.35,21.745,15.652,42.53,26.377,62.447
		c22.235,41.292,50.026,79.851,80.903,115.1c12.016,13.717,25.346,26.286,38.24,39.18c12.514,12.514,25.028,25.028,37.542,37.543
		c3.384,3.384,6.568,7.331,11.208,8.966c3.957,1.394,7.644-1.111,10.484-3.813c7.637-7.265,14.181-16.117,20.798-24.297
		c14.91-18.429,28.927-37.593,41.846-57.471c12.413-19.1,23.918-38.872,33.595-59.507c10.039-21.409,18.484-43.941,22.658-67.281
		C479.226,222.843,480.243,211.814,479.906,200.828C479.902,200.663,479.947,202.174,479.906,200.828z"/>
	<g>
		<g>
			<path fill="#CD2007" d="M368.561,39.321C336.804,7.564,289.842-5.807,246.12,4.454c-33.334,7.823-62.762,29.016-80.918,58.024
				c-9.212,14.719-15.432,31.257-18.183,48.403c-3.002,18.709-1.419,37.695,2.596,56.134c7.555,34.697,23.406,67.36,41.473,97.714
				c15.747,26.457,33.694,51.614,53.022,75.567c5.866,7.27,11.866,14.434,18.045,21.44c3.229,3.662,7.303,9.295,11.92,10.891
				c0.76,0.263,1.893,0.8,2.709,0.837c1.071,0.049,2.446-0.542,3.476-0.923c2.437-0.901,4.521-2.863,6.279-4.749
				c0.887-0.952,1.746-1.934,2.608-2.908c5.181-5.851,10.21-11.838,15.145-17.897c18.577-22.803,35.853-46.732,51.285-71.776
				c18.676-30.307,35.202-62.708,44.483-97.222c5.045-18.759,8.001-38.502,6.282-57.932c-1.81-20.454-8.505-40.364-19.433-57.749
				C381.681,53.99,375.512,46.265,368.561,39.321 M355.031,160.647c-13.804,37.602-53.542,60.842-93.074,54.094
				c-30.019-5.124-55.498-26.974-65.368-55.751c-10.093-29.427-2.693-62.809,18.775-85.284
				c22.968-24.046,58.932-32.413,90.137-20.712c37.396,14.023,60.257,53.786,53.41,93.191
				C358.056,151.109,356.756,155.956,355.031,160.647C354.324,162.573,358.347,151.628,355.031,160.647z M276.097,99.241
				c-13.561,0-26.006,8.785-30.603,21.537c-4.622,12.822-0.518,27.487,9.967,36.147c10.503,8.675,25.751,9.807,37.412,2.754
				c11.607-7.021,17.78-20.881,15.152-34.202C305.058,110.432,291.426,99.241,276.097,99.241z"/>
			<path fill="#A81A13" d="M406.857,131.736c0,33.337-11.495,66.363-25.5,96.195c-13.345,28.426-29.927,55.298-48.059,80.901
				c-12.433,17.555-25.642,34.592-39.666,50.907c-2.337,2.719-4.668,5.46-7.117,8.081c-1.722,1.842-3.754,3.734-6.106,4.678
				c-0.752,0.302-3.633,1.63-4.312,0.72c-0.351-0.471,0-2.579,0-3.133c0-16.086,0-32.172,0-48.258c0-22.651,0-45.303,0-67.954
				c0-8.564,0-17.127,0-25.691c0-2.7,0-5.4,0-8.1c0-0.755-0.439-3.258,0-3.907c0.56-0.828,5.381-0.396,6.643-0.495
				c5.129-0.402,10.232-1.296,15.199-2.638c9.862-2.665,19.238-7.16,27.486-13.189c16.817-12.294,28.76-30.622,32.988-51.044
				c4.351-21.02,0.379-43.275-10.979-61.476c-9.83-15.753-24.881-28.035-42.299-34.474c-4.771-1.764-9.699-3.068-14.708-3.943
				c-2.314-0.404-4.644-0.72-6.985-0.918c-1.293-0.11-2.589-0.182-3.886-0.239c-0.354-0.016-3.197,0.217-3.458-0.082
				c-0.246-0.281,0-1.859,0-2.217c0-1.813,0-3.626,0-5.439c0-10.696,0-21.392,0-32.088c0-2.311,0-4.622,0-6.933
				c29.143,0,57.828,9.885,80.735,27.909c19.673,15.479,34.751,36.521,42.916,60.196
				C404.47,102.796,406.857,117.256,406.857,131.736z"/>
		</g>
		<g>
			<path fill="#A81A13" d="M276.097,31.837c-41.567,0-79.733,26.822-93.915,65.888c-14.287,39.355-1.773,84.513,30.424,111.158
				c32.264,26.701,79.126,30.247,114.982,8.543c35.866-21.709,54.808-64.688,46.375-105.801
				c-8.26-40.268-41.726-72.223-82.34-78.584C286.489,32.237,281.293,31.837,276.097,31.837z M352.715,166.327
				c-16.24,36.009-56.782,56.32-95.313,47.505c-29.653-6.784-53.91-29.967-62.18-59.219c-8.456-29.91,0.714-62.768,23.317-84.06
				c24.456-23.037,61.317-29.327,92.008-15.477c36.641,16.535,56.911,58.117,47.073,97.185
				C356.406,157.085,354.746,161.787,352.715,166.327C351.594,168.814,353.544,164.474,352.715,166.327z"/>
		</g>
	</g>
</g>
</svg>
