<?xml version="1.0" encoding="utf-8"?>
<!-- Generator: Adobe Illustrator 17.0.0, SVG Export Plug-In . SVG Version: 6.00 Build 0)  -->
<!DOCTYPE svg PUBLIC "-//W3C//DTD SVG 1.1//EN" "http://www.w3.org/Graphics/SVG/1.1/DTD/svg11.dtd">
<svg version="1.1" id="Isolation_Mode" xmlns="http://www.w3.org/2000/svg" xmlns:xlink="http://www.w3.org/1999/xlink" x="0px"
	 y="0px" width="800px" height="800px" viewBox="0 0 800 800" enable-background="new 0 0 800 800" xml:space="preserve">
<g>
	<g>
		<path fill-rule="evenodd" clip-rule="evenodd" fill="#5D827B" d="M243.155,560.247C171.799,604.686,155.257,705.771,152.217,800
			h262.857C418.073,660.093,319.796,512.51,243.155,560.247L243.155,560.247z M677.347,800H415.96
			c29.62-170.921,92.983-286.251,170.39-239.753C657.696,603.101,674.284,705.277,677.347,800z"/>
		<path fill-rule="evenodd" clip-rule="evenodd" fill="#5D827B" d="M593.01,227.254c18.884,48.585,5.273,121.114-11.553,148.704
			c-15.141,24.827,5.003,44.005,14.84,29.057c22.791,33.466-38.138,135.791-148.311,55.022
			C337.817,379.272,502.072,98.744,593.01,227.254z"/>
		<path fill-rule="evenodd" clip-rule="evenodd" fill="#5D827B" d="M233.044,229.995c-5.542,49.102-2.78,115.776,20.819,148.66
			c13.361,18.618-10.768,35.839-19.797,22.117c-22.791,33.47,38.138,135.8,148.316,55.026
			C492.555,375.029,323.982,101.489,233.044,229.995z"/>
		<path fill-rule="evenodd" clip-rule="evenodd" fill="#5D827B" d="M258.195,417.519c45.72,41.93-5.742,94.032-20.153,54.287
			c-30.099,27.651,5.099,140.551,131.477,85.805C495.897,502.873,377.101,312.099,258.195,417.519z"/>
		<path fill-rule="evenodd" clip-rule="evenodd" fill="#5D827B" d="M571.967,417.519c-45.725,41.93,5.738,94.032,20.148,54.287
			c30.1,27.651-5.099,140.551-131.472,85.805C334.266,502.873,453.062,312.099,571.967,417.519z"/>
		<path fill-rule="evenodd" clip-rule="evenodd" fill="#FFFFFF" d="M349.854,335.888h129.792v180.085
			c0,60.785-129.792,67.769-129.792,0V335.888z"/>
		<polygon fill-rule="evenodd" clip-rule="evenodd" fill="#F2F5F4" points="479.646,448.945 479.646,425.926 349.854,425.926 
			349.854,510.684 		"/>
		<path fill-rule="evenodd" clip-rule="evenodd" fill="#F2F5F4" d="M414.746,106.884c274.876,0,163.448,348.301,0,348.301
			C251.302,455.185,139.87,106.884,414.746,106.884z"/>
		<path fill-rule="evenodd" clip-rule="evenodd" fill="#FFFFFF" d="M414.746,106.884c274.876,0,163.448,348.301,0,348.301V106.884z"
			/>
		
			<path fill-rule="evenodd" clip-rule="evenodd" fill="#FFFFFF" stroke="#FFFFFF" stroke-width="0.216" stroke-miterlimit="22.9256" d="
			M414.832,674.543c0-22.848-64.147-105.097-64.147-149.501H478.98C478.98,569.446,414.832,651.695,414.832,674.543z"/>
		<path fill-rule="evenodd" clip-rule="evenodd" fill="#157562" d="M396.537,800c-30.46-140.249-82.402-161.393-112.031-157.833
			c-8.23-26.255-1.183-46.672,11.224-70.159c-14.936-2.4-24.298,0.109-43.109,8.858c-6.272-33.251,51.238-90.932,97.219-104.935
			c-9.654,41.343-6.829,81.68,17.51,102.596c32.751,28.146,42.429,131.01,45.496,221.473H396.537z"/>
		<path fill-rule="evenodd" clip-rule="evenodd" fill="#5D827B" d="M293.448,624.101c0.776-27.914,3.291-41.151,20.016-62.16
			c-22.993-3.503-39.709,0.56-58.52,9.309c5.724-33.256,59.318-84.084,94.909-98.087c0,24.507-9.088,79.442,26.311,115.47
			c27.178,27.66,35.385,87.827,37.741,211.367h-11.257C390.274,714.415,362.927,624.101,293.448,624.101z"/>
		<path fill-rule="evenodd" clip-rule="evenodd" fill="#BECDCA" d="M411.66,732.722c-1.913-107.185-82.046-129.718-109.187-129.775
			c5.729-25.86,20.436-54.331,30.935-65.321c-43.712,0.364-57.373,8.95-76.189,22.121c5.719-33.256,57.045-72.581,92.635-86.583
			c0,24.507-2.647,71.464,22.431,102.968C397.368,607.637,429.389,662.58,411.66,732.722z"/>
		<path fill-rule="evenodd" clip-rule="evenodd" fill="#157562" d="M544.866,642.167c8.23-26.255,1.178-46.672-11.229-70.159
			c14.936-2.4,24.307,0.109,43.118,8.858c6.267-33.251-46.724-85.804-92.709-99.807c0,24.503,21.541,75.068-12.717,99.448
			c-28.114,20.006-61.888,52.001-61.824,219.494h21.139C445.042,717.791,474.493,633.712,544.866,642.167z"/>
		<path fill-rule="evenodd" clip-rule="evenodd" fill="#5D827B" d="M535.929,624.101c-0.781-27.914-3.3-41.151-20.016-62.16
			c22.988-3.503,39.699,0.56,58.514,9.309c-5.724-33.256-59.318-84.084-94.904-98.087c0,24.507,3.579,101.616-32.838,135.108
			c-28.191,25.926-39.517,68.281-37.261,191.728h15.456C435.236,704.353,458.078,624.101,535.929,624.101z"/>
		<path fill-rule="evenodd" clip-rule="evenodd" fill="#BECDCA" d="M411.66,732.722c18.752-103.472,88.098-129.718,115.24-129.775
			c-5.729-25.86-20.441-54.331-30.935-65.321c43.711,0.364,57.373,8.95,76.189,22.121c-5.724-33.256-57.045-72.581-92.631-86.583
			c0,24.507,2.643,71.464-22.44,102.968C432,607.637,405.041,645.85,411.66,732.722z"/>
		<path fill-rule="evenodd" clip-rule="evenodd" fill="#5D827B" d="M410.094,148.718c92.189,0,136.813,58.096,139.766,102.864
			c2.953,44.768,19.227,48.967,39.16,8.153c19.93-40.813-28.894-216.827-171.454-216.827c-142.555,0-200.919,135.41-180.985,209.383
			c19.934,73.978,44.638,32.043,43.689,0.294C279.316,220.834,307.936,151.271,410.094,148.718z"/>
		<g>
			<path fill-rule="evenodd" clip-rule="evenodd" fill="#FFFFFF" d="M591.381,226.728c10.001,2.136,13.932,21.88,8.778,44.106
				c-5.153,22.221-17.446,38.502-27.447,36.365c-10.006-2.132-13.936-21.876-8.783-44.097
				C569.082,240.875,581.375,224.591,591.381,226.728z"/>
			<path fill-rule="evenodd" clip-rule="evenodd" fill="#F2F5F4" d="M238.289,226.728c-10.006,2.136-13.936,21.88-8.783,44.106
				c5.154,22.221,17.447,38.502,27.452,36.365c10.001-2.132,13.936-21.876,8.778-44.097
				C260.583,240.875,248.295,224.591,238.289,226.728z"/>
		</g>
		<path fill-rule="evenodd" clip-rule="evenodd" fill="#5D827B" d="M298.296,116.727c-8.91,52.298,95.256,126.605,215.102,131.609
			C524.234,112.436,392.077,66.171,298.296,116.727z"/>
	</g>
	<g>
		<path fill="#FFFFFF" d="M241.822,229.434c0-43.843,19.441-83.536,50.86-112.26C324.027,88.52,367.3,70.795,415.074,70.795
			c47.77,0,91.048,17.725,122.388,46.379c31.423,28.724,50.86,68.417,50.86,112.26h-11.695c0-40.669-18.039-77.494-47.203-104.155
			c-29.237-26.732-69.671-43.266-114.35-43.266c-44.683,0-85.113,16.534-114.35,43.266c-29.169,26.662-47.208,63.486-47.208,104.155
			H241.822z"/>
		<g>
			<path fill-rule="evenodd" clip-rule="evenodd" fill="#FFFFFF" d="M245.341,225.283h0.005c7.929,0,14.42,6.222,14.42,13.832
				v41.496c0,7.606-6.491,13.828-14.42,13.828h-0.005c-7.928,0-14.415-6.222-14.415-13.828v-41.496
				C230.926,231.505,237.412,225.283,245.341,225.283z"/>
			<path fill-rule="evenodd" clip-rule="evenodd" fill="#FFFFFF" d="M584.803,225.283L584.803,225.283
				c7.929,0,14.42,6.222,14.42,13.832v41.496c0,7.606-6.491,13.828-14.42,13.828l0,0c-7.934,0-14.42-6.222-14.42-13.828v-41.496
				C570.383,231.505,576.869,225.283,584.803,225.283z"/>
		</g>
		<path fill="#FFFFFF" d="M251.193,294.44c0,23.264,14.712,49.777,38.462,69.892c21.427,18.141,50.12,30.953,81.954,31.4
			l-0.137,11.17c-34.865-0.486-66.202-14.441-89.536-34.202c-26.201-22.195-42.438-51.878-42.438-78.26H251.193z"/>
		<path fill-rule="evenodd" clip-rule="evenodd" fill="#FFFFFF" d="M375.763,416.727l-27.735-8.661
			c-12.142-3.792-8.961-18.666,3.802-18.163l29.296,1.165C402.102,391.9,396.77,422.222,375.763,416.727z"/>
	</g>
</g>
<g>
	<g opacity="0.1">
	</g>
	<g>
		<g>
			<path fill="#58B5BE" d="M732.158,122.497c-12.769,0-23.122,10.615-23.122,23.694c0,13.092,10.353,23.707,23.122,23.707
				c12.756,0,23.109-10.615,23.109-23.707C755.267,133.112,744.914,122.497,732.158,122.497z M732.158,122.497
				c-12.769,0-23.122,10.615-23.122,23.694c0,13.092,10.353,23.707,23.122,23.707c12.756,0,23.109-10.615,23.109-23.707
				C755.267,133.112,744.914,122.497,732.158,122.497z M732.158,122.497c-12.769,0-23.122,10.615-23.122,23.694
				c0,13.092,10.353,23.707,23.122,23.707c12.756,0,23.109-10.615,23.109-23.707C755.267,133.112,744.914,122.497,732.158,122.497z
				 M732.158,122.497c-12.769,0-23.122,10.615-23.122,23.694c0,13.092,10.353,23.707,23.122,23.707
				c12.756,0,23.109-10.615,23.109-23.707C755.267,133.112,744.914,122.497,732.158,122.497z M732.158,79.115
				c-36.137,0-65.422,30.038-65.422,67.076c0,13.37,3.821,25.804,10.39,36.255l55.031,95.269l0.9,1.567l54.119-96.836
				c3.279-5.219,5.891-10.944,7.666-17.034c1.775-6.078,2.736-12.536,2.736-19.221C797.579,109.153,768.282,79.115,732.158,79.115z
				 M732.158,98.677c25.599,0,46.342,21.268,46.342,47.514s-20.743,47.527-46.342,47.527c-25.599,0-46.355-21.28-46.355-47.527
				S706.558,98.677,732.158,98.677z M732.158,169.898c12.756,0,23.109-10.615,23.109-23.707c0-13.079-10.353-23.694-23.109-23.694
				c-12.769,0-23.122,10.615-23.122,23.694C709.036,159.283,719.389,169.898,732.158,169.898z M732.158,122.497
				c-12.769,0-23.122,10.615-23.122,23.694c0,13.092,10.353,23.707,23.122,23.707c12.756,0,23.109-10.615,23.109-23.707
				C755.267,133.112,744.914,122.497,732.158,122.497z M732.158,122.497c-12.769,0-23.122,10.615-23.122,23.694
				c0,13.092,10.353,23.707,23.122,23.707c12.756,0,23.109-10.615,23.109-23.707C755.267,133.112,744.914,122.497,732.158,122.497z
				 M732.158,122.497c-12.769,0-23.122,10.615-23.122,23.694c0,13.092,10.353,23.707,23.122,23.707
				c12.756,0,23.109-10.615,23.109-23.707C755.267,133.112,744.914,122.497,732.158,122.497z M732.158,122.497
				c-12.769,0-23.122,10.615-23.122,23.694c0,13.092,10.353,23.707,23.122,23.707c12.756,0,23.109-10.615,23.109-23.707
				C755.267,133.112,744.914,122.497,732.158,122.497z"/>
			<path fill="#49A8AD" d="M797.573,146.196c0-37.045-29.29-67.076-65.421-67.076v17.216c26.858,0,48.63,22.323,48.63,49.86
				s-21.772,49.86-48.63,49.86v81.663l0.903,1.564l54.127-96.832h-0.001C793.748,171.994,797.573,159.557,797.573,146.196z"/>
		</g>
		<g>
			<path fill="#49A8AD" d="M732.158,90.438c-30.049,0-54.391,24.958-54.391,55.754s24.342,55.766,54.391,55.766
				c30.036,0,54.378-24.97,54.378-55.766S762.194,90.438,732.158,90.438z M685.803,146.191c0-26.247,20.755-47.514,46.355-47.514
				c25.599,0,46.342,21.268,46.342,47.514s-20.743,47.527-46.342,47.527C706.558,193.718,685.803,172.438,685.803,146.191z"/>
		</g>
	</g>
</g>
<g>
	<g>
		<polygon fill-rule="evenodd" clip-rule="evenodd" fill="#F2F5F4" points="152.217,156.668 76.11,213 0.002,156.666 76.11,100.333 
					"/>
		<rect x="20.792" y="110.229" fill-rule="evenodd" clip-rule="evenodd" fill="#5D827B" width="110.635" height="138.551"/>
		<g>
			<rect x="38.055" y="129.174" fill-rule="evenodd" clip-rule="evenodd" fill="#FFFFFF" width="31.608" height="6.534"/>
			<rect x="37.746" y="141.861" fill-rule="evenodd" clip-rule="evenodd" fill="#FFFFFF" width="76.726" height="6.534"/>
			<rect x="37.747" y="154.034" fill-rule="evenodd" clip-rule="evenodd" fill="#FFFFFF" width="76.724" height="6.534"/>
			<rect x="37.746" y="166.207" fill-rule="evenodd" clip-rule="evenodd" fill="#FFFFFF" width="76.724" height="6.534"/>
			<rect x="37.746" y="178.38" fill-rule="evenodd" clip-rule="evenodd" fill="#FFFFFF" width="76.724" height="6.534"/>
			<rect x="37.746" y="190.554" fill-rule="evenodd" clip-rule="evenodd" fill="#FFFFFF" width="76.724" height="6.532"/>
			<rect x="37.744" y="202.726" fill-rule="evenodd" clip-rule="evenodd" fill="#FFFFFF" width="76.726" height="6.534"/>
		</g>
		<polygon fill-rule="evenodd" clip-rule="evenodd" fill="#F2F5F4" points="0,248.779 152.217,248.781 152.217,156.668 76.108,213 
			0.002,156.666 		"/>
		<polygon fill-rule="evenodd" clip-rule="evenodd" fill="#FFFFFF" points="0,248.779 152.217,248.781 89.995,202.726 
			62.226,202.726 62.226,202.721 		"/>
	</g>
	<polygon fill-rule="evenodd" clip-rule="evenodd" fill="#5D827B" points="0.002,156.666 62.226,202.726 89.995,202.726 
		152.217,156.668 89.995,198.417 62.226,198.417 	"/>
</g>
<path fill-rule="evenodd" clip-rule="evenodd" fill="#FFFFFF" d="M24.382,392.574L8.926,404.14
	C-27.88,431.677,58.452,574.634,99.258,549.02l15.817-9.929l-26.016-42.029l-13.336,8.903
	c-16.935,11.307-54.029-50.04-38.153-61.192l13.33-9.361L24.382,392.574z"/>
</svg>
