<?xml version="1.0" encoding="utf-8"?>
<!-- Generator: Adobe Illustrator 17.0.0, SVG Export Plug-In . SVG Version: 6.00 Build 0)  -->
<!DOCTYPE svg PUBLIC "-//W3C//DTD SVG 1.1//EN" "http://www.w3.org/Graphics/SVG/1.1/DTD/svg11.dtd">
<svg version="1.1" id="Objects" xmlns="http://www.w3.org/2000/svg" xmlns:xlink="http://www.w3.org/1999/xlink" x="0px" y="0px"
	 width="600px" height="450px" viewBox="0 0 600 450" enable-background="new 0 0 600 450" xml:space="preserve">
<g>
	<path fill-rule="evenodd" clip-rule="evenodd" fill="#FC8D25" d="M256.543,450c123.1,0,223.502-100.402,223.502-223.502
		c0-123.101-100.402-223.503-223.502-223.503c-123.101,0-223.503,100.402-223.503,223.503C33.041,349.598,133.443,450,256.543,450z"
		/>
	<path fill-rule="evenodd" clip-rule="evenodd" fill="#FFEFE0" d="M256.543,437.173c116.035,0,210.675-94.64,210.675-210.675
		c0-116.036-94.64-210.677-210.675-210.677c-116.038,0-210.676,94.641-210.676,210.677
		C45.868,342.533,140.505,437.173,256.543,437.173z"/>
	<g>
		<path fill-rule="evenodd" clip-rule="evenodd" fill="#57291E" d="M323.463,157.455c-15.626,73.966-46.757,205.767-70.297,205.767
			c-23.536,0-69.696-141.677-78.763-196.271c-7.82-47.052,7.039-138.98,105.813-108.958
			C313.336,56.168,337.021,93.252,323.463,157.455z"/>
		<path fill-rule="evenodd" clip-rule="evenodd" fill="#27557D" d="M190.143,409.018c-1.704,3.912-3.709,9.096-5.799,15.455
			c22.52,8.215,46.833,12.7,72.199,12.7c23.008,0,45.15-3.701,65.875-10.518c-2.377-7.709-4.725-13.674-6.733-17.636H190.143z"/>
		<g>
			<path fill-rule="evenodd" clip-rule="evenodd" fill="#D1A886" d="M454.009,279.686l4.934,5.437
				c2.496-8.629,4.461-17.486,5.846-26.532L454.009,279.686z"/>
			<path fill-rule="evenodd" clip-rule="evenodd" fill="#FFD7B7" d="M465.232,255.441c-0.607,1.232-0.82,2.694-0.604,4.126
				C464.842,258.196,465.042,256.818,465.232,255.441z"/>
			<path fill-rule="evenodd" clip-rule="evenodd" fill="#FFD7B7" d="M454.009,279.686l4.934,5.437
				c2.496-8.629,4.461-17.486,5.846-26.532L454.009,279.686z"/>
		</g>
		<path fill-rule="evenodd" clip-rule="evenodd" fill="#FFFFFF" d="M436.666,281.396l17.201,19.032
			c2.358-6.295,4.422-12.73,6.181-19.293l-10.592-11.722L436.666,281.396z"/>
		<path fill-rule="evenodd" clip-rule="evenodd" fill="#27557D" d="M317.573,283.87l-3.469-45.614l22.179-4.029
			c0.032-0.005,56.842,68.229,64.103,76.449l39.441-34.755c0.026-0.019,0.082-0.021,0.106,0.008l16.161,18.296
			c-5.572,16.423-13.117,31.933-22.348,46.255l-24.807,21.858c-11.373,10.02-20.57,1.881-24.612-2.72
			c-22.179-25.274-44.506-50.429-66.759-75.64C317.546,283.955,317.573,283.905,317.573,283.87z"/>
		<path fill-rule="evenodd" clip-rule="evenodd" fill="#3F73A1" d="M183.009,423.971c17.671-43.464,11.55-50.558-4.931-90.089
			c-14.95-35.856,15.381-55.041-7.163-99.423c19.984-12.812,45.794-17.999,61.338-30.664c7.368,6.489,12.618,7.962,20.973,7.962
			c8.358,0,13.882-1.69,21.248-8.176c11.497,9.364,40.95,17.255,61.85,30.877c-21.496,45.554,7.624,53.057-7.16,99.423
			c-12.51,39.214-32.764,37.393-5.933,91.701l0.34,0.696c-21.058,7.063-43.593,10.893-67.029,10.893
			C230.676,437.173,205.906,432.501,183.009,423.971z"/>
		<polygon fill-rule="evenodd" clip-rule="evenodd" fill="#FFFFFF" points="213.862,214.502 212,264.11 253.522,369.53 
			294.459,264.11 291.916,213.142 274.478,203.581 232.253,203.796 		"/>
		<rect x="232.259" y="186.467" fill-rule="evenodd" clip-rule="evenodd" fill="#D1A886" width="41.478" height="42.967"/>
		<path fill-rule="evenodd" clip-rule="evenodd" fill="#F2CAA9" d="M253.227,211.761c20.789,0,40.027-23.766,50.173-52.881
			c0.594,0.611,1.264,1.001,2.002,1.122c4.137,0.685,8.875-7.082,10.582-17.352c1.704-10.272-0.264-19.156-4.398-19.84
			c-0.293-0.05-0.588-0.058-0.887-0.021c2.029-36.076-12.93-69.408-57.473-69.408c-44.575,0-59.523,33.38-57.465,69.493
			c-0.454-0.116-0.905-0.141-1.348-0.063c-4.137,0.685-6.11,9.569-4.403,19.84c1.707,10.269,6.443,18.036,10.579,17.352
			c0.884-0.148,1.665-0.668,2.332-1.492C213.031,187.797,232.356,211.761,253.227,211.761z"/>
		<path fill-rule="evenodd" clip-rule="evenodd" fill="#93B9DB" d="M260.11,255.995l2.889-6.105l-9.772-23.685l-9.605,23.303
			l3.065,6.487C251.161,255.995,255.636,255.995,260.11,255.995z"/>
		<polygon fill-rule="evenodd" clip-rule="evenodd" fill="#CCCCCC" points="232.248,203.8 253.227,226.205 238.295,266.15 
			219.835,212.034 		"/>
		<polygon fill-rule="evenodd" clip-rule="evenodd" fill="#27557D" points="219.973,210.951 253.23,370.092 198.477,282.786 
			205.668,267.548 190.045,255.09 208.299,216.966 		"/>
		<polygon fill-rule="evenodd" clip-rule="evenodd" fill="#CCCCCC" points="274.478,203.582 253.227,226.205 268.162,266.15 
			286.888,211.812 		"/>
		<polygon fill-rule="evenodd" clip-rule="evenodd" fill="#93B9DB" points="246.687,270.846 260.107,270.846 267.083,338.117 
			253.23,370.092 239.896,338.117 		"/>
		<polygon fill-rule="evenodd" clip-rule="evenodd" fill="#FFFFFF" points="232.253,203.796 253.227,226.205 237.976,256.28 
			219.843,212.028 		"/>
		<polygon fill-rule="evenodd" clip-rule="evenodd" fill="#27557D" points="287.297,210.609 253.227,370.092 307.98,282.786 
			300.788,267.548 316.414,255.088 299.638,216.317 		"/>
		<polygon fill-rule="evenodd" clip-rule="evenodd" fill="#3F73A1" points="287.294,210.609 253.23,370.092 302.659,275.821 
			294.459,264.113 310.27,251.813 299.638,216.317 		"/>
		<polygon fill-rule="evenodd" clip-rule="evenodd" fill="#FFFFFF" points="274.478,203.577 253.227,226.205 268.484,256.28 
			286.888,211.811 		"/>
		<path fill-rule="evenodd" clip-rule="evenodd" fill="#93B9DB" d="M246.687,254.887h13.423c2.999,6.216,2.765,11.653,0,16.964
			h-13.423C243.925,266.54,243.687,261.103,246.687,254.887z"/>
		<path fill-rule="evenodd" clip-rule="evenodd" fill="#27557D" d="M251.365,437.107c-0.628-18.262,0.235-33.679,2.638-68.712
			c2.406,35.072,3.448,50.484,2.952,68.773l-0.411,0.005C254.81,437.173,253.085,437.149,251.365,437.107z"/>
		<path fill-rule="evenodd" clip-rule="evenodd" fill="#F2CAA9" d="M311.755,129.238c4.013,0.893,5.738,8.477,3.86,16.935
			c-1.881,8.463-6.659,14.604-10.674,13.708c-4.013-0.892-5.741-8.478-3.86-16.936C302.962,134.487,307.743,128.349,311.755,129.238
			z"/>
		<path fill-rule="evenodd" clip-rule="evenodd" fill="#57291E" d="M311.518,122.789c2.066-36.076-13.167-69.408-58.52-69.408
			c-45.39,0-60.61,33.38-58.52,69.49c3.672,0.898,7.497,7.502,9.186,16.094c2.958,1.959,5.102,0.814,5.102-6.461
			c0-21.471,2.702-40.497,17.061-45.039c13.663-4.319,16.666,5.163,27.092,5.163c10.426,0,13.713-8.93,27.094-5.163
			c13.887,3.915,17.061,23.568,17.061,45.039c0,6.982,1.968,8.317,4.746,6.685C303.553,130.114,307.677,123.211,311.518,122.789z"/>
		<path fill-rule="evenodd" clip-rule="evenodd" fill="#57291E" d="M294.367,65.595c2.889,20.219-28.891,64.276-52.001,74.388
			c14.761-8.189,24.445-38.635,20.887-60.66C262.416,74.158,296.776,69.441,294.367,65.595z"/>
		<path fill-rule="evenodd" clip-rule="evenodd" fill="#57291E" d="M278.965,68.284c-2.728,20.239-71.157,83.173-96.152,86.609
			c-7.756-104.058,56.215-60.854,62.47-81.878C246.774,68.001,280.237,72.637,278.965,68.284z"/>
		<path fill-rule="evenodd" clip-rule="evenodd" fill="#57291E" d="M262.532,55.355c-1.623,20.357,31.822,93.322,55.518,101.977
			c8.944-74.481-10.392-84.167-23.606-90.214C289.692,64.948,260.366,59.343,262.532,55.355z"/>
		<path fill-rule="evenodd" clip-rule="evenodd" fill="#27557D" d="M164.795,244.318c1.103-4.308,2.865-8.529,7.706-10.856
			c17.628,11.869,25.775,48.735,20.293,65.076l-16.692,51.69l-34.932,29.461c-11.062-10.392-10.286-23.889-9.149-29.896
			C134.068,339.008,163.568,249.117,164.795,244.318z"/>
		<polygon fill-rule="evenodd" clip-rule="evenodd" fill="#3F73A1" points="219.16,210.609 253.227,370.092 203.798,275.821 
			211.997,264.113 196.184,251.813 208.301,216.968 		"/>
		
			<rect x="213.473" y="270.486" transform="matrix(-0.9467 -0.322 0.322 -0.9467 398.3931 750.3043)" fill-rule="evenodd" clip-rule="evenodd" fill="#FC8D25" width="95.559" height="143.431"/>
		<path fill-rule="evenodd" clip-rule="evenodd" fill="#FFD7B7" d="M282.996,331.26c-2.67,0.575-5.926,1.198-9.772,1.976
			l9.629-9.527c4.276-4.232,1.332-8.928-1.353-9.978l-24.052,20.195c-3.395,2.852-4.092,9.46-3.084,15.512
			c2.084,12.516,11.4,15.32,28.806,15.433l26.936,0.174c5.759,0.037,5.749-8.097-0.063-8.086l-19.006,0.037
			c0.245-0.285,0.464-0.686,0.644-1.061l25.058-2.411c5.793-0.554,4.295-8.492-0.575-8.068L293,347.496
			c0.008-0.245-0.076-0.717-0.106-0.894l26.268-4.585c5.282-0.921,3.847-8.88-1.398-7.962l-28.128,4.91
			c-0.253-0.322-0.522-0.638-0.802-0.942l26.609-7.458c5.065-1.419,3.063-9.26-2.216-7.78L282.996,331.26z"/>
		<polygon fill-rule="evenodd" clip-rule="evenodd" fill="#FFFFFF" points="243.788,330.548 250.969,370.371 268.204,366.942 
			261.02,327.118 		"/>
		<path fill-rule="evenodd" clip-rule="evenodd" fill="#27557D" d="M163.589,341.391l83.723-13.27l8.542,43.448
			c0.005,0.021-0.029,0.092-0.05,0.092l-89.857,15.671c-14.948,2.604-24.575-7.094-28.397-11.861
			C127.715,358.953,148.694,337.682,163.589,341.391z"/>
	</g>
	<g>
		<g>
			<path fill-rule="evenodd" clip-rule="evenodd" fill="#FFD7B7" d="M523.251,224.521L523.251,224.521
				c2.063,1.855,2.074,4.72,0.098,6.413l-28.991,25.322c-1.979,1.699-5.321,1.533-7.374-0.319l0,0
				c-2.06-1.852-2.076-4.709-0.098-6.408l28.989-25.324C517.859,222.505,521.199,222.673,523.251,224.521z"/>
			<path fill-rule="evenodd" clip-rule="evenodd" fill="#D1A886" d="M454.009,279.686l14.584,16.072l18.351-9.054
				c9.769-4.823,21.48-27.4,26.946-37.22l-14.025-8.015l-33.793,14.605L454.009,279.686z"/>
			<polygon fill-rule="evenodd" clip-rule="evenodd" fill="#57291E" points="574.087,112.984 576.77,114.589 461.523,313.906 
				453.355,309.031 			"/>
			<path fill-rule="evenodd" clip-rule="evenodd" fill="#FFD7B7" d="M465.644,262.314l1.979,3.134l3.108-2.451l24.965-19.631
				c2.81-2.211,3.506-4.659,3.142-7.084c-0.311-2.06-2.403-6.216-3.73-5.171l-28.303,22.359
				C464.33,255.417,463.805,259.399,465.644,262.314z"/>
			<path fill-rule="evenodd" clip-rule="evenodd" fill="#FFE7D4" d="M496.418,231.106c-0.385-0.601-0.802-0.377-1.024-0.206
				l-5.643,4.527c2.058,2.454,5.176,0.536,6.959-2.097C496.967,232.945,496.904,231.872,496.418,231.106z"/>
			<path fill-rule="evenodd" clip-rule="evenodd" fill="#FFD7B7" d="M498.758,271.323L498.758,271.323
				c1.082,2.121,0.219,4.451-1.902,5.181L489.651,279c-2.124,0.733-4.754-0.409-5.838-2.53l0,0
				c-1.076-2.118-0.224-4.451,1.899-5.181l7.21-2.493C495.044,268.06,497.674,269.202,498.758,271.323z"/>
			<path fill-rule="evenodd" clip-rule="evenodd" fill="#FFD7B7" d="M506.409,258.91L506.409,258.91
				c1.261,2.461,0.261,5.173-2.206,6.02l-7.128,2.467c-2.461,0.85-5.516-0.478-6.778-2.942l0,0
				c-1.253-2.461-0.261-5.163,2.206-6.015l7.134-2.464C502.103,255.119,505.153,256.449,506.409,258.91z"/>
			<path fill-rule="evenodd" clip-rule="evenodd" fill="#FFE7D4" d="M498.917,261.404L498.917,261.404
				c1,1.963,0.209,4.115-1.749,4.785l-0.736,0.256c-1.963,0.673-4.385-0.377-5.387-2.338l0,0c-1.003-1.957-0.211-4.108,1.749-4.783
				l0.739-0.251C495.495,258.396,497.919,259.446,498.917,261.404z"/>
			<path fill-rule="evenodd" clip-rule="evenodd" fill="#FFE7D4" d="M491.904,273.542L491.904,273.542
				c0.918,1.802,0.19,3.781-1.609,4.398l-0.675,0.235c-1.799,0.617-4.028-0.351-4.949-2.148l0,0
				c-0.918-1.799-0.193-3.772,1.612-4.395l0.675-0.232C488.76,270.78,490.984,271.748,491.904,273.542z"/>
			<path fill-rule="evenodd" clip-rule="evenodd" fill="#FFD7B7" d="M513.815,245.532L513.815,245.532
				c1.256,2.461,0.261,5.168-2.203,6.018l-7.128,2.464c-2.464,0.85-5.519-0.475-6.778-2.936l0,0
				c-1.256-2.464-0.266-5.166,2.203-6.018l7.128-2.469C509.509,241.741,512.556,243.065,513.815,245.532z"/>
			<path fill-rule="evenodd" clip-rule="evenodd" fill="#FFE7D4" d="M506.319,248.025L506.319,248.025
				c1,1.958,0.208,4.11-1.746,4.786l-0.739,0.253c-1.958,0.67-4.385-0.383-5.384-2.337l0,0c-1-1.958-0.211-4.105,1.749-4.783
				l0.739-0.259C502.9,245.012,505.322,246.065,506.319,248.025z"/>
			<path fill-rule="evenodd" clip-rule="evenodd" fill="#FFD7B7" d="M454.009,279.686l10.376,11.437
				c8.904-7.339,22.25-23.427,13.727-34.405c-1.008-1.757-2.105-3.224-3.258-4.44l-8.78,3.796L454.009,279.686z"/>
		</g>
		<polygon fill-rule="evenodd" clip-rule="evenodd" fill="#FFFFFF" points="436.666,281.396 463.726,311.336 476.51,299.351 
			449.456,269.413 		"/>
		<path fill-rule="evenodd" clip-rule="evenodd" fill="#27557D" d="M389.115,297.41c5.464,6.493,9.632,11.41,11.27,13.267
			l39.441-34.755c0.026-0.019,0.082-0.021,0.106,0.008l29.305,33.178c0.024,0.026,0.021,0.079-0.005,0.103l-60.293,53.128
			c-8.052,7.091-15.009,5.086-19.823,1.675V297.41z"/>
		<path fill-rule="evenodd" clip-rule="evenodd" fill="#57291E" d="M473.875,289.93l-12.568,21.741l-8.171-4.875l13.452-21.828
			c1.596,0.28,2.892-1.042,3.562-1.752L473.875,289.93z"/>
	</g>
</g>
</svg>
