<?xml version="1.0" encoding="utf-8"?>
<!-- Generator: Adobe Illustrator 17.0.0, SVG Export Plug-In . SVG Version: 6.00 Build 0)  -->
<!DOCTYPE svg PUBLIC "-//W3C//DTD SVG 1.1//EN" "http://www.w3.org/Graphics/SVG/1.1/DTD/svg11.dtd">
<svg version="1.1" id="Objects" xmlns="http://www.w3.org/2000/svg" xmlns:xlink="http://www.w3.org/1999/xlink" x="0px" y="0px"
	 width="700px" height="800px" viewBox="-50 -175 700 800" enable-background="new -50 -175 700 800" xml:space="preserve">
<g>
	<g opacity="0.49">
		<path fill="#4C6173" d="M140.049,444.734c24.762-5.912,59.251-19.929,63.751,0.101c5.345,23.815,11.946,80.263,18.869,135.098
			c1.492,11.823-13.662,17.949-17.434,19.093c-16.868,5.099-31.354,6.694-50.02,9.208l-15.233-163.4
			C139.973,444.788,140.023,444.739,140.049,444.734z"/>
		<path fill="#4C6173" d="M64.851,444.734c-31.274-7.461-56.13-24.863-61.589-0.303c-5.71,25.711-11.973,82.047-18.577,134.666
			c-1.695,13.477,12.345,19.271,16.891,20.451c16.191,4.202,30.144,6.265,48.107,8.688l15.232-163.4
			C64.923,444.788,64.874,444.737,64.851,444.734z"/>
		<path fill="#27557D" d="M40.48,605.042l-0.815,1.917c38.529,4.877,85.912,4.96,124.557,0.259
			c-0.356-0.781-0.705-1.509-1.044-2.176H40.48z"/>
		<path fill="#688096" d="M24.996,604.647c8.547-24.639-10.955-139.999-21.736-161.215c6.131-21.775,63.182-26.593,78.372-38.969
			c7.203,6.339,12.338,7.782,20.506,7.782s13.565-1.65,20.761-7.993c11.243,9.157,70.131,16.298,80.203,38.081
			c-11.465,24.306-32.491,140.038-23.392,162.206C141.354,612.078,64.468,612.614,24.996,604.647z"/>
		<polygon fill="#FFFFFF" points="63.66,414.928 61.839,463.413 102.427,566.449 142.433,463.413 139.945,413.595 122.906,404.25 
			81.636,404.465 		"/>
		<rect x="81.639" y="387.525" fill="#D1A886" width="40.544" height="41.995"/>
		<path fill="#FCB024" d="M108.861,455.479l2.827-5.972l-9.548-23.14l-9.393,22.766l2.999,6.344
			C100.114,455.479,104.488,455.479,108.861,455.479z"/>
		<polygon fill="#CCCCCC" points="81.63,404.465 102.14,426.369 87.541,465.403 69.499,412.513 		"/>
		<polygon fill="#27557D" points="69.631,411.453 102.14,566.997 48.621,481.665 55.651,466.77 40.381,454.596 61.116,416.143 		"/>
		<polygon fill="#CCCCCC" points="122.906,404.252 102.14,426.369 116.729,465.403 135.033,412.299 		"/>
		<polygon fill="#FCB024" points="95.746,469.993 108.861,469.993 115.677,535.744 102.14,566.997 89.107,535.744 		"/>
		<polygon fill="#FFFFFF" points="81.636,404.46 102.14,426.369 87.227,455.758 69.504,412.506 		"/>
		<polygon fill="#3F73A1" points="69.631,411.453 102.14,566.997 53.823,474.862 61.839,463.413 46.383,451.394 61.114,416.143 		
			"/>
		<polygon fill="#27557D" points="135.433,411.123 102.14,566.997 155.655,481.665 148.624,466.77 163.895,454.596 147.499,416.701 
					"/>
		<polygon fill="#3F73A1" points="135.433,411.123 102.14,566.997 150.449,474.862 142.433,463.413 157.885,451.394 
			147.499,416.701 		"/>
		<polygon fill="#FFFFFF" points="122.906,404.246 102.14,426.369 117.045,455.758 135.033,412.292 		"/>
		<path fill="#FCB024" d="M95.746,454.393h13.116c2.931,6.082,2.701,11.395,0,16.584H95.746
			C93.041,465.788,92.812,460.475,95.746,454.393z"/>
		<path fill="#27557D" d="M100.292,610.666c0.347-11.412,1.204-24.983,2.597-45.333c1.398,20.354,2.324,33.925,2.747,45.339
			C103.854,610.68,102.073,610.68,100.292,610.666z"/>
		<polygon fill="#FFFFFF" points="57.522,416.173 62.555,462.653 102.94,565.165 142.751,462.653 147.783,416.173 128.521,403.784 
			76.787,403.784 		"/>
		<rect x="76.787" y="387.146" fill="#D1A886" width="51.284" height="41.784"/>
		<path fill="#F2CAA9" d="M102.656,411.746c20.209,0,38.916-23.112,48.784-51.429c0.584,0.598,1.231,0.975,1.952,1.09
			c4.02,0.667,8.628-6.884,10.291-16.871c1.658-9.989-0.261-18.626-4.28-19.294c-0.284-0.049-0.571-0.051-0.862-0.018
			c1.973-35.088-12.571-67.495-55.885-67.495c-43.353,0-57.888,32.463-55.885,67.579c-0.441-0.118-0.882-0.138-1.314-0.067
			c-4.02,0.668-5.935,9.305-4.28,19.294c1.659,9.987,6.267,17.538,10.287,16.871c0.855-0.143,1.615-0.647,2.269-1.451
			C63.565,388.436,82.353,411.746,102.656,411.746z"/>
		<path fill="#B55C46" d="M158.55,325.225c1.973-35.088-12.58-67.495-55.894-67.495c-43.353,0-57.893,32.463-55.892,67.576
			c3.502,0.873,7.157,7.29,8.771,15.649c2.823,1.904,4.874,0.794,4.874-6.281c0-20.885,2.58-39.382,16.293-43.796
			c13.05-4.2,15.919,5.015,25.873,5.015c9.957,0,13.101-8.679,25.875-5.015c13.267,3.803,16.293,22.913,16.293,43.796
			c0,6.789,1.889,8.085,4.535,6.496C150.934,332.345,154.877,325.632,158.55,325.225z"/>
		<path fill="#93B9DB" d="M109.343,454.762l2.814-5.939l-9.501-23.036l-9.344,22.662l2.982,6.311
			C100.643,454.762,104.994,454.762,109.343,454.762z"/>
		<polygon fill="#CCCCCC" points="76.787,403.784 102.656,425.787 88.135,464.629 64.717,411.791 		"/>
		<polygon fill="#4C6173" points="64.717,411.791 102.656,565.708 49.407,480.81 56.403,465.994 41.208,453.88 57.522,416.173 		"/>
		<polygon fill="#CCCCCC" points="128.521,403.784 102.656,425.787 117.174,464.629 140.589,411.791 		"/>
		<polygon fill="#93B9DB" points="96.292,469.202 109.343,469.202 116.126,534.615 102.656,565.708 89.685,534.615 		"/>
		<path fill="#B55C46" d="M149.22,290.66c-5.593,11.181-51.829,38.176-70.492,39.641c8.37-7.783,28.046-30.856,25.538-32.061
			c-2.788-1.337-32.569,21.911-48.465,27.257C52.559,258.157,101.327,260.31,149.22,290.66z"/>
		<path fill="#B55C46" d="M122.92,279.484c2.41,11.183,18.603,44.303,26.644,45.77C157.61,326.718,158.083,250.516,122.92,279.484z"
			/>
		<polygon fill="#FFFFFF" points="76.787,403.784 102.656,425.787 87.82,455.037 64.717,411.791 		"/>
		<polygon fill="#688096" points="64.717,411.791 102.656,565.708 54.583,474.038 62.555,462.653 47.182,450.694 57.522,416.173 		
			"/>
		<polygon fill="#4C6173" points="140.589,411.791 102.656,565.708 155.898,480.81 148.903,465.994 164.094,453.88 147.783,416.173 
					"/>
		<polygon fill="#688096" points="140.589,411.791 102.656,565.708 150.719,474.038 142.751,462.653 158.121,450.694 
			147.783,416.173 		"/>
		<polygon fill="#FFFFFF" points="128.521,403.784 102.656,425.787 117.489,455.037 140.589,411.791 		"/>
		<path fill="#93B9DB" d="M96.292,453.679h13.05c2.918,6.046,2.689,11.333,0,16.494h-13.05
			C93.603,465.012,93.374,459.726,96.292,453.679z"/>
		<path fill="#27557D" d="M99.375,610.666c2.139,0.012,4.276,0.019,6.411,0.011c0.788-11.04-1.575-40.468-3.206-45.326
			C100.956,569.24,98.594,599.047,99.375,610.666z"/>
	</g>
	<g opacity="0.47">
		<path fill="#27557D" d="M545.939,449.754c25.625-6.119,61.319-20.626,65.975,0.104c5.537,24.648,12.364,83.068,19.529,139.819
			c1.546,12.236-14.137,18.575-18.039,19.762c-17.457,5.278-32.445,6.926-51.768,9.531L545.87,449.858
			C545.861,449.812,545.909,449.759,545.939,449.754z"/>
		<path fill="#27557D" d="M468.109,449.754c-32.364-7.722-58.087-25.732-63.735-0.314c-5.912,26.61-12.391,84.914-19.229,139.371
			c-1.751,13.948,12.773,19.945,17.478,21.165c16.76,4.35,31.204,6.484,49.793,8.991l15.766-169.111
			C468.187,449.812,468.136,449.757,468.109,449.754z"/>
		<path fill="#27557D" d="M442.89,615.665l-0.846,1.984c39.877,5.047,88.919,5.133,128.913,0.268
			c-0.369-0.809-0.73-1.562-1.077-2.252H442.89z"/>
		<path fill="#3F73A1" d="M426.865,615.256c8.845-25.499-11.335-144.89-22.493-166.849c6.341-22.535,65.387-27.522,81.107-40.331
			c7.455,6.561,12.765,8.053,21.222,8.053c8.455,0,14.038-1.709,21.486-8.272c11.634,9.476,72.584,16.868,83.008,39.412
			c-11.872,25.156-33.632,144.931-24.212,167.875C547.29,622.945,467.713,623.501,426.865,615.256z"/>
		<polygon fill="#FFFFFF" points="466.884,418.908 464.995,469.087 506.998,575.724 548.407,469.087 545.837,417.528 
			528.196,407.856 485.482,408.078 		"/>
		<rect x="485.489" y="390.545" fill="#D1A886" width="41.958" height="43.462"/>
		<path fill="#FCB024" d="M513.661,460.877l2.922-6.18l-9.878-23.948l-9.723,23.563l3.105,6.567
			C504.605,460.877,509.14,460.877,513.661,460.877z"/>
		<polygon fill="#CCCCCC" points="485.482,408.078 506.705,430.747 491.595,471.147 472.925,416.406 		"/>
		<polygon fill="#27557D" points="473.061,415.311 506.705,576.292 451.312,487.976 458.591,472.561 442.788,459.962 
			464.244,420.165 		"/>
		<polygon fill="#CCCCCC" points="528.196,407.857 506.705,430.747 521.804,471.147 540.748,416.186 		"/>
		<polygon fill="#FCB024" points="500.087,475.897 513.661,475.897 520.715,543.945 506.705,576.292 493.219,543.945 		"/>
		<polygon fill="#FFFFFF" points="485.482,408.073 506.705,430.747 491.271,461.164 472.929,416.401 		"/>
		<polygon fill="#3F73A1" points="473.061,415.311 506.705,576.292 456.699,480.935 464.995,469.087 449.004,456.647 
			464.242,420.165 		"/>
		<polygon fill="#27557D" points="541.162,414.969 506.705,576.292 562.087,487.976 554.812,472.561 570.616,459.962 553.65,420.74 
					"/>
		<polygon fill="#3F73A1" points="541.162,414.969 506.705,576.292 556.706,480.935 548.407,469.087 564.401,456.647 553.65,420.74 
					"/>
		<polygon fill="#FFFFFF" points="528.196,407.852 506.705,430.747 522.132,461.164 540.748,416.18 		"/>
		<path fill="#FCB024" d="M500.087,459.752h13.574c3.033,6.293,2.798,11.793,0,17.162h-13.574
			C497.289,471.545,497.051,466.045,500.087,459.752z"/>
		<path fill="#27557D" d="M504.788,621.485c0.36-11.811,1.248-25.856,2.696-46.917c1.441,21.065,2.4,35.111,2.834,46.922
			C508.482,621.5,506.634,621.5,504.788,621.485z"/>
		<polygon fill="#FFFFFF" points="460.527,420.195 465.738,468.301 507.536,574.394 548.732,468.301 553.946,420.195 
			534.003,407.373 480.465,407.373 		"/>
		<rect x="480.465" y="390.154" fill="#D1A886" width="53.076" height="43.244"/>
		<path fill="#F2CAA9" d="M507.239,415.614c20.916,0,40.279-23.919,50.491-53.226c0.601,0.619,1.273,1.009,2.017,1.129
			c4.156,0.689,8.929-7.126,10.65-17.462c1.714-10.338-0.27-19.277-4.429-19.968c-0.294-0.051-0.591-0.053-0.892-0.018
			c2.038-36.316-13.01-69.854-57.839-69.854c-44.871,0-59.914,33.598-57.839,69.94c-0.46-0.122-0.915-0.143-1.36-0.069
			c-4.158,0.691-6.147,9.631-4.429,19.968s6.486,18.152,10.643,17.462c0.889-0.146,1.675-0.67,2.354-1.501
			C466.782,391.49,486.226,415.614,507.239,415.614z"/>
		<path fill="#3B1911" d="M565.087,326.068c2.038-36.316-13.019-69.854-57.847-69.854c-44.871,0-59.916,33.598-57.847,69.937
			c3.627,0.903,7.409,7.544,9.079,16.196c2.925,1.971,5.045,0.822,5.045-6.501c0-21.615,2.67-40.759,16.859-45.326
			c13.509-4.348,16.475,5.189,26.787,5.189c10.3,0,13.553-8.982,26.778-5.189c13.727,3.936,16.859,23.713,16.859,45.326
			c0,7.027,1.956,8.369,4.692,6.724C557.205,333.438,561.285,326.491,565.087,326.068z"/>
		<path fill="#FC8D25" d="M514.16,460.133l2.909-6.147l-9.831-23.84l-9.674,23.456l3.086,6.531
			C505.155,460.133,509.659,460.133,514.16,460.133z"/>
		<polygon fill="#CCCCCC" points="480.465,407.373 507.239,430.146 492.21,470.344 467.974,415.66 		"/>
		<polygon fill="#27557D" points="467.974,415.66 507.239,574.957 452.13,487.092 459.369,471.757 443.642,459.221 460.527,420.195 
					"/>
		<polygon fill="#CCCCCC" points="534.003,407.373 507.239,430.146 522.263,470.344 546.494,415.66 		"/>
		<polygon fill="#FC8D25" points="500.652,475.077 514.16,475.077 521.177,542.778 507.239,574.957 493.817,542.778 		"/>
		<path fill="#3B1911" d="M547.593,279.844c-5.785,11.574-60.171,21.227-79.487,22.745
			C448.796,304.104,463.163,249.866,547.593,279.844z"/>
		<path fill="#3B1911" d="M519.84,279.844c2.495,11.574,31.542,36.901,39.869,38.417
			C568.028,319.778,556.228,249.866,519.84,279.844z"/>
		<polygon fill="#FFFFFF" points="480.465,407.373 507.239,430.146 491.884,460.417 467.974,415.66 		"/>
		<polygon fill="#3F73A1" points="467.974,415.66 507.239,574.957 457.485,480.083 465.738,468.301 449.829,455.924 
			460.527,420.195 		"/>
		<polygon fill="#27557D" points="546.494,415.66 507.239,574.957 562.341,487.092 555.103,471.757 570.825,459.221 
			553.946,420.195 		"/>
		<polygon fill="#3F73A1" points="546.494,415.66 507.239,574.957 556.982,480.083 548.732,468.301 564.642,455.924 
			553.946,420.195 		"/>
		<polygon fill="#FFFFFF" points="534.003,407.373 507.239,430.146 522.587,460.417 546.494,415.66 		"/>
		<path fill="#FC8D25" d="M500.652,459.013h13.509c3.021,6.258,2.781,11.728,0,17.071h-13.509
			C497.871,470.741,497.633,465.271,500.652,459.013z"/>
		<path fill="#27557D" d="M503.84,621.485c2.216,0.014,4.429,0.021,6.639,0.011c0.816-11.426-1.629-41.882-3.319-46.911
			C505.476,578.612,503.036,609.46,503.84,621.485z"/>
	</g>
	<g>
		<path fill="#3F73A1" d="M374.13,171.347c44.785-10.684,75.78-40.235,83.922-3.997c9.691,43.085,31.384,153.915,43.921,253.109
			c2.705,21.401-3.103,27.927-9.927,29.994c-30.512,9.233-56.712,12.107-90.481,16.662L374.01,171.543
			C374.001,171.453,374.079,171.361,374.13,171.347z"/>
		<path fill="#BA9D3F" d="M429.715,16.577c-27.614,130.77-82.652,363.789-124.27,363.789S182.215,129.886,166.19,33.367
			c-13.823-83.19,12.444-245.713,187.081-192.627C411.821-162.495,453.687-96.928,429.715,16.577z"/>
		<path fill="#3F73A1" d="M238.106,171.347c-56.583-13.496-75.398-43.03-85.281,1.404c-10.342,46.513-30.715,153.287-42.674,248.471
			c-3.072,24.392,5.269,28.039,13.498,30.17c29.285,7.602,54.532,11.333,87.023,15.724l27.554-295.571
			C238.231,171.453,238.144,171.358,238.106,171.347z"/>
		<path fill="#27557D" d="M194.016,461.332l-1.469,3.47c69.686,8.824,155.403,8.972,225.306,0.471
			c-0.649-1.416-1.275-2.731-1.883-3.939H194.016V461.332z"/>
		<path fill="#5A8FBD" d="M190.256,464.501c19.777-57.045,8.351-73.835-17.577-136.003c-26.422-63.391,27.206-97.316-12.655-175.777
			c35.325-22.653,80.963-31.823,108.435-54.212c13.029,11.467,22.313,14.085,37.093,14.085c14.773,0,24.538-2.996,37.56-14.466
			c20.326,16.561,72.391,30.504,109.347,54.592c-37.996,80.534,13.475,93.791-12.662,175.777
			c-19.966,62.593-51.073,66.061-22.047,136.779C347.107,473.862,260.318,473.605,190.256,464.501z"/>
		<polygon fill="#FFFFFF" points="235.958,117.439 232.653,205.146 306.071,391.52 378.448,205.146 373.95,115.027 343.12,98.129 
			268.463,98.513 		"/>
		<rect x="268.477" y="67.872" fill="#D1A886" width="73.331" height="75.957"/>
		<path fill="#F2CAA9" d="M305.553,112.597c36.744,0,70.76-42.022,88.693-93.5c1.056,1.081,2.236,1.765,3.544,1.985
			c7.318,1.211,15.69-12.525,18.712-30.68c3.01-18.155-0.466-33.868-7.782-35.079c-0.511-0.079-1.033-0.092-1.568-0.032
			c3.587-63.779-22.856-122.708-101.601-122.708c-78.817,0-105.235,59.013-101.601,122.861c-0.795-0.208-1.603-0.247-2.388-0.122
			c-7.314,1.211-10.79,16.924-7.787,35.079c3.026,18.155,11.398,31.893,18.705,30.68c1.559-0.261,2.939-1.18,4.128-2.64
			C234.482,70.214,268.639,112.597,305.553,112.597z"/>
		<path fill="#27557D" d="M317.712,190.788l5.11-10.792l-17.272-41.865l-16.99,41.188l5.42,11.469
			C301.89,190.788,309.806,190.788,317.712,190.788z"/>
		<polygon fill="#CCCCCC" points="268.452,98.513 305.553,138.133 279.149,208.747 246.513,113.066 		"/>
		<polygon fill="#3F73A1" points="246.751,111.154 305.553,392.511 208.748,238.154 221.463,211.217 193.85,189.194 
			231.338,119.634 		"/>
		<polygon fill="#CCCCCC" points="343.12,98.129 305.553,138.133 331.949,208.747 365.054,112.692 		"/>
		<polygon fill="#27557D" points="293.982,217.045 317.712,217.045 330.047,335.981 305.553,392.511 281.975,335.981 		"/>
		<polygon fill="#FFFFFF" points="268.463,98.504 305.553,138.133 278.586,191.292 246.522,113.06 		"/>
		<polygon fill="#5A8FBD" points="246.751,111.154 305.553,392.511 218.159,225.846 232.653,205.146 204.703,183.403 
			231.338,119.634 		"/>
		<polygon fill="#3F73A1" points="365.779,110.555 305.553,392.511 402.345,238.154 389.636,211.217 417.259,189.194 
			387.602,120.643 		"/>
		<polygon fill="#5A8FBD" points="365.779,110.555 305.553,392.511 392.943,225.846 378.448,205.146 406.397,183.403 
			387.602,120.643 		"/>
		<polygon fill="#FFFFFF" points="343.12,98.123 305.553,138.133 332.517,191.292 365.054,112.68 		"/>
		<path fill="#27557D" d="M293.982,188.83h23.733c5.297,10.996,4.886,20.61,0,29.994h-23.733
			C289.09,209.44,288.685,199.826,293.982,188.83z"/>
		<path fill="#3F73A1" d="M302.209,471.513c0.629-20.648,2.183-45.197,4.71-82.003c2.522,36.811,4.198,61.369,4.955,82.003
			C308.656,471.534,305.433,471.526,302.209,471.513z"/>
		<path fill="#F2CAA9" d="M409.022-33.306c7.09,1.58,10.144,14.988,6.821,29.936c-3.32,14.964-11.768,25.815-18.868,24.24
			c-7.094-1.58-10.148-14.99-6.821-29.95C393.475-24.032,401.923-34.88,409.022-33.306z"/>
		<path fill="#BA9D3F" d="M408.601-44.709c3.662-63.779-23.274-122.708-103.459-122.708c-80.242,0-107.157,59.013-103.463,122.847
			c6.493,1.598,13.253,13.273,16.238,28.465c5.237,3.456,9.018,1.434,9.018-11.425c0-37.963,4.786-71.6,30.17-79.624
			c24.15-7.637,29.469,9.116,47.901,9.116c18.43,0,24.24-15.778,47.888-9.116c24.56,6.919,30.163,41.662,30.163,79.624
			c0,12.34,3.49,14.701,8.393,11.82C394.509-31.757,401.805-43.96,408.601-44.709z"/>
		<path fill="#BA9D3F" d="M378.279-145.828c5.107,35.744-51.076,113.635-91.932,131.522c26.083-14.482,43.214-68.307,36.915-107.256
			C321.786-130.687,382.539-139.024,378.279-145.828z"/>
		<path fill="#BA9D3F" d="M351.053-141.076c-4.826,35.781-125.801,147.061-169.991,153.13
			C167.349-171.92,280.452-95.531,291.508-132.709C294.137-141.572,353.298-133.378,351.053-141.076z"/>
		<path fill="#BA9D3F" d="M321.999-163.934c-2.874,36.003,56.262,165.003,98.159,180.298
			c15.803-131.676-18.388-148.807-41.741-159.494C370.014-146.969,318.171-156.879,321.999-163.934z"/>
	</g>
</g>
</svg>
