<?xml version="1.0" encoding="utf-8"?>
<!-- Generator: Adobe Illustrator 17.0.0, SVG Export Plug-In . SVG Version: 6.00 Build 0)  -->
<!DOCTYPE svg PUBLIC "-//W3C//DTD SVG 1.1//EN" "http://www.w3.org/Graphics/SVG/1.1/DTD/svg11.dtd">
<svg version="1.1" id="Objects" xmlns="http://www.w3.org/2000/svg" xmlns:xlink="http://www.w3.org/1999/xlink" x="0px" y="0px"
	 width="600px" height="450px" viewBox="0 0 600 450" enable-background="new 0 0 600 450" xml:space="preserve">
<g>
	<g>
		<g>
			<polygon fill="#00A59B" points="192.348,355.302 98.962,421.195 405.788,421.195 465.762,356.917 465.755,356.92 
				465.762,356.917 467.88,354.646 			"/>
		</g>
		<polygon fill="#FFFFFF" points="463.841,266.694 402.162,332.79 402.162,421.195 464.258,354.646 464.258,266.257 		"/>
		<path fill="#F4EBE6" d="M412.072,350.671c0-10.847,1.113-21.583,3.246-31.975l-13.156,14.093v88.406l18.318-19.629
			C415.004,385.573,412.072,368.258,412.072,350.671z"/>
		<g>
			<path fill="#06756A" d="M402.162,332.79H95.337c0,0-6.916,2.484-6.916,44.204c0,41.723,6.916,44.202,6.916,44.202h306.824
				c0,0,5.696-9.438,5.696-44.202C407.858,342.227,402.162,332.79,402.162,332.79z"/>
			<rect x="137.374" y="332.79" fill="#FF5443" width="29.001" height="88.406"/>
			<rect x="196.323" y="332.79" fill="#FFA91B" width="14.501" height="88.406"/>
			<rect x="225.863" y="332.79" fill="#FFA91B" width="14.503" height="88.406"/>
		</g>
		<g>
			<polygon fill="#00A59B" points="464.258,266.232 463.841,266.694 464.258,266.257 			"/>
			<polygon fill="#00A59B" points="188.723,266.896 95.337,332.79 402.162,332.79 462.137,268.511 462.129,268.514 462.137,268.511 
				464.258,266.232 			"/>
		</g>
	</g>
	<g>
		<g>
			<polygon fill="#FF5443" points="249.415,244.554 156.027,310.447 462.856,310.447 522.827,246.163 522.821,246.171 
				522.827,246.163 524.947,243.895 			"/>
		</g>
		<polygon fill="#FFFFFF" points="520.907,155.946 459.229,222.039 459.229,310.447 521.323,243.895 521.323,155.506 		"/>
		<path fill="#F4EBE6" d="M469.139,239.923c0-10.845,1.11-21.587,3.244-31.977l-13.154,14.093v88.408l18.318-19.631
			C472.07,274.824,469.139,257.507,469.139,239.923z"/>
		<g>
			<path fill="#50212D" d="M459.229,222.039H152.403c0,0-6.916,2.487-6.916,44.201c0,41.728,6.916,44.207,6.916,44.207h306.827
				c0,0,5.699-9.435,5.699-44.207C464.928,231.476,459.229,222.039,459.229,222.039z"/>
			<rect x="324.538" y="222.039" fill="#FF5443" width="29.001" height="88.408"/>
			<rect x="383.486" y="222.039" fill="#FFA91B" width="14.503" height="88.408"/>
			<rect x="413.027" y="222.039" fill="#FFA91B" width="14.503" height="88.408"/>
		</g>
		<g>
			<polygon fill="#00A59B" points="521.323,155.489 520.907,155.946 521.323,155.506 			"/>
			<polygon fill="#FF5443" points="245.791,156.148 152.403,222.039 459.229,222.039 519.203,157.758 519.196,157.763 
				519.203,157.758 521.323,155.489 			"/>
		</g>
	</g>
	<g>
		<g>
			<polygon fill="#FF5443" points="178.982,142.066 85.596,207.957 392.422,207.957 452.396,143.678 452.389,143.684 
				452.396,143.678 454.516,141.405 			"/>
		</g>
		<polygon fill="#FFFFFF" points="450.475,53.455 388.798,119.548 388.798,207.957 450.889,141.405 450.889,53.018 		"/>
		<path fill="#F4EBE6" d="M398.708,137.43c0-10.845,1.108-21.581,3.244-31.972l-13.154,14.09v88.408l18.316-19.631
			C401.638,172.334,398.708,155.02,398.708,137.43z"/>
		<g>
			<path fill="#163844" d="M388.798,119.548H81.969c0,0-6.916,2.487-6.916,44.207s6.916,44.201,6.916,44.201h306.829
				c0,0,5.696-9.432,5.696-44.201C394.494,128.989,388.798,119.548,388.798,119.548z"/>
			<rect x="98.962" y="119.548" fill="#FFA91B" width="14.501" height="88.408"/>
			<rect x="361.533" y="119.548" fill="#FFA91B" width="14.498" height="88.408"/>
		</g>
		<g>
			<polygon fill="#00A59B" points="450.889,52.996 450.475,53.455 450.889,53.018 			"/>
			<polygon fill="#FFA91B" points="175.357,53.66 81.969,119.548 388.798,119.548 448.769,55.27 448.765,55.275 448.769,55.27 
				450.889,52.996 			"/>
		</g>
	</g>
</g>
</svg>
