<?xml version="1.0" encoding="utf-8"?>
<!-- Generator: Adobe Illustrator 17.0.0, SVG Export Plug-In . SVG Version: 6.00 Build 0)  -->
<!DOCTYPE svg PUBLIC "-//W3C//DTD SVG 1.1//EN" "http://www.w3.org/Graphics/SVG/1.1/DTD/svg11.dtd">
<svg version="1.1" id="Layer_1" xmlns="http://www.w3.org/2000/svg" xmlns:xlink="http://www.w3.org/1999/xlink" x="0px" y="0px"
	 width="300px" height="200px" viewBox="156 296 300 200" enable-background="new 156 296 300 200" xml:space="preserve">
<g>
	<g>
		<g>
			<g>
				<path id="XMLID_1_" fill="#686868" d="M296.216,367.093v2.326v41.1h21.423v-43.427h26.984v-0.571v-0.618v-0.416v3.518v2.275
					v1.551v1.034v22.54c0,0,5.575,1.037,7.828,4.959c1.352,2.354,2.523,5.781-2.266,10.55h44.493v5.118l14.213,6.979l1.236-1.086
					v-41.1l-24.512-0.155v2.792h9.475v15.665v-2.482h-25.954l0.206-30.554h36.048V346h-50.261l-11.073,8.218l0,0l0.016-2.38
					l0.035-5.062l-7.668,0.035l-1.509,0.007l-5.357,0.024l-3.296,0.015l-1.926,0.009l-4.257,0.019l-2.467,0.011l-1.236,0.006
					l-1.375,0.006l-2.746,0.012l-1.512,0.007l-0.961,0.006l-9.611,0.044l-2.612,0.012l-7.96,0.037l-5.905,0.027l-7.697,0.035
					l-1.18,1.491l-0.446,0.564l-0.94,1.188l-0.795,1.005l-0.578,0.731l-0.723,0.914l-1.105,1.396l0.634-8.376h-58.088
					l-10.917,14.424h14.625h2.06l-0.275,16.052l-0.016,5.237v1.706l-0.122,1.588v13.881h-14.007v12.873h66.74
					c0,0-9.166-6.436,0-13.338h-27.602v-13.416h8.651v-8.608h-9.063v-9.306l-7.501-0.408l33.512-0.008l20.735-0.156l11.258,0.002"/>
			</g>
			<g>
				<path id="XMLID_2_" fill="none" stroke="#BFBFD6" stroke-width="2" stroke-miterlimit="10" d="M296.216,367.093v2.326v41.1
					h21.423v-43.427h26.984v-0.571v-0.618v-0.416v3.518v2.275v1.551v1.034v22.54c0,0,5.575,1.037,7.828,4.959
					c1.352,2.354,2.523,5.781-2.266,10.55h44.493v5.118l14.213,6.979l1.236-1.086v-41.1l-24.512-0.155v2.792h9.475v15.665v-2.482
					h-25.954l0.206-30.554h36.048V346h-50.261l-11.073,8.218l0,0l0.016-2.38l0.035-5.062l-7.668,0.035l-1.509,0.007l-5.357,0.024
					l-3.296,0.015l-1.926,0.009l-4.257,0.019l-2.467,0.011l-1.236,0.006l-1.375,0.006l-2.746,0.012l-1.512,0.007l-0.961,0.006
					l-9.611,0.044l-2.612,0.012l-7.96,0.037l-5.905,0.027l-7.697,0.035l-1.18,1.491l-0.446,0.564l-0.94,1.188l-0.795,1.005
					l-0.578,0.731l-0.723,0.914l-1.105,1.396l0.634-8.376h-58.088l-10.917,14.424h14.625h2.06l-0.275,16.052l-0.016,5.237v1.706
					l-0.122,1.588v13.881h-14.007v12.873h66.74c0,0-9.166-6.436,0-13.338h-27.602v-13.416h8.651v-8.608h-9.063v-9.306l-7.501-0.408
					l33.512-0.008l20.735-0.156l11.258,0.002"/>
			</g>
		</g>
	</g>
	
		<ellipse fill="#686868" stroke="#BFBFD6" stroke-width="2" stroke-miterlimit="10" cx="279.819" cy="404.924" rx="8.651" ry="6.514"/>
	
		<ellipse fill="#686868" stroke="#BFBFD6" stroke-width="2" stroke-miterlimit="10" cx="341.066" cy="405.544" rx="8.651" ry="6.514"/>
</g>
</svg>
