<?xml version="1.0" encoding="utf-8"?>
<!-- Generator: Adobe Illustrator 17.0.0, SVG Export Plug-In . SVG Version: 6.00 Build 0)  -->
<!DOCTYPE svg PUBLIC "-//W3C//DTD SVG 1.1//EN" "http://www.w3.org/Graphics/SVG/1.1/DTD/svg11.dtd">
<svg version="1.1" id="Layer_1" xmlns="http://www.w3.org/2000/svg" xmlns:xlink="http://www.w3.org/1999/xlink" x="0px" y="0px"
	 width="100px" height="100px" viewBox="0 0 100 100" enable-background="new 0 0 100 100" xml:space="preserve">
<path fill="#F7E8B1" d="M101.653,92.883c0,4.522-3.665,8.187-8.186,8.187H8.187C3.666,101.07,0,97.405,0,92.883V7.603
	c0-4.521,3.666-8.186,8.187-8.186h85.279c4.521,0,8.186,3.666,8.186,8.186V92.883z"/>
<path fill="#5B79BC" d="M97.468,90.003c0,4.159-3.372,7.531-7.531,7.531H11.313c-4.159,0-7.531-3.372-7.531-7.531V11.378
	c0-4.159,3.372-7.531,7.531-7.531h78.624c4.159,0,7.531,3.372,7.531,7.531V90.003z"/>
<g>
	<path fill="#5B79BC" d="M72.308,59.868h-8.641V91.16H50.722V59.868H44.25V49.079h6.472v-6.472c0-8.799,3.65-14.033,14.029-14.033
		h8.64v10.787h-5.399c-4.04,0-4.309,1.508-4.309,4.321l-0.015,5.397h9.787L72.308,59.868z"/>
	<path fill="#5B78BA" d="M72.2,59.76h-8.641v31.293H50.614V59.76h-6.472V48.971h6.472v-6.472c0-8.799,3.65-14.033,14.029-14.033
		h8.64v10.787h-5.399c-4.04,0-4.309,1.508-4.309,4.321l-0.015,5.397h9.787L72.2,59.76z"/>
	<path fill="#5A77B9" d="M72.092,59.652h-8.641v31.293H50.506V59.652h-6.472V48.863h6.472v-6.472c0-8.799,3.65-14.033,14.029-14.033
		h8.64v10.787h-5.399c-4.04,0-4.309,1.508-4.309,4.321l-0.015,5.397h9.787L72.092,59.652z"/>
	<path fill="#5977B7" d="M71.984,59.544h-8.641v31.293H50.398V59.544h-6.472V48.755h6.472v-6.472c0-8.799,3.65-14.033,14.029-14.033
		h8.64v10.787h-5.399c-4.04,0-4.309,1.508-4.309,4.321l-0.015,5.397h9.787L71.984,59.544z"/>
	<path fill="#5976B6" d="M71.876,59.436h-8.641v31.293H50.29V59.436h-6.472V48.647h6.472v-6.472c0-8.799,3.65-14.033,14.029-14.033
		h8.64v10.787H67.56c-4.04,0-4.309,1.508-4.309,4.321l-0.015,5.397h9.787L71.876,59.436z"/>
	<path fill="#5875B4" d="M71.768,59.328h-8.641V90.62H50.182V59.328H43.71V48.539h6.472v-6.472c0-8.799,3.65-14.033,14.029-14.033
		h8.64V38.82h-5.399c-4.04,0-4.309,1.508-4.309,4.321l-0.015,5.397h9.787L71.768,59.328z"/>
	<path fill="#5874B3" d="M71.66,59.22h-8.641v31.293H50.074V59.22h-6.472V48.431h6.472v-6.472c0-8.799,3.65-14.033,14.029-14.033
		h8.64v10.787h-5.399c-4.04,0-4.309,1.508-4.309,4.321l-0.015,5.397h9.787L71.66,59.22z"/>
	<path fill="#5773B2" d="M71.552,59.112h-8.641v31.293H49.966V59.112h-6.472V48.323h6.472v-6.472c0-8.799,3.65-14.033,14.029-14.033
		h8.64v10.787h-5.399c-4.04,0-4.309,1.508-4.309,4.321l-0.015,5.397h9.787L71.552,59.112z"/>
	<path fill="#5672B1" d="M71.444,59.004h-8.641v31.293H49.858V59.004h-6.472V48.215h6.472v-6.472c0-8.799,3.65-14.033,14.029-14.033
		h8.64v10.787h-5.399c-4.04,0-4.309,1.508-4.309,4.321l-0.015,5.397h9.787L71.444,59.004z"/>
	<path fill="#5672B0" d="M71.336,58.896h-8.641v31.293H49.75V58.896h-6.472V48.107h6.472v-6.472c0-8.799,3.65-14.033,14.029-14.033
		h8.64v10.787h-5.399c-4.04,0-4.309,1.508-4.309,4.321l-0.015,5.397h9.787L71.336,58.896z"/>
	<path fill="#5571AF" d="M71.228,58.787h-8.641V90.08H49.642V58.787H43.17V47.999h6.472v-6.472c0-8.799,3.65-14.033,14.029-14.033
		h8.64V38.28h-5.399c-4.04,0-4.309,1.508-4.309,4.321l-0.015,5.397h9.787L71.228,58.787z"/>
	<path fill="#5470AE" d="M71.119,58.679h-8.641v31.293H49.534V58.679h-6.472V47.891h6.472v-6.472c0-8.799,3.65-14.033,14.029-14.033
		h8.639v10.787h-5.399c-4.04,0-4.309,1.508-4.309,4.321l-0.015,5.397h9.787L71.119,58.679z"/>
	<path fill="#546FAD" d="M71.011,58.571h-8.641v31.293H49.426V58.571h-6.472V47.783h6.472v-6.472c0-8.799,3.65-14.033,14.029-14.033
		h8.639v10.787h-5.399c-4.04,0-4.309,1.508-4.309,4.321l-0.015,5.397h9.787L71.011,58.571z"/>
	<path fill="#536FAC" d="M70.903,58.463h-8.641v31.293H49.318V58.463h-6.472V47.675h6.472v-6.472c0-8.799,3.65-14.033,14.029-14.033
		h8.639v10.787h-5.399c-4.04,0-4.309,1.508-4.309,4.321l-0.015,5.397h9.787L70.903,58.463z"/>
	<path fill="#536EAB" d="M70.795,58.355h-8.641v31.293H49.21V58.355h-6.472V47.566h6.472v-6.472c0-8.799,3.65-14.033,14.029-14.033
		h8.639v10.787h-5.399c-4.04,0-4.309,1.508-4.309,4.321l-0.015,5.397h9.787L70.795,58.355z"/>
	<path fill="#526DAA" d="M70.687,58.247h-8.641V89.54H49.102V58.247H42.63V47.458h6.472v-6.472c0-8.799,3.65-14.033,14.029-14.033
		h8.639V37.74h-5.399c-4.04,0-4.309,1.508-4.309,4.321l-0.015,5.397h9.787L70.687,58.247z"/>
	<path fill="#516CA9" d="M70.579,58.139h-8.641v31.293H48.994V58.139h-6.472V47.35h6.472v-6.472c0-8.799,3.65-14.033,14.029-14.033
		h8.639v10.787h-5.399c-4.04,0-4.309,1.508-4.309,4.321l-0.015,5.397h9.787L70.579,58.139z"/>
	<path fill="#516CA8" d="M70.471,58.031H61.83v31.293H48.886V58.031h-6.472V47.242h6.472v-6.472c0-8.799,3.65-14.033,14.029-14.033
		h8.639v10.787h-5.399c-4.04,0-4.309,1.508-4.309,4.321l-0.015,5.397h9.787L70.471,58.031z"/>
	<path fill="#506BA7" d="M70.363,57.923h-8.641v31.293H48.778V57.923h-6.472V47.134h6.472v-6.472c0-8.799,3.65-14.033,14.029-14.033
		h8.639v10.787h-5.399c-4.04,0-4.309,1.508-4.309,4.321l-0.015,5.397h9.787L70.363,57.923z"/>
	<path fill="#506AA6" d="M70.255,57.815h-8.641v31.293H48.67V57.815h-6.472V47.026h6.472v-6.472c0-8.799,3.65-14.033,14.029-14.033
		h8.639v10.787h-5.399c-4.04,0-4.309,1.508-4.309,4.321l-0.015,5.397h9.787L70.255,57.815z"/>
	<path fill="#4F69A5" d="M70.147,57.707h-8.641V89H48.562V57.707h-6.472V46.918h6.472v-6.472c0-8.799,3.65-14.033,14.029-14.033
		h8.639V37.2h-5.399c-4.04,0-4.309,1.508-4.309,4.321l-0.015,5.397h9.787L70.147,57.707z"/>
	<path fill="#4E69A4" d="M70.039,57.599h-8.641v31.293H48.454V57.599h-6.472V46.81h6.472v-6.472c0-8.799,3.65-14.033,14.029-14.033
		h8.639v10.787h-5.399c-4.04,0-4.309,1.508-4.309,4.321l-0.015,5.397h9.787L70.039,57.599z"/>
	<path fill="#4E68A3" d="M69.931,57.491H61.29v31.293H48.346V57.491h-6.472V46.702h6.472V40.23c0-8.799,3.65-14.033,14.029-14.033
		h8.639v10.787h-5.399c-4.04,0-4.309,1.508-4.309,4.321l-0.015,5.397h9.787L69.931,57.491z"/>
	<path fill="#4D67A2" d="M69.823,57.383h-8.641v31.293H48.237V57.383h-6.472V46.594h6.472v-6.472
		c0-8.799,3.651-14.033,14.029-14.033h8.639v10.787h-5.399c-4.04,0-4.309,1.508-4.309,4.321l-0.015,5.397h9.787L69.823,57.383z"/>
	<path fill="#4C67A1" d="M69.715,57.275h-8.641v31.293H48.129V57.275h-6.472V46.486h6.472v-6.472
		c0-8.799,3.651-14.033,14.029-14.033h8.639v10.787h-5.399c-4.04,0-4.309,1.508-4.309,4.321l-0.015,5.397h9.787L69.715,57.275z"/>
	<path fill="#4C66A1" d="M69.607,57.167h-8.641V88.46H48.021V57.167h-6.472V46.378h6.472v-6.472c0-8.799,3.651-14.033,14.029-14.033
		h8.639V36.66h-5.399c-4.04,0-4.309,1.508-4.309,4.321l-0.015,5.397h9.787L69.607,57.167z"/>
	<path fill="#4B65A0" d="M69.499,57.059h-8.641v31.293H47.913V57.059h-6.472V46.27h6.472v-6.472c0-8.799,3.651-14.033,14.029-14.033
		h8.639v10.787h-5.399c-4.04,0-4.309,1.508-4.309,4.321l-0.015,5.397h9.787L69.499,57.059z"/>
	<path fill="#4B659F" d="M69.391,56.951H60.75v31.293H47.805V56.951h-6.472V46.162h6.472V39.69c0-8.799,3.651-14.033,14.029-14.033
		h8.639v10.787h-5.399c-4.04,0-4.309,1.508-4.309,4.321l-0.015,5.397h9.787L69.391,56.951z"/>
	<path fill="#4A649E" d="M69.283,56.843h-8.641v31.293H47.697V56.843h-6.472V46.054h6.472v-6.472
		c0-8.799,3.651-14.033,14.029-14.033h8.639v10.787h-5.399c-4.04,0-4.309,1.508-4.309,4.321l-0.015,5.397h9.787L69.283,56.843z"/>
	<path fill="#49639D" d="M69.175,56.735h-8.641v31.293H47.589V56.735h-6.472V45.946h6.472v-6.472
		c0-8.799,3.651-14.033,14.029-14.033h8.639v10.787h-5.399c-4.04,0-4.309,1.508-4.309,4.321l-0.015,5.397h9.787L69.175,56.735z"/>
	<path fill="#49639C" d="M69.067,56.627h-8.641V87.92H47.481V56.627h-6.472V45.838h6.472v-6.472c0-8.799,3.651-14.033,14.029-14.033
		h8.639v10.787h-5.399c-4.04,0-4.309,1.508-4.309,4.321l-0.015,5.397h9.787L69.067,56.627z"/>
	<path fill="#48629B" d="M68.959,56.519h-8.641v31.293H47.373V56.519h-6.472V45.73h6.472v-6.472c0-8.799,3.651-14.033,14.029-14.033
		h8.639v10.787h-5.399c-4.04,0-4.309,1.508-4.309,4.321l-0.015,5.397h9.787L68.959,56.519z"/>
	<path fill="#48619A" d="M68.851,56.411H60.21v31.293H47.265V56.411h-6.472V45.622h6.472V39.15c0-8.799,3.651-14.033,14.029-14.033
		h8.639v10.787h-5.399c-4.04,0-4.309,1.508-4.309,4.321l-0.015,5.397h9.787L68.851,56.411z"/>
	<path fill="#47619A" d="M68.743,56.303h-8.641v31.293H47.157V56.303h-6.472V45.514h6.472v-6.472
		c0-8.799,3.651-14.033,14.029-14.033h8.639v10.787h-5.399c-4.04,0-4.309,1.508-4.309,4.321l-0.015,5.397h9.787L68.743,56.303z"/>
	<path fill="#476099" d="M68.635,56.195h-8.641v31.293H47.049V56.195h-6.472V45.406h6.472v-6.472
		c0-8.799,3.651-14.033,14.029-14.033h8.639v10.787h-5.399c-4.04,0-4.309,1.508-4.309,4.321l-0.015,5.397h9.787L68.635,56.195z"/>
	<path fill="#465F98" d="M68.527,56.087h-8.641V87.38H46.941V56.087h-6.472V45.298h6.472v-6.472c0-8.799,3.651-14.033,14.029-14.033
		h8.639v10.787h-5.399c-4.04,0-4.309,1.508-4.309,4.321l-0.015,5.397h9.787L68.527,56.087z"/>
	<path fill="#455F97" d="M68.419,55.979h-8.641v31.293H46.833V55.979h-6.472V45.19h6.472v-6.472c0-8.799,3.651-14.033,14.029-14.033
		h8.639v10.787h-5.399c-4.04,0-4.309,1.508-4.309,4.321l-0.015,5.397h9.787L68.419,55.979z"/>
	<path fill="#455E96" d="M68.311,55.871H59.67v31.293H46.725V55.871h-6.472V45.082h6.472V38.61c0-8.799,3.651-14.033,14.029-14.033
		h8.639v10.787h-5.399c-4.04,0-4.309,1.508-4.309,4.321l-0.015,5.397h9.787L68.311,55.871z"/>
	<path fill="#445D96" d="M68.203,55.763h-8.641v31.293H46.617V55.763h-6.472V44.974h6.472v-6.472
		c0-8.799,3.651-14.033,14.029-14.033h8.639v10.787h-5.399c-4.04,0-4.309,1.508-4.309,4.321l-0.015,5.397h9.787L68.203,55.763z"/>
	<path fill="#445D95" d="M68.094,55.654h-8.641v31.293H46.509V55.654h-6.472V44.866h6.472v-6.472
		c0-8.799,3.651-14.033,14.029-14.033h8.639v10.787h-5.399c-4.04,0-4.309,1.508-4.309,4.321l-0.015,5.397h9.787L68.094,55.654z"/>
	<path fill="#435C94" d="M67.986,55.546h-8.641v31.293H46.401V55.546h-6.472V44.758h6.472v-6.472
		c0-8.799,3.651-14.033,14.029-14.033h8.639v10.787H63.67c-4.04,0-4.309,1.508-4.309,4.321l-0.015,5.397h9.787L67.986,55.546z"/>
	<path fill="#425B93" d="M67.878,55.438h-8.641v31.293H46.293V55.438h-6.472V44.65h6.472v-6.472c0-8.799,3.651-14.033,14.029-14.033
		h8.639v10.787h-5.399c-4.04,0-4.309,1.508-4.309,4.321l-0.015,5.397h9.787L67.878,55.438z"/>
	<path fill="#425B92" d="M67.77,55.33H59.13v31.293H46.185V55.33h-6.472V44.542h6.472V38.07c0-8.799,3.651-14.033,14.029-14.033
		h8.639v10.787h-5.399c-4.04,0-4.309,1.508-4.309,4.321l-0.015,5.397h9.787L67.77,55.33z"/>
	<path fill="#415A92" d="M67.662,55.222h-8.641v31.293H46.077V55.222h-6.472V44.434h6.472v-6.472
		c0-8.799,3.651-14.033,14.029-14.033h8.639v10.787h-5.399c-4.04,0-4.309,1.508-4.309,4.321l-0.015,5.397h9.787L67.662,55.222z"/>
	<path fill="#415991" d="M67.554,55.114h-8.641v31.293H45.969V55.114h-6.472V44.326h6.472v-6.472
		c0-8.799,3.651-14.033,14.029-14.033h8.639v10.787h-5.399c-4.04,0-4.309,1.508-4.309,4.321l-0.015,5.397H68.7L67.554,55.114z"/>
	<path fill="#405990" d="M67.446,55.006h-8.641v31.293H45.861V55.006h-6.472V44.218h6.472v-6.472
		c0-8.799,3.651-14.033,14.029-14.033h8.639v10.787H63.13c-4.04,0-4.309,1.508-4.309,4.321l-0.015,5.397h9.787L67.446,55.006z"/>
	<path fill="#40588F" d="M67.338,54.898h-8.641v31.293H45.752V54.898h-6.472V44.11h6.472v-6.472c0-8.799,3.651-14.033,14.029-14.033
		h8.639v10.787h-5.399c-4.04,0-4.309,1.508-4.309,4.321l-0.015,5.397h9.787L67.338,54.898z"/>
	<path fill="#3F578E" d="M67.23,54.79h-8.641v31.293H45.644V54.79h-6.472V44.002h6.472V37.53c0-8.799,3.651-14.033,14.029-14.033
		h8.639v10.787h-5.399c-4.04,0-4.309,1.508-4.309,4.321l-0.015,5.397h9.787L67.23,54.79z"/>
	<path fill="#3E578E" d="M67.122,54.682h-8.641v31.293H45.536V54.682h-6.472V43.894h6.472v-6.472
		c0-8.799,3.651-14.033,14.029-14.033h8.639v10.787h-5.399c-4.04,0-4.309,1.508-4.309,4.321l-0.015,5.397h9.787L67.122,54.682z"/>
	<path fill="#3E568D" d="M67.014,54.574h-8.641v31.293H45.428V54.574h-6.472V43.786h6.472v-6.472
		c0-8.799,3.651-14.033,14.029-14.033h8.639v10.787h-5.399c-4.04,0-4.309,1.508-4.309,4.321l-0.015,5.397h9.787L67.014,54.574z"/>
	<path fill="#3D558C" d="M66.906,54.466h-8.641v31.293H45.32V54.466h-6.472V43.677h6.472v-6.472c0-8.799,3.651-14.033,14.029-14.033
		h8.639v10.787H62.59c-4.04,0-4.309,1.508-4.309,4.321l-0.015,5.397h9.787L66.906,54.466z"/>
	<path fill="#3D558B" d="M66.798,54.358h-8.641v31.293H45.212V54.358H38.74V43.569h6.472v-6.472c0-8.799,3.651-14.033,14.029-14.033
		h8.639v10.787h-5.399c-4.04,0-4.309,1.508-4.309,4.321l-0.015,5.397h9.787L66.798,54.358z"/>
	<path fill="#3C548B" d="M66.69,54.25h-8.641v31.293H45.104V54.25h-6.472V43.461h6.472v-6.472c0-8.799,3.651-14.033,14.029-14.033
		h8.639v10.787h-5.399c-4.04,0-4.309,1.508-4.309,4.321l-0.015,5.397h9.787L66.69,54.25z"/>
	<path fill="#3B538A" d="M66.582,54.142h-8.641v31.293H44.996V54.142h-6.472V43.353h6.472v-6.472
		c0-8.799,3.651-14.033,14.029-14.033h8.639v10.787h-5.399c-4.04,0-4.309,1.508-4.309,4.321l-0.015,5.397h9.787L66.582,54.142z"/>
	<path fill="#3B5389" d="M66.474,54.034h-8.641v31.293H44.888V54.034h-6.472V43.245h6.472v-6.472
		c0-8.799,3.651-14.033,14.029-14.033h8.639v10.787h-5.399c-4.04,0-4.309,1.508-4.309,4.321l-0.015,5.397h9.787L66.474,54.034z"/>
	<path fill="#3A5288" d="M66.366,53.926h-8.641v31.293H44.78V53.926h-6.472V43.137h6.472v-6.472c0-8.799,3.651-14.033,14.029-14.033
		h8.639v10.787H62.05c-4.04,0-4.309,1.508-4.309,4.321l-0.015,5.397h9.787L66.366,53.926z"/>
	<path fill="#3A5187" d="M66.258,53.818h-8.641v31.293H44.672V53.818H38.2V43.029h6.472v-6.472c0-8.799,3.651-14.033,14.029-14.033
		h8.639v10.787h-5.399c-4.04,0-4.309,1.508-4.309,4.321l-0.015,5.397h9.787L66.258,53.818z"/>
	<path fill="#395187" d="M66.15,53.71h-8.641v31.293H44.564V53.71h-6.472V42.921h6.472v-6.472c0-8.799,3.651-14.033,14.029-14.033
		h8.639v10.787h-5.399c-4.04,0-4.309,1.508-4.309,4.321l-0.015,5.397h9.787L66.15,53.71z"/>
	<path fill="#385086" d="M66.042,53.602h-8.641v31.293H44.456V53.602h-6.472V42.813h6.472v-6.472
		c0-8.799,3.651-14.033,14.029-14.033h8.639v10.787h-5.399c-4.04,0-4.309,1.508-4.309,4.321l-0.015,5.397h9.787L66.042,53.602z"/>
	<path fill="#385085" d="M65.934,53.494h-8.641v31.293H44.348V53.494h-6.472V42.705h6.472v-6.472
		c0-8.799,3.651-14.033,14.029-14.033h8.639v10.787h-5.399c-4.04,0-4.309,1.508-4.309,4.322l-0.015,5.397h9.787L65.934,53.494z"/>
	<path fill="#374F84" d="M65.826,53.386h-8.641v31.293H44.24V53.386h-6.472V42.597h6.472v-6.472c0-8.799,3.651-14.033,14.029-14.033
		h8.639v10.787H61.51c-4.04,0-4.309,1.508-4.309,4.322l-0.015,5.397h9.787L65.826,53.386z"/>
	<path fill="#374E84" d="M65.718,53.278h-8.641v31.293H44.132V53.278H37.66V42.489h6.472v-6.472c0-8.799,3.651-14.033,14.029-14.033
		H66.8V32.77h-5.399c-4.04,0-4.309,1.508-4.309,4.322l-0.015,5.397h9.787L65.718,53.278z"/>
	<path fill="#364E83" d="M65.61,53.17h-8.641v31.293H44.024V53.17h-6.472V42.381h6.472v-6.472c0-8.799,3.651-14.033,14.029-14.033
		h8.639v10.787h-5.399c-4.04,0-4.309,1.508-4.309,4.322l-0.015,5.397h9.787L65.61,53.17z"/>
	<path fill="#354D82" d="M65.502,53.062h-8.641v31.293H43.916V53.062h-6.472V42.273h6.472v-6.472
		c0-8.799,3.651-14.033,14.029-14.033h8.639v10.787h-5.399c-4.04,0-4.309,1.508-4.309,4.322l-0.015,5.397h9.787L65.502,53.062z"/>
	<path fill="#354C81" d="M65.394,52.954h-8.641v31.293H43.808V52.954h-6.472V42.165h6.472v-6.472
		c0-8.799,3.651-14.033,14.029-14.033h8.639v10.787h-5.399c-4.04,0-4.309,1.508-4.309,4.322l-0.015,5.397h9.787L65.394,52.954z"/>
	<path fill="#344C81" d="M65.286,52.846h-8.641v31.293H43.7V52.846h-6.472V42.057H43.7v-6.472c0-8.799,3.651-14.033,14.029-14.033
		h8.639v10.787h-5.399c-4.04,0-4.309,1.508-4.309,4.322l-0.015,5.397h9.787L65.286,52.846z"/>
	<path fill="#344B80" d="M65.178,52.738h-8.641v31.293H43.592V52.738H37.12V41.949h6.472v-6.472c0-8.799,3.651-14.033,14.029-14.033
		h8.639V32.23h-5.399c-4.04,0-4.309,1.508-4.309,4.322l-0.015,5.397h9.787L65.178,52.738z"/>
	<path fill="#334A7F" d="M65.069,52.629h-8.641v31.293H43.484V52.629h-6.472V41.841h6.472v-6.472
		c0-8.799,3.651-14.033,14.029-14.033h8.639v10.787h-5.399c-4.04,0-4.309,1.508-4.309,4.322l-0.015,5.397h9.787L65.069,52.629z"/>
	<path fill="#334A7F" d="M64.961,52.521h-8.641v31.293H43.376V52.521h-6.472V41.733h6.472v-6.472
		c0-8.799,3.651-14.033,14.029-14.033h8.639v10.787h-5.399c-4.04,0-4.309,1.508-4.309,4.322l-0.015,5.397h9.787L64.961,52.521z"/>
	<path fill="#32497E" d="M64.853,52.413h-8.641v31.293H43.267V52.413h-6.472V41.625h6.472v-6.472
		c0-8.799,3.651-14.033,14.029-14.033h8.639v10.787h-5.399c-4.04,0-4.309,1.508-4.309,4.322l-0.015,5.397H66L64.853,52.413z"/>
	<path fill="#31497D" d="M64.745,52.305h-8.641v31.293H43.159V52.305h-6.472V41.517h6.472v-6.472
		c0-8.799,3.651-14.033,14.029-14.033h8.639v10.787h-5.399c-4.04,0-4.309,1.508-4.309,4.322l-0.015,5.397h9.787L64.745,52.305z"/>
	<path fill="#31487C" d="M64.637,52.197h-8.641v31.293H43.051V52.197H36.58V41.409h6.472v-6.472c0-8.799,3.651-14.033,14.029-14.033
		h8.639V31.69h-5.399c-4.04,0-4.309,1.508-4.309,4.322l-0.015,5.397h9.787L64.637,52.197z"/>
	<path fill="#30477C" d="M64.529,52.089h-8.641v31.293H42.943V52.089h-6.472V41.301h6.472v-6.472
		c0-8.799,3.651-14.033,14.029-14.033h8.639v10.787h-5.399c-4.04,0-4.309,1.508-4.309,4.322l-0.015,5.397h9.787L64.529,52.089z"/>
	<path fill="#30477B" d="M64.421,51.981H55.78v31.293H42.835V51.981h-6.472V41.193h6.472v-6.472c0-8.799,3.651-14.033,14.029-14.033
		h8.639v10.787h-5.399c-4.04,0-4.309,1.508-4.309,4.322l-0.015,5.397h9.787L64.421,51.981z"/>
	<path fill="#2F467A" d="M64.313,51.873h-8.641v31.293H42.727V51.873h-6.472V41.085h6.472v-6.472
		c0-8.799,3.651-14.033,14.029-14.033h8.639v10.787h-5.399c-4.04,0-4.309,1.508-4.309,4.322l-0.015,5.397h9.787L64.313,51.873z"/>
	<path fill="#2E457A" d="M64.205,51.765h-8.641v31.293H42.619V51.765h-6.472V40.977h6.472v-6.472
		c0-8.799,3.651-14.033,14.029-14.033h8.639v10.787h-5.399c-4.04,0-4.309,1.508-4.309,4.322l-0.015,5.397h9.787L64.205,51.765z"/>
	<path fill="#2E4579" d="M64.097,51.657h-8.641V82.95H42.511V51.657h-6.472V40.869h6.472v-6.472c0-8.799,3.651-14.033,14.029-14.033
		h8.639V31.15h-5.399c-4.04,0-4.309,1.508-4.309,4.322l-0.015,5.397h9.787L64.097,51.657z"/>
	<path fill="#2D4478" d="M63.989,51.549h-8.641v31.293H42.403V51.549h-6.472V40.761h6.472v-6.472
		c0-8.799,3.651-14.033,14.029-14.033h8.639v10.787h-5.399c-4.04,0-4.309,1.508-4.309,4.322l-0.015,5.397h9.787L63.989,51.549z"/>
	<path fill="#2D4478" d="M63.881,51.441H55.24v31.293H42.295V51.441h-6.472V40.653h6.472V34.18c0-8.799,3.651-14.033,14.029-14.033
		h8.639v10.787h-5.399c-4.04,0-4.309,1.508-4.309,4.322l-0.015,5.397h9.787L63.881,51.441z"/>
	<path fill="#2C4377" d="M63.773,51.333h-8.641v31.293H42.187V51.333h-6.472V40.545h6.472v-6.472
		c0-8.799,3.651-14.033,14.029-14.033h8.639v10.787h-5.399c-4.04,0-4.309,1.508-4.309,4.322l-0.015,5.397h9.787L63.773,51.333z"/>
	<path fill="#2B4276" d="M63.665,51.225h-8.641v31.293H42.079V51.225h-6.472V40.437h6.472v-6.472
		c0-8.799,3.651-14.033,14.029-14.033h8.639v10.787h-5.399c-4.04,0-4.309,1.508-4.309,4.322l-0.015,5.397h9.787L63.665,51.225z"/>
	<path fill="#2B4276" d="M63.557,51.117h-8.641V82.41H41.971V51.117h-6.472V40.329h6.472v-6.472c0-8.799,3.651-14.033,14.029-14.033
		h8.639V30.61h-5.399c-4.04,0-4.309,1.508-4.309,4.322l-0.015,5.397h9.787L63.557,51.117z"/>
</g>
<path fill="#F7E8B1" d="M63.557,51.117h-8.641V82.41H41.971V51.117h-6.472V40.329h6.472v-6.472c0-8.799,3.651-14.033,14.029-14.033
	h8.639V30.61h-5.399c-4.04,0-4.309,1.508-4.309,4.322l-0.015,5.397h9.787L63.557,51.117z"/>
</svg>
