<?xml version="1.0" encoding="utf-8"?>
<!-- Generator: Adobe Illustrator 17.0.0, SVG Export Plug-In . SVG Version: 6.00 Build 0)  -->
<!DOCTYPE svg PUBLIC "-//W3C//DTD SVG 1.1//EN" "http://www.w3.org/Graphics/SVG/1.1/DTD/svg11.dtd">
<svg version="1.1" id="Capa_1" xmlns="http://www.w3.org/2000/svg" xmlns:xlink="http://www.w3.org/1999/xlink" x="0px" y="0px"
	 width="600px" height="450px" viewBox="0 0 600 450" enable-background="new 0 0 600 450" xml:space="preserve">
<path opacity="0.8" fill="#774F23" enable-background="new    " d="M518.761,231.09c0.17-1.269,0.392-2.552,0.495-3.861
	C527.462,114.613,442.85,16.677,330.245,8.455C217.666,0.216,119.705,84.844,111.473,197.44s76.398,210.533,188.977,218.771
	c31.733,2.33,62.178-2.949,89.883-13.94c4.309,6.026,8.389,11.774,11.932,16.752c16.339,22.873,39.221,20.708,50.899-4.913
	c11.656-25.571,30.752-67.442,42.409-93.014c11.682-25.569-1.706-44.309-29.693-41.61c-27.951,2.685-73.756,7.082-101.769,9.778
	c-27.975,2.666-37.533,23.618-21.204,46.508c2.196,3.051,4.551,6.375,7.057,9.884c-14.208,3.751-29.21,5.358-44.648,4.245
	c-75.963-5.576-133.07-71.643-127.528-147.628c5.541-75.967,71.651-133.061,147.603-127.54
	c75.998,5.579,133.078,71.679,127.536,147.646c-0.125,1.794-0.466,3.484-0.641,5.272l0.206,0.016
	c-0.557,9.162,6.182,17.149,15.278,17.867l33.219,2.62c9.21,0.726,17.231-6.235,17.964-15.521
	C518.994,232.082,518.779,231.632,518.761,231.09z"/>
<g>
	<path fill="#00AEB5" d="M488.238,212.657c-2.884,95.931-82.984,171.356-178.915,168.473S137.966,298.145,140.85,202.214
		c2.884-95.924,82.984-171.356,178.915-168.473S491.122,116.733,488.238,212.657z"/>
	<g>
		<g>
			<defs>
				<path id="SVGID_1_" d="M488.316,207.436c0,95.974-77.798,173.772-173.772,173.772c-95.967,0-173.772-77.798-173.772-173.772
					c0-95.967,77.805-173.772,173.772-173.772C410.519,33.663,488.316,111.468,488.316,207.436z"/>
			</defs>
			<clipPath id="SVGID_2_">
				<use xlink:href="#SVGID_1_"  overflow="visible"/>
			</clipPath>
			
				<linearGradient id="SVGID_3_" gradientUnits="userSpaceOnUse" x1="752.5231" y1="-298.867" x2="601.5189" y2="-173.7491" gradientTransform="matrix(1 0 0 -1 -247.66 80.04)">
				<stop  offset="0" style="stop-color:#FFFFFF"/>
				<stop  offset="0.0718" style="stop-color:#DFDFDF"/>
				<stop  offset="0.2156" style="stop-color:#A5A5A5"/>
				<stop  offset="0.3593" style="stop-color:#727272"/>
				<stop  offset="0.4998" style="stop-color:#494949"/>
				<stop  offset="0.6362" style="stop-color:#292929"/>
				<stop  offset="0.7674" style="stop-color:#121212"/>
				<stop  offset="0.8912" style="stop-color:#050505"/>
				<stop  offset="1" style="stop-color:#000000"/>
			</linearGradient>
			<polygon opacity="0.5" clip-path="url(#SVGID_2_)" fill="url(#SVGID_3_)" enable-background="new    " points="236.953,285.08 
				375.619,424.756 514.729,427.55 536.457,308.01 501.878,240.575 402.253,140.95 392.464,153.142 376.239,155.537 
				358.054,161.293 343.566,169.444 337.221,181.215 327.256,206.571 335.407,232.838 313.679,246.423 294.109,262.327 
				256.148,225.904 243.114,248.91 			"/>
		</g>
	</g>
	<path fill="#FFFFFF" d="M408.177,205.675c0,52.671-42.691,95.363-95.362,95.363c-52.664,0-95.355-42.691-95.355-95.363
		c0-52.663,42.691-95.354,95.355-95.354C365.486,110.321,408.177,153.012,408.177,205.675z"/>
	<g>
		<path fill="#1F334B" d="M314.544,97.684c-60.615,0-109.751,49.136-109.751,109.751s49.136,109.758,109.751,109.758
			c60.616,0,109.751-49.143,109.751-109.758S375.16,97.684,314.544,97.684z M314.544,298.788c-50.452,0-91.352-40.9-91.352-91.352
			c0-50.444,40.9-91.36,91.352-91.36s91.344,40.916,91.344,91.36C405.888,257.888,364.996,298.788,314.544,298.788z"/>
		<path fill="#1F334B" d="M324.509,200.57c4.638,5.044,4.301,12.896-0.743,17.534c-5.051,4.638-12.904,4.301-17.542-0.742
			c-4.646-5.051-4.309-12.896,0.735-17.534C312.011,195.182,319.863,195.519,324.509,200.57z"/>
		<path fill="#FCB128" d="M334.213,200.157c-1.316,1.209-3.796,0.658-5.549-1.247l0,0c-1.745-1.89-2.089-4.416-0.765-5.633
			l31.793-29.213c1.324-1.217,3.811-0.666,5.549,1.24l0,0c1.753,1.898,2.097,4.424,0.773,5.633L334.213,200.157z"/>
		<path fill="#FCB128" d="M303.447,191.914c1.622,1.768,1.401,4.615-0.498,6.352l0,0c-1.898,1.753-4.753,1.73-6.368-0.031
			l-39.078-42.515c-1.615-1.768-1.393-4.615,0.505-6.352l0,0c1.898-1.745,4.753-1.738,6.375,0.031L303.447,191.914z"/>
	</g>
	<path fill="#00AEB5" d="M300.791,102.567c0,0-72.234,7.057-91.337,91.75c0,0-2.074,7.057,0.834,8.304c0,0,4.982,2.901,6.23-6.23
		c0,0,14.113-72.241,82.198-85.528c0,0,8.304-1.24,7.47-5.396C306.187,105.468,306.194,102.147,300.791,102.567z"/>
	<path opacity="0.2" enable-background="new    " d="M330.188,304.176c0,0,77.637-14.527,82.619-110.019
		C412.807,194.157,422.772,292.55,330.188,304.176z"/>
	<path opacity="0.5" fill="#FFFFFF" enable-background="new    " d="M305.773,212.165c0,0-1.301-11.649,10.799-12.452
		C316.572,199.713,307.434,206.77,305.773,212.165z"/>
	<path opacity="0.2" enable-background="new    " d="M324.984,205.002c0,0,2.502,11.449-9.445,13.508
		C315.539,218.51,323.897,210.535,324.984,205.002z"/>
	<path opacity="0.2" enable-background="new    " d="M224.815,200.953c0,0,11.626-73.895,80.545-82.199
		C305.36,118.755,244.744,134.949,224.815,200.953z"/>
	<path opacity="0.5" fill="#FFFFFF" enable-background="new    " d="M260.182,157.145c0,0-5.335-4.209-1.684-7.432
		c0,0,3.084-2.939,7.003,2.243C265.501,151.956,259.898,152.522,260.182,157.145z"/>
	<path opacity="0.2" enable-background="new    " d="M300.73,189.932c0,0,5.235,4.324,1.515,7.462c0,0-3.145,2.877-6.957-2.396
		C295.288,194.999,300.905,194.562,300.73,189.932z"/>
	<path opacity="0.5" fill="#FFFFFF" enable-background="new    " d="M329.124,197.363c0,0-1.959-1.959,1.125-4.906l28.731-26.068
		c0,0,2.381-2.663,4.485-1.118C363.465,165.273,333.609,190.782,329.124,197.363z"/>
	<path opacity="0.2" enable-background="new    " d="M364.874,166.818c0,0,1.967,1.952-1.11,4.906l-28.662,26.144
		c0,0-2.373,2.671-4.485,1.132C330.617,199.001,360.404,173.416,364.874,166.818z"/>
</g>
</svg>
