<?xml version="1.0" encoding="utf-8"?>
<!-- Generator: Adobe Illustrator 17.0.0, SVG Export Plug-In . SVG Version: 6.00 Build 0)  -->
<!DOCTYPE svg PUBLIC "-//W3C//DTD SVG 1.1//EN" "http://www.w3.org/Graphics/SVG/1.1/DTD/svg11.dtd">
<svg version="1.1" id="Isolation_Mode" xmlns="http://www.w3.org/2000/svg" xmlns:xlink="http://www.w3.org/1999/xlink" x="0px"
	 y="0px" width="800px" height="800px" viewBox="0 0 800 800" enable-background="new 0 0 800 800" xml:space="preserve">
<g id="Design_1_">
	<g>
		<g>
			<g>
				<path fill="#0071BC" d="M284.11,322.231c-0.737-7.102-7.087-12.26-14.188-11.529l-62.282,6.452
					c-7.096,0.737-12.255,7.087-11.524,14.182l4.131,39.884c0.736,7.096,7.086,12.26,14.182,11.519l62.276-6.442
					c7.106-0.731,12.26-7.081,11.524-14.182L284.11,322.231z"/>
				<path fill="#29ABE2" d="M200.084,322.788c-0.092-0.884-0.88-1.529-1.764-1.437l0,0c-0.884,0.092-1.528,0.88-1.436,1.769
					l5.798,55.988c0.092,0.885,0.879,1.529,1.764,1.432l0,0c0.884-0.087,1.529-0.88,1.437-1.764L200.084,322.788z"/>
				<g>
					<path fill="#E6E6E6" d="M401.801,242.086l-163.955,16.969c-8.692,0.895-16.11,6.518-21.54,11.928l25.041-2.592l2.321,22.398
						l-35.655,3.691c0.102,1.6-0.936,2.142-0.849,2.955l10.89,105.238c1.902,18.364,19.315,31.054,37.675,29.157l163.951-16.969
						c18.364-1.902,32.24-17.832,30.343-36.192l-10.895-105.242C437.232,255.072,420.161,240.184,401.801,242.086z"/>
					<path fill="#FFFFFF" d="M241.348,268.39l-25.041,2.592c-5.363,7.025-8.497,15.435-8.293,23.498l35.655-3.691L241.348,268.39z"
						/>
				</g>
				<path fill="#0071BC" d="M386.878,604.656c-0.01-0.082,0.813-0.246,0.798-0.332l-16.994-164.232
					c-1.902-18.365-19.791-31.049-39.71-28.989l-14.427,1.493c-19.913,2.065-35.752,18.237-33.85,36.596l16.994,164.237
					c1.901,18.36,20.614,30.001,40.527,27.936l13.527-1.401l0.9-0.087l33.36-3.456c9.458-0.976,15.179-7.249,14.279-15.967
					l-0.174-1.662C401.296,610.923,395.176,605.013,386.878,604.656z"/>
				<path fill="#0071BC" d="M800.671,288.252c3.471,33.534-20.895,63.529-54.434,67.001c-33.528,3.466-63.519-20.906-66.99-54.439
					c-3.471-33.523,20.895-63.519,54.428-66.995C767.209,230.353,797.204,254.719,800.671,288.252z"/>
				<path fill="#29ABE2" d="M788.17,552.609c1.299,12.567-7.832,23.804-20.394,25.108l-0.895,0.092
					c-12.567,1.299-23.804-7.833-25.108-20.399L687.381,31.792c-1.304-12.564,7.833-23.802,20.399-25.103l0.89-0.09
					c12.567-1.301,23.804,7.833,25.103,20.394L788.17,552.609z"/>
				<path fill="#29ABE2" d="M408.811,417.954c1.902,18.365-11.442,34.786-29.801,36.688l-82.287,8.512
					c-18.364,1.902-34.786-11.442-36.688-29.806l-18.119-175.071c-1.902-18.364,11.447-34.786,29.807-36.683l82.292-8.517
					c18.359-1.902,34.781,11.447,36.683,29.806L408.811,417.954z"/>
				
					<linearGradient id="SVGID_1_" gradientUnits="userSpaceOnUse" x1="721.3992" y1="291.9074" x2="1700.4053" y2="647.9095" gradientTransform="matrix(-1 0 0 1 1447.0084 0)">
					<stop  offset="0" style="stop-color:#FFFFFF"/>
					<stop  offset="1" style="stop-color:#000000"/>
				</linearGradient>
				<path fill="url(#SVGID_1_)" d="M687.555,33.51c0,0-34.152,185.539-293.315,212.359l17.664,170.664
					c0,0,316.659,13.155,329.956,141.701L687.555,33.51z"/>
				<path fill="#FFFFFF" d="M394.997,253.211l2.28,22.014c259.162-26.82,293.319-212.364,293.319-212.364l-2.28-22.012
					C688.317,40.849,654.164,226.385,394.997,253.211z"/>
			</g>
			<path opacity="0.1" d="M197.768,347.277l2.341,22.603c0.737,7.096,7.822,11.923,14.924,11.186l0.772-0.082l2.055,19.852
				c1.901,18.364,19.346,31.289,37.7,29.387l4.106-0.425l0.087,0.818c1.432,13.87,12.265,24.755,23.978,28.584l15.957,154.227
				c1.901,18.36,20.614,30.001,40.527,27.936l13.527-1.401l0.9-0.087l33.36-3.456c9.458-0.976,15.179-7.249,14.279-15.967
				l-0.174-1.662c-0.813-7.868-6.933-13.778-15.231-14.136c-0.01-0.082,0.813-0.246,0.798-0.332l-15.741-152.187l8.497-0.879
				c18.354-1.897,33.201-18.002,31.304-36.361l-0.041-0.327l0,0l0.015,0.117c0,0,316.659,13.16,329.962,141.706l0.113,1.104
				c1.298,12.572,12.188,21.734,24.75,20.435c12.567-1.304,21.345-12.5,20.046-25.067l-21.191-204.749
				c23.155-10.639,37.874-35.154,35.113-61.816c-0.046-0.429-0.189-1.375-0.199-1.375L197.768,347.277z"/>
		</g>
		<g>
			<g>
				<path fill="#FFCCA6" d="M311.416,510.819c-3.109-7.035-5.455-12.822-0.235-15.128l71.505-31.596
					c5.215-2.3,11.968,1.539,15.077,8.579l0,0c3.109,7.04,1.396,14.612-3.814,16.917l-71.505,31.596
					C317.229,523.493,314.53,517.864,311.416,510.819L311.416,510.819z"/>
				<path fill="#DDB192" d="M311.181,495.691l71.505-31.596c5.215-2.3,9.116,1.283,9.116,1.283S305.961,497.997,311.181,495.691z"/>
				<path fill="#F3EBD4" d="M318.042,518.514c0.026,0.061,0.9-0.24,1.595-0.552c7.842-3.462,13.952-6.166,9.97-15.174
					c-3.978-9.018-9.97-6.365-17.817-2.903c-0.691,0.307-1.626,0.803-1.6,0.864L318.042,518.514z"/>
			</g>
			<g>
				<path fill="#FFCCA6" d="M321.314,537.328c-3.108-7.04-5.45-12.828-0.23-15.133l71.499-31.591
					c5.22-2.301,11.963,1.534,15.072,8.579l0,0c3.119,7.04,1.406,14.612-3.804,16.917l-71.505,31.586
					C327.132,549.997,324.427,544.368,321.314,537.328L321.314,537.328z"/>
				<path fill="#DDB192" d="M321.084,522.195l71.499-31.591c5.22-2.301,9.116,1.278,9.116,1.278S315.864,524.5,321.084,522.195z"/>
				<path fill="#F3EBD4" d="M327.945,545.022c0.02,0.051,0.895-0.24,1.59-0.552c7.843-3.467,13.957-6.166,9.975-15.184
					c-3.982-9.014-9.975-6.366-17.817-2.894c-0.695,0.302-1.631,0.798-1.6,0.859L327.945,545.022z"/>
			</g>
			<g>
				<path fill="#FFCCA6" d="M329.653,564.45c-3.109-7.045-5.45-12.828-0.23-15.134l71.505-31.596
					c5.21-2.306,11.958,1.529,15.067,8.574l0,0c3.113,7.04,1.406,14.612-3.809,16.923l-71.505,31.591
					C335.471,577.109,332.766,571.485,329.653,564.45L329.653,564.45z"/>
				<path fill="#DDB192" d="M329.422,549.317l71.505-31.596c5.21-2.306,9.111,1.283,9.111,1.283S324.203,551.623,329.422,549.317z"
					/>
				<path fill="#F3EBD4" d="M336.279,572.139c0.026,0.057,0.9-0.24,1.595-0.547c7.842-3.471,13.952-6.171,9.97-15.184
					c-3.978-9.013-9.97-6.365-17.817-2.904c-0.691,0.307-1.626,0.803-1.6,0.87L336.279,572.139z"/>
			</g>
			<g>
				<path fill="#FFCCA6" d="M349.515,586.255c-3.108-7.035-5.455-12.822-0.235-15.128l56.53-23.943
					c5.21-2.3,11.963,1.539,15.077,8.579l0,0c3.109,7.035,1.401,14.612-3.819,16.917l-56.524,23.937
					C355.328,598.924,352.629,593.295,349.515,586.255L349.515,586.255z"/>
				<path fill="#DDB192" d="M349.28,571.127l56.53-23.943c5.21-2.3,9.116,1.283,9.116,1.283S344.06,573.433,349.28,571.127z"/>
				<path fill="#F3EBD4" d="M356.141,593.945c0.02,0.066,0.899-0.236,1.595-0.547c7.843-3.462,13.953-6.161,9.97-15.174
					c-3.982-9.018-9.97-6.37-17.817-2.909c-0.69,0.311-1.626,0.808-1.6,0.869L356.141,593.945z"/>
			</g>
		</g>
		<g>
			<polygon points="218.969,645.403 0,757.302 0,530.794 196.851,526.811 			"/>
			<polygon fill="#FFFFFF" points="198.223,532.584 212.983,530.743 238.311,633.782 218.265,640.531 			"/>
			<polygon fill="#FFCEA4" points="213.597,534.255 235.954,526.07 273.66,557.287 273.813,616.236 236.634,627.034 			"/>
			<path fill="#F7BE97" d="M233.168,526.556c-6.237,18.594-12.822,41.54-3.466,57.154c21.825,36.448,63.243,37.082,63.243,37.082
				c-11.902-45.819-17.051-91.689-18.855-108.914L233.168,526.556z"/>
			<path fill="#FFCCA8" d="M301.125,623.332c0,0-43.529,0.936-64.981-41.877c-21.463-42.818,25.21-121.087,31.928-122.907
				c6.728-1.825,73.76-22.781,73.76-22.781s13.415,22.23-8.165,33.129c-21.575,10.905-46.412,23.594-46.412,23.594
				S292.28,543.075,301.125,623.332z"/>
			<path fill="#FFDCC5" d="M318.359,443.087c0,0,1.155,4.131,6.779,4.254l15.711-3.799c0,0,0.23-4.867-2.255-6.774L318.359,443.087z
				"/>
		</g>
	</g>
	<polygon fill="#F2F2F2" points="37.955,107.46 40.799,107.086 41.204,108.916 38.357,109.631 	"/>
</g>
</svg>
