<?xml version="1.0" encoding="utf-8"?>
<!-- Generator: Adobe Illustrator 17.0.0, SVG Export Plug-In . SVG Version: 6.00 Build 0)  -->
<!DOCTYPE svg PUBLIC "-//W3C//DTD SVG 1.1//EN" "http://www.w3.org/Graphics/SVG/1.1/DTD/svg11.dtd">
<svg version="1.1" id="Objects" xmlns="http://www.w3.org/2000/svg" xmlns:xlink="http://www.w3.org/1999/xlink" x="0px" y="0px"
	 width="800px" height="800px" viewBox="0 0 800 800" enable-background="new 0 0 800 800" xml:space="preserve">
<g>
	<g>
		<g>
			<g>
				<polygon fill="#837B7C" points="433.653,753.948 0.952,505.191 372.389,298.616 799.048,539.397 				"/>
				<g>
					<path fill="#FFFCE3" d="M439.147,733.354L38.039,506.186L372.66,321.862l1.099,0.667L759.482,542.06L439.147,733.354z
						 M47.382,506.186L438.876,728.04l312.095-185.324L372.665,327.171L47.382,506.186z"/>
				</g>
				<g>
					<g>
						<g>
							<polygon fill="#FFFCE3" points="219.638,236.84 219.638,462.013 233.377,469.984 233.377,132.557 219.638,124.587 							"/>
							<polygon fill="#F4F0DC" points="233.377,132.557 242.991,126.91 242.991,464.341 233.377,469.984 							"/>
							<polygon fill="#F4F0DC" points="219.638,124.587 233.377,132.557 242.991,126.91 230.356,119.268 							"/>
						</g>
						<g>
							<g>
								<polygon fill="#FFFCE3" points="336.124,154.808 153.702,261.086 153.702,124.253 336.124,17.642 								"/>
								<polygon fill="#FFFCE3" points="324.859,147.832 142.166,254.443 142.166,117.278 324.859,11 								"/>
								<g>
									<polygon fill="#FFFCE3" points="166.614,237.501 320.739,147.499 320.739,42.883 166.614,133.219 									"/>
									<path fill="#333333" d="M161.119,129.895v116.906l165.115-96.311V33.585L161.119,129.895z M320.739,147.499
										l-154.401,90.002V133.219l154.401-90.002V147.499z"/>
								</g>
								<polygon fill="#F4F0DC" points="324.859,11 142.166,117.278 142.166,254.443 153.702,261.086 153.702,124.253 
									336.124,17.642 								"/>
							</g>
							<g>
								<polygon fill="#333333" points="213.32,213.261 213.32,152.485 214.419,151.818 275.683,115.616 275.683,177.72 
									271.563,177.72 271.563,122.925 217.169,154.808 217.44,213.261 								"/>
							</g>
						</g>
					</g>
					<g>
						<polygon fill="#E85F55" points="233.377,181.377 233.377,163.107 263.048,145.509 263.048,166.098 						"/>
						<g>
							<path fill="#E85F55" d="M242.991,219.236c-21.431-0.333-29.947-12.951-18.682-28.559
								c10.713-15.28,37.088-27.564,58.519-27.236c21.431,0.333,29.947,12.951,18.682,28.565
								C290.521,207.28,264.147,219.236,242.991,219.236z M278.433,169.088c-17.036-0.333-37.911,9.299-46.431,21.589
								c-8.52,12.29-7.693,22.917,15.109,22.584c17.031-0.333,36.812-9.961,46.431-21.589
								C306.453,176.064,295.464,169.421,278.433,169.088z"/>
						</g>
					</g>
				</g>
				<g>
					<polygon fill="#FFFCE3" points="413.601,599.845 412.502,599.512 106.449,472.312 108.099,467.994 413.049,594.86 
						511.405,538.069 319.365,357.069 322.39,353.745 519.373,539.069 					"/>
				</g>
			</g>
		</g>
	</g>
</g>
</svg>
