<?xml version="1.0" encoding="utf-8"?>
<!-- Generator: Adobe Illustrator 17.0.0, SVG Export Plug-In . SVG Version: 6.00 Build 0)  -->
<!DOCTYPE svg PUBLIC "-//W3C//DTD SVG 1.1//EN" "http://www.w3.org/Graphics/SVG/1.1/DTD/svg11.dtd">
<svg version="1.1" id="Layer_1" xmlns="http://www.w3.org/2000/svg" xmlns:xlink="http://www.w3.org/1999/xlink" x="0px" y="0px"
	 width="800px" height="700px" viewBox="0 0 800 700" enable-background="new 0 0 800 700" xml:space="preserve">
<g>
	<g>
		<g>
			<polygon fill="#C4DDA7" points="165.215,218.34 162.327,216.565 162.329,159.392 165.212,161.149 			"/>
			<polygon fill="#A7C06B" points="168.104,216.567 165.217,218.344 165.217,161.119 168.104,159.344 			"/>
			<g>
				<polygon fill="#F4A353" points="212.657,53.597 198.535,53.597 187.837,62.254 191.689,70.457 196.395,66.811 196.395,72.508 
					196.395,91.417 214.796,91.417 214.796,72.508 214.796,66.811 216.561,70.115 221.375,63.28 				"/>
				<polygon fill="#53453C" points="198.856,152.746 193.2,159.385 203.016,156.176 204.606,154.521 205.168,91.417 196.395,91.417 
									"/>
				<polygon fill="#53453C" points="208.492,152.746 202.837,159.385 212.652,156.176 214.242,154.521 214.804,91.417 
					206.031,91.417 				"/>
				<polygon fill="#FEEEBF" points="188.736,64.168 179.92,70.228 170.933,59.521 172.86,56.33 173.073,53.597 170.933,53.597 
					170.933,55.418 169.008,55.191 165.584,49.723 161.306,49.723 161.306,54.963 165.371,59.976 167.939,61.115 177.139,74.102 
					181.204,75.468 190.96,68.906 				"/>
				<polygon fill="#FEEEBF" points="197.466,33.547 198,44.824 200.675,48.355 203.028,48.355 203.028,53.597 205.596,59.406 
					209.018,53.597 209.018,48.015 211.586,44.141 211.586,41.521 212.978,39.811 212.978,36.167 210.945,37.533 210.945,33.547 
					200.996,31.724 				"/>
				<path fill="#3D3D3C" d="M197.466,33.547l-1.055-3.139l3.408-5.177l7.092-1.003l6.662,4.076c0,0,1.768,11.886,1.232,12.228
					c-0.535,0.342-3.218,3.61-3.218,3.61v-2.62c0,0,1.391-1.026,1.391-1.708c0-0.682,0-3.646,0-3.646l-2.033,1.366v-3.988
					l-9.95-1.823L197.466,33.547z"/>
				<polygon fill="#FEEEBF" points="224.584,77.064 221.695,95.52 223.302,100.645 219.45,105.772 218.648,104.576 220.333,100.645 
					218.166,96.202 219.129,93.639 220.333,77.748 				"/>
				<polygon fill="#FEEEBF" points="217.709,68.486 220.333,77.748 224.584,77.064 220.702,64.238 				"/>
			</g>
			<g>
				<polygon fill="#A7C06B" points="34.759,244.968 31.872,246.742 31.872,189.517 34.759,187.742 				"/>
				<polygon fill="#C4DDA7" points="75.516,273.626 72.629,271.851 72.631,214.678 75.512,216.435 				"/>
				<polygon fill="#A7C06B" points="78.404,271.855 75.518,273.629 75.518,216.404 78.404,214.63 				"/>
				<polygon fill="#B4D17E" points="75.492,218.516 28.967,189.92 28.973,187.773 75.487,216.295 				"/>
				<polygon fill="#C4DDA7" points="121.831,192.289 118.945,190.515 118.946,133.341 121.828,135.098 				"/>
				<polygon fill="#A7C06B" points="124.72,190.516 121.833,192.291 121.833,135.066 124.72,133.291 				"/>
				<polygon fill="#C4DDA7" points="168.181,159.387 121.672,130.791 29.349,187.913 75.861,216.503 				"/>
				<polygon fill="#B4D17E" points="168.181,161.6 168.172,159.387 121.668,187.973 121.668,187.986 75.492,216.372 75.485,218.596 
					122.003,189.999 122.003,189.986 				"/>
				<g>
					<polygon fill="#FDFBE5" points="72.115,198.46 58,189.782 76.058,178.681 90.172,187.359 					"/>
					<polygon fill="#FFFFFF" points="78.596,199.841 64.483,191.163 82.539,180.062 96.654,188.738 					"/>
				</g>
				<g>
					<polygon fill="#F4A353" points="153.084,162.059 146.972,158.509 146.972,149.296 153.084,152.845 					"/>
					<polygon fill="#F4A353" points="139.285,154.023 139.285,163.237 146.972,158.631 146.972,149.296 					"/>
					<g>
						<g>
							<path fill="#3D3D3C" d="M145.264,152.662c-0.029-0.593-0.215-0.938-0.743-0.938c-0.96,0-0.759,1.605-0.754,1.78
								c0,0.025,0,9.083,0,9.083l0.768,1.834l0.74-1.751v-10.014L145.264,152.662z"/>
							<g>
								<path fill="#F8B6AF" d="M143.751,152.845c0.027-0.509,0.177-1.121,0.77-1.121c0.528,0,0.715,0.346,0.743,0.938l0.013-0.007
									v0.188L143.751,152.845z"/>
								<polygon fill="#FEE581" points="144.275,152.845 144.234,162.669 144.539,162.868 144.845,162.669 144.75,152.845 								
									"/>
							</g>
						</g>
						<g>
							<path fill="#3D3D3C" d="M146.793,151.371c-0.027-0.593-0.215-0.938-0.743-0.938c-0.96,0-0.759,1.605-0.754,1.78
								c0,0.025,0,9.083,0,9.083l0.768,1.834l0.74-1.751v-10.014L146.793,151.371z"/>
							<g>
								<path fill="#F8B6AF" d="M145.28,151.552c0.027-0.509,0.177-1.121,0.77-1.121c0.528,0,0.715,0.346,0.743,0.938l0.013-0.007
									v0.188L145.28,151.552z"/>
								<polygon fill="#FEE581" points="145.805,151.552 145.764,161.376 146.068,161.577 146.374,161.376 146.279,151.552 								
									"/>
							</g>
						</g>
						<g>
							<path fill="#3D3D3C" d="M148.351,150.119c-0.029-0.593-0.215-0.938-0.743-0.938c-0.96,0-0.759,1.605-0.754,1.78
								c0,0.027,0,9.083,0,9.083l0.768,1.834l0.74-1.751v-10.014L148.351,150.119z"/>
							<g>
								<path fill="#F8B6AF" d="M146.838,150.3c0.027-0.509,0.177-1.121,0.77-1.121c0.528,0,0.715,0.346,0.743,0.938l0.013-0.007
									v0.19L146.838,150.3z"/>
								<polygon fill="#FEE581" points="147.363,150.3 147.322,160.125 147.626,160.325 147.932,160.125 147.836,150.3 								"/>
							</g>
						</g>
						<g>
							<path fill="#3D3D3C" d="M149.881,148.954c-0.027-0.593-0.215-0.938-0.743-0.938c-0.96,0-0.759,1.605-0.754,1.78
								c0,0.025,0,9.083,0,9.083l0.768,1.834l0.74-1.751v-10.014L149.881,148.954z"/>
							<g>
								<path fill="#F8B6AF" d="M148.367,149.134c0.027-0.509,0.177-1.121,0.77-1.121c0.528,0,0.715,0.346,0.743,0.938l0.013-0.007
									v0.19L148.367,149.134z"/>
								<polygon fill="#FEE581" points="148.892,149.134 148.849,158.959 149.155,159.159 149.462,158.961 149.365,149.134 								
									"/>
							</g>
						</g>
					</g>
					<g>
						<path fill="#3D3D3C" d="M147.237,153.567c-0.027-0.593-0.215-0.938-0.743-0.938c-0.96,0-0.759,1.605-0.754,1.78
							c0,0.025,0,9.083,0,9.083l0.768,1.834l0.74-1.751v-10.014L147.237,153.567z"/>
						<g>
							<path fill="#F8B6AF" d="M145.726,153.749c0.027-0.509,0.177-1.121,0.77-1.121c0.528,0,0.715,0.346,0.743,0.938l0.013-0.007
								v0.188L145.726,153.749z"/>
							<polygon fill="#FEE581" points="146.251,153.749 146.208,163.574 146.514,163.774 146.818,163.574 146.723,153.749 							
								"/>
						</g>
					</g>
					<g>
						<path fill="#3D3D3C" d="M148.767,152.276c-0.029-0.593-0.215-0.938-0.743-0.938c-0.96,0-0.759,1.605-0.754,1.78
							c0,0.025,0,9.083,0,9.083l0.768,1.834l0.74-1.751v-10.014L148.767,152.276z"/>
						<g>
							<path fill="#F8B6AF" d="M147.254,152.456c0.027-0.509,0.177-1.121,0.77-1.121c0.528,0,0.715,0.346,0.743,0.938l0.013-0.007
								v0.19L147.254,152.456z"/>
							<polygon fill="#FEE581" points="147.78,152.456 147.737,162.281 148.043,162.481 148.348,162.281 148.253,152.456 							"/>
						</g>
					</g>
					<g>
						<path fill="#3D3D3C" d="M150.325,151.024c-0.027-0.593-0.215-0.938-0.743-0.938c-0.96,0-0.759,1.605-0.754,1.78
							c0,0.025,0,9.083,0,9.083l0.768,1.834l0.74-1.751v-10.014L150.325,151.024z"/>
						<g>
							<path fill="#F8B6AF" d="M148.812,151.206c0.027-0.509,0.177-1.121,0.77-1.121c0.528,0,0.714,0.346,0.743,0.938l0.013-0.007
								v0.19L148.812,151.206z"/>
							<polygon fill="#FEE581" points="149.336,151.206 149.295,161.029 149.599,161.231 149.906,161.031 149.811,151.205 							
								"/>
						</g>
					</g>
					<g>
						<path fill="#3D3D3C" d="M151.854,149.858c-0.029-0.593-0.215-0.938-0.743-0.938c-0.96,0-0.759,1.605-0.754,1.78
							c0,0.027,0,9.083,0,9.083l0.768,1.834l0.74-1.751v-10.014L151.854,149.858z"/>
						<g>
							<path fill="#F8B6AF" d="M150.341,150.041c0.027-0.509,0.177-1.121,0.77-1.121c0.528,0,0.715,0.346,0.743,0.938l0.013-0.007
								v0.19L150.341,150.041z"/>
							<polygon fill="#FEE581" points="150.866,150.041 150.824,159.865 151.129,160.066 151.435,159.865 151.34,150.039 							"/>
						</g>
					</g>
					<g>
						<path fill="#3D3D3C" d="M142.229,162.533c0.029,0.593,0.215,0.938,0.743,0.938c0.96,0,0.759-1.605,0.754-1.78
							c0-0.027,0-9.083,0-9.083l-0.768-1.834l-0.74,1.751v10.014L142.229,162.533z"/>
						<g>
							<path fill="#F8B6AF" d="M143.742,162.351c-0.027,0.509-0.177,1.121-0.77,1.121c-0.528,0-0.715-0.346-0.743-0.938
								l-0.013,0.007v-0.19L143.742,162.351z"/>
							<polygon fill="#FEE581" points="143.217,162.351 143.258,152.526 142.954,152.326 142.648,152.526 142.743,162.351 							
								"/>
						</g>
					</g>
					<polygon fill="#FCD0A3" points="145.395,157.573 145.395,166.788 153.084,162.18 153.084,152.845 					"/>
					<polygon fill="#F9BD7D" points="145.395,166.788 139.285,163.237 139.285,154.023 145.395,157.573 					"/>
				</g>
			</g>
		</g>
		<g>
			<g>
				<polygon fill="#C4DDA7" points="379.736,180.182 376.847,178.407 376.849,121.234 379.732,122.99 				"/>
				<polygon fill="#A7C06B" points="382.624,178.41 379.738,180.185 379.738,122.96 382.624,121.185 				"/>
				<polygon fill="#C4DDA7" points="423.381,207.069 420.494,205.294 420.496,148.121 423.378,149.878 				"/>
				<polygon fill="#A7C06B" points="426.27,205.298 423.383,207.072 423.383,149.847 426.27,148.073 				"/>
				<polygon fill="#C4DDA7" points="466.903,180.182 464.016,178.407 464.018,121.234 466.9,122.99 				"/>
				<polygon fill="#A7C06B" points="469.792,178.41 466.905,180.185 466.905,122.96 469.792,121.185 				"/>
				<polygon fill="#C4DDA7" points="376.844,121.223 423.36,92.635 469.869,121.228 423.356,149.815 				"/>
				<polygon fill="#B4D17E" points="423.358,151.959 376.833,123.363 376.838,121.216 423.353,149.736 				"/>
				<polygon fill="#B4D17E" points="469.869,123.442 423.351,152.037 423.358,149.815 469.86,121.228 				"/>
			</g>
			<g>
				<polygon fill="#C4DDA7" points="288.061,235.63 285.172,233.856 285.174,176.682 288.057,178.439 				"/>
				<polygon fill="#A7C06B" points="290.949,233.857 288.063,235.632 288.063,178.409 290.949,176.632 				"/>
				<polygon fill="#C4DDA7" points="331.706,262.517 328.82,260.743 328.82,203.57 331.703,205.326 				"/>
				<polygon fill="#A7C06B" points="334.595,260.745 331.708,262.519 331.708,205.294 334.595,203.519 				"/>
				<polygon fill="#C4DDA7" points="375.228,235.63 372.342,233.856 372.343,176.682 375.225,178.439 				"/>
				<polygon fill="#A7C06B" points="378.117,233.857 375.23,235.632 375.23,178.409 378.117,176.632 				"/>
				<polygon fill="#C4DDA7" points="285.169,176.672 331.685,148.081 378.194,176.677 331.681,205.262 				"/>
				<polygon fill="#B4D17E" points="331.683,207.407 285.158,178.81 285.163,176.663 331.678,205.185 				"/>
				<polygon fill="#B4D17E" points="378.194,178.89 331.676,207.486 331.683,205.264 378.185,176.677 				"/>
			</g>
			<g>
				<polygon fill="#C4DDA7" points="196.384,291.079 193.497,289.304 193.499,232.131 196.381,233.888 				"/>
				<polygon fill="#A7C06B" points="199.275,289.306 196.388,291.081 196.388,233.856 199.275,232.081 				"/>
				<polygon fill="#C4DDA7" points="240.032,317.966 237.143,316.191 237.145,259.016 240.028,260.775 				"/>
				<polygon fill="#A7C06B" points="242.92,316.193 240.033,317.968 240.033,260.743 242.92,258.968 				"/>
				<polygon fill="#C4DDA7" points="283.553,291.079 280.667,289.304 280.668,232.131 283.55,233.888 				"/>
				<polygon fill="#A7C06B" points="286.442,289.306 283.555,291.081 283.555,233.856 286.442,232.081 				"/>
				<polygon fill="#C4DDA7" points="193.494,232.12 240.01,203.53 286.519,232.124 240.006,260.71 				"/>
				<polygon fill="#B4D17E" points="240.008,262.856 193.481,234.259 193.489,232.111 240.003,260.633 				"/>
				<polygon fill="#B4D17E" points="286.519,234.339 239.999,262.935 240.008,260.71 286.51,232.124 				"/>
			</g>
			<g>
				<polygon fill="#C4DDA7" points="104.709,346.528 101.823,344.751 101.824,287.578 104.706,289.335 				"/>
				<polygon fill="#A7C06B" points="107.6,344.755 104.711,346.529 104.711,289.304 107.6,287.53 				"/>
				<polygon fill="#C4DDA7" points="148.357,373.413 145.468,371.638 145.47,314.465 148.353,316.222 				"/>
				<polygon fill="#A7C06B" points="151.245,371.642 148.358,373.417 148.358,316.191 151.245,314.417 				"/>
				<polygon fill="#C4DDA7" points="191.879,346.528 188.992,344.751 188.992,287.578 191.875,289.335 				"/>
				<polygon fill="#A7C06B" points="194.767,344.755 191.88,346.529 191.88,289.304 194.767,287.53 				"/>
				<polygon fill="#C4DDA7" points="101.817,287.567 148.335,258.979 194.844,287.573 148.332,316.159 				"/>
				<polygon fill="#B4D17E" points="148.333,318.303 101.807,289.707 101.814,287.56 148.328,316.082 				"/>
				<polygon fill="#B4D17E" points="194.844,289.786 148.324,318.383 148.332,316.159 194.835,287.573 				"/>
			</g>
			<polygon fill="#C4DDA7" points="7.979,404.594 5.091,402.82 5.092,345.647 7.976,347.403 			"/>
			<polygon fill="#A7C06B" points="10.868,402.822 7.981,404.596 7.981,347.371 10.868,345.596 			"/>
			<polygon fill="#C4DDA7" points="51.625,431.482 48.738,429.707 48.738,372.534 51.621,374.29 			"/>
			<polygon fill="#A7C06B" points="54.513,429.709 51.626,431.483 51.626,374.258 54.513,372.484 			"/>
			<polygon fill="#C4DDA7" points="95.147,404.594 92.26,402.82 92.262,345.647 95.143,347.403 			"/>
			<polygon fill="#A7C06B" points="98.035,402.822 95.148,404.596 95.148,347.371 98.035,345.596 			"/>
			<polygon fill="#C4DDA7" points="5.087,345.636 51.603,317.046 98.112,345.641 51.6,374.226 			"/>
			<polygon fill="#B4D17E" points="51.601,376.371 5.076,347.774 5.082,345.627 51.596,374.149 			"/>
			<polygon fill="#B4D17E" points="98.112,347.855 51.594,376.45 51.601,374.228 98.103,345.641 			"/>
			<polygon fill="#FDFBE5" points="45.294,357.768 31.181,349.09 49.237,337.989 63.351,346.667 			"/>
			<polygon fill="#FFFFFF" points="51.777,359.149 37.662,350.471 55.718,339.37 69.834,348.048 			"/>
			<polygon fill="#53453C" points="90.335,429.981 81.259,427.16 88.802,422.999 79.55,383.617 87.634,387.315 93.39,429.048 			"/>
			<polygon fill="#FCD0A3" points="122.707,397.961 98.875,383.475 75.107,398.257 98.597,412.784 			"/>
			<polygon fill="#53453C" points="113.341,397.551 113.216,392.761 104.407,389.018 84.574,381.52 79.55,383.617 93.39,395.128 
				93.39,395.128 70.711,387.31 65.795,389.539 70.976,429.981 63.326,434.186 70.976,436.679 74.5,436.215 75.107,398.257 
				98.454,407.479 			"/>
			<polygon fill="#FEEEBF" points="104.586,372.426 99.323,386.283 84.878,379.355 80.433,381.04 79.198,383.37 79.55,385.809 
				80.023,386.185 81.445,382.654 85.372,384.416 87.718,384.416 99.817,390.614 101.737,390.614 109.262,374.133 107.102,374.133 
							"/>
			<polygon fill="#FCD0A3" points="77.321,446.2 75.104,444.884 75.106,400.819 77.324,402.189 			"/>
			<polygon fill="#F9BD7D" points="79.55,444.85 77.326,446.216 77.326,402.197 79.55,400.83 			"/>
			<polygon fill="#FCD0A3" points="98.574,459.373 96.352,458.007 96.352,413.982 98.571,415.336 			"/>
			<polygon fill="#F4A353" points="100.798,458.057 98.576,459.425 98.576,415.361 100.798,413.994 			"/>
			<polygon fill="#FCD0A3" points="120.483,445.939 118.259,444.572 118.26,400.549 120.479,401.901 			"/>
			<polygon fill="#F4A353" points="122.707,444.587 120.485,445.953 120.485,401.89 122.707,400.522 			"/>
			<polygon fill="#F9BD7D" points="75.107,400.819 75.107,398.257 98.597,412.784 98.597,415.348 			"/>
			<polygon fill="#F9BD7D" points="120.61,399.251 118.86,398.185 118.864,353.797 120.902,355.276 			"/>
			<polygon fill="#F4A353" points="120.755,377.926 122.696,376.71 122.702,397.967 120.615,399.245 			"/>
			<path fill="#E69A8F" d="M83.945,413.982"/>
			<line fill="none" x1="100.381" y1="390.307" x2="100.419" y2="411.731"/>
			<polygon fill="#CDE9F7" points="90.687,398.13 96.559,358.512 99.507,360.972 98.112,400.522 			"/>
			<polygon fill="#CDE9F7" points="96.559,358.512 108.615,352.643 112.218,354.66 99.507,360.972 			"/>
			<polygon fill="#CDE9F7" points="113.216,392.761 112.218,354.66 99.507,360.972 98.112,400.522 			"/>
			<polygon fill="#F4A353" points="122.707,400.524 98.597,415.348 98.597,412.784 122.707,397.961 			"/>
			<line fill="none" x1="96.559" y1="367.466" x2="120.669" y2="352.643"/>
			<polyline fill="#F4A353" points="98.597,391.351 98.597,368.945 122.707,354.122 122.702,376.721 98.597,391.351 			"/>
			<polygon fill="#F9BD7D" points="98.597,412.784 96.567,411.523 96.559,367.466 98.597,368.945 			"/>
			<polyline fill="#F4A353" points="100.419,411.731 98.597,412.784 98.597,391.351 100.381,390.307 			"/>
			<polygon fill="#CDE9F7" points="99.507,360.972 96.559,358.512 86.852,378.101 91.23,381.07 94.81,381.07 			"/>
			<polyline fill="#F9BD7D" points="120.669,352.643 122.707,354.122 98.597,368.945 96.559,367.466 			"/>
			<polygon fill="#FEEEBF" points="88.712,379.364 83.451,393.221 69.004,386.292 64.56,387.978 63.326,390.307 65.054,394.799 
				66.469,394.799 65.795,389.539 69.499,391.351 71.845,391.351 83.945,397.551 85.865,397.551 93.39,381.07 91.23,381.07 			"/>
			<polygon fill="#FEEEBF" points="94.31,333.8 94.853,346.821 97.915,350.917 100.632,350.935 100.381,358.512 102.424,359.523 
				107.512,357.027 107.548,350.586 110.537,346.134 109.84,338.503 109.867,333.902 98.397,331.723 			"/>
			<polygon fill="#3D3D3C" points="94.693,330.441 94.31,333.8 97.578,333.449 100.463,339.37 103.266,338.833 103.266,342.52 
				100.381,343.94 102.424,350.586 107.548,350.586 110.537,346.134 110.537,331.723 100.798,326.582 			"/>
			<polygon fill="#494845" points="184.372,372.654 175.296,369.833 182.84,365.671 173.587,326.29 181.673,329.988 
				187.428,371.721 			"/>
			<polygon fill="#FEEEBF" points="198.623,315.099 193.361,328.956 178.915,322.028 174.47,323.713 173.236,326.043 
				173.587,328.482 174.06,328.858 175.482,325.326 179.409,327.088 181.755,327.088 193.856,333.286 195.775,333.286 
				203.3,316.806 201.141,316.806 			"/>
			<polygon fill="#FCD0A3" points="192.613,402.046 190.389,400.68 190.39,356.656 192.609,358.008 			"/>
			<polygon fill="#F4A353" points="194.837,400.73 192.613,402.098 192.613,358.034 194.837,356.667 			"/>
			<polygon fill="#FCD0A3" points="214.52,388.612 212.297,387.245 212.299,343.222 214.518,344.574 			"/>
			<polygon fill="#F4A353" points="216.744,387.259 214.522,388.626 214.522,344.563 216.744,343.197 			"/>
			<line fill="none" x1="194.42" y1="332.98" x2="194.456" y2="354.404"/>
			<polygon fill="#90CDC6" points="178.632,299.754 188.849,293.473 191.968,295.316 182.371,301.184 			"/>
			<polygon fill="#F4A353" points="216.746,343.197 192.634,358.021 192.634,355.457 216.746,340.634 			"/>
			<line fill="none" x1="190.598" y1="310.138" x2="214.708" y2="295.316"/>
			<polyline fill="#F4A353" points="194.456,354.404 192.634,355.457 192.634,334.026 194.42,332.98 			"/>
			<polygon fill="#FEEEBF" points="175.271,273.644 175.813,286.665 178.876,290.76 181.592,290.778 181.342,298.357 
				183.383,299.367 188.471,296.87 188.508,290.429 191.497,285.979 190.801,278.348 190.827,273.746 179.357,271.568 			"/>
			<polygon fill="#3D3D3C" points="174.587,270.735 174.587,275.959 179.837,275.959 181.424,279.213 184.226,278.678 
				184.226,282.363 181.342,283.783 179.832,296.795 193.481,293.473 191.497,285.979 191.497,271.568 181.759,266.427 			"/>
			<polygon fill="#53453C" points="278.41,315.326 269.335,312.506 276.879,308.344 267.626,268.963 275.71,272.661 
				281.465,314.393 			"/>
			<polygon fill="#FCD0A3" points="310.783,283.307 286.951,268.821 263.183,283.602 286.673,298.129 			"/>
			<polygon fill="#53453C" points="301.417,282.897 301.291,278.106 292.482,274.364 272.649,266.866 267.626,268.963 
				281.465,280.474 281.465,280.474 258.787,272.655 253.871,274.885 259.052,315.326 251.401,319.531 259.052,322.024 
				262.576,321.56 263.183,283.602 286.532,292.825 			"/>
			<polygon fill="#FEEEBF" points="292.661,257.772 287.4,271.629 272.954,264.7 268.509,266.386 267.275,268.715 267.626,271.154 
				268.099,271.531 269.521,267.999 273.448,269.761 275.794,269.761 287.893,275.959 289.812,275.959 297.339,259.478 
				295.178,259.478 			"/>
			<polygon fill="#FCD0A3" points="286.65,344.719 284.427,343.353 284.429,299.329 286.648,300.681 			"/>
			<polygon fill="#F4A353" points="288.874,343.404 286.652,344.771 286.652,300.706 288.874,299.34 			"/>
			<polygon fill="#FCD0A3" points="308.558,331.284 306.336,329.918 306.336,285.895 308.555,287.247 			"/>
			<polygon fill="#F4A353" points="310.783,329.932 308.56,331.299 308.56,287.236 310.783,285.87 			"/>
			<polygon fill="#F9BD7D" points="263.183,286.167 263.183,283.602 286.673,298.129 286.673,300.694 			"/>
			<polygon fill="#F9BD7D" points="308.686,284.596 306.936,283.533 306.94,239.142 308.978,240.621 			"/>
			<polygon fill="#F4A353" points="308.831,263.273 310.774,262.055 310.777,283.312 308.691,284.593 			"/>
			<line fill="none" x1="288.457" y1="275.653" x2="288.494" y2="297.078"/>
			<polygon fill="#EC6960" points="278.765,283.475 284.635,243.857 287.583,246.318 286.188,285.87 			"/>
			<polygon fill="#EC6960" points="284.635,243.857 296.691,237.989 300.294,240.005 287.583,246.318 			"/>
			<polygon fill="#EC6960" points="301.291,278.106 300.294,240.005 287.583,246.318 286.188,285.87 			"/>
			<polygon fill="#F4A353" points="310.783,285.871 286.673,300.694 286.673,298.129 310.783,283.307 			"/>
			<line fill="none" x1="284.635" y1="252.811" x2="308.747" y2="237.989"/>
			<polyline fill="#F4A353" points="286.673,276.699 286.673,254.29 310.783,239.468 310.777,262.066 286.673,276.699 			"/>
			<polyline fill="#F4A353" points="288.494,297.078 286.673,298.129 286.673,276.699 288.457,275.653 			"/>
			<polygon fill="#EC6960" points="287.583,246.318 284.635,243.857 274.929,263.447 279.306,266.416 282.885,266.416 			"/>
			<polyline fill="#F9BD7D" points="308.747,237.989 310.783,239.468 286.673,254.29 284.635,252.811 			"/>
			<polygon fill="#FEEEBF" points="276.79,264.709 271.526,278.567 257.082,271.638 252.637,273.323 251.401,275.653 
				253.129,280.144 254.544,280.144 253.871,274.885 257.574,276.699 259.92,276.699 272.021,282.897 273.94,282.897 
				281.465,266.416 279.306,266.416 			"/>
			<polygon fill="#FEEEBF" points="282.386,219.146 282.928,232.167 285.992,236.262 288.707,236.28 288.457,243.857 290.5,244.869 
				295.588,242.373 295.625,235.931 298.614,231.479 297.916,223.849 297.943,219.248 286.472,217.069 			"/>
			<polygon fill="#C89D66" points="282.769,215.786 282.386,219.146 285.654,218.797 288.539,224.715 291.342,224.18 
				291.342,227.865 288.457,229.285 290.5,235.931 295.625,235.931 298.614,231.479 298.614,217.069 288.874,211.929 			"/>
			<polygon fill="#53453C" points="371.102,259.718 362.026,256.898 369.571,252.736 360.318,213.354 368.402,217.052 
				374.157,258.785 			"/>
			<polygon fill="#FEEEBF" points="385.354,202.164 380.092,216.021 365.646,209.092 361.201,210.777 359.967,213.107 
				360.318,215.546 360.791,215.923 362.213,212.391 366.14,214.151 368.486,214.151 380.586,220.351 382.504,220.351 
				390.031,203.87 387.87,203.87 			"/>
			<polygon fill="#FCD0A3" points="379.342,289.111 377.119,287.744 377.121,243.719 379.34,245.073 			"/>
			<polygon fill="#F4A353" points="381.566,287.795 379.344,289.161 379.344,245.098 381.566,243.732 			"/>
			<polygon fill="#FCD0A3" points="401.25,275.676 399.028,274.31 399.028,230.287 401.249,231.639 			"/>
			<polygon fill="#F4A353" points="403.475,274.324 401.252,275.691 401.252,231.628 403.475,230.26 			"/>
			<line fill="none" x1="381.149" y1="220.045" x2="381.186" y2="241.468"/>
			<polygon fill="#9E97CA" points="371.457,227.867 377.327,188.249 380.277,190.708 378.88,230.26 			"/>
			<polygon fill="#CDE9F7" points="377.327,188.249 389.383,182.381 392.988,184.397 380.277,190.708 			"/>
			<polygon fill="#F4A353" points="403.475,230.261 379.365,245.084 379.365,242.521 403.475,227.699 			"/>
			<line fill="none" x1="377.327" y1="197.203" x2="401.439" y2="182.381"/>
			<polyline fill="#F4A353" points="381.186,241.468 379.365,242.521 379.365,221.089 381.149,220.045 			"/>
			<polygon fill="#9E97CA" points="380.277,190.708 377.327,188.249 367.621,207.839 371.998,210.806 375.578,210.806 			"/>
			<polygon fill="#FEEEBF" points="369.482,209.1 364.218,222.959 349.774,216.03 345.329,217.715 344.093,220.045 345.823,224.536 
				347.236,224.536 346.563,219.277 350.268,221.089 352.612,221.089 364.713,227.289 366.632,227.289 374.157,210.806 
				371.998,210.806 			"/>
			<polygon fill="#FEEEBF" points="375.078,163.538 375.62,176.557 378.685,180.654 381.401,180.672 381.149,188.249 
				383.192,189.261 388.28,186.765 388.317,180.321 391.306,175.871 390.609,168.241 390.635,163.64 379.164,161.461 			"/>
			<polygon fill="#523F2E" points="375.461,160.178 375.078,163.538 378.346,163.187 381.231,169.107 384.035,168.57 
				384.035,172.257 381.149,173.677 383.192,180.321 388.317,180.321 391.306,175.871 391.306,161.461 381.566,156.319 			"/>
			<polygon fill="#53453C" points="465.528,201.519 456.454,198.699 463.997,194.537 454.745,155.155 462.829,158.853 
				468.585,200.588 			"/>
			<polygon fill="#FCD0A3" points="497.902,169.499 474.07,155.014 450.302,169.795 473.791,184.322 			"/>
			<polygon fill="#53453C" points="488.536,169.089 488.411,164.299 479.602,160.556 459.769,153.058 454.745,155.155 
				468.585,166.666 468.585,166.666 445.904,158.848 440.99,161.079 446.171,201.519 438.521,205.724 446.171,208.217 
				449.694,207.753 450.302,169.795 473.649,179.018 			"/>
			<polygon fill="#FEEEBF" points="479.779,143.964 474.518,157.822 460.073,150.893 455.628,152.578 454.393,154.908 
				454.745,157.347 455.216,157.723 456.638,154.192 460.565,155.954 462.911,155.954 475.012,162.152 476.932,162.152 
				484.457,145.671 482.297,145.671 			"/>
			<polygon fill="#FCD0A3" points="473.769,230.912 471.545,229.545 471.547,185.522 473.766,186.874 			"/>
			<polygon fill="#F4A353" points="475.993,229.597 473.769,230.963 473.769,186.899 475.993,185.533 			"/>
			<polygon fill="#FCD0A3" points="495.676,217.477 493.454,216.111 493.455,172.087 495.674,173.439 			"/>
			<polygon fill="#F4A353" points="497.902,216.125 495.678,217.491 495.678,173.429 497.902,172.062 			"/>
			<polygon fill="#F9BD7D" points="450.302,172.359 450.302,169.795 473.791,184.322 473.791,186.886 			"/>
			<polygon fill="#F9BD7D" points="495.805,170.789 494.054,169.725 494.059,125.335 496.095,126.814 			"/>
			<polygon fill="#F4A353" points="495.95,149.466 497.891,148.248 497.895,169.505 495.809,170.785 			"/>
			<line fill="none" x1="475.576" y1="161.846" x2="475.614" y2="183.269"/>
			<polygon fill="#F8B6AF" points="465.882,169.668 471.754,130.05 474.702,132.51 473.307,172.062 			"/>
			<polygon fill="#F8B6AF" points="471.754,130.05 483.808,124.181 487.413,126.198 474.702,132.51 			"/>
			<polygon fill="#F8B6AF" points="488.411,164.299 487.413,126.198 474.702,132.51 473.307,172.062 			"/>
			<polygon fill="#F4A353" points="497.902,172.064 473.791,186.886 473.791,184.322 497.902,169.499 			"/>
			<line fill="none" x1="471.754" y1="139.004" x2="495.864" y2="124.181"/>
			<polyline fill="#F4A353" points="473.791,162.891 473.791,140.483 497.902,125.661 497.895,148.259 473.791,162.891 			"/>
			<polyline fill="#F4A353" points="475.614,183.269 473.791,184.322 473.791,162.891 475.576,161.846 			"/>
			<polygon fill="#F8B6AF" points="474.702,132.51 471.754,130.05 465.46,142.752 469.425,145.766 471.606,145.755 			"/>
			<polyline fill="#F9BD7D" points="495.864,124.181 497.902,125.661 473.791,140.483 471.754,139.004 			"/>
			<polygon fill="#FEEEBF" points="466.901,143.848 458.646,164.759 444.199,157.831 439.755,159.516 438.521,161.846 
				440.249,166.337 441.664,166.337 440.99,161.079 444.694,162.891 447.04,162.891 459.14,169.089 461.058,169.089 471.09,145.766 
				469.425,145.766 			"/>
			<polygon fill="#FEEEBF" points="469.505,105.339 470.048,118.359 473.11,122.455 475.827,122.473 475.576,130.05 
				477.619,131.062 482.705,128.565 482.743,122.124 485.732,117.672 485.035,110.043 485.062,105.441 473.592,103.261 			"/>
			<polygon fill="#FEE581" points="469.888,101.979 469.505,105.339 472.773,104.988 475.658,110.908 478.461,110.373 
				478.461,114.058 475.576,115.478 474.102,121.234 474.702,132.51 487.413,126.198 485.732,117.672 485.732,103.261 
				475.993,98.122 			"/>
			<polygon fill="#FEEEBF" points="160.325,268.821 157.656,264.709 158.991,256.733 162.363,255.136 164.214,257.772 
				164.214,262.936 166.066,261.978 166.066,260.086 167.178,260.71 166.437,264.709 163.229,268.135 165.788,289.865 
				178.632,299.754 182.371,301.184 183.383,307.375 178.632,307.375 161.992,291.999 			"/>
			<polygon fill="#F9BD7D" points="286.673,298.129 284.642,296.869 284.635,252.811 286.673,254.29 			"/>
			<polygon fill="#F9BD7D" points="473.791,184.322 471.76,183.061 471.754,139.004 473.791,140.483 			"/>
			<g>
				<polygon fill="#C4DDA7" points="684.93,357.82 682.041,356.044 682.043,298.871 684.926,300.629 				"/>
				<polygon fill="#A7C06B" points="687.819,356.048 684.932,357.822 684.932,300.597 687.819,298.822 				"/>
				<polygon fill="#C4DDA7" points="728.575,384.708 725.687,382.931 725.689,325.758 728.572,327.515 				"/>
				<polygon fill="#A7C06B" points="731.464,382.935 728.577,384.709 728.577,327.484 731.464,325.71 				"/>
				<polygon fill="#C4DDA7" points="772.097,357.82 769.211,356.044 769.212,298.871 772.094,300.629 				"/>
				<polygon fill="#A7C06B" points="774.986,356.048 772.099,357.822 772.099,300.597 774.986,298.822 				"/>
				<polygon fill="#C4DDA7" points="682.038,298.86 728.554,270.272 775.063,298.865 728.55,327.452 				"/>
				<polygon fill="#B4D17E" points="728.552,329.596 682.027,301 682.032,298.853 728.547,327.375 				"/>
				<polygon fill="#B4D17E" points="775.063,301.079 728.545,329.676 728.552,327.452 775.054,298.865 				"/>
				<polygon fill="#FDFBE5" points="722.245,310.995 708.132,302.316 726.188,291.215 740.302,299.891 				"/>
				<polygon fill="#FFFFFF" points="728.728,312.375 714.613,303.697 732.671,292.596 746.784,301.272 				"/>
				<polygon fill="#53453C" points="767.286,383.207 758.21,380.386 765.753,376.223 756.501,336.843 764.585,340.541 
					770.341,382.274 				"/>
				<polygon fill="#FCD0A3" points="799.658,351.186 775.826,336.702 752.058,351.481 775.548,366.01 				"/>
				<polygon fill="#53453C" points="790.292,350.777 790.167,345.985 781.358,342.242 761.524,334.746 756.501,336.843 
					770.341,348.352 770.341,348.352 747.662,340.534 742.746,342.765 747.927,383.207 740.277,387.41 747.927,389.903 
					751.451,389.439 752.058,351.481 775.405,360.705 				"/>
				<polygon fill="#FEEEBF" points="781.537,325.65 776.274,339.509 761.829,332.581 757.384,334.266 756.148,336.596 
					756.501,339.035 756.974,339.409 758.396,335.88 762.323,337.64 764.669,337.64 776.768,343.84 778.688,343.84 786.214,327.357 
					784.053,327.357 				"/>
				<polygon fill="#FCD0A3" points="754.272,399.424 752.055,398.108 752.056,354.044 754.275,355.415 				"/>
				<polygon fill="#F9BD7D" points="756.501,398.076 754.279,399.442 754.279,355.423 756.501,354.056 				"/>
				<polygon fill="#FCD0A3" points="775.525,412.598 773.303,411.231 773.303,367.208 775.521,368.562 				"/>
				<polygon fill="#F4A353" points="777.749,411.283 775.527,412.65 775.527,368.587 777.749,367.22 				"/>
				<polygon fill="#FCD0A3" points="797.434,399.165 795.21,397.798 795.211,353.773 797.43,355.127 				"/>
				<polygon fill="#F4A353" points="799.658,397.813 797.435,399.179 797.435,355.115 799.658,353.748 				"/>
				<polygon fill="#F9BD7D" points="752.058,354.045 752.058,351.481 775.548,366.01 775.548,368.572 				"/>
				<polygon fill="#F9BD7D" points="797.561,352.477 795.811,351.411 795.815,307.023 797.853,308.502 				"/>
				<polygon fill="#F4A353" points="797.706,331.152 799.647,329.934 799.652,351.193 797.566,352.471 				"/>
				<path fill="#E69A8F" d="M760.896,367.208"/>
				<line fill="none" x1="777.332" y1="343.532" x2="777.37" y2="364.957"/>
				<polygon fill="#CDE9F7" points="767.64,351.356 773.51,311.738 776.458,314.196 775.063,353.748 				"/>
				<polygon fill="#CDE9F7" points="773.51,311.738 785.566,305.869 789.169,307.886 776.458,314.196 				"/>
				<polygon fill="#CDE9F7" points="790.167,345.985 789.169,307.886 776.458,314.196 775.063,353.748 				"/>
				<polygon fill="#F4A353" points="799.658,353.75 775.548,368.572 775.548,366.01 799.658,351.186 				"/>
				<line fill="none" x1="773.51" y1="320.692" x2="797.62" y2="305.869"/>
				<polyline fill="#F4A353" points="775.548,344.577 775.548,322.171 799.658,307.348 799.652,329.945 775.548,344.577 				"/>
				<polygon fill="#F9BD7D" points="775.548,366.01 773.517,364.749 773.51,320.692 775.548,322.171 				"/>
				<polyline fill="#F4A353" points="777.37,364.957 775.548,366.01 775.548,344.577 777.332,343.532 				"/>
				<polygon fill="#CDE9F7" points="776.458,314.196 773.51,311.738 763.802,331.327 768.181,334.295 771.761,334.295 				"/>
				<polyline fill="#F9BD7D" points="797.62,305.869 799.658,307.348 775.548,322.171 773.51,320.692 				"/>
				<polygon fill="#FEEEBF" points="765.663,332.588 760.402,346.447 745.957,339.517 741.512,341.204 740.277,343.532 
					742.005,348.025 743.419,348.025 742.746,342.765 746.449,344.577 748.795,344.577 760.896,350.777 762.816,350.777 
					770.341,334.295 768.181,334.295 				"/>
				<polygon fill="#FEEEBF" points="771.261,287.026 771.804,300.046 774.866,304.141 777.583,304.159 777.332,311.738 
					779.375,312.75 784.463,310.253 784.499,303.81 787.488,299.36 786.791,291.729 786.818,287.127 775.348,284.949 				"/>
				<polygon fill="#3D3D3C" points="771.644,283.667 771.261,287.026 774.529,286.675 777.414,292.596 780.217,292.059 
					780.217,295.744 777.332,297.164 779.375,303.81 784.499,303.81 787.488,299.36 787.488,284.949 777.749,279.808 				"/>
			</g>
			<g>
				<polygon fill="#C4DDA7" points="527.941,270.386 525.054,268.612 525.056,211.438 527.937,213.195 				"/>
				<polygon fill="#A7C06B" points="530.83,268.613 527.943,270.388 527.943,213.163 530.83,211.388 				"/>
				<polygon fill="#C4DDA7" points="571.586,297.273 568.7,295.499 568.701,238.325 571.583,240.082 				"/>
				<polygon fill="#A7C06B" points="574.477,295.5 571.59,297.275 571.59,240.05 574.477,238.275 				"/>
				<polygon fill="#C4DDA7" points="615.11,270.386 612.222,268.612 612.223,211.438 615.107,213.195 				"/>
				<polygon fill="#A7C06B" points="617.999,268.613 615.112,270.388 615.112,213.163 617.999,211.388 				"/>
				<polygon fill="#C4DDA7" points="525.049,211.428 571.567,182.837 618.076,211.431 571.563,240.018 				"/>
				<polygon fill="#B4D17E" points="571.563,242.163 525.038,213.566 525.045,211.419 571.56,239.941 				"/>
				<polygon fill="#B4D17E" points="618.076,213.646 571.556,242.242 571.563,240.018 618.067,211.431 				"/>
			</g>
			<g>
				<polygon fill="#C4DDA7" points="436.266,325.835 433.379,324.058 433.381,266.885 436.263,268.644 				"/>
				<polygon fill="#A7C06B" points="439.155,324.062 436.268,325.837 436.268,268.612 439.155,266.837 				"/>
				<polygon fill="#C4DDA7" points="479.912,352.72 477.025,350.946 477.027,293.772 479.908,295.529 				"/>
				<polygon fill="#A7C06B" points="482.8,350.949 479.913,352.724 479.913,295.499 482.8,293.724 				"/>
				<polygon fill="#C4DDA7" points="523.433,325.835 520.547,324.058 520.549,266.885 523.43,268.644 				"/>
				<polygon fill="#A7C06B" points="526.324,324.062 523.437,325.837 523.437,268.612 526.324,266.837 				"/>
				<polygon fill="#C4DDA7" points="433.374,266.874 479.892,238.286 526.401,266.88 479.888,295.466 				"/>
				<polygon fill="#B4D17E" points="479.888,297.61 433.363,269.014 433.37,266.867 479.883,295.389 				"/>
				<polygon fill="#B4D17E" points="526.401,269.093 479.881,297.691 479.888,295.466 526.392,266.88 				"/>
			</g>
			<g>
				<polygon fill="#C4DDA7" points="344.591,381.282 341.704,379.507 341.706,322.334 344.588,324.091 				"/>
				<polygon fill="#A7C06B" points="347.48,379.509 344.593,381.285 344.593,324.06 347.48,322.285 				"/>
				<polygon fill="#C4DDA7" points="388.237,408.169 385.35,406.394 385.352,349.221 388.233,350.978 				"/>
				<polygon fill="#A7C06B" points="391.125,406.396 388.238,408.171 388.238,350.947 391.125,349.171 				"/>
				<polygon fill="#C4DDA7" points="431.759,381.282 428.872,379.507 428.874,322.334 431.755,324.091 				"/>
				<polygon fill="#A7C06B" points="434.649,379.509 431.76,381.285 431.76,324.06 434.649,322.285 				"/>
				<polygon fill="#C4DDA7" points="341.699,322.323 388.217,293.735 434.726,322.329 388.212,350.915 				"/>
				<polygon fill="#B4D17E" points="388.213,353.059 341.688,324.463 341.694,322.316 388.208,350.836 				"/>
				<polygon fill="#B4D17E" points="434.726,324.542 388.206,353.137 388.213,350.915 434.717,322.329 				"/>
			</g>
			<g>
				<polygon fill="#C4DDA7" points="252.916,436.73 250.03,434.956 250.031,377.783 252.913,379.539 				"/>
				<polygon fill="#A7C06B" points="255.805,434.958 252.918,436.732 252.918,379.507 255.805,377.732 				"/>
				<polygon fill="#C4DDA7" points="296.562,463.618 293.675,461.843 293.677,404.67 296.558,406.426 				"/>
				<polygon fill="#A7C06B" points="299.45,461.845 296.564,463.619 296.564,406.394 299.45,404.62 				"/>
				<polygon fill="#C4DDA7" points="340.084,436.73 337.197,434.956 337.199,377.783 340.08,379.539 				"/>
				<polygon fill="#A7C06B" points="342.972,434.958 340.086,436.732 340.086,379.507 342.972,377.732 				"/>
				<polygon fill="#C4DDA7" points="250.024,377.772 296.542,349.182 343.051,377.777 296.537,406.362 				"/>
				<polygon fill="#B4D17E" points="296.539,408.507 250.014,379.91 250.019,377.763 296.533,406.285 				"/>
				<polygon fill="#B4D17E" points="343.051,379.991 296.531,408.586 296.539,406.364 343.042,377.777 				"/>
			</g>
			<polygon fill="#C4DDA7" points="156.184,494.797 153.298,493.023 153.299,435.849 156.181,437.606 			"/>
			<polygon fill="#A7C06B" points="159.073,493.026 156.186,494.801 156.186,437.576 159.073,435.801 			"/>
			<polygon fill="#C4DDA7" points="199.83,521.684 196.943,519.91 196.945,462.737 199.826,464.493 			"/>
			<polygon fill="#A7C06B" points="202.718,519.911 199.832,521.688 199.832,464.463 202.718,462.688 			"/>
			<polygon fill="#C4DDA7" points="243.352,494.797 240.465,493.023 240.467,435.849 243.348,437.606 			"/>
			<polygon fill="#A7C06B" points="246.242,493.026 243.355,494.801 243.355,437.576 246.242,435.801 			"/>
			<polygon fill="#C4DDA7" points="153.292,435.839 199.81,407.25 246.319,435.844 199.807,464.431 			"/>
			<polygon fill="#B4D17E" points="199.807,466.574 153.281,437.979 153.289,435.831 199.801,464.354 			"/>
			<polygon fill="#B4D17E" points="246.319,438.057 199.799,466.655 199.807,464.431 246.31,435.844 			"/>
			<polygon fill="#FDFBE5" points="193.501,447.971 179.386,439.295 197.444,428.194 211.558,436.87 			"/>
			<polygon fill="#FFFFFF" points="199.982,449.352 185.869,440.676 203.925,429.574 218.04,438.251 			"/>
			<polygon fill="#53453C" points="238.54,520.186 229.464,517.365 237.009,513.201 227.756,473.822 235.841,477.518 
				241.597,519.253 			"/>
			<polygon fill="#FCD0A3" points="270.914,488.164 247.082,473.68 223.314,488.46 246.803,502.988 			"/>
			<polygon fill="#53453C" points="261.546,487.754 261.423,482.964 252.614,479.221 232.781,471.723 227.757,473.822 
				241.597,485.331 241.597,485.331 218.916,477.512 214.002,479.744 219.181,520.186 211.533,524.389 219.181,526.881 
				222.705,526.418 223.314,488.46 246.661,497.682 			"/>
			<polygon fill="#FEEEBF" points="252.791,462.629 247.53,476.488 233.083,469.558 228.638,471.245 227.405,473.573 
				227.756,476.014 228.228,476.388 229.65,472.856 233.577,474.618 235.923,474.618 248.024,480.816 249.942,480.816 
				257.469,464.336 255.309,464.336 			"/>
			<g>
				<polygon fill="#FCD0A3" points="225.528,536.403 223.309,535.087 223.313,491.022 225.53,492.392 				"/>
				<polygon fill="#F9BD7D" points="227.757,535.053 225.533,536.421 225.533,492.401 227.757,491.035 				"/>
			</g>
			<g>
				<polygon fill="#FCD0A3" points="319.785,478.539 317.568,477.222 317.57,433.158 319.789,434.53 				"/>
				<polygon fill="#F9BD7D" points="322.015,477.188 319.792,478.556 319.792,434.537 322.015,433.17 				"/>
			</g>
			<polygon fill="#FCD0A3" points="246.781,549.576 244.557,548.21 244.559,504.186 246.778,505.54 			"/>
			<polygon fill="#F4A353" points="249.005,548.262 246.781,549.628 246.781,505.565 249.005,504.197 			"/>
			<polygon fill="#FCD0A3" points="268.688,536.143 266.466,534.775 266.467,490.752 268.686,492.106 			"/>
			<polygon fill="#F4A353" points="270.912,534.789 268.69,536.158 268.69,492.093 270.912,490.727 			"/>
			<polygon fill="#F9BD7D" points="223.314,491.024 223.314,488.46 246.803,502.988 246.803,505.551 			"/>
			<polygon fill="#F9BD7D" points="268.817,489.455 267.065,488.39 267.071,444.001 269.107,445.48 			"/>
			<polygon fill="#F4A353" points="268.96,468.13 270.903,466.913 270.907,488.169 268.82,489.45 			"/>
			<path fill="#E69A8F" d="M232.15,504.186"/>
			<line fill="none" x1="248.588" y1="480.51" x2="248.624" y2="501.935"/>
			<polygon fill="#CDE9F7" points="238.894,488.334 244.766,448.716 247.714,451.175 246.319,490.727 			"/>
			<polygon fill="#CDE9F7" points="244.766,448.716 256.82,442.846 260.425,444.864 247.714,451.175 			"/>
			<polygon fill="#CDE9F7" points="261.423,482.964 260.425,444.864 247.714,451.175 246.319,490.727 			"/>
			<polygon fill="#F4A353" points="270.914,490.729 246.803,505.551 246.803,502.988 270.914,488.164 			"/>
			<line fill="none" x1="244.766" y1="457.67" x2="268.876" y2="442.846"/>
			<polyline fill="#F4A353" points="246.803,481.556 246.803,459.15 270.914,444.325 270.907,466.923 246.803,481.556 			"/>
			<polygon fill="#F9BD7D" points="246.803,502.988 244.772,501.726 244.766,457.67 246.803,459.15 			"/>
			<polyline fill="#F4A353" points="248.624,501.935 246.803,502.988 246.803,481.556 248.588,480.51 			"/>
			<polygon fill="#CDE9F7" points="247.714,451.175 244.766,448.716 235.058,468.304 239.435,471.273 243.017,471.273 			"/>
			<polyline fill="#F9BD7D" points="268.876,442.846 270.914,444.325 246.803,459.15 244.766,457.67 			"/>
			<polygon fill="#FEEEBF" points="236.919,469.567 231.658,483.426 217.211,476.495 212.767,478.18 211.533,480.51 
				213.261,485.002 214.676,485.002 214.002,479.744 217.706,481.556 220.052,481.556 232.15,487.754 234.07,487.754 
				241.597,471.273 239.435,471.273 			"/>
			<polygon fill="#FEEEBF" points="242.517,424.005 243.06,437.024 246.122,441.12 248.839,441.138 248.588,448.716 250.63,449.728 
				255.717,447.23 255.755,440.788 258.744,436.338 258.047,428.708 258.074,424.105 246.604,421.928 			"/>
			<polygon fill="#3D3D3C" points="242.9,420.645 242.517,424.005 245.784,423.654 248.67,429.574 251.473,429.037 251.473,432.723 
				248.588,434.143 250.63,440.788 255.755,440.788 258.744,436.338 258.744,421.928 249.005,416.786 			"/>
			<polygon fill="#494845" points="332.578,462.858 323.503,460.038 331.047,455.874 321.794,416.494 329.878,420.192 
				335.634,461.925 			"/>
			<polygon fill="#FCD0A3" points="364.951,430.837 341.119,416.353 317.351,431.132 340.841,445.661 			"/>
			<polygon fill="#494845" points="355.585,430.429 354.075,426.027 346.652,421.894 326.818,414.396 321.794,416.494 
				335.634,428.004 335.634,428.004 312.955,420.185 308.039,422.417 313.22,462.858 305.57,467.061 313.22,469.554 316.744,469.09 
				317.351,431.132 340.7,440.357 			"/>
			<polygon fill="#FEEEBF" points="346.83,405.302 341.568,419.161 327.122,412.23 322.677,413.917 321.443,416.245 
				321.794,418.686 322.267,419.061 323.689,415.531 327.616,417.291 329.962,417.291 342.061,423.491 343.981,423.491 
				351.507,407.008 349.346,407.008 			"/>
			<polygon fill="#FCD0A3" points="340.818,492.249 338.596,490.883 338.596,446.859 340.816,448.213 			"/>
			<polygon fill="#F4A353" points="343.042,490.934 340.82,492.301 340.82,448.238 343.042,446.872 			"/>
			<polygon fill="#FCD0A3" points="362.727,478.816 360.504,477.45 360.504,433.425 362.723,434.778 			"/>
			<polygon fill="#F4A353" points="364.951,477.462 362.728,478.83 362.728,434.766 364.951,433.4 			"/>
			<polygon fill="#F9BD7D" points="317.351,433.697 317.351,431.132 340.841,445.661 340.841,448.224 			"/>
			<polygon fill="#F9BD7D" points="362.854,432.128 361.104,431.063 361.108,386.674 363.146,388.153 			"/>
			<polygon fill="#F4A353" points="362.999,410.803 364.942,409.585 364.945,430.842 362.859,432.123 			"/>
			<line fill="none" x1="342.625" y1="423.183" x2="342.663" y2="444.608"/>
			<polygon fill="#F8B6AF" points="331.404,436.49 327.665,390.182 331.404,391.147 341.525,440.117 			"/>
			<polygon fill="#F8B6AF" points="326.837,389.956 337.054,383.676 340.175,385.521 330.578,391.389 			"/>
			<polygon fill="#F8B6AF" points="355.585,430.429 340.175,385.521 330.578,391.389 340.7,440.357 			"/>
			<polygon fill="#F4A353" points="364.951,433.401 340.841,448.224 340.841,445.661 364.951,430.837 			"/>
			<line fill="none" x1="338.803" y1="400.343" x2="362.915" y2="385.521"/>
			<polyline fill="#F4A353" points="340.841,424.229 340.841,401.822 364.951,386.998 364.945,409.596 340.841,424.229 			"/>
			<polygon fill="#F9BD7D" points="340.841,445.661 338.811,444.399 338.803,400.343 340.841,401.822 			"/>
			<polyline fill="#F4A353" points="342.663,444.608 340.841,445.661 340.841,424.229 342.625,423.183 			"/>
			<polyline fill="#F9BD7D" points="362.915,385.521 364.951,386.998 340.841,401.822 338.803,400.343 			"/>
			<polygon fill="#FEEEBF" points="323.476,363.848 324.018,376.867 327.083,380.965 329.797,380.983 329.547,388.56 
				331.59,389.571 336.678,387.075 336.715,380.633 339.704,376.182 339.007,368.551 339.033,363.95 327.562,361.771 			"/>
			<polygon fill="#FEE581" points="322.792,360.94 322.792,366.164 328.044,366.164 329.629,369.418 332.433,368.88 
				332.433,372.568 329.547,373.988 328.039,386.998 341.688,383.676 339.704,376.182 339.704,361.771 329.964,356.63 			"/>
			<polygon fill="#53453C" points="426.617,405.531 417.541,402.711 425.084,398.547 415.833,359.167 423.917,362.865 
				429.672,404.598 			"/>
			<polygon fill="#FCD0A3" points="458.99,373.51 435.158,359.026 411.39,373.805 434.878,388.334 			"/>
			<polygon fill="#53453C" points="449.624,373.1 449.498,368.311 440.689,364.566 420.856,357.068 415.833,359.167 
				429.672,370.677 429.672,370.677 406.994,362.858 402.078,365.089 407.259,405.531 399.608,409.736 407.259,412.227 
				410.781,411.763 411.39,373.805 434.737,383.03 			"/>
			<polygon fill="#FEEEBF" points="440.868,347.975 435.605,361.834 421.161,354.905 416.716,356.59 415.48,358.918 
				415.833,361.359 416.304,361.733 417.726,358.204 421.655,359.964 423.999,359.964 436.1,366.164 438.019,366.164 
				445.544,349.681 443.385,349.681 			"/>
			<polygon fill="#FCD0A3" points="434.857,434.924 432.633,433.555 432.634,389.532 434.853,390.886 			"/>
			<polygon fill="#F4A353" points="437.081,433.607 434.857,434.974 434.857,390.911 437.081,389.545 			"/>
			<polygon fill="#FCD0A3" points="456.764,421.489 454.541,420.122 454.543,376.097 456.762,377.451 			"/>
			<polygon fill="#F4A353" points="458.99,420.137 456.765,421.503 456.765,377.439 458.99,376.072 			"/>
			<polygon fill="#F9BD7D" points="456.893,374.801 455.141,373.735 455.147,329.347 457.184,330.826 			"/>
			<polygon fill="#F4A353" points="457.038,353.476 458.979,352.258 458.984,373.517 456.896,374.796 			"/>
			<line fill="none" x1="436.664" y1="365.856" x2="436.701" y2="387.281"/>
			<polygon fill="#EC6960" points="426.97,373.68 432.842,334.062 435.79,336.521 434.395,376.072 			"/>
			<polygon fill="#EC6960" points="432.842,334.062 444.898,328.193 448.501,330.21 435.79,336.521 			"/>
			<polygon fill="#EC6960" points="449.498,368.311 448.501,330.21 435.79,336.521 434.395,376.072 			"/>
			<polygon fill="#F4A353" points="458.99,376.074 434.878,390.897 434.878,388.334 458.99,373.51 			"/>
			<line fill="none" x1="432.842" y1="343.016" x2="456.952" y2="328.193"/>
			<polyline fill="#F4A353" points="434.878,366.902 434.878,344.495 458.99,329.673 458.984,352.269 434.878,366.902 			"/>
			<polyline fill="#F4A353" points="436.701,387.281 434.878,388.334 434.878,366.902 436.664,365.856 			"/>
			<polygon fill="#EC6960" points="435.79,336.521 432.842,334.062 423.134,353.65 427.511,356.619 431.092,356.619 			"/>
			<polyline fill="#F9BD7D" points="456.952,328.193 458.99,329.673 434.878,344.495 432.842,343.016 			"/>
			<polygon fill="#FEEEBF" points="424.995,354.912 419.733,368.771 405.287,361.843 400.842,363.528 399.608,365.856 
				401.336,370.349 402.751,370.349 402.078,365.089 405.781,366.902 408.127,366.902 420.228,373.101 422.146,373.101 
				429.672,356.619 427.511,356.619 			"/>
			<polygon fill="#FEEEBF" points="430.593,309.351 431.135,322.37 434.198,326.465 436.914,326.483 436.664,334.062 
				438.707,335.074 443.795,332.577 443.83,326.134 446.819,321.684 446.123,314.053 446.15,309.451 434.679,307.273 			"/>
			<polygon fill="#FCD0A3" points="430.976,305.991 430.593,309.351 433.861,309 436.746,314.92 439.549,314.383 439.549,318.07 
				436.664,319.488 438.707,326.134 443.83,326.134 446.819,321.684 446.819,307.273 437.081,302.132 			"/>
			<polygon fill="#53453C" points="519.309,349.923 510.233,347.102 517.776,342.939 508.525,303.559 516.609,307.255 
				522.364,348.99 			"/>
			<polygon fill="#FCD0A3" points="551.682,317.902 527.85,303.416 504.082,318.197 527.572,332.724 			"/>
			<polygon fill="#53453C" points="542.316,317.492 542.19,312.701 533.381,308.958 513.548,301.46 508.525,303.559 
				522.364,315.069 522.364,315.069 499.686,307.25 494.77,309.481 499.951,349.923 492.3,354.126 499.951,356.619 503.473,356.155 
				504.082,318.197 527.429,327.42 			"/>
			<polygon fill="#FEEEBF" points="533.56,292.367 528.297,306.224 513.853,299.295 509.408,300.98 508.172,303.31 508.525,305.749 
				508.998,306.125 510.42,302.594 514.347,304.356 516.691,304.356 528.792,310.554 530.711,310.554 538.236,294.073 
				536.077,294.073 			"/>
			<polygon fill="#FCD0A3" points="527.549,379.314 525.325,377.947 525.326,333.924 527.545,335.276 			"/>
			<polygon fill="#F4A353" points="529.773,377.999 527.551,379.366 527.551,335.303 529.773,333.935 			"/>
			<polygon fill="#FCD0A3" points="549.457,365.881 547.233,364.513 547.235,320.489 549.454,321.843 			"/>
			<polygon fill="#F4A353" points="551.682,364.527 549.457,365.893 549.457,321.831 551.682,320.464 			"/>
			<polygon fill="#F9BD7D" points="504.082,320.762 504.082,318.197 527.572,332.724 527.572,335.289 			"/>
			<polygon fill="#F9BD7D" points="549.585,319.193 547.835,318.127 547.839,273.739 549.876,275.218 			"/>
			<polygon fill="#F4A353" points="549.73,297.868 551.671,296.65 551.676,317.907 549.588,319.187 			"/>
			<line fill="none" x1="529.356" y1="310.248" x2="529.393" y2="331.673"/>
			<polygon fill="#9E97CA" points="519.662,318.07 525.534,278.452 528.482,280.913 527.087,320.464 			"/>
			<polygon fill="#CDE9F7" points="525.534,278.452 537.59,272.584 541.193,274.602 528.482,280.913 			"/>
			<polygon fill="#9E97CA" points="542.19,312.701 541.193,274.602 528.482,280.913 527.087,320.464 			"/>
			<polygon fill="#F4A353" points="551.682,320.466 527.572,335.289 527.572,332.724 551.682,317.902 			"/>
			<line fill="none" x1="525.534" y1="287.408" x2="549.644" y2="272.584"/>
			<polyline fill="#F4A353" points="527.572,311.294 527.572,288.887 551.682,274.063 551.676,296.661 527.572,311.294 			"/>
			<polygon fill="#F9BD7D" points="527.572,332.724 525.541,331.463 525.534,287.408 527.572,288.887 			"/>
			<polyline fill="#F4A353" points="529.393,331.673 527.572,332.724 527.572,311.294 529.356,310.248 			"/>
			<polygon fill="#9E97CA" points="528.482,280.913 525.534,278.452 515.826,298.042 520.203,301.011 523.784,301.011 			"/>
			<polyline fill="#F9BD7D" points="549.644,272.584 551.682,274.063 527.572,288.887 525.534,287.408 			"/>
			<polygon fill="#FEEEBF" points="517.687,299.304 512.425,313.161 497.979,306.233 493.534,307.918 492.3,310.248 
				494.028,314.739 495.443,314.739 494.77,309.481 498.473,311.294 500.819,311.294 512.92,317.492 514.839,317.492 
				522.364,301.011 520.203,301.011 			"/>
			<polygon fill="#FEEEBF" points="523.285,253.742 523.827,266.762 526.89,270.857 529.606,270.875 529.356,278.452 
				531.399,279.464 536.487,276.967 536.522,270.526 539.511,266.076 538.815,258.445 538.842,253.843 527.371,251.665 			"/>
			<polygon fill="#523F2E" points="523.668,250.383 523.285,253.742 526.553,253.392 529.438,259.31 532.241,258.775 
				532.241,262.46 529.356,263.88 531.399,270.526 536.522,270.526 539.511,266.076 539.511,251.665 529.773,246.524 			"/>
			<polygon fill="#53453C" points="613.735,291.724 604.659,288.903 612.204,284.74 602.951,245.36 611.034,249.058 
				616.792,290.791 			"/>
			<polygon fill="#FCD0A3" points="646.107,259.702 622.275,245.218 598.508,259.998 621.998,274.527 			"/>
			<polygon fill="#53453C" points="636.741,259.294 636.616,254.504 627.809,250.759 607.976,243.263 602.951,245.36 
				616.792,256.869 616.792,256.869 594.111,249.051 589.195,251.282 594.376,291.724 586.726,295.927 594.376,298.419 
				597.901,297.956 598.508,259.998 621.856,269.222 			"/>
			<polygon fill="#FEEEBF" points="627.986,234.167 622.725,248.026 608.278,241.098 603.833,242.783 602.599,245.113 
				602.951,247.552 603.423,247.928 604.845,244.396 608.772,246.157 611.118,246.157 623.219,252.356 625.137,252.356 
				632.664,235.874 630.502,235.874 			"/>
			<polygon fill="#FCD0A3" points="621.974,321.116 619.752,319.748 619.754,275.725 621.973,277.078 			"/>
			<polygon fill="#F4A353" points="624.198,319.8 621.976,321.166 621.976,277.104 624.198,275.737 			"/>
			<polygon fill="#FCD0A3" points="643.883,307.681 641.661,306.315 641.661,262.29 643.879,263.644 			"/>
			<polygon fill="#F4A353" points="646.107,306.329 643.885,307.696 643.885,263.631 646.107,262.265 			"/>
			<polygon fill="#F9BD7D" points="598.508,262.562 598.508,259.998 621.998,274.527 621.998,277.089 			"/>
			<polygon fill="#F9BD7D" points="644.01,260.993 642.26,259.928 642.266,215.539 644.302,217.018 			"/>
			<polygon fill="#F4A353" points="644.155,239.669 646.098,238.451 646.102,259.709 644.015,260.988 			"/>
			<line fill="none" x1="623.781" y1="252.048" x2="623.819" y2="273.474"/>
			<polygon fill="#F8B6AF" points="614.089,259.872 619.96,220.254 622.909,222.713 621.514,262.265 			"/>
			<polygon fill="#F8B6AF" points="619.96,220.254 632.015,214.386 635.62,216.402 622.909,222.713 			"/>
			<polygon fill="#F8B6AF" points="636.616,254.504 635.62,216.402 622.909,222.713 621.514,262.265 			"/>
			<polygon fill="#F4A353" points="646.107,262.267 621.998,277.089 621.998,274.527 646.107,259.702 			"/>
			<line fill="none" x1="619.96" y1="229.208" x2="644.071" y2="214.386"/>
			<polyline fill="#F4A353" points="621.998,253.094 621.998,230.688 646.107,215.865 646.102,238.462 621.998,253.094 			"/>
			<polyline fill="#F4A353" points="623.819,273.474 621.998,274.527 621.998,253.094 623.781,252.048 			"/>
			<polygon fill="#F8B6AF" points="622.909,222.713 619.96,220.254 613.665,232.957 617.632,235.971 619.813,235.96 			"/>
			<polyline fill="#F9BD7D" points="644.071,214.386 646.107,215.865 621.998,230.688 619.96,229.208 			"/>
			<polygon fill="#FEEEBF" points="615.107,234.051 606.851,254.964 592.406,248.033 587.962,249.72 586.726,252.048 
				588.456,256.541 589.869,256.541 589.195,251.282 592.901,253.094 595.245,253.094 607.345,259.294 609.265,259.294 
				619.295,235.971 617.632,235.971 			"/>
			<polygon fill="#FEEEBF" points="617.712,195.543 618.253,208.562 621.317,212.658 624.034,212.676 623.781,220.254 
				625.824,221.266 630.912,218.77 630.95,212.327 633.939,207.876 633.242,200.246 633.267,195.643 621.797,193.466 			"/>
			<polygon fill="#FEE581" points="618.094,192.184 617.712,195.543 620.979,195.192 623.864,201.113 626.668,200.575 
				626.668,204.261 623.781,205.683 622.307,211.438 622.909,222.713 635.62,216.402 633.939,207.876 633.939,193.466 
				624.198,188.324 			"/>
			<polygon fill="#FEEEBF" points="308.532,359.026 305.863,354.912 307.197,346.938 310.569,345.34 312.421,347.975 
				312.421,353.141 314.273,352.183 314.273,350.29 315.385,350.915 314.644,354.912 311.436,358.34 313.995,380.069 
				326.837,389.956 330.578,391.389 331.59,397.58 326.837,397.58 310.199,382.204 			"/>
			<polygon fill="#F9BD7D" points="434.878,388.334 432.849,387.071 432.842,343.016 434.878,344.495 			"/>
			<polygon fill="#F9BD7D" points="621.998,274.527 619.967,273.264 619.96,229.208 621.998,230.688 			"/>
			<polygon fill="#C4DDA7" points="589.446,415.148 586.559,413.371 586.561,356.198 589.443,357.955 			"/>
			<polygon fill="#A7C06B" points="592.335,413.375 589.448,415.149 589.448,357.924 592.335,356.15 			"/>
			<polygon fill="#C4DDA7" points="633.092,442.035 630.205,440.258 630.207,383.085 633.088,384.842 			"/>
			<polygon fill="#A7C06B" points="635.98,440.262 633.093,442.037 633.093,384.811 635.98,383.037 			"/>
			<polygon fill="#C4DDA7" points="676.613,415.148 673.727,413.371 673.728,356.198 676.61,357.955 			"/>
			<polygon fill="#A7C06B" points="679.502,413.375 676.615,415.149 676.615,357.924 679.502,356.15 			"/>
			<polygon fill="#C4DDA7" points="586.554,356.187 633.072,327.599 679.581,356.193 633.066,384.779 			"/>
			<polygon fill="#B4D17E" points="633.068,386.923 586.543,358.327 586.549,356.18 633.063,384.702 			"/>
			<polygon fill="#B4D17E" points="679.581,358.406 633.061,387.003 633.068,384.779 679.572,356.193 			"/>
			<polygon fill="#FDFBE5" points="626.761,368.322 612.648,359.643 630.704,348.542 644.82,357.219 			"/>
			<polygon fill="#FFFFFF" points="633.244,369.701 619.13,361.024 637.187,349.923 651.302,358.599 			"/>
			<polygon fill="#53453C" points="671.802,440.534 662.726,437.714 670.27,433.55 661.017,394.17 669.101,397.866 674.859,439.601 
							"/>
			<polygon fill="#FCD0A3" points="704.174,408.513 680.344,394.029 656.576,408.808 680.064,423.337 			"/>
			<polygon fill="#53453C" points="694.808,408.103 694.683,403.312 685.875,399.569 666.042,392.071 661.017,394.17 
				674.859,405.68 674.859,405.68 652.178,397.861 647.262,400.092 652.443,440.534 644.793,444.737 652.443,447.23 
				655.967,446.766 656.576,408.808 679.923,418.033 			"/>
			<polygon fill="#FEEEBF" points="686.053,382.978 680.791,396.837 666.345,389.906 661.9,391.593 660.666,393.921 
				661.017,396.362 661.49,396.736 662.912,393.207 666.839,394.967 669.185,394.967 681.286,401.165 683.204,401.165 
				690.73,384.684 688.569,384.684 			"/>
			<polygon fill="#FCD0A3" points="658.79,456.752 656.571,455.435 656.574,411.371 658.791,412.743 			"/>
			<polygon fill="#F9BD7D" points="661.017,455.401 658.795,456.768 658.795,412.75 661.017,411.383 			"/>
			<polygon fill="#FCD0A3" points="680.041,469.927 677.819,468.558 677.82,424.535 680.039,425.889 			"/>
			<polygon fill="#F4A353" points="682.265,468.61 680.043,469.977 680.043,425.914 682.265,424.548 			"/>
			<polygon fill="#FCD0A3" points="701.95,456.492 699.727,455.124 699.729,411.1 701.948,412.454 			"/>
			<polygon fill="#F4A353" points="704.174,455.138 701.952,456.506 701.952,412.442 704.174,411.075 			"/>
			<polygon fill="#F9BD7D" points="656.576,411.373 656.576,408.808 680.064,423.337 680.064,425.9 			"/>
			<polygon fill="#F9BD7D" points="702.077,409.804 700.327,408.738 700.333,364.35 702.369,365.829 			"/>
			<polygon fill="#F4A353" points="702.222,388.479 704.165,387.261 704.169,408.52 702.082,409.799 			"/>
			<path fill="#E69A8F" d="M665.412,424.535"/>
			<line fill="none" x1="681.85" y1="400.859" x2="681.886" y2="422.284"/>
			<polygon fill="#90CDC6" points="672.156,408.683 678.026,369.065 680.976,371.524 679.581,411.075 			"/>
			<polygon fill="#90CDC6" points="678.026,369.065 690.082,363.196 693.687,365.213 680.976,371.524 			"/>
			<polygon fill="#90CDC6" points="694.683,403.312 693.687,365.213 680.976,371.524 679.581,411.075 			"/>
			<polygon fill="#F4A353" points="704.174,411.077 680.064,425.9 680.064,423.337 704.174,408.513 			"/>
			<line fill="none" x1="678.026" y1="378.019" x2="702.138" y2="363.196"/>
			<polyline fill="#F4A353" points="680.064,401.905 680.064,379.498 704.174,364.676 704.169,387.272 680.064,401.905 			"/>
			<polygon fill="#F9BD7D" points="680.064,423.337 678.034,422.075 678.026,378.019 680.064,379.498 			"/>
			<polyline fill="#F4A353" points="681.886,422.284 680.064,423.337 680.064,401.905 681.85,400.859 			"/>
			<polygon fill="#90CDC6" points="680.976,371.524 678.026,369.065 668.32,388.653 672.697,391.622 676.277,391.622 			"/>
			<polyline fill="#F9BD7D" points="702.138,363.196 704.174,364.676 680.064,379.498 678.026,378.019 			"/>
			<polygon fill="#FEEEBF" points="670.181,389.915 664.918,403.774 650.473,396.844 646.028,398.531 644.793,400.859 
				646.523,405.352 647.937,405.352 647.262,400.092 650.967,401.905 653.313,401.905 665.412,408.103 667.332,408.103 
				674.859,391.622 672.697,391.622 			"/>
			<polygon fill="#FEEEBF" points="675.779,344.354 676.32,357.373 679.384,361.468 682.101,361.486 681.85,369.065 
				683.891,370.077 688.979,367.579 689.017,361.137 692.005,356.687 691.309,349.056 691.336,344.454 679.864,342.276 			"/>
			<polygon fill="#FCD0A3" points="676.16,340.994 675.779,344.354 679.045,344.003 681.93,349.923 684.735,349.386 
				684.735,353.071 681.85,354.491 683.891,361.137 689.017,361.137 692.005,356.687 692.005,342.276 682.265,337.135 			"/>
			<polygon fill="#C4DDA7" points="493.962,472.475 491.075,470.698 491.077,413.525 493.96,415.282 			"/>
			<polygon fill="#A7C06B" points="496.853,470.702 493.964,472.477 493.964,415.252 496.853,413.477 			"/>
			<polygon fill="#C4DDA7" points="537.608,499.36 534.721,497.586 534.723,440.412 537.606,442.169 			"/>
			<polygon fill="#A7C06B" points="540.498,497.589 537.611,499.364 537.611,442.139 540.498,440.364 			"/>
			<polygon fill="#C4DDA7" points="581.131,472.475 578.245,470.698 578.245,413.525 581.128,415.282 			"/>
			<polygon fill="#A7C06B" points="584.02,470.702 581.133,472.477 581.133,415.252 584.02,413.477 			"/>
			<polygon fill="#C4DDA7" points="491.07,413.514 537.588,384.926 584.097,413.52 537.584,442.106 			"/>
			<polygon fill="#B4D17E" points="537.586,444.25 491.061,415.654 491.066,413.507 537.581,442.029 			"/>
			<polygon fill="#B4D17E" points="584.097,415.733 537.577,444.331 537.586,442.106 584.088,413.52 			"/>
			<polygon fill="#FDFBE5" points="531.279,425.647 517.164,416.971 535.222,405.87 549.336,414.546 			"/>
			<polygon fill="#FFFFFF" points="537.762,427.028 523.647,418.351 541.703,407.248 555.818,415.927 			"/>
			<polygon fill="#53453C" points="576.319,497.861 567.244,495.041 574.786,490.877 565.535,451.497 573.619,455.194 
				579.375,496.928 			"/>
			<polygon fill="#FCD0A3" points="608.692,465.84 584.86,451.356 561.092,466.135 584.582,480.662 			"/>
			<polygon fill="#53453C" points="599.326,465.43 599.201,460.639 590.392,456.897 570.558,449.399 565.535,451.497 
				579.375,463.007 579.375,463.007 556.696,455.188 551.78,457.42 556.961,497.861 549.311,502.064 556.961,504.557 
				560.483,504.093 561.092,466.135 584.439,475.36 			"/>
			<polygon fill="#FEEEBF" points="590.571,440.305 585.307,454.164 570.863,447.233 566.418,448.919 565.182,451.249 
				565.535,453.688 566.006,454.064 567.43,450.534 571.355,452.294 573.703,452.294 585.802,458.494 587.722,458.494 
				595.247,442.012 593.087,442.012 			"/>
			<polygon fill="#FCD0A3" points="563.306,514.079 561.089,512.763 561.091,468.698 563.309,470.07 			"/>
			<polygon fill="#F9BD7D" points="565.535,512.729 563.311,514.097 563.311,470.077 565.535,468.711 			"/>
			<polygon fill="#FCD0A3" points="584.559,527.252 582.335,525.886 582.337,481.862 584.555,483.214 			"/>
			<polygon fill="#F4A353" points="586.783,525.938 584.561,527.304 584.561,483.241 586.783,481.873 			"/>
			<polygon fill="#FCD0A3" points="606.468,513.819 604.244,512.451 604.245,468.428 606.464,469.782 			"/>
			<polygon fill="#F4A353" points="608.692,512.465 606.468,513.832 606.468,469.769 608.692,468.403 			"/>
			<polygon fill="#F9BD7D" points="561.092,468.7 561.092,466.135 584.582,480.662 584.582,483.227 			"/>
			<polygon fill="#F9BD7D" points="606.595,467.131 604.845,466.066 604.849,421.677 606.887,423.156 			"/>
			<polygon fill="#F4A353" points="606.74,445.806 608.681,444.589 608.685,465.845 606.598,467.126 			"/>
			<path fill="#E69A8F" d="M569.93,481.862"/>
			<line fill="none" x1="586.366" y1="458.186" x2="586.403" y2="479.611"/>
			<polygon fill="#FEDE68" points="576.672,466.008 582.544,426.39 585.492,428.851 584.097,468.403 			"/>
			<polygon fill="#FEDE68" points="582.544,426.39 594.6,420.522 598.203,422.54 585.492,428.851 			"/>
			<polygon fill="#FEDE68" points="599.201,460.639 598.203,422.54 585.492,428.851 584.097,468.403 			"/>
			<polygon fill="#F4A353" points="608.692,468.404 584.582,483.227 584.582,480.662 608.692,465.84 			"/>
			<line fill="none" x1="582.544" y1="435.346" x2="606.654" y2="420.522"/>
			<polyline fill="#F4A353" points="584.582,459.232 584.582,436.825 608.692,422.001 608.685,444.599 584.582,459.232 			"/>
			<polygon fill="#F9BD7D" points="584.582,480.662 582.552,479.402 582.544,435.346 584.582,436.825 			"/>
			<polyline fill="#F4A353" points="586.403,479.611 584.582,480.662 584.582,459.232 586.366,458.186 			"/>
			<polygon fill="#FEDE68" points="585.492,428.851 582.544,426.39 572.836,445.98 577.213,448.949 580.795,448.949 			"/>
			<polyline fill="#F9BD7D" points="606.654,420.522 608.692,422.001 584.582,436.825 582.544,435.346 			"/>
			<polygon fill="#FEEEBF" points="574.697,447.242 569.436,461.1 554.989,454.171 550.544,455.856 549.311,458.186 
				551.039,462.677 552.453,462.677 551.78,457.42 555.483,459.232 557.829,459.232 569.93,465.43 571.848,465.43 579.375,448.949 
				577.213,448.949 			"/>
			<polygon fill="#FEEEBF" points="580.295,401.681 580.838,414.7 583.9,418.796 586.617,418.813 586.366,426.39 588.409,427.402 
				593.495,424.906 593.533,418.464 596.522,414.014 595.825,406.383 595.852,401.781 584.382,399.604 			"/>
			<polygon fill="#3D3D3C" points="580.678,398.321 580.295,401.681 583.563,401.33 586.448,407.248 589.251,406.713 
				589.251,410.398 586.366,411.819 588.409,418.464 593.533,418.464 596.522,414.014 596.522,399.604 586.783,394.462 			"/>
			<polygon fill="#C4DDA7" points="398.48,529.8 395.593,528.026 395.595,470.852 398.477,472.609 			"/>
			<polygon fill="#A7C06B" points="401.369,528.029 398.482,529.804 398.482,472.579 401.369,470.804 			"/>
			<polygon fill="#C4DDA7" points="442.126,556.688 439.239,554.913 439.241,497.74 442.122,499.496 			"/>
			<polygon fill="#A7C06B" points="445.014,554.914 442.127,556.691 442.127,499.466 445.014,497.691 			"/>
			<polygon fill="#C4DDA7" points="485.647,529.8 482.761,528.026 482.763,470.852 485.644,472.609 			"/>
			<polygon fill="#A7C06B" points="488.536,528.029 485.649,529.804 485.649,472.579 488.536,470.804 			"/>
			<polygon fill="#C4DDA7" points="395.588,470.842 442.106,442.253 488.615,470.847 442.101,499.434 			"/>
			<polygon fill="#B4D17E" points="442.102,501.577 395.577,472.982 395.583,470.835 442.097,499.355 			"/>
			<polygon fill="#B4D17E" points="488.615,473.06 442.095,501.656 442.102,499.434 488.604,470.847 			"/>
			<polygon fill="#FDFBE5" points="386.412,331.515 372.297,322.837 390.353,311.736 404.469,320.412 			"/>
			<polygon fill="#FFFFFF" points="392.893,332.896 378.779,324.218 396.836,313.117 410.949,321.793 			"/>
			<polygon fill="#53453C" points="480.836,555.187 471.76,552.368 479.304,548.204 470.051,508.825 478.135,512.521 
				483.891,554.256 			"/>
			<polygon fill="#FCD0A3" points="513.208,523.167 489.376,508.683 465.608,523.463 489.098,537.99 			"/>
			<polygon fill="#53453C" points="503.842,522.757 503.717,517.967 494.91,514.224 475.075,506.726 470.051,508.825 
				483.891,520.334 483.891,520.334 461.212,512.516 456.296,514.747 461.477,555.187 453.827,559.392 461.477,561.884 
				465.001,561.421 465.608,523.463 488.957,532.685 			"/>
			<polygon fill="#FEEEBF" points="495.087,497.632 489.825,511.489 475.379,504.561 470.934,506.246 469.7,508.576 
				470.051,511.015 470.524,511.391 471.946,507.859 475.873,509.622 478.219,509.622 490.318,515.819 492.238,515.819 
				499.764,499.339 497.603,499.339 			"/>
			<polygon fill="#FCD0A3" points="467.822,571.406 465.605,570.09 465.607,526.025 467.825,527.395 			"/>
			<polygon fill="#F9BD7D" points="470.051,570.056 467.829,571.422 467.829,527.404 470.051,526.038 			"/>
			<polygon fill="#FCD0A3" points="489.075,584.579 486.853,583.213 486.855,539.19 489.073,540.542 			"/>
			<polygon fill="#F4A353" points="491.299,583.265 489.077,584.631 489.077,540.567 491.299,539.2 			"/>
			<polygon fill="#FCD0A3" points="510.984,571.145 508.761,569.778 508.761,525.755 510.982,527.109 			"/>
			<polygon fill="#F4A353" points="513.208,569.793 510.986,571.159 510.986,527.096 513.208,525.73 			"/>
			<polygon fill="#F9BD7D" points="465.608,526.027 465.608,523.463 489.098,537.99 489.098,540.554 			"/>
			<polygon fill="#F9BD7D" points="511.111,524.458 509.361,523.393 509.365,479.004 511.403,480.483 			"/>
			<polygon fill="#F4A353" points="511.256,503.133 513.199,501.916 513.203,523.173 511.116,524.453 			"/>
			<path fill="#E69A8F" d="M474.446,539.19"/>
			<line fill="none" x1="490.884" y1="515.513" x2="490.92" y2="536.938"/>
			<polygon fill="#EC6960" points="481.19,523.336 487.06,483.718 490.008,486.178 488.615,525.73 			"/>
			<polygon fill="#EC6960" points="487.06,483.718 499.116,477.849 502.721,479.866 490.008,486.178 			"/>
			<polygon fill="#EC6960" points="503.717,517.967 502.721,479.866 490.008,486.178 488.615,525.73 			"/>
			<polygon fill="#F4A353" points="513.208,525.732 489.098,540.554 489.098,537.99 513.208,523.167 			"/>
			<line fill="none" x1="487.06" y1="492.673" x2="511.172" y2="477.849"/>
			<polyline fill="#F4A353" points="489.098,516.559 489.098,494.153 513.208,479.328 513.203,501.926 489.098,516.559 			"/>
			<polygon fill="#F9BD7D" points="489.098,537.99 487.068,536.729 487.06,492.673 489.098,494.153 			"/>
			<polyline fill="#F4A353" points="490.92,536.938 489.098,537.99 489.098,516.559 490.884,515.513 			"/>
			<polygon fill="#EC6960" points="490.008,486.178 487.06,483.718 477.354,503.307 481.731,506.276 485.311,506.276 			"/>
			<polyline fill="#F9BD7D" points="511.172,477.849 513.208,479.328 489.098,494.153 487.06,492.673 			"/>
			<polygon fill="#FEEEBF" points="479.215,504.57 473.952,518.427 459.507,511.498 455.062,513.183 453.827,515.513 
				455.555,520.005 456.97,520.005 456.296,514.747 460,516.559 462.347,516.559 474.446,522.757 476.366,522.757 483.891,506.276 
				481.731,506.276 			"/>
			<polygon fill="#FEEEBF" points="484.811,459.006 485.354,472.027 488.418,476.123 491.135,476.141 490.884,483.718 
				492.925,484.729 498.013,482.233 498.051,475.791 501.039,471.341 500.341,463.711 500.368,459.108 488.898,456.931 			"/>
			<polygon fill="#FEE581" points="485.194,455.647 484.811,459.006 488.079,458.657 490.964,464.576 493.769,464.04 
				493.769,467.726 490.884,469.146 492.925,475.791 498.051,475.791 501.039,471.341 501.039,456.931 491.299,451.789 			"/>
			<g>
				<polygon fill="#C4DDA7" points="306.212,587.505 303.326,585.731 303.326,528.556 306.209,530.314 				"/>
				<polygon fill="#A7C06B" points="309.101,585.733 306.214,587.507 306.214,530.282 309.101,528.507 				"/>
				<polygon fill="#C4DDA7" points="349.858,614.393 346.971,612.616 346.973,555.443 349.854,557.2 				"/>
				<polygon fill="#A7C06B" points="352.747,612.62 349.86,614.394 349.86,557.169 352.747,555.394 				"/>
				<polygon fill="#C4DDA7" points="393.38,587.505 390.493,585.731 390.495,528.556 393.376,530.314 				"/>
				<polygon fill="#A7C06B" points="396.268,585.733 393.382,587.507 393.382,530.282 396.268,528.507 				"/>
				<polygon fill="#C4DDA7" points="303.32,528.547 349.838,499.957 396.345,528.55 349.833,557.137 				"/>
				<polygon fill="#B4D17E" points="349.835,559.281 303.31,530.685 303.315,528.538 349.829,557.06 				"/>
				<polygon fill="#B4D17E" points="396.345,530.764 349.828,559.361 349.835,557.137 396.336,528.55 				"/>
				<polygon fill="#FDFBE5" points="343.527,540.679 329.414,532.001 347.471,520.9 361.584,529.576 				"/>
				<polygon fill="#FFFFFF" points="350.01,542.058 335.895,533.382 353.954,522.281 368.067,530.957 				"/>
				<polygon fill="#53453C" points="388.568,612.892 379.492,610.071 387.035,605.908 377.784,566.528 385.867,570.226 
					391.623,611.959 				"/>
				<polygon fill="#FCD0A3" points="420.94,580.87 397.108,566.386 373.341,581.166 396.831,595.695 				"/>
				<polygon fill="#53453C" points="411.574,580.462 411.449,575.67 402.64,571.927 382.807,564.429 377.784,566.528 
					391.623,578.037 391.623,578.037 368.944,570.219 364.029,572.45 369.209,612.892 361.559,617.095 369.209,619.588 
					372.734,619.124 373.341,581.166 396.688,590.39 				"/>
				<polygon fill="#FEEEBF" points="402.819,555.335 397.558,569.195 383.111,562.264 378.667,563.951 377.433,566.279 
					377.784,568.72 378.257,569.094 379.678,565.564 383.606,567.325 385.952,567.325 398.05,573.525 399.97,573.525 
					407.497,557.042 405.335,557.042 				"/>
				<polygon fill="#FCD0A3" points="375.554,629.109 373.337,627.793 373.339,583.729 375.558,585.1 				"/>
				<polygon fill="#F9BD7D" points="377.784,627.759 375.561,629.127 375.561,585.108 377.784,583.741 				"/>
				<polygon fill="#FCD0A3" points="396.807,642.283 394.585,640.916 394.585,596.893 396.806,598.247 				"/>
				<polygon fill="#F4A353" points="399.032,640.968 396.809,642.334 396.809,598.272 399.032,596.905 				"/>
				<polygon fill="#FCD0A3" points="418.716,628.85 416.494,627.483 416.494,583.458 418.713,584.812 				"/>
				<polygon fill="#F4A353" points="420.94,627.496 418.718,628.864 418.718,584.8 420.94,583.433 				"/>
				<polygon fill="#F9BD7D" points="373.341,583.73 373.341,581.166 396.831,595.695 396.831,598.257 				"/>
				<polygon fill="#F9BD7D" points="418.843,582.162 417.094,581.096 417.097,536.707 419.135,538.187 				"/>
				<polygon fill="#F4A353" points="418.988,560.837 420.93,559.619 420.935,580.876 418.849,582.156 				"/>
				<path fill="#E69A8F" d="M382.178,596.893"/>
				<line fill="none" x1="398.614" y1="573.217" x2="398.652" y2="594.642"/>
				<polygon fill="#CDE9F7" points="388.923,581.041 394.793,541.423 397.74,543.881 396.345,583.433 				"/>
				<polygon fill="#CDE9F7" points="394.793,541.423 406.849,535.554 410.452,537.571 397.74,543.881 				"/>
				<polygon fill="#CDE9F7" points="411.449,575.67 410.452,537.571 397.74,543.881 396.345,583.433 				"/>
				<polygon fill="#F4A353" points="420.94,583.435 396.831,598.257 396.831,595.695 420.94,580.87 				"/>
				<line fill="none" x1="394.793" y1="550.377" x2="418.904" y2="535.554"/>
				<polyline fill="#F4A353" points="396.831,574.262 396.831,551.856 420.94,537.032 420.935,559.63 396.831,574.262 				"/>
				<polygon fill="#F9BD7D" points="396.831,595.695 394.8,594.432 394.793,550.377 396.831,551.856 				"/>
				<polyline fill="#F4A353" points="398.652,594.642 396.831,595.695 396.831,574.262 398.614,573.217 				"/>
				<polygon fill="#CDE9F7" points="397.74,543.881 394.793,541.423 385.085,561.012 389.463,563.98 393.043,563.98 				"/>
				<polyline fill="#F9BD7D" points="418.904,535.554 420.94,537.032 396.831,551.856 394.793,550.377 				"/>
				<polygon fill="#FEEEBF" points="386.947,562.273 381.684,576.132 367.24,569.202 362.795,570.889 361.559,573.217 
					363.287,577.71 364.702,577.71 364.029,572.45 367.732,574.262 370.078,574.262 382.178,580.462 384.098,580.462 
					391.623,563.98 389.463,563.98 				"/>
				<polygon fill="#FEEEBF" points="392.544,516.711 393.086,529.73 396.15,533.826 398.865,533.844 398.614,541.423 
					400.658,542.433 405.745,539.936 405.783,533.495 408.77,529.045 408.073,521.414 408.1,516.812 396.63,514.634 				"/>
				<polygon fill="#3D3D3C" points="392.927,513.352 392.544,516.711 395.812,516.36 398.697,522.281 401.499,521.744 
					401.499,525.429 398.614,526.849 400.658,533.495 405.783,533.495 408.77,529.045 408.77,514.634 399.032,509.493 				"/>
			</g>
			<g>
				<path fill="#3D3D3C" d="M256.964,230.482c0.496,0.272,0.87,0.272,1.135-0.213c0.482-0.885-0.922-1.504-1.067-1.588
					c-0.021-0.013-7.378-4.558-7.378-4.558l-1.875-0.211l1.053,1.56l8.136,5.023L256.964,230.482z"/>
				<g>
					<path fill="#F8B6AF" d="M257.574,228.997c0.399,0.281,0.822,0.725,0.525,1.271c-0.265,0.487-0.639,0.485-1.135,0.213v0.014
						l-0.154-0.095L257.574,228.997z"/>
					<polygon fill="#FEE581" points="257.311,229.481 249.351,224.513 249.036,224.694 249.045,225.075 257.075,229.918 					"/>
				</g>
			</g>
			<g>
				<path fill="#3D3D3C" d="M361.405,177.238c0.496,0.272,0.87,0.272,1.135-0.213c0.482-0.885-0.922-1.504-1.067-1.588
					c-0.021-0.013-7.378-4.556-7.378-4.556l-1.875-0.211l1.051,1.562l8.134,5.023V177.238z"/>
				<g>
					<path fill="#F8B6AF" d="M362.018,175.753c0.399,0.281,0.822,0.725,0.525,1.271c-0.265,0.485-0.639,0.485-1.135,0.213v0.014
						l-0.154-0.095L362.018,175.753z"/>
					<polygon fill="#FEE581" points="361.754,176.236 353.794,171.269 353.477,171.45 353.488,171.833 361.516,176.673 					"/>
				</g>
			</g>
			<g>
				<path fill="#3D3D3C" d="M227.036,440.018c0.496,0.272,0.87,0.272,1.135-0.213c0.482-0.885-0.922-1.504-1.067-1.588
					c-0.021-0.013-7.378-4.556-7.378-4.556l-1.877-0.211l1.053,1.56l8.134,5.023V440.018z"/>
				<g>
					<path fill="#F8B6AF" d="M227.646,438.534c0.399,0.281,0.822,0.725,0.523,1.271c-0.265,0.485-0.639,0.485-1.135,0.213v0.014
						l-0.154-0.095L227.646,438.534z"/>
					<polygon fill="#FEE581" points="227.383,439.017 219.423,434.05 219.108,434.23 219.117,434.612 227.145,439.452 					"/>
				</g>
			</g>
			<g>
				<path fill="#3D3D3C" d="M374.858,533.869c0.462-0.333,0.643-0.682,0.369-1.162c-0.498-0.876-1.682,0.14-1.821,0.235
					c-0.021,0.014-7.296,4.704-7.296,4.704l-1.074,1.651l1.791-0.233l8.044-5.186L374.858,533.869z"/>
				<g>
					<path fill="#F8B6AF" d="M373.928,532.585c0.423-0.24,0.992-0.419,1.298,0.122c0.274,0.482,0.093,0.829-0.369,1.162l0.013,0.007
						l-0.152,0.099L373.928,532.585z"/>
					<polygon fill="#FEE581" points="374.199,533.063 366.285,538.113 366.283,538.495 366.602,538.668 374.444,533.493 					"/>
				</g>
			</g>
			<g>
				<path fill="#3D3D3C" d="M457.546,468.82c0.476,0.31,0.849,0.34,1.146-0.124c0.541-0.845-0.817-1.572-0.956-1.667
					c-0.02-0.014-7.045-5.118-7.045-5.118l-1.855-0.356l0.942,1.639l7.769,5.643L457.546,468.82z"/>
				<g>
					<path fill="#F8B6AF" d="M458.257,467.387c0.38,0.31,0.77,0.786,0.435,1.309c-0.297,0.464-0.67,0.435-1.146,0.124v0.014
						l-0.147-0.106L458.257,467.387z"/>
					<polygon fill="#FEE581" points="457.962,467.849 450.365,462.275 450.037,462.43 450.019,462.812 457.695,468.265 					"/>
				</g>
			</g>
			<g>
				<path fill="#3D3D3C" d="M733.738,302.977c0.476,0.31,0.849,0.34,1.146-0.124c0.541-0.845-0.817-1.572-0.956-1.667
					c-0.02-0.014-7.045-5.118-7.045-5.118l-1.855-0.356l0.942,1.639l7.769,5.643V302.977z"/>
				<g>
					<path fill="#F8B6AF" d="M734.451,301.544c0.38,0.31,0.77,0.786,0.435,1.309c-0.297,0.464-0.67,0.433-1.146,0.124l-0.002,0.014
						l-0.147-0.106L734.451,301.544z"/>
					<polygon fill="#FEE581" points="734.156,302.006 726.557,296.432 726.229,296.587 726.213,296.969 733.889,302.422 					"/>
				</g>
			</g>
			<g>
				<path fill="#3D3D3C" d="M80.936,348.84c0.496,0.272,0.87,0.272,1.135-0.213c0.482-0.885-0.922-1.504-1.067-1.588
					c-0.021-0.013-7.378-4.556-7.378-4.556l-1.875-0.211l1.051,1.56l8.134,5.023L80.936,348.84L80.936,348.84z"/>
				<g>
					<path fill="#F8B6AF" d="M81.547,347.355c0.399,0.281,0.822,0.725,0.523,1.271c-0.265,0.487-0.639,0.485-1.135,0.213v0.014
						l-0.154-0.095L81.547,347.355z"/>
					<polygon fill="#FEE581" points="81.284,347.839 73.326,342.871 73.009,343.052 73.018,343.433 81.048,348.274 					"/>
				</g>
			</g>
			<g>
				<path fill="#3D3D3C" d="M149.499,310.57c0.496,0.272,0.87,0.272,1.135-0.213c0.482-0.885-0.922-1.504-1.067-1.588
					c-0.021-0.013-7.378-4.558-7.378-4.558L140.314,304l1.053,1.56l8.134,5.023v-0.013H149.499z"/>
				<g>
					<path fill="#F8B6AF" d="M150.11,309.085c0.399,0.281,0.822,0.725,0.525,1.271c-0.265,0.485-0.639,0.485-1.135,0.213v0.014
						l-0.154-0.095L150.11,309.085z"/>
					<polygon fill="#FEE581" points="149.847,309.569 141.886,304.601 141.571,304.782 141.58,305.164 149.608,310.004 					"/>
				</g>
			</g>
			<g>
				<path fill="#3D3D3C" d="M419.875,143.979c0.496,0.272,0.87,0.272,1.135-0.213c0.482-0.885-0.922-1.504-1.067-1.588
					c-0.021-0.013-7.378-4.558-7.378-4.558l-1.875-0.211l1.053,1.56l8.134,5.023v-0.013H419.875z"/>
				<g>
					<path fill="#F8B6AF" d="M420.486,142.494c0.399,0.281,0.822,0.725,0.525,1.271c-0.265,0.485-0.639,0.485-1.135,0.213v0.014
						l-0.154-0.095L420.486,142.494z"/>
					<polygon fill="#FEE581" points="420.222,142.978 412.262,138.01 411.945,138.191 411.956,138.574 419.984,143.415 					"/>
				</g>
			</g>
			<g>
				<path fill="#3D3D3C" d="M584.31,224.74c0.457-0.342,0.632-0.693,0.349-1.169c-0.512-0.865-1.68,0.172-1.816,0.269
					c-0.02,0.014-7.217,4.841-7.217,4.841l-1.048,1.671l1.787-0.267l7.957-5.337L584.31,224.74z"/>
				<g>
					<path fill="#F8B6AF" d="M583.359,223.476c0.419-0.247,0.985-0.437,1.3,0.097c0.281,0.475,0.107,0.827-0.349,1.169l0.013,0.007
						l-0.15,0.1L583.359,223.476z"/>
					<polygon fill="#FEE581" points="583.639,223.949 575.811,229.146 575.815,229.529 576.137,229.697 583.891,224.375 					"/>
				</g>
			</g>
			<polygon fill="#FDFBE5" points="558.922,209.613 575.356,220.102 584.256,214.667 568.452,203.754 			"/>
			<polygon fill="#FFFFFF" points="567.02,210.898 583.454,221.388 592.354,215.953 576.551,205.038 			"/>
			<polygon fill="#FDFBE5" points="318.918,174.464 335.352,184.952 344.251,179.519 328.447,168.604 			"/>
			<polygon fill="#FFFFFF" points="327.016,175.748 343.451,186.238 352.351,180.803 336.547,169.89 			"/>
			<polygon fill="#FDFBE5" points="275.749,378.112 292.183,388.601 301.082,383.167 285.278,372.253 			"/>
			<polygon fill="#FFFFFF" points="283.847,379.396 300.281,389.887 309.182,384.452 293.378,373.538 			"/>
			<polygon fill="#FDFBE5" points="132.63,282.51 149.062,292.999 157.963,287.565 142.159,276.65 			"/>
			<polygon fill="#FFFFFF" points="140.728,283.794 157.162,294.285 166.061,288.849 150.257,277.936 			"/>
			<g>
				<polygon fill="#F4A283" points="240.914,225.455 227.648,232.364 245.071,243.076 258.171,235.433 				"/>
				<polygon fill="#F4A283" points="227.641,232.367 227.655,235.014 245.046,245.806 245.064,243.08 				"/>
				<polygon fill="#F4A283" points="245.062,243.071 245.03,245.793 258.199,237.409 258.167,235.43 				"/>
				<polygon fill="#E58D73" points="245.046,243.327 245.03,245.249 258.183,236.887 258.174,235.876 				"/>
				<polygon fill="#E58D73" points="233.135,238.358 233.135,235.702 246.212,228.519 247.361,229.165 234.287,236.452 
					234.287,239.072 				"/>
			</g>
			<g>
				<polygon fill="#F4A283" points="477.909,260.351 464.641,267.259 482.066,277.97 495.166,270.329 				"/>
				<polygon fill="#F4A283" points="464.634,267.263 464.648,269.91 482.041,280.701 482.059,277.976 				"/>
				<polygon fill="#F4A283" points="482.057,277.965 482.025,280.689 495.192,272.304 495.162,270.325 				"/>
				<polygon fill="#E58D73" points="482.041,278.223 482.025,280.144 495.178,271.783 495.167,270.771 				"/>
				<polygon fill="#E58D73" points="470.13,273.253 470.13,270.598 483.205,263.415 484.356,264.061 471.282,271.346 
					471.282,273.968 				"/>
			</g>
			<g>
				<polygon fill="#F4A283" points="421.377,123.166 408.111,130.073 425.536,140.786 438.634,133.144 				"/>
				<polygon fill="#F4A283" points="408.104,130.079 408.118,132.724 425.509,143.517 425.527,140.791 				"/>
				<polygon fill="#F4A283" points="425.525,140.78 425.493,143.504 438.662,135.118 438.63,133.141 				"/>
				<polygon fill="#E58D73" points="425.509,141.036 425.493,142.96 438.646,134.597 438.637,133.587 				"/>
				<polygon fill="#E58D73" points="413.598,136.069 413.598,133.413 426.675,126.23 427.826,126.877 414.75,134.162 
					414.75,136.783 				"/>
			</g>
			<g>
				<polygon fill="#F4A283" points="443.911,463.505 430.643,470.412 448.068,481.125 461.167,473.483 				"/>
				<polygon fill="#F4A283" points="430.636,470.417 430.65,473.062 448.042,483.854 448.06,481.128 				"/>
				<polygon fill="#F4A283" points="448.059,481.119 448.026,483.843 461.194,475.457 461.164,473.48 				"/>
				<polygon fill="#E58D73" points="448.042,481.375 448.026,483.299 461.18,474.935 461.169,473.925 				"/>
				<polygon fill="#E58D73" points="436.132,476.406 436.132,473.752 449.206,466.569 450.358,467.215 437.283,474.5 
					437.283,477.122 				"/>
			</g>
			<g>
				<polygon fill="#F4A283" points="633.615,335.434 620.348,342.343 637.771,353.053 650.871,345.412 				"/>
				<polygon fill="#F4A283" points="620.341,342.346 620.354,344.993 637.746,355.784 637.764,353.059 				"/>
				<polygon fill="#F4A283" points="637.762,353.048 637.73,355.772 650.899,347.387 650.867,345.408 				"/>
				<polygon fill="#E58D73" points="637.746,353.306 637.73,355.227 650.883,346.866 650.874,345.854 				"/>
				<polygon fill="#E58D73" points="625.835,348.336 625.835,345.681 638.912,338.498 640.061,339.144 626.987,346.429 
					626.987,349.051 				"/>
			</g>
			<g>
				<polygon fill="#FCD0A3" points="358.094,274.369 355.875,273.053 355.879,228.988 358.096,230.358 				"/>
				<polygon fill="#F9BD7D" points="360.322,273.019 358.099,274.385 358.099,230.367 360.322,229.001 				"/>
			</g>
			<g>
				<polygon fill="#FCD0A3" points="413.68,421.476 411.463,420.158 411.467,376.094 413.684,377.466 				"/>
				<polygon fill="#F9BD7D" points="415.91,420.126 413.688,421.492 413.688,377.473 415.91,377.095 				"/>
			</g>
			<g>
				<polygon fill="#FCD0A3" points="506.213,365.028 503.996,363.712 503.998,319.648 506.217,321.018 				"/>
				<polygon fill="#F9BD7D" points="508.443,363.678 506.22,365.045 506.22,321.027 508.443,320.649 				"/>
			</g>
			<g>
				<polygon fill="#FCD0A3" points="600.726,307.662 598.508,306.347 598.511,262.281 600.728,263.653 				"/>
				<polygon fill="#F9BD7D" points="602.954,306.312 600.732,307.68 600.732,263.66 602.954,263.282 				"/>
			</g>
			<polygon fill="#F9BD7D" points="411.39,376.37 411.39,373.805 434.878,388.334 434.878,390.897 			"/>
			<g>
				<polygon fill="#FCD0A3" points="171.363,386.316 169.146,385 169.148,340.935 171.365,342.305 				"/>
				<polygon fill="#F9BD7D" points="173.593,384.965 171.369,386.332 171.369,342.314 173.593,340.948 				"/>
			</g>
			<g>
				<polygon fill="#FCD0A3" points="265.644,331.272 263.427,329.956 263.428,285.891 265.647,287.261 				"/>
				<polygon fill="#F9BD7D" points="267.873,329.922 265.651,331.288 265.651,287.27 267.873,285.902 				"/>
			</g>
			<polygon fill="#FCD0A3" points="216.746,340.634 192.914,326.148 169.146,340.93 192.634,355.457 			"/>
			<polygon fill="#F9BD7D" points="169.146,343.492 169.146,340.93 192.634,355.457 192.634,358.021 			"/>
			<polygon fill="#494845" points="207.38,340.224 205.868,335.822 198.445,331.691 178.612,324.193 173.587,326.29 
				187.428,337.801 187.428,337.801 164.748,329.982 159.832,332.212 165.013,372.654 157.364,376.858 165.013,379.351 
				168.537,378.887 169.146,340.93 192.493,350.152 			"/>
			<polygon fill="#90CDC6" points="182.371,346.528 178.632,299.754 182.371,301.184 192.493,350.152 			"/>
			<polygon fill="#90CDC6" points="207.271,340.224 191.861,295.316 182.264,301.184 192.385,350.152 			"/>
			<polyline fill="#F9BD7D" points="214.708,295.316 216.746,296.795 192.634,311.618 190.598,310.138 			"/>
			<polygon fill="#F9BD7D" points="192.634,355.457 190.604,354.196 190.598,310.138 192.634,311.618 			"/>
			<polygon fill="#F9BD7D" points="214.649,341.923 212.897,340.86 212.903,296.469 214.939,297.948 			"/>
			<polygon fill="#F4A353" points="214.792,320.599 216.735,319.383 216.739,340.639 214.652,341.918 			"/>
			<polyline fill="#F4A353" points="192.634,334.026 192.634,311.618 216.746,296.795 216.739,319.393 192.634,334.026 			"/>
			<polygon fill="#FCD0A3" points="403.475,227.699 379.643,213.213 355.875,227.994 379.365,242.521 			"/>
			<polygon fill="#F9BD7D" points="355.875,230.557 355.875,227.994 379.365,242.521 379.365,245.084 			"/>
			<polygon fill="#F9BD7D" points="401.378,228.988 399.628,227.923 399.632,183.534 401.669,185.013 			"/>
			<polygon fill="#F4A353" points="401.523,207.663 403.466,206.447 403.469,227.704 401.383,228.983 			"/>
			<polygon fill="#53453C" points="394.109,227.289 393.983,222.498 385.176,218.754 365.341,211.257 360.318,213.354 
				374.157,224.864 374.157,224.864 351.479,217.045 346.563,219.277 351.744,259.718 344.093,263.923 351.744,266.416 
				355.268,265.952 355.875,227.994 379.224,237.217 			"/>
			<polygon fill="#9E97CA" points="393.983,222.498 392.988,184.397 380.277,190.708 378.88,230.26 			"/>
			<polyline fill="#F9BD7D" points="401.439,182.381 403.475,183.86 379.365,198.682 377.327,197.203 			"/>
			<polyline fill="#F4A353" points="379.365,221.089 379.365,198.682 403.475,183.86 403.469,206.458 379.365,221.089 			"/>
			<polygon fill="#F9BD7D" points="379.365,242.521 377.334,241.261 377.327,197.203 379.365,198.682 			"/>
			<polyline fill="#F4A353" points="381.186,241.468 379.365,242.521 379.365,221.089 381.149,220.045 			"/>
			<g>
				<polygon fill="#FCD0A3" points="452.516,217.464 450.299,216.148 450.301,172.084 452.519,173.454 				"/>
				<polygon fill="#F9BD7D" points="454.745,216.114 452.523,217.48 452.523,173.462 454.393,173.289 				"/>
			</g>
		</g>
	</g>
</g>
</svg>
