<?xml version="1.0" encoding="utf-8"?>
<!-- Generator: Adobe Illustrator 17.0.0, SVG Export Plug-In . SVG Version: 6.00 Build 0)  -->
<!DOCTYPE svg PUBLIC "-//W3C//DTD SVG 1.1//EN" "http://www.w3.org/Graphics/SVG/1.1/DTD/svg11.dtd">
<svg version="1.1" id="Objects" xmlns="http://www.w3.org/2000/svg" xmlns:xlink="http://www.w3.org/1999/xlink" x="0px" y="0px"
	 width="800px" height="800px" viewBox="-100 -175 800 800" enable-background="new -100 -175 800 800" xml:space="preserve">
<g>
	<g opacity="0.5">
		<g>
			<path fill="#4D4D4D" d="M491.907,167.84v-36.506l-30.934-7.358c-1.323-6.59-2.036-13.011-4.273-19.222l25.134-22.562
				l-17.985-31.621l-32.238,10.192c-4.396-4.987-9.071-9.648-14.138-13.943l10.074-31.894L395.942-3.325l-22.911,24.988
				c-6.323-2.136-12.858-5.134-19.572-6.327l-6.962-32.679h-36.51l-7.064,33.126c-6.787,1.342-13.396,3.836-19.778,6.142
				L261.463-1.379l-31.617,18.422l9.79,31.205c-5.139,4.507-9.938,9.432-14.349,14.653L194.65,53.27l-18.262,31.637l24.015,22.036
				c-2.178,6.417-3.891,13.053-5.102,19.852l-31.347,6.977l-0.007,36.515l31.809,7.06c1.339,6.79,3.178,13.4,5.48,19.782
				l-23.627,21.679l18.248,31.621l31.12-9.799c4.513,5.141,9.393,9.945,14.623,14.356l-9.64,30.637l31.608,18.255l22.025-24.015
				c6.336,2.152,12.872,5.056,19.586,6.263l7.245,33.827h36.51l7.346-34.282c6.599-1.315,13.014-3.712,19.235-5.945l22.567,24.299
				l31.608-18.407l-10.188-32.446c4.987-4.388,9.648-9.169,13.948-14.239l31.89,10.014l18.251-31.633l-24.979-22.915
				c2.105-6.251,1.621-12.691,2.823-19.304L491.907,167.84z M330.067,204.362c-29.236,0-52.941-23.708-52.941-52.941
				c0-29.24,23.705-52.945,52.941-52.945c29.236,0,52.941,23.705,52.941,52.945C383.008,180.654,359.305,204.362,330.067,204.362z"
				/>
			<g>
				<path fill="#FFFFFF" d="M448.108,183.604l24.988,22.913l-18.255,31.621l-31.89-10.037c-4.303,5.067-8.958,9.817-13.952,14.205
					l10.192,32.373l-31.608,18.255l-22.567-24.601c-6.217,2.233-12.633,3.527-19.231,4.843l-7.353,32.576h-36.506l-7.245-32.118
					c-6.714-1.211-13.25-2.656-19.581-4.813l-22.031,24.14l-31.613-18.187l9.64-30.607c-5.225-4.415-10.106-9.194-14.616-14.337
					l-31.118,9.798l-18.251-31.613l23.627-21.676c-2.302-6.386-6.224-12.997-7.568-19.785l-33.886-7.065v-36.51l33.438-6.968
					c1.211-6.806,3.959-13.435,6.137-19.851L165.36,74.125l18.523-31.612l30.776,9.64c4.408-5.225,9.277-10.106,14.415-14.61
					l-9.769-31.127l31.644-18.251l21.685,23.63c6.389-2.299,12.998-3.614,19.787-4.956l7.069-31.281h36.513l6.964,30.836
					c6.71,1.188,13.249,2.608,19.574,4.74l22.92-25.116l31.617,18.191L407.04,36.063c5.067,4.3,9.813,8.949,14.205,13.932
					l32.372-10.201l18.255,31.615l-24.603,22.563c2.237,6.213,1.809,12.629,3.123,19.219l30.861,7.355v36.51l-30.403,7.254
					C449.661,170.913,450.217,177.357,448.108,183.604z M319.572,87.687c-29.236,0-52.941,23.703-52.941,52.941
					c0,29.242,23.705,52.941,52.941,52.941c29.236,0,52.941-23.699,52.941-52.941C372.513,111.39,348.808,87.687,319.572,87.687z"/>
				<g>
					<path fill="#CCCCCC" d="M319.572,50.263c-49.906,0-90.365,40.463-90.365,90.365c0,49.911,40.46,90.361,90.365,90.361
						s90.361-40.451,90.361-90.361C409.931,90.726,369.477,50.263,319.572,50.263z M319.572,193.569
						c-29.236,0-52.941-23.699-52.941-52.941c0-29.236,23.705-52.941,52.941-52.941c29.236,0,52.941,23.703,52.941,52.941
						C372.513,169.868,348.808,193.569,319.572,193.569z"/>
				</g>
			</g>
		</g>
		<g>
			<path fill="#4D4D4D" d="M216.745-29.749v-25.484l-24.147-5.129c-0.914-4.605-2.695-9.089-4.252-13.423l16.914-15.755
				l-12.876-22.077l-22.661,7.119c-3.069-3.481-6.414-6.733-9.954-9.737l6.987-22.265l-22.073-12.741l-16.011,17.442
				c-4.411-1.488-8.981-5.525-13.666-6.357l-4.859-24.757H84.66l-4.935,25.068c-4.74,0.941-9.352,3.657-13.813,5.262l-15.132-15.778
				l-22.08,13.105l6.84,21.894c-3.586,3.151-6.938,6.652-10.014,10.3l-21.39-6.696L-8.613-87.654L8.154-72.27
				c-1.523,4.477-4.639,9.121-5.487,13.875l-23.804,4.862v25.489L2.99-23.111c0.934,4.743,3.172,9.356,4.784,13.817L-8.242,5.832
				L4.735,27.909l21.857-6.84c3.147,3.59,6.607,6.941,10.259,10.023l-6.698,21.386l22.08,12.744l15.381-16.764
				c4.426,1.504,8.993,2.787,13.675,3.636l5.068,22.874h25.489l5.129-23.19c4.6-0.925,9.084-2.224,13.423-3.787l15.755,17.149
				l22.068-12.76l-7.112-22.601c3.481-3.069,6.737-6.375,9.737-9.918l22.258,7.002l12.744-22.077l-17.442-15.991
				c1.473-4.362,3.677-8.862,4.511-13.478L216.745-29.749z M98.677-4.251c-20.415,0-36.966-16.551-36.966-36.96
				c0-20.406,16.551-36.957,36.966-36.957c20.41,0,36.957,16.551,36.957,36.957C135.634-20.802,119.087-4.251,98.677-4.251z"/>
			<g>
				<path fill="#FFFFFF" d="M181.082-18.739l17.442,15.995l-12.744,22.073l-22.261-7.007c-3.004,3.54-6.251,6.852-9.741,9.918
					l7.115,22.597l-22.064,12.744l-15.755-17.175c-4.342,1.557-8.816,3.128-13.428,4.049l-5.132,23.412H79.03l-5.063-23.096
					c-4.688-0.852-9.244-2.185-13.666-3.689L44.919,57.774L22.851,44.996l6.728-21.415c-3.645-3.08-7.057-6.451-10.202-10.03
					L-2.348,20.38L-15.082-1.7L1.41-16.822c-1.612-4.465-3.776-9.082-4.717-13.813l-23.091-4.94l3.543-25.485l21.001-4.866
					c0.852-4.747,1.596-9.382,3.119-13.859l-16.991-15.382l12.64-22.072l21.331,6.732c3.085-3.648,6.405-7.057,9.991-10.195
					l-6.849-21.732l22.068-12.741l15.132,16.501c4.454-1.608,9.063-3.772,13.81-4.704l4.928-23.08h25.485l4.866,22.759
					c4.681,0.833,9.244,2.45,13.666,3.936l15.998-17.22l22.073,12.849l-7.007,22.318c3.54,3.004,6.849,6.283,9.915,9.769
					l22.601-7.112l12.741,22.086l-17.168,15.761c1.553,4.335,3.964,8.823,4.885,13.424l24.259,5.132v25.478l-23.939,5.063
					C184.872-27.605,182.555-23.101,181.082-18.739z M91.349-85.701c-20.413,0-36.96,16.547-36.96,36.957
					s16.547,36.957,36.96,36.957c20.406,0,36.953-16.547,36.953-36.957C128.302-69.154,111.757-85.701,91.349-85.701z"/>
				<g>
					<path fill="#CCCCCC" d="M91.349-111.825c-34.837,0-63.09,28.242-63.09,63.083c0,34.844,28.253,63.083,63.09,63.083
						s63.083-28.239,63.083-63.083C154.432-83.583,126.186-111.825,91.349-111.825z M91.349-11.787
						c-20.413,0-36.96-16.547-36.96-36.957s16.547-36.957,36.96-36.957c20.406,0,36.953,16.547,36.953,36.957
						C128.302-28.332,111.757-11.787,91.349-11.787z"/>
				</g>
			</g>
		</g>
	</g>
	<path fill="#FC8D25" d="M136.411,321.114h327.224c12.162,0,22.111,9.948,22.111,22.111l0,0c0,12.162-9.948,22.111-22.111,22.111
		H136.411c-12.162,0-22.111-9.948-22.111-22.111l0,0C114.301,331.063,124.249,321.114,136.411,321.114z"/>
	<rect x="251.992" y="321.114" fill="#FC8D25" width="96.064" height="303.594"/>
	<g>
		<path fill="#27557D" d="M-51.945,393.413h193.938c43.397,0,37.832,59.982,0,59.982H-4.156
			C-53.452,453.395-62.144,421.648-51.945,393.413z"/>
		<polygon fill="#D1A886" points="13.529,155.678 49.183,165.666 39.812,228.729 -1.363,217.538 		"/>
		<path fill="#F2CAA9" d="M60.138,176.96C97.5,165.348,93.996,30.913,15.519,54.935C-30.685,69.075-25,123.775,0.252,155.508
			C15.136,174.206,42.404,182.47,60.138,176.96z"/>
		<path fill="#57291E" d="M76.731,88.285c-5.063,10.126-43.905,28.343-60.8,29.67C-0.967,119.28,14.685,53.872,76.731,88.285z"/>
		<path fill="#57291E" d="M4.513,57.381c-32.515,18.633-33.644,82.204,5.793,109.916c-0.421-5.872,0.756-12.389,5.191-30.048
			c2.556,1.72,16.004,16.829,14.623-4.701c-2.56-39.78,13.277-51.888,46.398-42.387C75.041,56.151,30.137,42.697,4.513,57.381z"/>
		
			<ellipse transform="matrix(-0.9939 0.1099 -0.1099 -0.9939 37.3037 261.7676)" fill="#F2CAA9" cx="11.438" cy="131.912" rx="9.407" ry="16.859"/>
		<path fill="#3F73A1" d="M44.243,230.602L32.366,393.416c-33.348-0.007-62.527,3.132-94.07,14.094
			c9.625-81.114,25.258-157.936,59.692-221.331C11.806,203.255,35.61,231.671,44.243,230.602z"/>
		<g>
			<path fill="#D4B194" d="M220.503,276.421l-21.903,4.307c-2.823,0.556-12.965,5.457-12.64,8.313
				c0.328,2.855,9.089,2.938,11.896,2.31l15.297-3.968C221.927,285.109,221.197,279.464,220.503,276.421z"/>
			<path fill="#FFD7B7" d="M225.253,294.669l0.925-0.023c3.579,2.503,1.516,8.738-3.139,9.251c4.017,2.059,2.56,8.086-1.569,9.37
				c3.389,2.51,1.083,8.658-3.707,8.642l-21.93-0.066c-6.158-0.02-14.071-3.375-17.206-6.013
				c-9.286-7.816-3.343-22.054,2.141-25.551c4.277-2.727,7.026-5.148,10.319-5.182l34.035-0.138
				C232.842,284.875,231.602,294.772,225.253,294.669z"/>
			<path fill="#D4B194" d="M213.789,313.572c0,0,4.349,0.096,8.214,0.169c-0.158-0.165-0.336-0.328-0.533-0.474
				c0.362-0.112,0.705-0.263,1.023-0.444C218.564,313.131,213.789,313.572,213.789,313.572L213.789,313.572z M226.279,294.722
				c0.309,0.231,0.579,0.49,0.802,0.77c-4.33-0.092-11.725-0.421-11.725-0.421s7.6-0.401,10.824-0.428
				C226.128,294.649,226.175,294.672,226.279,294.722L226.279,294.722z M224.888,303.341c-0.556,0.286-1.177,0.483-1.848,0.556
				c0.266,0.135,0.509,0.289,0.73,0.458c-4.277-0.039-9.576-0.112-9.576-0.112S220.789,303.62,224.888,303.341z"/>
		</g>
		<rect x="167.462" y="286.181" fill="#FFFFFF" width="21.614" height="34.933"/>
		<path fill="#27557D" d="M38.269,219.493l49.625,62.929h86.987v42.471l-93.376,0.826c-16.416,0.147-24.736-12.359-28.99-17.383
			L2.768,249.597C-17.301,225.901,18.935,194.98,38.269,219.493z"/>
		<path fill="#57291E" d="M139.181,561.952c-4.605,5.965-10.517,24.637-10.705,32.167c-0.188,7.534-0.462,13.458,2.865,13.833
			l12.162,1.365c2.214,0.25,3.753-2.445,4.111-5.629c5.714-0.559,17.175,8.021,31.354,9.613l34.315,3.852
			c7.06,0.795,19.277-0.733,19.709-8.974c0.435-8.241-20.218-13.998-34.555-20.117c-14.34-6.119-33.541-33.614-33.495-41.138
			c0.069-10.666-7.712,26.446-15.981,26.742C140.851,573.96,141.703,559.497,139.181,561.952z"/>
		<path fill="#27557D" d="M123.864,415.277h39.987c5.5,0,8.125-1.339,8.633,4.135l14.399,145.491
			c0.54,5.468-4.504,9.998-9.995,9.998H136.9c-5.498,0-9.494-4.523-10.003-9.998l-13.034-139.631
			C113.356,419.796,118.366,415.277,123.864,415.277z"/>
		<path fill="#FC8D25" d="M-77.155,453.395H83.8c12.162,0,22.111,9.948,22.111,22.111l0,0c0,12.162-9.948,22.111-22.111,22.111
			H-77.155c-12.162,0-22.111-9.948-22.111-22.111l0,0C-99.268,463.343-89.319,453.395-77.155,453.395z"/>
		<path fill="#FC8D25" d="M-99.268,475.505V294.094c0-12.162,9.948-22.111,22.111-22.111l0,0c12.162,0,22.111,9.948,22.111,22.111
			v181.412c0,12.162-9.948,22.111-22.111,22.111l0,0C-89.319,497.618-99.268,487.667-99.268,475.505z"/>
		<rect x="-4.39" y="473.087" fill="#FC8D25" width="15.429" height="125.417"/>
		<path fill="#FC8D25" d="M-65.098,624.707c5.83-10.547,14.021-19.593,23.854-26.426c12.652-8.796,28.015-13.952,44.569-13.952
			c16.551,0,31.913,5.155,44.569,13.952c9.826,6.829,18.015,15.88,23.854,26.426H55.01c-4.204-5.727-9.352-10.738-15.198-14.804
			c-10.334-7.184-22.92-11.399-36.486-11.399c-13.573,0-26.156,4.214-36.49,11.399c-5.849,4.064-10.994,9.077-15.196,14.804H-65.098
			z"/>
		<polygon fill="#FFFFFF" points="-2.178,187.457 2.956,168.446 47.009,219.026 45.865,229.384 		"/>
		<polygon fill="#27557D" points="-4.773,196.425 0.361,177.411 46.066,226.107 44.921,236.46 		"/>
	</g>
	<g>
		<path fill="#4C6173" d="M657.041,393.413H463.109c-43.405,0-37.837,59.982,0,59.982h146.148
			C658.554,453.395,667.243,421.648,657.041,393.413z"/>
		<polygon fill="#D1A886" points="591.569,155.678 555.915,165.666 565.284,228.729 606.465,217.538 		"/>
		<path fill="#688096" d="M560.853,230.602l11.876,162.814c33.348-0.007,62.524,3.132,94.066,14.094
			c-11.607-77.917-26.785-154.057-59.685-221.331C593.291,203.255,569.492,231.671,560.853,230.602z"/>
		<g>
			<path fill="#D4B194" d="M384.593,276.421l21.906,4.307c2.819,0.556,12.965,5.457,12.636,8.313
				c-0.328,2.855-9.089,2.938-11.896,2.31l-15.297-3.968C383.17,285.109,383.899,279.464,384.593,276.421z"/>
			<path fill="#FFD7B7" d="M379.843,294.669l-0.921-0.023c-3.579,2.503-1.52,8.738,3.139,9.251c-4.017,2.059-2.563,8.086,1.566,9.37
				c-3.389,2.51-1.085,8.658,3.701,8.642l21.937-0.066c6.155-0.02,14.067-3.375,17.202-6.013c9.285-7.816,3.346-22.054-2.137-25.551
				c-4.28-2.727-7.026-5.148-10.323-5.182l-34.031-0.138C372.25,284.875,373.495,294.772,379.843,294.669z"/>
			<path fill="#D4B194" d="M391.307,313.572c0,0-4.349,0.096-8.214,0.169c0.162-0.165,0.336-0.328,0.533-0.474
				c-0.359-0.112-0.701-0.263-1.023-0.444C386.534,313.131,391.307,313.572,391.307,313.572L391.307,313.572z M378.817,294.722
				c-0.312,0.231-0.579,0.49-0.802,0.77c4.33-0.092,11.727-0.421,11.727-0.421s-7.6-0.401-10.82-0.428
				C378.968,294.649,378.925,294.672,378.817,294.722L378.817,294.722z M380.209,303.341c0.556,0.286,1.177,0.483,1.852,0.556
				c-0.27,0.135-0.513,0.289-0.733,0.458c4.277-0.039,9.576-0.112,9.576-0.112S384.311,303.62,380.209,303.341z"/>
		</g>
		<rect x="416.02" y="286.181" fill="#FFFFFF" width="21.614" height="34.933"/>
		<path fill="#4C6173" d="M566.831,219.493l-49.629,62.929h-86.987v42.471l93.379,0.826c16.412,0.147,24.733-12.359,28.986-17.383
			l49.748-58.737C622.397,225.901,586.165,194.98,566.831,219.493z"/>
		<path fill="#2C3945" d="M465.191,560.676c5.02,5.622,12.251,23.827,12.975,31.324c0.73,7.5,1.424,13.392-1.866,14.001
			l-12.036,2.233c-2.191,0.405-3.918-2.171-4.504-5.322c-5.738-0.151-16.558,9.228-30.584,11.83l-33.953,6.297
			c-6.984,1.296-19.281,0.644-20.303-7.543c-1.021-8.186,19.165-15.406,33.032-22.535c13.863-7.135,31.045-35.927,30.46-43.428
			c-0.829-10.635,9.59,25.828,17.857,25.531C464.385,572.778,462.5,558.409,465.191,560.676z"/>
		<path fill="#4C6173" d="M481.232,415.277h-39.989c-5.498,0-7.816-2.78-8.329,2.691l-14.699,146.935
			c-0.549,5.468,4.5,9.998,9.995,9.998h39.987c5.494,0,9.494-4.523,10.003-9.998l13.034-139.631
			C491.743,419.796,486.732,415.277,481.232,415.277z"/>
		<path fill="#FC8D25" d="M682.253,453.395H521.297c-12.162,0-22.111,9.948-22.111,22.111l0,0c0,12.162,9.948,22.111,22.111,22.111
			h160.956c12.162,0,22.111-9.948,22.111-22.111l0,0C704.364,463.343,694.415,453.395,682.253,453.395z"/>
		<path fill="#FC8D25" d="M704.364,475.505V294.094c0-12.162-9.948-22.111-22.111-22.111l0,0c-12.162,0-22.111,9.948-22.111,22.111
			v181.412c0,12.162,9.948,22.111,22.111,22.111l0,0C694.415,497.618,704.364,487.667,704.364,475.505z"/>
		<rect x="594.063" y="473.087" fill="#FC8D25" width="15.425" height="125.417"/>
		<path fill="#FC8D25" d="M670.194,624.707c-5.83-10.547-14.024-19.593-23.85-26.423c-12.656-8.8-28.019-13.955-44.569-13.955
			c-16.554,0-31.921,5.155-44.573,13.955c-9.821,6.826-18.02,15.876-23.85,26.423h16.735c4.204-5.727,9.347-10.738,15.196-14.8
			c10.339-7.188,22.917-11.402,36.49-11.402c13.57,0,26.153,4.214,36.487,11.402c5.849,4.06,10.994,9.073,15.201,14.8H670.194z"/>
		<polygon fill="#FFFFFF" points="607.274,187.457 602.142,168.446 558.089,219.026 559.234,229.384 		"/>
		<polygon fill="#4C6173" points="609.873,196.425 604.741,177.411 559.774,229.26 560.175,236.46 		"/>
		<path fill="#F2CAA9" d="M534.058,176.96C496.7,165.348,500.201,30.913,578.677,54.935c46.204,14.14,40.52,68.84,15.267,100.573
			C579.058,174.206,551.791,182.47,534.058,176.96z"/>
		<path fill="#6E4D28" d="M586.435,58.198c36.029,13.504,36.43,68.995,4.997,99.708c1.493-7.041,2.01-13.847-0.382-33.545
			c-2.556,1.724-15.594,7.701-17.149-13.257c-2.175-29.229-35.7-31.825-54.526-28.883C533.891,50.698,555.063,46.43,586.435,58.198z
			"/>
		
			<ellipse transform="matrix(-0.9939 -0.1099 0.1099 -0.9939 1152.5199 315.1885)" fill="#F2CAA9" cx="584.946" cy="125.831" rx="9.407" ry="16.859"/>
	</g>
</g>
</svg>
