<?xml version="1.0" encoding="utf-8"?>
<!-- Generator: Adobe Illustrator 17.0.0, SVG Export Plug-In . SVG Version: 6.00 Build 0)  -->
<!DOCTYPE svg PUBLIC "-//W3C//DTD SVG 1.1//EN" "http://www.w3.org/Graphics/SVG/1.1/DTD/svg11.dtd">
<svg version="1.1" id="Layer_3" xmlns="http://www.w3.org/2000/svg" xmlns:xlink="http://www.w3.org/1999/xlink" x="0px" y="0px"
	 width="400px" height="100px" viewBox="-150 0 400 100" enable-background="new -150 0 400 100" xml:space="preserve">
<path fill="#FF0000" d="M-53.362,61.117l3.344-26.365l-23.987-9.102l-7.596,3.627c-0.234,1.16-0.59,2.289-1.055,3.375l5.75-2.746
	l-2.374,25.553l0.133,1.369l-17.52,2.643l-1.438,2.836l19.211-2.896l2.215,22.664l2.578-0.254l-2.229-22.795l0.225-0.035
	l20.086,2.545l0.049-0.393l3.035,25.49l-20.918-4.828l-27.22,5.185l-0.227-0.043l2.447-23.25l-0.016-0.141l-0.1-0.871l-3.354-6.621
	l0.473,4.188l-0.598,0.09l-19.404-3.006l0.115-0.955l-2.973-23.44l13.576,5.732l-1.133-2.234c-0.367-0.475-0.699-0.973-1.014-1.48
	l-14.566-6.152l3.5,27.584l-0.066,0.549l-0.049-0.008l-0.398,2.558l0.143,0.021l-2.99,25.119l26.637,4.994l27.168-5.174
	l23.977,5.533L-53.362,61.117z M-76.134,56.375l-0.447,0.066l-0.098-0.973l2.496-26.863l0.295-0.141l21.043,7.984l-2.857,22.514
	L-76.134,56.375z M-103.854,86.469l-20.996-3.938l2.695-22.621l19.703,3.053l0.895-0.135l0.1,0.879L-103.854,86.469z
	 M-98.632,63.348l-0.336-0.662l-0.027-0.244l0.891-0.135L-98.632,63.348z M-110.253,34.225l11.441,22.578l11.316-22.336
	c2.223-2.592,3.574-5.951,3.574-9.627c0-8.174-6.65-14.824-14.824-14.824s-14.822,6.65-14.822,14.824
	c0,3.559,1.262,6.826,3.359,9.385H-110.253z M-98.745,15.729c5.023,0,9.111,4.088,9.111,9.111s-4.088,9.111-9.111,9.111
	c-5.023,0-9.111-4.088-9.111-9.111S-103.769,15.729-98.745,15.729z"/>
<text transform="matrix(1 0 0 1 -35 66.5)" fill="#FFFFFF" font-family="'MicrosoftTaiLe-Bold'" font-size="42">Encuentranos</text>
</svg>
