<?xml version="1.0" encoding="utf-8"?>
<!-- Generator: Adobe Illustrator 17.0.0, SVG Export Plug-In . SVG Version: 6.00 Build 0)  -->
<!DOCTYPE svg PUBLIC "-//W3C//DTD SVG 1.1//EN" "http://www.w3.org/Graphics/SVG/1.1/DTD/svg11.dtd">
<svg version="1.1" id="Isolation_Mode" xmlns="http://www.w3.org/2000/svg" xmlns:xlink="http://www.w3.org/1999/xlink" x="0px"
	 y="0px" width="800px" height="800px" viewBox="0 0 800 800" enable-background="new 0 0 800 800" xml:space="preserve">
<g>
	<polygon fill-rule="evenodd" clip-rule="evenodd" fill="#F0F8FF" points="458.265,5.663 759.832,108.163 614.978,534.986 
		313.41,432.487 	"/>
	<g>
		<polygon fill-rule="evenodd" clip-rule="evenodd" fill="#DB7C64" points="469.913,28.442 553.189,56.746 548.421,70.798 
			465.144,42.492 		"/>
		<polygon fill-rule="evenodd" clip-rule="evenodd" fill="#83B8E6" points="461.265,53.919 723.622,143.094 707.225,191.409 
			444.868,102.235 		"/>
		<path fill="#FFFFFF" d="M464.211,76.452c0.373-0.186,0.823-0.033,1.009,0.34c0.184,0.373,0.032,0.826-0.34,1.011l-5.111,2.553
			l2.5,5.14c0.181,0.373,0.027,0.826-0.346,1.009c-0.373,0.184-0.825,0.029-1.008-0.345l-2.824-5.809l-0.002-0.004l-0.008-0.014
			l-0.001-0.003l-0.006-0.015l-0.002-0.003l-0.006-0.014l-0.002-0.004l-0.006-0.014v-0.004l-0.006-0.014l-0.002-0.003l-0.004-0.015
			V80.24l-0.006-0.014v-0.005l-0.005-0.013v-0.005l-0.004-0.014v-0.004l-0.003-0.014l-0.002-0.004l-0.003-0.014v-0.004l-0.003-0.014
			l-0.002-0.005l-0.002-0.018l-0.001-0.014l-0.002-0.004V80.08l-0.002-0.004v-0.014v-0.004l-0.002-0.014v-0.004v-0.015v-0.003
			v-0.014v-0.005l0.002-0.013l-0.002-0.005l0.002-0.015v-0.003l0.002-0.014v-0.004l0.002-0.014V79.93l0.003-0.014v-0.005
			l0.002-0.013l0.002-0.005l0.001-0.014l0.002-0.004l0.003-0.014l0.001-0.005l0.002-0.014l0.002-0.003l0.003-0.015v-0.003
			l0.005-0.014v-0.004l0.006-0.012v-0.004l0.004-0.014l0.002-0.004l0.004-0.012l0.002-0.003l0.004-0.015l0.002-0.003l0.006-0.012
			l0.002-0.005l0.006-0.012l0.002-0.004l0.006-0.012v-0.005l0.008-0.012l0.001-0.003l0.008-0.014l0.002-0.003l0.006-0.012
			l0.003-0.003l0.006-0.012l0.003-0.005l0.008-0.012l0.002-0.003l0.008-0.012l0.003-0.003l0.008-0.012l0.003-0.003l0.008-0.012
			l0.003-0.003l0.009-0.011l0.002-0.004l0.009-0.011l0.003-0.003l0.009-0.01l0.003-0.003l0.009-0.011l0.003-0.004l0.009-0.009
			l0.003-0.003l0.009-0.011l0.014-0.012l0.003-0.004l0.011-0.009l0.003-0.003l0.011-0.011l0.004-0.002l0.011-0.009l0.003-0.003
			l0.012-0.009l0.002-0.003l0.012-0.009l0.003-0.002l0.014-0.009l0.003-0.002l0.012-0.009l0.003-0.002l0.014-0.009l0.003-0.001
			l0.014-0.008l0.003-0.003l0.012-0.008l0.004-0.001l0.014-0.008l0.003-0.002l0.014-0.008l0.005-0.001L464.211,76.452
			L464.211,76.452z M707.574,159.17c-0.183-0.375-0.634-0.529-1.008-0.346c-0.372,0.183-0.527,0.636-0.344,1.011l2.499,5.138
			l-5.111,2.555c-0.37,0.184-0.523,0.638-0.34,1.009c0.186,0.373,0.638,0.526,1.009,0.34l5.774-2.886l0.005-0.001l0.014-0.006
			l0.004-0.003l0.012-0.006l0.005-0.003l0.013-0.008l0.003-0.002l0.012-0.009l0.005-0.001l0.012-0.008l0.004-0.002l0.011-0.009
			l0.003-0.003l0.014-0.008l0.003-0.003l0.012-0.009l0.003-0.003l0.012-0.009l0.002-0.002l0.012-0.009l0.003-0.003l0.011-0.011
			l0.003-0.003l0.011-0.009l0.003-0.003l0.014-0.012l0.01-0.011l0.002-0.003l0.011-0.011l0.003-0.003l0.009-0.012l0.003-0.002
			l0.009-0.012l0.003-0.003l0.009-0.011l0.002-0.004l0.009-0.011l0.003-0.003l0.008-0.011l0.003-0.003l0.008-0.012l0.002-0.004
			l0.009-0.011l0.002-0.005l0.006-0.012l0.003-0.003l0.008-0.012l0.001-0.003l0.008-0.012l0.002-0.004l0.006-0.012l0.003-0.005
			l0.006-0.012l0.001-0.003l0.006-0.014l0.002-0.004l0.006-0.012l0.002-0.005l0.004-0.012l0.002-0.003l0.004-0.014l0.002-0.004
			l0.006-0.012v-0.005l0.005-0.014l0.002-0.004l0.005-0.014v-0.003l0.005-0.014l0.002-0.003l0.001-0.014l0.002-0.004l0.004-0.014
			v-0.004l0.003-0.014v-0.003l0.003-0.015v-0.003l0.003-0.014v-0.006l0.002-0.012l0.002-0.005l0.001-0.015v-0.003v-0.015
			l0.002-0.003v-0.013l0.002-0.005v-0.015v-0.005v-0.012v-0.006v-0.014l-0.002-0.003v-0.015l-0.002-0.005v-0.014v-0.004
			l-0.001-0.014v-0.005l-0.002-0.014l-0.003-0.018l-0.002-0.004l-0.001-0.015l-0.002-0.003l-0.003-0.015v-0.003l-0.003-0.015
			l-0.002-0.003l-0.003-0.015l-0.002-0.003l-0.003-0.015l-0.002-0.005l-0.005-0.014l-0.002-0.004l-0.005-0.014l-0.002-0.003
			l-0.004-0.015l-0.002-0.003l-0.006-0.015v-0.003l-0.008-0.015l-0.001-0.003l-0.006-0.014l-0.002-0.003l-0.008-0.015l-0.002-0.003
			L707.574,159.17z"/>
		<polygon fill-rule="evenodd" clip-rule="evenodd" fill="#FFAE00" points="440.884,113.977 517.519,140.025 512.876,153.701 
			436.241,127.652 		"/>
		<polygon fill-rule="evenodd" clip-rule="evenodd" fill="#83B8E6" points="533.744,145.539 610.379,171.588 605.738,185.263 
			529.103,159.215 		"/>
		<polygon fill-rule="evenodd" clip-rule="evenodd" fill="#DB7C64" points="626.604,177.102 703.239,203.151 698.6,216.826 
			621.963,190.779 		"/>
		<polygon fill-rule="evenodd" clip-rule="evenodd" fill="#DB7C64" points="433.91,134.523 510.545,160.571 494.64,207.435 
			418.005,181.387 		"/>
		<polygon fill-rule="evenodd" clip-rule="evenodd" fill="#FFAE00" points="526.771,166.086 603.407,192.134 587.5,238.998 
			510.867,212.951 		"/>
		<polygon fill-rule="evenodd" clip-rule="evenodd" fill="#83B8E6" points="619.632,197.649 696.266,223.695 680.362,270.561 
			603.727,244.514 		"/>
		<polygon fill-rule="evenodd" clip-rule="evenodd" fill="#FFAE00" points="724.039,114.817 732.268,117.614 730.378,123.191 
			722.146,120.393 		"/>
		
			<rect x="710.247" y="111.772" transform="matrix(-0.9468 -0.3219 0.3219 -0.9468 1354.2404 453.324)" fill-rule="evenodd" clip-rule="evenodd" fill="#83B8E6" width="8.693" height="5.889"/>
		<polygon fill-rule="evenodd" clip-rule="evenodd" fill="#3A6387" points="698.81,106.242 707.04,109.038 705.147,114.616 
			696.918,111.818 		"/>
		<polygon fill-rule="evenodd" clip-rule="evenodd" fill="#DB7C64" points="686.196,101.954 694.424,104.752 692.533,110.328 
			684.303,107.532 		"/>
		<polygon fill-rule="evenodd" clip-rule="evenodd" fill="#83B8E6" points="412.759,196.845 482.759,220.636 479.532,230.142 
			409.533,206.35 		"/>
		<polygon fill-rule="evenodd" clip-rule="evenodd" fill="#83B8E6" points="406.845,214.274 669.2,303.447 665.973,312.954 
			403.618,223.78 		"/>
		<polygon fill-rule="evenodd" clip-rule="evenodd" fill="#83B8E6" points="400.857,231.914 663.215,321.087 659.988,330.594 
			397.632,241.42 		"/>
		<polygon fill-rule="evenodd" clip-rule="evenodd" fill="#83B8E6" points="394.871,249.554 657.228,338.726 654.002,348.232 
			391.645,259.058 		"/>
		<polygon fill-rule="evenodd" clip-rule="evenodd" fill="#83B8E6" points="388.884,267.193 651.242,356.366 648.013,365.872 
			385.658,276.701 		"/>
		<polygon fill-rule="evenodd" clip-rule="evenodd" fill="#83B8E6" points="382.897,284.831 645.255,374.006 642.028,383.511 
			379.672,294.339 		"/>
		<polygon fill-rule="evenodd" clip-rule="evenodd" fill="#83B8E6" points="376.911,302.471 639.268,391.645 636.042,401.151 
			373.684,311.978 		"/>
		<polygon fill-rule="evenodd" clip-rule="evenodd" fill="#83B8E6" points="370.925,320.111 633.282,409.285 630.055,418.791 
			367.698,329.618 		"/>
		<polygon fill-rule="evenodd" clip-rule="evenodd" fill="#83B8E6" points="354.323,369.028 523.818,426.639 505.942,479.313 
			336.447,421.703 		"/>
		<polygon fill-rule="evenodd" clip-rule="evenodd" fill="#FFAE00" points="361.771,347.084 438.406,373.132 433.763,386.806 
			357.129,360.759 		"/>
		<polygon fill-rule="evenodd" clip-rule="evenodd" fill="#DB7C64" points="547.494,410.209 624.127,436.256 619.486,449.933 
			542.853,423.885 		"/>
		<polygon fill-rule="evenodd" clip-rule="evenodd" fill="#FFAE00" points="540.045,432.153 616.68,458.203 598.804,510.876 
			522.169,484.827 		"/>
	</g>
</g>
<g>
	<polygon fill-rule="evenodd" clip-rule="evenodd" fill="#FFD7B7" points="125.65,675.962 215.715,713.617 143.353,886.961 
		37.57,886.961 	"/>
	<path fill-rule="evenodd" clip-rule="evenodd" fill="#FFD7B7" d="M146.023,582.317l134.058,56.046l-22.924,54.916
		c-17.652,42.283-53.002,65.733-79.6,54.612l-37.335-15.608c-26.599-11.12-39.27-41.997-28.158-68.616L146.023,582.317z"/>
	<path fill-rule="evenodd" clip-rule="evenodd" fill="#FFD7B7" d="M129.509,724.463c-23.097-5.727-47.348-34.824-40.348-62.752
		c9.001-5.122,55.1-10.669,111.486,19.374C192.972,712.721,160.936,732.252,129.509,724.463z"/>
	<path fill-rule="evenodd" clip-rule="evenodd" fill="#EAB78D" d="M114.4,717.43c4.754,15.045,21.694,17.81,36.88,24.109
		c16.616,6.89,28.16,16.887,44.035,10.113c-13.92,3.008-25.057-7.966-41.673-14.856C138.455,730.498,123.515,730.26,114.4,717.43z"
		/>
	<path fill-rule="evenodd" clip-rule="evenodd" fill="#FFD7B7" d="M121.827,669.448l20.157-85.245
		c5.93-25.084-22.253-51.786-27.427-29.899L89.16,661.711L121.827,669.448z"/>
	<path fill-rule="evenodd" clip-rule="evenodd" fill="#FFE8D6" d="M123.043,574.267c5.163-16.646-1.93-24.725-6.683-24.542
		c-0.745,1.193-1.36,2.705-1.803,4.579l-5.237,22.148C115.528,578.274,121.757,578.406,123.043,574.267z"/>
	<path fill-rule="evenodd" clip-rule="evenodd" fill="#FFD7B7" d="M176.229,698.659c-48.297,23.535-70.15-5.685-46.134-62.03
		C169.757,632.734,188.281,675.239,176.229,698.659z"/>
	<path fill-rule="evenodd" clip-rule="evenodd" fill="#EAB78D" d="M176.229,698.659c1.857-23.347-14.206-57.98-46.134-62.03
		C169.757,632.734,188.281,675.239,176.229,698.659z"/>
	<polygon fill-rule="evenodd" clip-rule="evenodd" fill="#ADD95B" points="55.432,809.809 169.879,857.659 202.231,780.16 
		87.784,732.31 	"/>
	<path fill-rule="evenodd" clip-rule="evenodd" fill="#3A6387" d="M92.429,751.019c2.8,1.172,4.121,4.391,2.952,7.193
		c-1.169,2.8-4.387,4.124-7.186,2.952c-2.8-1.17-4.121-4.389-2.952-7.191C86.412,751.173,89.631,749.849,92.429,751.019z"/>
	<g>
		<g>
			<g>
				<rect x="134.486" y="128.612" fill-rule="evenodd" clip-rule="evenodd" fill="#FFFFFF" width="371.033" height="525.14"/>
				<g>
					<g>
						<rect x="168.805" y="198.395" fill-rule="evenodd" clip-rule="evenodd" fill="#E6E6E6" width="135.473" height="11.449"/>
						<rect x="168.805" y="217.857" fill-rule="evenodd" clip-rule="evenodd" fill="#E6E6E6" width="302.396" height="11.447"/>
						<rect x="168.805" y="237.319" fill-rule="evenodd" clip-rule="evenodd" fill="#E6E6E6" width="302.396" height="11.447"/>
						<rect x="168.805" y="256.781" fill-rule="evenodd" clip-rule="evenodd" fill="#E6E6E6" width="302.396" height="11.447"/>
						<rect x="168.805" y="276.242" fill-rule="evenodd" clip-rule="evenodd" fill="#E6E6E6" width="302.396" height="11.449"/>
						<rect x="168.805" y="295.704" fill-rule="evenodd" clip-rule="evenodd" fill="#E6E6E6" width="302.396" height="11.449"/>
						<rect x="168.805" y="315.166" fill-rule="evenodd" clip-rule="evenodd" fill="#E6E6E6" width="302.396" height="11.447"/>
					</g>
					<g>
						<rect x="168.805" y="351.372" fill-rule="evenodd" clip-rule="evenodd" fill="#E6E6E6" width="135.473" height="11.449"/>
						<rect x="168.805" y="370.834" fill-rule="evenodd" clip-rule="evenodd" fill="#E6E6E6" width="302.396" height="11.447"/>
						<rect x="168.805" y="390.296" fill-rule="evenodd" clip-rule="evenodd" fill="#E6E6E6" width="302.396" height="11.447"/>
						<rect x="168.805" y="409.758" fill-rule="evenodd" clip-rule="evenodd" fill="#E6E6E6" width="302.396" height="11.449"/>
						<rect x="168.805" y="429.219" fill-rule="evenodd" clip-rule="evenodd" fill="#E6E6E6" width="302.396" height="11.449"/>
					</g>
					<g>
						<rect x="275.996" y="467.738" fill-rule="evenodd" clip-rule="evenodd" fill="#E6E6E6" width="87.757" height="11.447"/>
						<rect x="168.805" y="467.738" fill-rule="evenodd" clip-rule="evenodd" fill="#E6E6E6" width="87.758" height="11.447"/>
					</g>
				</g>
			</g>
			<path fill="#5896CC" d="M339.412,523.124c0.737-0.157,1.478-0.202,2.198-0.139c1.968,0.169,3.805,1.267,4.951,3.163
				c1.716,2.827,1.959,7.494-1.165,13.524c-1.764,3.4-3.802,6.155-5.984,8.307v-3.224c0.938-1.26,1.848-2.721,2.716-4.393
				c2.765-5.336,2.545-9.472,1.023-11.984c-0.923-1.522-2.296-2.427-3.738-2.613V523.124L339.412,523.124z M339.412,550.327v4.692
				c1.583,0.669,3.327,0.894,5.148,0.676c2.698-0.319,5.514-1.559,8.223-3.714c4.829-3.84,9.175-10.754,11.356-20.624
				c0.15-0.669-0.517-0.914-1.487-0.546c-0.968,0.366-1.876,1.207-2.024,1.878c-1.989,8.995-5.59,15.011-9.478,18.103
				c-1.572,1.25-3.224,1.971-4.824,2.161c-1.857,0.222-3.685-0.213-5.33-1.304C340.44,551.283,339.91,550.841,339.412,550.327
				L339.412,550.327z M339.412,560.919v-2.316c8.783-2.404,17.266-3.832,23.873-3.46c0.745,0.044,0.829,0.701,0.188,1.464
				c-0.642,0.764-1.767,1.348-2.511,1.304C355,557.576,347.381,558.807,339.412,560.919z M319.948,532.551
				c0.663-0.137,1.317-0.148,1.938-0.037c1.203,0.218,2.323,0.964,3.001,2.159c1.023,1.804,1.072,4.68-1.098,8.346
				c-0.85,1.438-1.848,2.797-2.955,4.02c0.399,0.521,0.833,0.998,1.293,1.426c1.669,1.552,3.698,2.475,5.878,2.67
				c1.968,0.174,4.03-0.25,5.992-1.353c-0.69-1.278-1.266-2.758-1.696-4.446c-2.423-9.481-0.939-15.601,1.779-18.813
				c1.599-1.892,3.464-3.003,5.333-3.399v2.64l-0.189-0.021c-0.927-0.079-1.841,0.224-2.466,0.963
				c-2.142,2.531-3.188,7.83-0.935,16.65c0.374,1.468,0.861,2.768,1.438,3.902c0.728-0.723,1.447-1.556,2.152-2.503v3.224
				c-0.362,0.357-0.729,0.697-1.099,1.021c0.346,0.486,0.713,0.928,1.099,1.327v4.692c-0.538-0.227-1.054-0.507-1.55-0.834
				c-1.042-0.692-1.999-1.614-2.839-2.769c-0.165,0.099-0.331,0.195-0.497,0.291c-3.091,1.746-6.146,2.432-8.908,2.186
				c-2.083-0.185-4.016-0.908-5.669-2.108v-7.199c0.231-0.341,0.452-0.695,0.666-1.056c1.718-2.902,1.669-5.196,0.847-6.646
				c-0.38-0.674-0.92-1.156-1.514-1.426V532.551L319.948,532.551z M339.412,558.603v2.316c-3.648,0.966-7.37,2.117-11.039,3.386
				c-2.868,0.993-5.695,2.054-8.425,3.152v-2.203c2.972-1.209,6.044-2.371,9.146-3.443
				C332.516,560.626,335.987,559.541,339.412,558.603z M304.391,510.112c1.155-0.25,2.271-0.034,3.273,0.625
				c1.466,0.963,2.739,3.061,3.35,6.123c1.141,5.715,0.019,14.916-6.437,26.523c0.481,1.067,0.996,1.991,1.539,2.784
				c1.441,2.105,3.055,3.261,4.713,3.68c1.423,0.363,2.812,0.155,4.077-0.458c0.605-0.292,1.207-0.686,1.796-1.158
				c-0.874-1.424-1.545-3.09-1.955-4.979c-0.922-4.233,0.097-7.133,1.766-8.767c1.083-1.06,2.272-1.693,3.435-1.936v2.908
				c-0.212-0.095-0.432-0.164-0.655-0.204c-0.336-0.06-0.51-0.146-0.529-0.128c-0.833,0.817-1.236,2.754-0.488,6.19
				c0.302,1.387,0.752,2.647,1.326,3.768c0.117-0.164,0.232-0.329,0.345-0.498v7.199c-0.375-0.273-0.736-0.569-1.082-0.891
				c-0.363-0.338-0.709-0.702-1.037-1.093c-0.917,0.69-1.875,1.285-2.858,1.762c-2.321,1.123-4.673,1.549-6.851,0.998
				c-1.3-0.329-2.559-1.021-3.729-2.14v-12.642c3.434-8.121,3.956-14.627,3.085-18.991c-0.558-2.793-1.673-4.678-2.943-5.512
				l-0.143-0.088V510.112L304.391,510.112z M319.948,565.254v2.203c-5.839,2.346-11.22,4.863-15.557,7.241v-2.168
				C308.875,570.095,314.225,567.584,319.948,565.254z M297.849,553.652c-0.577,0.767-1.691,1.406-2.489,1.427
				c-0.797,0.019-0.976-0.584-0.4-1.352c2.319-3.082,4.26-6.035,5.877-8.846c-1.63-3.895-2.835-9.436-3.344-17.026
				c-0.529-7.917,1.001-12.908,3.127-15.28l0.003,0.002l0.004-0.005c1.234-1.378,2.521-2.189,3.764-2.459v3.075
				c-0.582-0.359-1.031-0.486-1.204-0.303h0.002c-1.545,1.727-2.622,5.935-2.136,13.193c0.393,5.873,1.202,10.481,2.297,14.024
				c0.373-0.788,0.72-1.563,1.041-2.323v12.642c-0.577-0.554-1.133-1.213-1.661-1.984c-0.204-0.297-0.404-0.614-0.601-0.949
				C300.859,549.482,299.438,551.538,297.849,553.652L297.849,553.652z M304.391,572.529v2.168c-3.619,1.984-6.509,3.87-8.327,5.482
				c-0.818,0.723-1.922,1.109-2.463,0.859c-0.544-0.248-0.319-1.039,0.498-1.762C296.358,577.276,299.95,574.943,304.391,572.529z"
				/>
		</g>
		<polygon fill-rule="evenodd" clip-rule="evenodd" fill="#3A6387" points="65.915,765.84 193.767,819.292 165.518,886.961 
			15.354,886.961 		"/>
		<g>
			<path fill-rule="evenodd" clip-rule="evenodd" fill="#EAB78D" d="M428.38,595.415l-7.431,0.847
				c-9.356,1.067-17.882-5.722-18.948-15.085v-0.002c-1.065-9.363,5.72-17.896,15.074-18.961l26.275-2.994l31.751-15.914
				l65.571,12.227l68.933,80.067l-47.593,44.116l-64.135-31.069c0,0-3.42-3.298-8.39-8.063l-26.34,3.001
				c-9.356,1.065-17.884-5.724-18.947-15.087l-0.002-0.002c-0.292-2.573,0.009-5.083,0.792-7.392
				c-9.324,1.019-17.808-5.757-18.869-15.094l0,0C425.687,602.189,426.56,598.507,428.38,595.415z"/>
			<polygon fill-rule="evenodd" clip-rule="evenodd" fill="#FFD7B7" points="611.473,622.598 517.532,670.872 628.406,886.961 
				747.115,886.961 			"/>
			<path fill-rule="evenodd" clip-rule="evenodd" fill="#FFD7B7" d="M638.584,683.695l0.053,35.607
				c0.049,34.538-101.449-10.946-128.703-33.715l-0.025-0.005l-84.979-92.503c-16.456-17.911,19.744-26.664,38.131-5.711
				l36.005,41.031c14.376,16.386,39.613,14.937,51.318-0.567c22.993-30.455-12.114-58.244-37.073-59.828l-75.589-5.963
				c-27.78-2.191-35.274-29.445-10.97-30.121l87.124-2.418c14.4-0.4,18.617,2.133,24.075,4.349l60.671,24.626
				c14.471,5.871,19.288,13.561,25.874,25.733l20.365,103.461L638.584,683.695z"/>
			<path fill-rule="evenodd" clip-rule="evenodd" fill="#FFE8D6" d="M440.195,545.36c-15.358,2.119-23.987-2.388-26.97-7.184
				c1.918-3.52,6.329-6.054,13.528-6.253l18.149-0.505C445.417,538.209,444.682,544.741,440.195,545.36z"/>
			<polygon fill-rule="evenodd" clip-rule="evenodd" fill="#ADD95B" points="581.109,814.846 691.446,758.147 653.109,683.431 
				542.772,740.13 			"/>
			<polygon fill-rule="evenodd" clip-rule="evenodd" fill="#3A6387" points="554.281,778.476 677.542,715.136 765.704,886.961 
				609.945,886.961 			"/>
			<circle fill-rule="evenodd" clip-rule="evenodd" fill="#3A6387" cx="562.567" cy="753.529" r="5.497"/>
			<g>
				<path fill-rule="evenodd" clip-rule="evenodd" fill="#FFE3B2" d="M620.253,615.646h0.002c1.035-4.286,5.387-6.943,9.67-5.905
					l9.977,2.418c4.28,1.036,6.936,5.393,5.898,9.678v0.002c-1.037,4.284-5.389,6.942-9.671,5.903l-9.976-2.416
					C621.871,624.288,619.215,619.932,620.253,615.646z"/>
				<polygon fill-rule="evenodd" clip-rule="evenodd" fill="#C95234" points="399.757,570.449 403.531,554.866 621.538,607.709 
					617.767,623.294 				"/>
				<polygon fill-rule="evenodd" clip-rule="evenodd" fill="#FFAE00" points="400.528,567.271 402.76,558.045 620.769,610.889 
					618.537,620.113 				"/>
				
					<rect x="509.001" y="476.919" transform="matrix(0.2356 -0.9719 0.9719 0.2356 -182.1501 946.5782)" fill-rule="evenodd" clip-rule="evenodd" fill="#C95234" width="3.294" height="224.321"/>
				<polygon fill-rule="evenodd" clip-rule="evenodd" fill="#FFE3B2" points="399.757,570.449 403.531,554.866 381.367,557.742 				
					"/>
				<polygon fill-rule="evenodd" clip-rule="evenodd" fill="#5896CC" points="393.037,556.226 381.367,557.742 391.052,564.433 				
					"/>
				<polygon fill-rule="evenodd" clip-rule="evenodd" fill="#6A8733" points="630.755,626.44 634.527,610.857 621.538,607.709 
					617.767,623.294 				"/>
			</g>
			<path fill-rule="evenodd" clip-rule="evenodd" fill="#FFD7B7" d="M481.957,655.153l-57.026-62.074
				c-16.456-17.911,19.744-26.664,38.131-5.711l36.005,41.031c1.075,1.225,2.212,2.35,3.4,3.379L481.957,655.153z"/>
			<path fill-rule="evenodd" clip-rule="evenodd" fill="#FFE8D6" d="M448.805,594.531c-12.429-15.55-24.598-13.049-26.395-8.129
				c-0.063,2.388,1.077,5.109,3.803,8.075l14.094,15.342C446.728,605.141,452.111,598.664,448.805,594.531z"/>
		</g>
	</g>
</g>
<g id="Layer_2">
</g>
</svg>
