<?xml version="1.0" encoding="utf-8"?>
<!-- Generator: Adobe Illustrator 17.0.0, SVG Export Plug-In . SVG Version: 6.00 Build 0)  -->
<!DOCTYPE svg PUBLIC "-//W3C//DTD SVG 1.1//EN" "http://www.w3.org/Graphics/SVG/1.1/DTD/svg11.dtd">
<svg version="1.1" id="Objects" xmlns="http://www.w3.org/2000/svg" xmlns:xlink="http://www.w3.org/1999/xlink" x="0px" y="0px"
	 width="800px" height="700px" viewBox="-100 -125 800 700" enable-background="new -100 -125 800 700" xml:space="preserve">
<g>
	<path fill="#4D4D4D" d="M680.233-87.583H421.587c-10.023,0-18.862,7.984-18.862,18.673v358.139
		c0,10.692,8.839,22.315,18.862,22.315h207.108l70.398-77.282V-68.91C699.093-79.599,690.256-87.583,680.233-87.583z"/>
	<g>
		<path fill="#FFFFFF" d="M666.618-99.236H407.974c-10.023,0-16.176,5.116-16.176,15.808V274.71
			c0,10.692,6.153,22.267,16.176,22.267h207.108l73.084-77.232V-83.429C688.167-94.121,676.644-99.236,666.618-99.236z"/>
		<path fill="#CCCCCC" d="M684.769,219.744l-56.075-3.111c-10.023,0-16.528,6.94-16.528,17.627l2.917,59.808L684.769,219.744z"/>
		<path fill="#CCCCCC" d="M640.365-31.126c0,5.021-3.816,9.093-8.525,9.093H435.833c-4.708,0-8.525-4.07-8.525-9.093v-0.753
			c0-5.021,3.816-9.093,8.525-9.093h196.009c4.708,0,8.525,4.07,8.525,9.093v0.753H640.365z"/>
		<path fill="#CCCCCC" d="M640.365,53.361c0,5.021-3.816,9.092-8.525,9.092H435.833c-4.708,0-8.525-4.07-8.525-9.092v-0.753
			c0-5.021,3.816-9.092,8.525-9.092h196.009c4.708,0,8.525,4.07,8.525,9.092v0.753H640.365z"/>
		<path fill="#CCCCCC" d="M640.365,134.936c0,5.021-3.816,9.091-8.525,9.091H435.833c-4.708,0-8.525-4.07-8.525-9.091v-0.756
			c0-5.021,3.816-9.091,8.525-9.091h196.009c4.708,0,8.525,4.07,8.525,9.091v0.756H640.365z"/>
	</g>
</g>
<g>
	<g>
		<path fill="#27557D" d="M113.28,280.991c36.091-9.183,61.068-34.59,67.638-3.441c7.805,37.037,25.292,132.309,35.396,217.572
			c2.174,18.396-2.503,24.006-8.005,25.78c-24.586,7.939-45.708,10.402-72.926,14.322l-22.204-254.072
			C113.172,281.081,113.236,281.001,113.28,280.991z"/>
		<path fill="#B55C46" d="M158.081,147.952C135.816,260.357,91.462,460.659,57.916,460.659
			c-33.542,0-99.314-215.313-112.229-298.278C-65.455,90.869-44.283-48.83,96.462-3.203
			C143.649-5.981,177.398,50.382,158.081,147.952z"/>
		<path fill="#27557D" d="M3.647,280.991c-45.601-11.602-60.769-36.995-68.729,1.2c-8.337,39.985-24.754,131.768-34.392,213.588
			c-2.476,20.967,4.243,24.098,10.874,25.933c23.606,6.538,43.951,9.741,70.137,13.512L3.744,281.153
			C3.75,281.081,3.681,281,3.647,280.991z"/>
		<path fill="#27557D" d="M-31.883,530.258l-1.185,2.982c56.161,7.582,125.248,7.71,181.581,0.399
			c-0.514-1.213-1.022-2.344-1.512-3.381L-31.883,530.258L-31.883,530.258z"/>
		<path fill="#3F73A1" d="M-34.918,532.98c15.937-49.034,6.733-63.463-14.163-116.909c-21.298-54.492,21.924-83.648-10.198-151.097
			c28.468-19.47,65.248-27.352,87.392-46.596c10.501,9.853,17.984,12.099,29.892,12.099s19.779-2.567,30.272-12.427
			c16.384,14.239,58.346,26.22,88.128,46.924c-30.624,69.227,10.863,80.628-10.205,151.097
			c-16.089,53.805-41.16,56.787-17.762,117.576C91.499,541.026,21.55,540.808-34.918,532.98z"/>
		<polygon fill="#FFFFFF" points="1.914,234.652 -0.744,310.043 58.424,470.244 116.754,310.043 113.128,232.576 88.28,218.047 
			28.113,218.382 		"/>
		<rect x="28.122" y="192.037" fill="#D1A886" width="59.102" height="65.298"/>
		<path fill="#F2CAA9" d="M58.005,230.483c29.614,0,57.035-36.122,71.492-80.366c0.844,0.926,1.795,1.513,2.849,1.703
			c5.897,1.04,12.648-10.766,15.081-26.367c2.426-15.611-0.377-29.117-6.27-30.159c-0.414-0.068-0.836-0.082-1.263-0.025
			c2.893-54.829-18.421-105.481-81.888-105.481c-63.514,0-84.811,50.728-81.884,105.607c-0.642-0.178-1.291-0.208-1.922-0.101
			c-5.89,1.042-8.7,14.546-6.274,30.159c2.432,15.601,9.181,27.407,15.071,26.367c1.261-0.226,2.372-1.012,3.33-2.269
			C0.731,194.059,28.26,230.483,58.005,230.483z"/>
		<path fill="#93B9DB" d="M67.81,297.703l4.112-9.282l-13.918-35.985l-13.689,35.407l4.372,9.862
			C55.058,297.703,61.436,297.703,67.81,297.703z"/>
		<polygon fill="#CCCCCC" points="28.106,218.382 58.005,252.436 36.728,313.134 10.425,230.895 		"/>
		<polygon fill="#27557D" points="10.616,229.247 58.005,471.097 -20.012,338.42 -9.764,315.258 -32.024,296.331 -1.803,236.538 		
			"/>
		<polygon fill="#CCCCCC" points="88.28,218.051 58.005,252.436 79.278,313.134 105.965,230.566 		"/>
		<polygon fill="#93B9DB" points="48.687,320.273 67.81,320.273 77.748,422.508 58.005,471.097 39.009,422.508 		"/>
		<polygon fill="#FFFFFF" points="28.113,218.372 58.005,252.436 36.27,298.136 10.432,230.885 		"/>
		<polygon fill="#3F73A1" points="10.616,229.247 58.005,471.097 -12.428,327.836 -0.744,310.043 -23.271,291.351 -1.807,236.538 		
			"/>
		<polygon fill="#27557D" points="106.545,228.729 58.005,471.097 136.021,338.42 125.772,315.258 148.037,296.331 124.133,237.403 
					"/>
		<polygon fill="#3F73A1" points="106.545,228.729 58.005,471.097 128.437,327.836 116.754,310.043 139.277,291.351 
			124.133,237.403 		"/>
		<polygon fill="#FFFFFF" points="88.28,218.041 58.005,252.436 79.741,298.136 105.965,230.553 		"/>
		<path fill="#93B9DB" d="M48.687,296.014H67.81c4.271,9.455,3.939,17.72,0,25.789H48.687
			C44.745,313.734,44.413,305.47,48.687,296.014z"/>
		<path fill="#27557D" d="M55.316,539.007c0.501-17.75,1.758-38.852,3.79-70.491c2.034,31.642,3.387,52.749,3.999,70.492
			C60.504,539.026,57.911,539.02,55.316,539.007z"/>
		<path fill="#F2CAA9" d="M141.398,105.068c5.716,1.362,8.178,12.886,5.5,25.739c-2.681,12.855-9.492,22.188-15.205,20.83
			c-5.723-1.358-8.182-12.878-5.5-25.741C128.871,113.043,135.675,103.716,141.398,105.068z"/>
		<path fill="#B55C46" d="M141.058,95.271c2.947-54.83-18.763-105.481-83.383-105.481c-64.674,0-86.363,50.728-83.383,105.602
			c5.232,1.366,10.682,11.401,13.088,24.463c4.217,2.972,7.269,1.237,7.269-9.818c0-32.629,3.854-61.547,24.31-68.449
			c19.466-6.558,23.746,7.84,38.604,7.84c14.855,0,19.536-13.564,38.599-7.84c19.791,5.953,24.308,35.819,24.308,68.449
			c0,10.607,2.816,12.635,6.767,10.157C129.704,106.404,135.584,95.91,141.058,95.271z"/>
		<path fill="#B55C46" d="M116.623,8.351c4.116,30.724-41.169,97.678-74.099,113.05c21.029-12.447,34.831-58.721,29.757-92.189
			C71.093,21.362,120.05,14.196,116.623,8.351z"/>
		<path fill="#B55C46" d="M94.677,12.433C90.789,43.193-6.713,138.839-42.325,144.057C-53.379-14.084,37.771,51.578,46.687,19.626
			C48.808,12.005,96.489,19.048,94.677,12.433z"/>
		<path fill="#B55C46" d="M71.261-7.216c-2.315,30.942,45.346,141.83,79.109,154.982c12.738-113.193-14.816-127.917-33.643-137.1
			C109.96,7.364,68.176-1.153,71.261-7.216z"/>
	</g>
	<g>
		<path fill="#27557D" d="M454.923,280.991c36.091-9.183,86.373-30.982,92.933,0.162c7.798,37.027,17.419,124.798,27.513,210.064
			c2.174,18.383-19.919,27.913-25.417,29.687c-24.586,7.934-45.709,10.402-72.919,14.322l-22.207-254.072
			C454.815,281.081,454.882,281.001,454.923,280.991z"/>
		<path fill="#27557D" d="M345.29,280.991c-45.594-11.601-81.828-38.654-89.787-0.466c-8.327,39.978-17.453,127.573-27.08,209.387
			c-2.469,20.961,17.994,29.966,24.62,31.802c23.608,6.533,43.951,9.741,70.137,13.512l22.207-254.072
			C345.394,281.081,345.32,280.994,345.29,280.991z"/>
		<path fill="#27557D" d="M309.76,530.258l-1.185,2.982c56.165,7.582,125.251,7.71,181.584,0.399
			c-0.518-1.213-1.024-2.344-1.516-3.381L309.76,530.258L309.76,530.258z"/>
		<path fill="#3F73A1" d="M287.192,529.647c12.456-38.312-15.974-217.688-31.69-250.677c8.938-33.859,92.109-41.347,114.252-60.59
			c10.501,9.853,17.984,12.099,29.892,12.099c11.909,0,19.779-2.567,30.272-12.427c16.384,14.239,102.24,25.343,116.924,59.212
			c-16.714,37.786-47.371,217.742-34.103,252.216C456.824,541.199,344.733,542.03,287.192,529.647z"/>
		<polygon fill="#FFFFFF" points="343.556,234.652 340.898,310.043 400.068,470.244 458.398,310.043 454.772,232.576 
			429.923,218.047 369.759,218.382 		"/>
		<rect x="369.768" y="192.037" fill="#D1A886" width="59.103" height="65.298"/>
		<path fill="#FCB024" d="M409.453,297.703l4.112-9.282l-13.918-35.985l-13.689,35.407l4.372,9.862
			C396.701,297.703,403.078,297.703,409.453,297.703z"/>
		<polygon fill="#CCCCCC" points="369.752,218.382 399.647,252.436 378.371,313.134 352.067,230.895 		"/>
		<polygon fill="#27557D" points="352.259,229.247 399.647,471.097 321.631,338.42 331.882,315.258 309.618,296.331 
			339.839,236.538 		"/>
		<polygon fill="#CCCCCC" points="429.923,218.051 399.647,252.436 420.921,313.134 447.607,230.566 		"/>
		<polygon fill="#FCB024" points="390.33,320.273 409.453,320.273 419.389,422.508 399.647,471.097 380.652,422.508 		"/>
		<polygon fill="#FFFFFF" points="369.759,218.372 399.647,252.436 377.914,298.136 352.074,230.885 		"/>
		<polygon fill="#3F73A1" points="352.259,229.247 399.647,471.097 329.211,327.836 340.898,310.043 318.371,291.351 
			339.839,236.538 		"/>
		<polygon fill="#27557D" points="448.189,228.729 399.647,471.097 477.667,338.42 467.416,315.258 489.68,296.331 465.775,237.403 
					"/>
		<polygon fill="#3F73A1" points="448.189,228.729 399.647,471.097 470.08,327.836 458.398,310.043 480.923,291.351 
			465.775,237.403 		"/>
		<polygon fill="#FFFFFF" points="429.923,218.041 399.647,252.436 421.384,298.136 447.607,230.553 		"/>
		<path fill="#FCB024" d="M390.33,296.014h19.123c4.273,9.455,3.937,17.72,0,25.789H390.33
			C386.388,313.734,386.052,305.47,390.33,296.014z"/>
		<path fill="#27557D" d="M396.959,539.007c0.501-17.75,1.758-38.852,3.79-70.491c2.036,31.642,3.387,52.749,3.999,70.492
			C402.148,539.026,399.554,539.02,396.959,539.007z"/>
		<polygon fill="#FFFFFF" points="334.604,236.586 341.949,308.857 400.818,468.253 458.851,308.857 466.193,236.586 
			438.112,217.322 362.692,217.322 		"/>
		<rect x="362.692" y="191.451" fill="#D1A886" width="74.764" height="64.966"/>
		<path fill="#F2CAA9" d="M400.401,229.698c29.469,0,56.74-35.934,71.129-79.959c0.84,0.922,1.79,1.511,2.842,1.696
			c5.86,1.036,12.577-10.708,15-26.237c2.413-15.531-0.373-28.964-6.236-30.003c-0.417-0.071-0.833-0.079-1.257-0.029
			c2.876-54.548-18.33-104.945-81.478-104.945c-63.199,0-84.384,50.472-81.471,105.075c-0.645-0.175-1.284-0.21-1.912-0.101
			c-5.863,1.037-8.656,14.472-6.24,30.003c2.419,15.528,9.137,27.273,14.996,26.237c1.25-0.226,2.363-1.009,3.309-2.256
			C343.415,193.459,370.808,229.698,400.401,229.698z"/>
		<path fill="#57291E" d="M481.885,95.166C484.764,40.618,463.548-9.78,400.401-9.78c-63.199,0-84.394,50.472-81.481,105.074
			c5.111,1.356,10.437,11.342,12.789,24.335c4.119,2.96,7.107,1.231,7.107-9.77c0-32.468,3.76-61.235,23.749-68.096
			c19.025-6.533,23.208,7.8,37.728,7.8c14.513,0,19.093-13.5,37.721-7.8c19.342,5.917,23.756,35.629,23.756,68.096
			c0,10.556,2.742,12.574,6.606,10.106C470.789,106.244,476.535,95.805,481.885,95.166z"/>
		<path fill="#FC8D25" d="M410.155,296.582l4.096-9.232l-13.85-35.809l-13.622,35.229l4.351,9.812
			C397.47,296.582,403.814,296.582,410.155,296.582z"/>
		<polygon fill="#CCCCCC" points="362.692,217.322 400.401,251.54 379.23,311.936 345.095,229.773 		"/>
		<polygon fill="#27557D" points="345.095,229.773 400.401,469.099 322.78,337.089 332.975,314.05 310.825,295.217 334.604,236.586 
					"/>
		<polygon fill="#CCCCCC" points="438.112,217.322 400.401,251.54 421.569,311.936 455.703,229.773 		"/>
		<polygon fill="#FC8D25" points="391.13,319.036 410.155,319.036 420.04,420.755 400.401,469.099 381.499,420.755 		"/>
		<path fill="#57291E" d="M457.255,25.724C449.1,43.112,366.97,92.937,339.763,95.212C312.558,97.489,338.318-19.318,457.255,25.724
			z"/>
		<path fill="#57291E" d="M418.156,25.724c3.514,17.388,38.91,67.213,50.635,69.489C480.517,97.489,469.415-19.318,418.156,25.724z"
			/>
		<polygon fill="#FFFFFF" points="362.692,217.322 400.401,251.54 378.774,297.011 345.095,229.773 		"/>
		<polygon fill="#3F73A1" points="345.095,229.773 400.401,469.099 330.324,326.563 341.949,308.857 319.535,290.26 
			334.604,236.586 		"/>
		<polygon fill="#27557D" points="455.703,229.773 400.401,469.099 478.024,337.089 467.825,314.05 489.977,295.217 
			466.193,236.586 		"/>
		<polygon fill="#3F73A1" points="455.703,229.773 400.401,469.099 470.474,326.563 458.851,308.857 481.266,290.26 
			466.193,236.586 		"/>
		<polygon fill="#FFFFFF" points="438.112,217.322 400.401,251.54 422.026,297.011 455.703,229.773 		"/>
		<path fill="#FC8D25" d="M391.13,294.907h19.025c4.254,9.4,3.921,17.62,0,25.652H391.13
			C387.208,312.526,386.876,304.306,391.13,294.907z"/>
		<path fill="#27557D" d="M395.618,539.001c3.122,0.025,6.236,0.032,9.351,0.016c1.146-17.165-2.301-62.924-4.674-70.484
			C397.923,474.588,394.483,520.931,395.618,539.001z"/>
	</g>
	<polygon fill="#C5D0D9" points="332.761,520.24 358.415,345.125 80.444,345.125 106.101,520.24 	"/>
	<rect x="39.503" y="513.883" fill="#C5D0D9" width="359.852" height="41.062"/>
</g>
</svg>
