<?xml version="1.0" encoding="utf-8"?>
<!-- Generator: Adobe Illustrator 17.0.0, SVG Export Plug-In . SVG Version: 6.00 Build 0)  -->
<!DOCTYPE svg PUBLIC "-//W3C//DTD SVG 1.1//EN" "http://www.w3.org/Graphics/SVG/1.1/DTD/svg11.dtd">
<svg version="1.1" id="Layer_1" xmlns="http://www.w3.org/2000/svg" xmlns:xlink="http://www.w3.org/1999/xlink" x="0px" y="0px"
	 width="300px" height="300px" viewBox="0 0 300 300" enable-background="new 0 0 300 300" xml:space="preserve">
<g id="green">
	<g>
		<g>
			<path fill="#6FC067" d="M48.532,195.118c7.976,32.021,41.451,56.561,74.389,54.533l72.637-4.474
				c32.938-2.028,65.748-30.044,72.912-62.257l25.676-115.459c7.164-32.213-13.92-56.847-46.853-54.742L66.803,24.255
				C33.871,26.36,13.452,54.282,21.428,86.304L48.532,195.118z"/>
		</g>
		<g>
			<polyline fill="#6FC067" points="94.817,243.085 94.817,287.406 152.727,242.599 			"/>
		</g>
	</g>
	<g>
		<g>
			<g>
				<g>
					<path fill="#F4F2F3" d="M148.222,133.12c2.779-10.478,22.984-19.121,36.931-9.438c13.946,9.682,22.63,9.985,27.29,7.275
						c-4.311,12.613-22.958,30.245-40.239,28.595C158.73,158.264,143.734,150.042,148.222,133.12z"/>
					<path fill="#F4F2F3" d="M104.343,150.291l-0.004,0.001c12.717,22.132,29.214,33.946,58.082,36.204
						c28.868,2.256,51.942-8.627,64.588-31.569c-7.918,1.086-17.616,0.928-26.033-5.095c-7.598,7.041-17.117,12.196-26.631,11.709
						c-14.78-0.756-31.362-8.128-28.164-27.983c1.845-11.462,22.504-21.705,38.311-12.942c-1.68-6.822-3.153-13.433-5.968-18.499
						c-6.885-11.942-19.331-20.403-34.112-21.56c-23.828-1.862-46.208,15.873-46.516,39.771
						C97.761,130.642,100.134,142.986,104.343,150.291z M116.203,104.673c0.207-2.644,2.518-4.619,5.161-4.412
						c2.644,0.206,4.619,2.517,4.413,5.161c-0.207,2.643-2.518,4.619-5.161,4.412C117.971,109.627,115.996,107.316,116.203,104.673z
						"/>
				</g>
			</g>
		</g>
		<polyline fill="#F4F2F3" points="109.003,94.577 97.265,83.379 100.503,99.165 89.305,104.831 101.851,107.529 		"/>
	</g>
</g>
</svg>
