<?xml version="1.0" encoding="utf-8"?>
<!-- Generator: Adobe Illustrator 17.0.0, SVG Export Plug-In . SVG Version: 6.00 Build 0)  -->
<!DOCTYPE svg PUBLIC "-//W3C//DTD SVG 1.1//EN" "http://www.w3.org/Graphics/SVG/1.1/DTD/svg11.dtd">
<svg version="1.1" id="Layer_1" xmlns="http://www.w3.org/2000/svg" xmlns:xlink="http://www.w3.org/1999/xlink" x="0px" y="0px"
	 width="100px" height="100px" viewBox="0 0 100 100" enable-background="new 0 0 100 100" xml:space="preserve">
<path fill="#F7E8B1" d="M102.587,94.325c0,4.564-3.7,8.262-8.263,8.262H8.262C3.699,102.587,0,98.888,0,94.325V8.262
	C0,3.699,3.699,0,8.262,0h86.062c4.563,0,8.263,3.699,8.263,8.262V94.325z"/>
<path fill="#81C7DD" d="M98.566,91.418c0,4.197-3.403,7.6-7.6,7.6H11.621c-4.198,0-7.6-3.403-7.6-7.6V12.072
	c0-4.197,3.403-7.6,7.6-7.6h79.345c4.198,0,7.6,3.403,7.6,7.6V91.418z"/>
<g>
	<path fill="#81C7DD" d="M82.853,45.909c0.027,0.597,0.042,1.196,0.042,1.798c0,18.372-13.987,39.558-39.56,39.558
		c-7.851,0-15.16-2.301-21.312-6.247c1.087,0.13,2.197,0.195,3.315,0.195c6.514,0,12.51-2.223,17.27-5.952
		c-6.086-0.111-11.221-4.131-12.99-9.655c0.85,0.162,1.722,0.251,2.618,0.251c1.268,0,2.494-0.172,3.661-0.488
		c-6.362-1.279-11.152-6.897-11.152-13.632c0-0.06,0-0.116,0-0.177c1.873,1.042,4.016,1.666,6.297,1.739
		c-3.729-2.494-6.185-6.749-6.185-11.572c0-2.55,0.688-4.936,1.883-6.989c6.856,8.41,17.102,13.946,28.656,14.526
		c-0.238-1.019-0.363-2.078-0.363-3.169c0-7.677,6.228-13.902,13.909-13.902c3.995,0,7.609,1.689,10.146,4.391
		c3.169-0.624,6.142-1.782,8.829-3.376c-1.039,3.247-3.244,5.971-6.114,7.693c2.812-0.337,5.493-1.085,7.986-2.19
		C87.929,41.499,85.569,43.949,82.853,45.909z"/>
	<path fill="#81C6DC" d="M82.763,45.818c0.027,0.597,0.042,1.196,0.042,1.798c0,18.372-13.987,39.558-39.56,39.558
		c-7.851,0-15.16-2.301-21.312-6.247c1.087,0.13,2.197,0.195,3.315,0.195c6.514,0,12.51-2.223,17.27-5.952
		c-6.086-0.111-11.221-4.131-12.99-9.655c0.85,0.162,1.722,0.251,2.618,0.251c1.268,0,2.494-0.172,3.661-0.488
		c-6.362-1.279-11.152-6.897-11.152-13.632c0-0.06,0-0.116,0-0.177c1.873,1.042,4.016,1.666,6.297,1.739
		c-3.729-2.494-6.185-6.749-6.185-11.572c0-2.55,0.688-4.936,1.883-6.989c6.856,8.41,17.102,13.946,28.656,14.526
		c-0.238-1.019-0.363-2.078-0.363-3.169c0-7.677,6.228-13.902,13.909-13.902c3.995,0,7.609,1.689,10.146,4.391
		c3.169-0.624,6.142-1.782,8.829-3.376c-1.039,3.247-3.244,5.971-6.114,7.693c2.812-0.337,5.493-1.085,7.986-2.19
		C87.838,41.409,85.478,43.858,82.763,45.818z"/>
	<path fill="#80C6DB" d="M82.672,45.727c0.027,0.597,0.042,1.196,0.042,1.798c0,18.372-13.987,39.558-39.56,39.558
		c-7.851,0-15.16-2.301-21.312-6.247c1.087,0.13,2.197,0.195,3.315,0.195c6.514,0,12.51-2.223,17.27-5.952
		c-6.086-0.111-11.221-4.131-12.99-9.655c0.85,0.162,1.722,0.251,2.618,0.251c1.268,0,2.494-0.172,3.661-0.488
		c-6.362-1.279-11.152-6.897-11.152-13.632c0-0.06,0-0.116,0-0.177c1.873,1.042,4.016,1.666,6.297,1.739
		c-3.729-2.494-6.185-6.749-6.185-11.572c0-2.55,0.688-4.936,1.883-6.989c6.856,8.41,17.102,13.946,28.656,14.526
		c-0.238-1.019-0.363-2.078-0.363-3.169c0-7.677,6.228-13.902,13.909-13.902c3.995,0,7.609,1.689,10.146,4.391
		c3.169-0.624,6.142-1.782,8.829-3.376c-1.039,3.247-3.244,5.971-6.114,7.693c2.812-0.337,5.493-1.085,7.986-2.19
		C87.747,41.318,85.387,43.767,82.672,45.727z"/>
	<path fill="#80C5DA" d="M82.581,45.637c0.027,0.597,0.042,1.196,0.042,1.798c0,18.372-13.987,39.558-39.56,39.558
		c-7.851,0-15.16-2.301-21.312-6.247c1.087,0.13,2.197,0.195,3.315,0.195c6.514,0,12.51-2.223,17.27-5.952
		c-6.086-0.111-11.221-4.131-12.99-9.655c0.85,0.162,1.722,0.251,2.618,0.251c1.268,0,2.494-0.172,3.661-0.488
		c-6.362-1.279-11.152-6.897-11.152-13.632c0-0.06,0-0.116,0-0.177c1.873,1.042,4.016,1.666,6.297,1.739
		c-3.729-2.494-6.185-6.749-6.185-11.572c0-2.55,0.688-4.936,1.883-6.989c6.856,8.41,17.102,13.946,28.656,14.526
		c-0.238-1.019-0.363-2.078-0.363-3.169c0-7.677,6.228-13.902,13.909-13.902c3.995,0,7.609,1.689,10.146,4.391
		c3.169-0.624,6.142-1.782,8.829-3.376c-1.039,3.247-3.244,5.971-6.114,7.693c2.812-0.337,5.493-1.085,7.986-2.19
		C87.657,41.227,85.297,43.676,82.581,45.637z"/>
	<path fill="#7FC4DA" d="M82.49,45.546c0.027,0.597,0.042,1.196,0.042,1.798c0,18.372-13.987,39.558-39.56,39.558
		c-7.851,0-15.16-2.301-21.312-6.247c1.087,0.13,2.197,0.195,3.315,0.195c6.514,0,12.51-2.223,17.27-5.952
		c-6.086-0.111-11.221-4.131-12.99-9.655c0.85,0.162,1.722,0.251,2.618,0.251c1.268,0,2.494-0.172,3.661-0.488
		c-6.362-1.279-11.152-6.897-11.152-13.632c0-0.06,0-0.116,0-0.177c1.873,1.042,4.016,1.666,6.297,1.739
		c-3.729-2.494-6.185-6.749-6.185-11.572c0-2.55,0.688-4.936,1.883-6.989c6.856,8.41,17.102,13.946,28.656,14.526
		c-0.238-1.019-0.363-2.078-0.363-3.169c0-7.677,6.228-13.902,13.909-13.902c3.995,0,7.609,1.689,10.146,4.391
		c3.169-0.624,6.142-1.782,8.829-3.376c-1.039,3.247-3.244,5.971-6.114,7.693c2.812-0.337,5.493-1.085,7.986-2.19
		C87.566,41.136,85.206,43.586,82.49,45.546z"/>
	<path fill="#7FC4D9" d="M82.4,45.455c0.027,0.597,0.042,1.196,0.042,1.798c0,18.372-13.987,39.558-39.56,39.558
		c-7.851,0-15.16-2.301-21.312-6.247c1.087,0.13,2.197,0.195,3.315,0.195c6.514,0,12.51-2.223,17.27-5.952
		c-6.086-0.111-11.221-4.131-12.99-9.655c0.85,0.162,1.722,0.251,2.618,0.251c1.268,0,2.494-0.172,3.661-0.488
		c-6.362-1.279-11.152-6.897-11.152-13.632c0-0.06,0-0.116,0-0.177c1.873,1.042,4.016,1.666,6.297,1.739
		c-3.729-2.494-6.185-6.749-6.185-11.572c0-2.55,0.688-4.936,1.883-6.989c6.856,8.41,17.102,13.946,28.656,14.526
		c-0.238-1.019-0.363-2.078-0.363-3.169c0-7.677,6.228-13.902,13.909-13.902c3.995,0,7.609,1.689,10.146,4.391
		c3.169-0.624,6.142-1.782,8.829-3.376c-1.039,3.247-3.244,5.971-6.114,7.693c2.812-0.337,5.493-1.085,7.986-2.19
		C87.475,41.046,85.115,43.495,82.4,45.455z"/>
	<path fill="#7EC3D8" d="M82.309,45.365c0.027,0.597,0.042,1.196,0.042,1.798c0,18.372-13.987,39.558-39.56,39.558
		c-7.851,0-15.16-2.301-21.312-6.247c1.087,0.13,2.197,0.195,3.315,0.195c6.514,0,12.51-2.223,17.27-5.952
		c-6.086-0.111-11.221-4.131-12.99-9.655c0.85,0.162,1.722,0.251,2.618,0.251c1.268,0,2.494-0.172,3.661-0.488
		c-6.362-1.279-11.152-6.897-11.152-13.632c0-0.06,0-0.116,0-0.177c1.873,1.042,4.016,1.666,6.297,1.739
		c-3.729-2.494-6.185-6.749-6.185-11.572c0-2.55,0.688-4.936,1.883-6.989c6.856,8.41,17.102,13.946,28.656,14.526
		c-0.238-1.019-0.363-2.078-0.363-3.169c0-7.677,6.228-13.902,13.909-13.902c3.995,0,7.609,1.689,10.146,4.391
		c3.169-0.624,6.142-1.782,8.829-3.376c-1.039,3.247-3.244,5.971-6.114,7.693c2.812-0.337,5.493-1.085,7.986-2.19
		C87.385,40.955,85.025,43.404,82.309,45.365z"/>
	<path fill="#7EC2D7" d="M82.218,45.274c0.027,0.597,0.042,1.196,0.042,1.798c0,18.372-13.987,39.558-39.56,39.558
		c-7.851,0-15.16-2.301-21.312-6.247c1.087,0.13,2.197,0.195,3.315,0.195c6.514,0,12.51-2.223,17.27-5.952
		c-6.086-0.111-11.221-4.131-12.99-9.655c0.85,0.162,1.722,0.251,2.618,0.251c1.268,0,2.494-0.172,3.661-0.488
		c-6.362-1.279-11.152-6.897-11.152-13.632c0-0.06,0-0.116,0-0.177c1.873,1.042,4.016,1.666,6.297,1.739
		c-3.729-2.494-6.185-6.749-6.185-11.572c0-2.55,0.688-4.936,1.883-6.989c6.856,8.41,17.102,13.946,28.656,14.526
		c-0.238-1.019-0.363-2.078-0.363-3.169c0-7.677,6.228-13.902,13.909-13.902c3.995,0,7.609,1.689,10.146,4.391
		c3.169-0.624,6.142-1.782,8.829-3.376c-1.039,3.247-3.244,5.971-6.114,7.693c2.812-0.337,5.493-1.085,7.986-2.19
		C87.294,40.864,84.934,43.314,82.218,45.274z"/>
	<path fill="#7EC2D7" d="M82.128,45.183c0.027,0.597,0.042,1.196,0.042,1.798c0,18.372-13.987,39.558-39.56,39.558
		c-7.851,0-15.16-2.301-21.312-6.247c1.087,0.13,2.197,0.195,3.315,0.195c6.514,0,12.51-2.223,17.27-5.952
		c-6.086-0.111-11.221-4.131-12.99-9.655c0.85,0.162,1.722,0.251,2.618,0.251c1.268,0,2.494-0.172,3.661-0.488
		c-6.362-1.279-11.152-6.897-11.152-13.632c0-0.06,0-0.116,0-0.177c1.873,1.042,4.016,1.666,6.297,1.739
		c-3.729-2.494-6.185-6.749-6.185-11.572c0-2.55,0.688-4.936,1.883-6.989c6.856,8.41,17.102,13.946,28.656,14.526
		c-0.238-1.019-0.363-2.078-0.363-3.169c0-7.677,6.228-13.902,13.909-13.902c3.995,0,7.609,1.689,10.146,4.391
		c3.169-0.624,6.142-1.782,8.829-3.376c-1.039,3.247-3.244,5.971-6.114,7.693c2.812-0.337,5.493-1.085,7.986-2.19
		C87.203,40.774,84.843,43.223,82.128,45.183z"/>
	<path fill="#7DC1D6" d="M82.037,45.092c0.027,0.597,0.042,1.196,0.042,1.798c0,18.372-13.987,39.558-39.56,39.558
		c-7.851,0-15.16-2.301-21.312-6.247c1.087,0.13,2.197,0.195,3.315,0.195c6.514,0,12.51-2.223,17.27-5.952
		c-6.086-0.111-11.221-4.131-12.99-9.655c0.85,0.162,1.722,0.251,2.618,0.251c1.268,0,2.494-0.172,3.661-0.488
		c-6.362-1.279-11.152-6.897-11.152-13.632c0-0.06,0-0.116,0-0.177c1.873,1.042,4.016,1.666,6.297,1.739
		c-3.729-2.494-6.185-6.749-6.185-11.572c0-2.55,0.688-4.936,1.883-6.989c6.856,8.41,17.102,13.946,28.656,14.526
		c-0.238-1.019-0.363-2.078-0.363-3.169c0-7.677,6.228-13.902,13.909-13.902c3.995,0,7.609,1.689,10.146,4.391
		c3.169-0.624,6.142-1.782,8.829-3.376c-1.039,3.247-3.244,5.971-6.114,7.693c2.812-0.337,5.493-1.085,7.986-2.19
		C87.113,40.683,84.753,43.132,82.037,45.092z"/>
	<path fill="#7DC0D5" d="M81.946,45.002c0.027,0.597,0.042,1.196,0.042,1.798c0,18.372-13.987,39.558-39.56,39.558
		c-7.851,0-15.16-2.301-21.312-6.247c1.087,0.13,2.197,0.195,3.315,0.195c6.514,0,12.51-2.223,17.27-5.952
		c-6.086-0.111-11.221-4.131-12.99-9.655c0.85,0.162,1.722,0.251,2.618,0.251c1.268,0,2.494-0.172,3.661-0.488
		C28.63,63.182,23.84,57.564,23.84,50.829c0-0.06,0-0.116,0-0.177c1.873,1.042,4.016,1.666,6.297,1.739
		c-3.729-2.494-6.185-6.749-6.185-11.572c0-2.55,0.688-4.936,1.883-6.989c6.856,8.41,17.102,13.946,28.656,14.526
		c-0.238-1.019-0.363-2.078-0.363-3.169c0-7.677,6.228-13.902,13.909-13.902c3.995,0,7.609,1.689,10.146,4.391
		c3.169-0.624,6.142-1.782,8.829-3.376c-1.039,3.247-3.244,5.971-6.114,7.693c2.812-0.337,5.493-1.085,7.986-2.19
		C87.022,40.592,84.662,43.042,81.946,45.002z"/>
	<path fill="#7CC0D4" d="M81.856,44.911c0.027,0.597,0.042,1.196,0.042,1.798c0,18.372-13.987,39.558-39.56,39.558
		c-7.851,0-15.16-2.301-21.312-6.247c1.087,0.13,2.197,0.195,3.315,0.195c6.514,0,12.51-2.223,17.27-5.952
		c-6.086-0.111-11.221-4.131-12.99-9.655c0.85,0.162,1.722,0.251,2.618,0.251c1.268,0,2.494-0.172,3.661-0.488
		c-6.362-1.279-11.152-6.897-11.152-13.632c0-0.06,0-0.116,0-0.177c1.873,1.042,4.016,1.666,6.297,1.739
		c-3.729-2.494-6.185-6.749-6.185-11.572c0-2.55,0.688-4.936,1.883-6.989c6.856,8.41,17.102,13.946,28.656,14.526
		c-0.238-1.019-0.363-2.078-0.363-3.169c0-7.677,6.228-13.902,13.909-13.902c3.995,0,7.609,1.689,10.146,4.391
		c3.169-0.624,6.142-1.782,8.829-3.376c-1.039,3.247-3.244,5.971-6.114,7.693c2.812-0.337,5.493-1.085,7.986-2.19
		C86.931,40.502,84.571,42.951,81.856,44.911z"/>
	<path fill="#7CBFD4" d="M81.765,44.82c0.027,0.597,0.042,1.196,0.042,1.798c0,18.372-13.987,39.558-39.56,39.558
		c-7.851,0-15.16-2.301-21.312-6.247c1.087,0.13,2.197,0.195,3.315,0.195c6.514,0,12.51-2.223,17.27-5.952
		c-6.086-0.111-11.221-4.131-12.99-9.655c0.85,0.162,1.722,0.251,2.618,0.251c1.268,0,2.494-0.172,3.661-0.488
		c-6.362-1.279-11.152-6.897-11.152-13.632c0-0.06,0-0.116,0-0.177c1.873,1.042,4.016,1.666,6.297,1.739
		c-3.729-2.494-6.185-6.749-6.185-11.572c0-2.55,0.688-4.936,1.883-6.989c6.856,8.41,17.102,13.946,28.656,14.526
		c-0.238-1.019-0.363-2.078-0.363-3.169c0-7.677,6.228-13.902,13.909-13.902c3.995,0,7.609,1.689,10.146,4.391
		c3.169-0.624,6.142-1.782,8.829-3.376c-1.039,3.247-3.244,5.971-6.114,7.693c2.812-0.337,5.493-1.085,7.986-2.19
		C86.841,40.411,84.48,42.86,81.765,44.82z"/>
	<path fill="#7CBED3" d="M81.674,44.73c0.027,0.597,0.042,1.196,0.042,1.798c0,18.372-13.987,39.558-39.56,39.558
		c-7.851,0-15.16-2.301-21.312-6.247c1.087,0.13,2.197,0.195,3.315,0.195c6.514,0,12.51-2.223,17.27-5.952
		c-6.086-0.111-11.221-4.131-12.99-9.655c0.85,0.162,1.722,0.251,2.618,0.251c1.268,0,2.494-0.172,3.661-0.488
		c-6.362-1.279-11.152-6.897-11.152-13.632c0-0.06,0-0.116,0-0.177c1.873,1.042,4.016,1.666,6.297,1.739
		c-3.729-2.494-6.185-6.749-6.185-11.572c0-2.55,0.688-4.936,1.883-6.989c6.856,8.41,17.102,13.946,28.656,14.526
		c-0.238-1.019-0.363-2.078-0.363-3.169c0-7.677,6.228-13.902,13.909-13.902c3.995,0,7.609,1.689,10.146,4.391
		c3.169-0.624,6.142-1.782,8.829-3.376c-1.039,3.247-3.244,5.971-6.114,7.693c2.812-0.337,5.493-1.085,7.986-2.19
		C86.75,40.32,84.39,42.769,81.674,44.73z"/>
	<path fill="#7BBED2" d="M81.583,44.639c0.027,0.597,0.042,1.196,0.042,1.798c0,18.372-13.987,39.558-39.56,39.558
		c-7.851,0-15.16-2.301-21.312-6.247c1.087,0.13,2.197,0.195,3.315,0.195c6.514,0,12.51-2.223,17.27-5.952
		c-6.086-0.111-11.221-4.131-12.99-9.655c0.85,0.162,1.722,0.251,2.618,0.251c1.268,0,2.494-0.172,3.661-0.488
		c-6.362-1.279-11.152-6.897-11.152-13.632c0-0.06,0-0.116,0-0.177c1.873,1.042,4.016,1.666,6.297,1.739
		c-3.729-2.494-6.185-6.749-6.185-11.572c0-2.55,0.688-4.936,1.883-6.989c6.856,8.41,17.102,13.946,28.656,14.526
		c-0.238-1.019-0.363-2.078-0.363-3.169c0-7.677,6.228-13.902,13.909-13.902c3.995,0,7.609,1.689,10.146,4.391
		c3.169-0.624,6.142-1.782,8.829-3.376c-1.039,3.247-3.244,5.971-6.114,7.693c2.812-0.337,5.493-1.085,7.986-2.19
		C86.659,40.23,84.299,42.679,81.583,44.639z"/>
	<path fill="#7BBDD1" d="M81.493,44.548c0.027,0.597,0.042,1.196,0.042,1.798c0,18.372-13.987,39.558-39.56,39.558
		c-7.851,0-15.16-2.301-21.312-6.247c1.087,0.13,2.197,0.195,3.315,0.195c6.514,0,12.51-2.223,17.27-5.952
		c-6.086-0.111-11.221-4.131-12.99-9.655c0.85,0.162,1.722,0.251,2.618,0.251c1.268,0,2.494-0.172,3.661-0.488
		c-6.362-1.279-11.152-6.897-11.152-13.632c0-0.06,0-0.116,0-0.177c1.873,1.042,4.016,1.666,6.297,1.739
		c-3.729-2.494-6.185-6.749-6.185-11.572c0-2.55,0.688-4.936,1.883-6.989c6.856,8.41,17.102,13.946,28.656,14.526
		c-0.238-1.019-0.363-2.078-0.363-3.169c0-7.677,6.228-13.902,13.909-13.902c3.995,0,7.609,1.689,10.146,4.391
		c3.169-0.624,6.142-1.782,8.829-3.376c-1.039,3.247-3.244,5.971-6.114,7.693c2.812-0.337,5.493-1.085,7.986-2.19
		C86.568,40.139,84.208,42.588,81.493,44.548z"/>
	<path fill="#7ABCD1" d="M81.402,44.458c0.027,0.597,0.042,1.196,0.042,1.798c0,18.372-13.987,39.558-39.56,39.558
		c-7.851,0-15.16-2.301-21.312-6.247c1.087,0.13,2.197,0.195,3.315,0.195c6.514,0,12.51-2.223,17.27-5.952
		c-6.086-0.111-11.221-4.131-12.99-9.655c0.85,0.162,1.722,0.251,2.618,0.251c1.268,0,2.494-0.172,3.661-0.488
		c-6.362-1.279-11.152-6.897-11.152-13.632c0-0.06,0-0.116,0-0.177c1.873,1.042,4.016,1.666,6.297,1.739
		c-3.729-2.494-6.185-6.749-6.185-11.572c0-2.55,0.688-4.936,1.883-6.989c6.856,8.41,17.102,13.946,28.656,14.526
		c-0.238-1.019-0.363-2.078-0.363-3.169c0-7.677,6.228-13.902,13.909-13.902c3.995,0,7.609,1.689,10.146,4.391
		c3.169-0.624,6.142-1.782,8.829-3.376c-1.039,3.247-3.244,5.971-6.114,7.693c2.812-0.337,5.493-1.085,7.986-2.19
		C86.478,40.048,84.118,42.497,81.402,44.458z"/>
	<path fill="#7ABCD0" d="M81.311,44.367c0.027,0.597,0.042,1.196,0.042,1.798c0,18.372-13.987,39.558-39.56,39.558
		c-7.851,0-15.16-2.301-21.312-6.247c1.087,0.13,2.197,0.195,3.315,0.195c6.514,0,12.51-2.223,17.27-5.952
		c-6.086-0.111-11.221-4.131-12.99-9.655c0.85,0.162,1.722,0.251,2.618,0.251c1.268,0,2.494-0.172,3.661-0.488
		c-6.362-1.279-11.152-6.897-11.152-13.632c0-0.06,0-0.116,0-0.177c1.873,1.042,4.016,1.666,6.297,1.739
		c-3.729-2.494-6.185-6.749-6.185-11.572c0-2.55,0.688-4.936,1.883-6.989c6.856,8.41,17.102,13.946,28.656,14.526
		c-0.238-1.019-0.363-2.078-0.363-3.169c0-7.677,6.228-13.902,13.909-13.902c3.995,0,7.609,1.689,10.146,4.391
		c3.169-0.624,6.142-1.782,8.829-3.376c-1.039,3.247-3.244,5.971-6.114,7.693c2.812-0.337,5.493-1.085,7.986-2.19
		C86.387,39.957,84.027,42.407,81.311,44.367z"/>
	<path fill="#7ABBCF" d="M81.221,44.276c0.027,0.597,0.042,1.196,0.042,1.798c0,18.372-13.987,39.558-39.56,39.558
		c-7.851,0-15.16-2.301-21.312-6.247c1.087,0.13,2.197,0.195,3.315,0.195c6.514,0,12.51-2.223,17.27-5.952
		c-6.086-0.111-11.221-4.131-12.99-9.655c0.85,0.162,1.722,0.251,2.618,0.251c1.268,0,2.494-0.172,3.661-0.488
		c-6.362-1.279-11.152-6.897-11.152-13.632c0-0.06,0-0.116,0-0.177c1.873,1.042,4.016,1.666,6.297,1.739
		c-3.729-2.494-6.185-6.749-6.185-11.572c0-2.55,0.688-4.936,1.883-6.989c6.856,8.41,17.102,13.946,28.656,14.526
		c-0.238-1.019-0.363-2.078-0.363-3.169c0-7.677,6.228-13.902,13.909-13.902c3.995,0,7.609,1.689,10.146,4.391
		c3.169-0.624,6.142-1.782,8.829-3.376c-1.039,3.247-3.244,5.971-6.114,7.693c2.812-0.337,5.493-1.085,7.986-2.19
		C86.296,39.867,83.936,42.316,81.221,44.276z"/>
	<path fill="#79BACF" d="M81.13,44.185c0.027,0.597,0.042,1.196,0.042,1.798c0,18.372-13.987,39.558-39.56,39.558
		c-7.851,0-15.16-2.301-21.312-6.247c1.087,0.13,2.197,0.195,3.315,0.195c6.514,0,12.51-2.223,17.27-5.952
		c-6.086-0.111-11.221-4.131-12.99-9.655c0.85,0.162,1.722,0.251,2.618,0.251c1.268,0,2.494-0.172,3.661-0.488
		c-6.362-1.279-11.152-6.897-11.152-13.632c0-0.06,0-0.116,0-0.177c1.873,1.042,4.016,1.666,6.297,1.739
		c-3.729-2.494-6.185-6.749-6.185-11.572c0-2.55,0.688-4.936,1.883-6.989c6.856,8.41,17.102,13.946,28.656,14.526
		c-0.238-1.019-0.363-2.078-0.363-3.169c0-7.677,6.228-13.902,13.909-13.902c3.995,0,7.609,1.689,10.146,4.391
		c3.169-0.624,6.142-1.782,8.829-3.376c-1.039,3.247-3.244,5.971-6.114,7.693c2.812-0.337,5.493-1.085,7.986-2.19
		C86.206,39.776,83.846,42.225,81.13,44.185z"/>
	<path fill="#79BACE" d="M81.039,44.095c0.027,0.597,0.042,1.196,0.042,1.798c0,18.372-13.987,39.558-39.56,39.558
		c-7.851,0-15.16-2.301-21.312-6.247c1.087,0.13,2.197,0.195,3.315,0.195c6.514,0,12.51-2.223,17.27-5.952
		c-6.086-0.111-11.221-4.131-12.99-9.655c0.85,0.162,1.722,0.251,2.618,0.251c1.268,0,2.494-0.172,3.661-0.488
		c-6.362-1.279-11.152-6.897-11.152-13.632c0-0.06,0-0.116,0-0.177c1.873,1.042,4.016,1.666,6.297,1.739
		c-3.729-2.494-6.185-6.749-6.185-11.572c0-2.55,0.688-4.936,1.883-6.989c6.856,8.41,17.102,13.946,28.656,14.526
		c-0.238-1.019-0.363-2.078-0.363-3.169c0-7.677,6.228-13.902,13.909-13.902c3.995,0,7.609,1.689,10.146,4.391
		c3.169-0.624,6.142-1.782,8.829-3.376c-1.039,3.247-3.244,5.971-6.114,7.693c2.812-0.337,5.493-1.085,7.986-2.19
		C86.115,39.685,83.755,42.135,81.039,44.095z"/>
	<path fill="#78B9CD" d="M80.949,44.004c0.027,0.597,0.042,1.196,0.042,1.798c0,18.372-13.987,39.558-39.56,39.558
		c-7.851,0-15.16-2.301-21.312-6.247c1.087,0.13,2.197,0.195,3.315,0.195c6.514,0,12.51-2.223,17.27-5.952
		c-6.086-0.111-11.221-4.131-12.99-9.655c0.85,0.162,1.722,0.251,2.618,0.251c1.268,0,2.494-0.172,3.661-0.488
		c-6.362-1.279-11.152-6.897-11.152-13.632c0-0.06,0-0.116,0-0.177c1.873,1.042,4.016,1.666,6.297,1.739
		c-3.729-2.494-6.185-6.749-6.185-11.572c0-2.55,0.688-4.936,1.883-6.989c6.856,8.41,17.102,13.946,28.656,14.526
		c-0.238-1.019-0.363-2.078-0.363-3.169c0-7.677,6.228-13.902,13.909-13.902c3.995,0,7.609,1.689,10.146,4.391
		c3.169-0.624,6.142-1.782,8.829-3.376c-1.039,3.247-3.244,5.971-6.114,7.693c2.812-0.337,5.493-1.085,7.986-2.19
		C86.024,39.595,83.664,42.044,80.949,44.004z"/>
	<path fill="#78B8CC" d="M80.858,43.913c0.027,0.597,0.042,1.196,0.042,1.798c0,18.372-13.987,39.558-39.56,39.558
		c-7.851,0-15.16-2.301-21.312-6.247c1.087,0.13,2.197,0.195,3.315,0.195c6.514,0,12.51-2.223,17.27-5.952
		c-6.086-0.111-11.221-4.131-12.99-9.655c0.85,0.162,1.722,0.251,2.618,0.251c1.268,0,2.494-0.172,3.661-0.488
		c-6.362-1.279-11.152-6.897-11.152-13.632c0-0.06,0-0.116,0-0.177c1.873,1.042,4.016,1.666,6.297,1.739
		c-3.729-2.494-6.185-6.749-6.185-11.572c0-2.55,0.688-4.936,1.883-6.989c6.856,8.41,17.102,13.946,28.656,14.526
		c-0.238-1.019-0.363-2.078-0.363-3.169c0-7.677,6.228-13.902,13.909-13.902c3.995,0,7.609,1.689,10.146,4.391
		c3.169-0.624,6.142-1.782,8.829-3.376c-1.039,3.247-3.244,5.971-6.114,7.693c2.812-0.337,5.493-1.085,7.986-2.19
		C85.934,39.504,83.574,41.953,80.858,43.913z"/>
	<path fill="#78B8CC" d="M80.767,43.823c0.027,0.597,0.042,1.196,0.042,1.798c0,18.372-13.987,39.558-39.56,39.558
		c-7.851,0-15.16-2.301-21.312-6.247c1.087,0.13,2.197,0.195,3.315,0.195c6.514,0,12.51-2.223,17.27-5.952
		c-6.086-0.111-11.221-4.131-12.99-9.655c0.85,0.162,1.722,0.251,2.618,0.251c1.268,0,2.494-0.172,3.661-0.488
		c-6.362-1.279-11.152-6.897-11.152-13.632c0-0.06,0-0.116,0-0.177c1.873,1.042,4.016,1.666,6.297,1.739
		c-3.729-2.494-6.185-6.749-6.185-11.572c0-2.55,0.688-4.936,1.883-6.989c6.856,8.41,17.102,13.946,28.656,14.526
		c-0.238-1.019-0.363-2.078-0.363-3.169c0-7.677,6.228-13.902,13.909-13.902c3.995,0,7.609,1.689,10.146,4.391
		c3.169-0.624,6.142-1.782,8.829-3.376c-1.039,3.247-3.244,5.971-6.114,7.693c2.812-0.337,5.493-1.085,7.986-2.19
		C85.843,39.413,83.483,41.862,80.767,43.823z"/>
	<path fill="#77B7CB" d="M80.676,43.732c0.027,0.597,0.042,1.196,0.042,1.798c0,18.372-13.987,39.558-39.56,39.558
		c-7.851,0-15.16-2.301-21.312-6.247c1.087,0.13,2.197,0.195,3.315,0.195c6.514,0,12.51-2.223,17.27-5.952
		c-6.086-0.111-11.221-4.131-12.99-9.655c0.85,0.162,1.722,0.251,2.618,0.251c1.268,0,2.494-0.172,3.661-0.488
		C27.36,61.912,22.57,56.294,22.57,49.559c0-0.06,0-0.116,0-0.177c1.873,1.042,4.016,1.666,6.297,1.739
		c-3.729-2.494-6.185-6.749-6.185-11.572c0-2.55,0.688-4.936,1.883-6.989c6.856,8.41,17.102,13.946,28.656,14.526
		c-0.238-1.019-0.363-2.078-0.363-3.169c0-7.677,6.228-13.902,13.909-13.902c3.995,0,7.609,1.689,10.146,4.391
		c3.169-0.624,6.142-1.782,8.829-3.376c-1.039,3.247-3.244,5.971-6.114,7.693c2.812-0.337,5.493-1.085,7.986-2.19
		C85.752,39.323,83.392,41.772,80.676,43.732z"/>
	<path fill="#77B6CA" d="M80.586,43.641c0.027,0.597,0.042,1.196,0.042,1.798c0,18.372-13.987,39.558-39.56,39.558
		c-7.851,0-15.16-2.301-21.312-6.247c1.087,0.13,2.197,0.195,3.315,0.195c6.514,0,12.51-2.223,17.27-5.952
		c-6.086-0.111-11.221-4.131-12.99-9.655c0.85,0.162,1.722,0.251,2.618,0.251c1.268,0,2.494-0.172,3.661-0.488
		C27.27,61.822,22.48,56.203,22.48,49.468c0-0.06,0-0.116,0-0.177c1.873,1.042,4.016,1.666,6.297,1.739
		c-3.729-2.494-6.185-6.749-6.185-11.572c0-2.55,0.688-4.936,1.883-6.989c6.856,8.41,17.102,13.946,28.656,14.526
		c-0.238-1.019-0.363-2.078-0.363-3.169c0-7.677,6.228-13.902,13.909-13.902c3.995,0,7.609,1.689,10.146,4.391
		c3.169-0.624,6.142-1.782,8.829-3.376c-1.039,3.247-3.244,5.971-6.114,7.693c2.812-0.337,5.493-1.085,7.986-2.19
		C85.661,39.232,83.301,41.681,80.586,43.641z"/>
	<path fill="#76B6CA" d="M80.495,43.551c0.027,0.597,0.042,1.196,0.042,1.798c0,18.372-13.987,39.558-39.56,39.558
		c-7.851,0-15.16-2.301-21.312-6.247c1.087,0.13,2.197,0.195,3.315,0.195c6.514,0,12.51-2.223,17.27-5.952
		c-6.086-0.111-11.221-4.131-12.99-9.655c0.85,0.162,1.722,0.251,2.618,0.251c1.268,0,2.494-0.172,3.661-0.488
		c-6.362-1.279-11.152-6.897-11.152-13.632c0-0.06,0-0.116,0-0.177c1.873,1.042,4.016,1.666,6.297,1.739
		c-3.729-2.494-6.185-6.749-6.185-11.572c0-2.55,0.688-4.936,1.883-6.989c6.856,8.41,17.102,13.946,28.656,14.526
		c-0.238-1.019-0.363-2.078-0.363-3.169c0-7.677,6.228-13.902,13.909-13.902c3.995,0,7.609,1.689,10.146,4.391
		c3.169-0.624,6.142-1.782,8.829-3.376c-1.039,3.247-3.244,5.971-6.114,7.693c2.812-0.337,5.493-1.085,7.986-2.19
		C85.571,39.141,83.211,41.59,80.495,43.551z"/>
	<path fill="#76B5C9" d="M80.404,43.46c0.027,0.597,0.042,1.196,0.042,1.798c0,18.372-13.987,39.558-39.56,39.558
		c-7.851,0-15.16-2.301-21.312-6.247c1.087,0.13,2.197,0.195,3.315,0.195c6.514,0,12.51-2.223,17.27-5.952
		c-6.086-0.111-11.221-4.131-12.99-9.655c0.85,0.162,1.722,0.251,2.618,0.251c1.268,0,2.494-0.172,3.661-0.488
		c-6.362-1.279-11.152-6.897-11.152-13.632c0-0.06,0-0.116,0-0.177c1.873,1.042,4.016,1.666,6.297,1.739
		c-3.729-2.494-6.185-6.749-6.185-11.572c0-2.55,0.688-4.936,1.883-6.989c6.856,8.41,17.102,13.946,28.656,14.526
		c-0.238-1.019-0.363-2.078-0.363-3.169c0-7.677,6.228-13.902,13.909-13.902c3.995,0,7.609,1.689,10.146,4.391
		c3.169-0.624,6.142-1.782,8.829-3.376c-1.039,3.247-3.244,5.971-6.114,7.693c2.812-0.337,5.493-1.085,7.986-2.19
		C85.48,39.05,83.12,41.5,80.404,43.46z"/>
	<path fill="#76B5C8" d="M80.314,43.369c0.027,0.597,0.042,1.196,0.042,1.798c0,18.372-13.987,39.558-39.56,39.558
		c-7.851,0-15.16-2.301-21.312-6.247c1.087,0.13,2.197,0.195,3.315,0.195c6.514,0,12.51-2.223,17.27-5.952
		c-6.086-0.111-11.221-4.131-12.99-9.655c0.85,0.162,1.722,0.251,2.618,0.251c1.268,0,2.494-0.172,3.661-0.488
		c-6.362-1.279-11.152-6.897-11.152-13.632c0-0.06,0-0.116,0-0.177c1.873,1.042,4.016,1.666,6.297,1.739
		c-3.729-2.494-6.185-6.749-6.185-11.572c0-2.55,0.688-4.936,1.883-6.989c6.856,8.41,17.102,13.946,28.656,14.526
		c-0.238-1.019-0.363-2.078-0.363-3.169c0-7.677,6.228-13.902,13.909-13.902c3.995,0,7.609,1.689,10.146,4.391
		c3.169-0.624,6.142-1.782,8.829-3.376c-1.039,3.247-3.244,5.971-6.114,7.693c2.812-0.337,5.493-1.085,7.986-2.19
		C85.389,38.96,83.029,41.409,80.314,43.369z"/>
	<path fill="#75B4C8" d="M80.223,43.278c0.027,0.597,0.042,1.196,0.042,1.798c0,18.372-13.987,39.558-39.56,39.558
		c-7.851,0-15.16-2.301-21.312-6.247c1.087,0.13,2.197,0.195,3.315,0.195c6.514,0,12.51-2.223,17.27-5.952
		c-6.086-0.111-11.221-4.131-12.99-9.655c0.85,0.162,1.722,0.251,2.618,0.251c1.268,0,2.494-0.172,3.661-0.488
		c-6.362-1.279-11.152-6.897-11.152-13.632c0-0.06,0-0.116,0-0.177c1.873,1.042,4.016,1.666,6.297,1.739
		c-3.729-2.494-6.185-6.749-6.185-11.572c0-2.55,0.688-4.936,1.883-6.989c6.856,8.41,17.102,13.946,28.656,14.526
		c-0.238-1.019-0.363-2.078-0.363-3.169c0-7.677,6.228-13.902,13.909-13.902c3.995,0,7.609,1.689,10.146,4.391
		c3.169-0.624,6.142-1.782,8.829-3.376c-1.039,3.247-3.244,5.971-6.114,7.693c2.812-0.337,5.493-1.085,7.986-2.19
		C85.299,38.869,82.939,41.318,80.223,43.278z"/>
	<path fill="#75B3C7" d="M80.132,43.188c0.027,0.597,0.042,1.196,0.042,1.798c0,18.372-13.987,39.558-39.56,39.558
		c-7.851,0-15.16-2.301-21.312-6.247c1.087,0.13,2.197,0.195,3.315,0.195c6.514,0,12.51-2.223,17.27-5.952
		c-6.086-0.111-11.221-4.131-12.99-9.655c0.85,0.162,1.722,0.251,2.618,0.251c1.268,0,2.494-0.172,3.661-0.488
		c-6.362-1.279-11.152-6.897-11.152-13.632c0-0.06,0-0.116,0-0.177c1.873,1.042,4.016,1.666,6.297,1.739
		c-3.729-2.494-6.185-6.749-6.185-11.572c0-2.55,0.688-4.936,1.883-6.989c6.856,8.41,17.102,13.946,28.656,14.526
		c-0.238-1.019-0.363-2.078-0.363-3.169c0-7.677,6.228-13.902,13.909-13.902c3.995,0,7.609,1.689,10.146,4.391
		c3.169-0.624,6.142-1.782,8.829-3.376c-1.039,3.247-3.244,5.971-6.114,7.693c2.812-0.337,5.493-1.085,7.986-2.19
		C85.208,38.778,82.848,41.228,80.132,43.188z"/>
	<path fill="#75B3C6" d="M80.042,43.097c0.027,0.597,0.042,1.196,0.042,1.798c0,18.372-13.987,39.558-39.56,39.558
		c-7.851,0-15.16-2.301-21.312-6.247c1.087,0.13,2.197,0.195,3.315,0.195c6.514,0,12.51-2.223,17.27-5.952
		c-6.086-0.111-11.221-4.131-12.99-9.655c0.85,0.162,1.722,0.251,2.618,0.251c1.268,0,2.494-0.172,3.661-0.488
		c-6.362-1.279-11.152-6.897-11.152-13.632c0-0.06,0-0.116,0-0.177c1.873,1.042,4.016,1.666,6.297,1.739
		c-3.729-2.494-6.185-6.749-6.185-11.572c0-2.55,0.688-4.936,1.883-6.989c6.856,8.41,17.102,13.946,28.656,14.526
		c-0.238-1.019-0.363-2.078-0.363-3.169c0-7.677,6.228-13.902,13.909-13.902c3.995,0,7.609,1.689,10.146,4.391
		c3.169-0.624,6.142-1.782,8.829-3.376c-1.039,3.247-3.244,5.971-6.114,7.693c2.812-0.337,5.493-1.085,7.986-2.19
		C85.117,38.688,82.757,41.137,80.042,43.097z"/>
	<path fill="#74B2C5" d="M79.951,43.006c0.027,0.597,0.042,1.196,0.042,1.798c0,18.372-13.987,39.558-39.56,39.558
		c-7.851,0-15.16-2.301-21.312-6.247c1.087,0.13,2.197,0.195,3.315,0.195c6.514,0,12.51-2.223,17.27-5.952
		c-6.086-0.111-11.221-4.131-12.99-9.655c0.85,0.162,1.722,0.251,2.618,0.251c1.268,0,2.494-0.172,3.661-0.488
		c-6.362-1.279-11.152-6.897-11.152-13.632c0-0.06,0-0.116,0-0.177c1.873,1.042,4.016,1.666,6.297,1.739
		c-3.729-2.494-6.185-6.749-6.185-11.572c0-2.55,0.688-4.936,1.883-6.989c6.856,8.41,17.102,13.946,28.656,14.526
		c-0.238-1.019-0.363-2.078-0.363-3.169c0-7.677,6.228-13.902,13.909-13.902c3.995,0,7.609,1.689,10.146,4.391
		c3.169-0.624,6.142-1.782,8.829-3.376c-1.039,3.247-3.244,5.971-6.114,7.693c2.812-0.337,5.493-1.085,7.986-2.19
		C85.027,38.597,82.667,41.046,79.951,43.006z"/>
	<path fill="#74B1C5" d="M79.86,42.916c0.027,0.597,0.042,1.196,0.042,1.798c0,18.372-13.987,39.558-39.56,39.558
		c-7.851,0-15.16-2.301-21.312-6.247c1.087,0.13,2.197,0.195,3.315,0.195c6.514,0,12.51-2.223,17.27-5.952
		c-6.086-0.111-11.221-4.131-12.99-9.655c0.85,0.162,1.722,0.251,2.618,0.251c1.268,0,2.494-0.172,3.661-0.488
		c-6.362-1.279-11.152-6.897-11.152-13.632c0-0.06,0-0.116,0-0.177c1.873,1.042,4.016,1.666,6.297,1.739
		c-3.729-2.494-6.185-6.749-6.185-11.572c0-2.55,0.688-4.936,1.883-6.989c6.856,8.41,17.102,13.946,28.656,14.526
		c-0.238-1.019-0.363-2.078-0.363-3.169c0-7.677,6.228-13.902,13.909-13.902c3.995,0,7.609,1.689,10.146,4.391
		c3.169-0.624,6.142-1.782,8.829-3.376c-1.039,3.247-3.244,5.971-6.114,7.693c2.812-0.337,5.493-1.085,7.986-2.19
		C84.936,38.506,82.576,40.956,79.86,42.916z"/>
	<path fill="#73B1C4" d="M79.77,42.825c0.027,0.597,0.042,1.196,0.042,1.798c0,18.372-13.987,39.558-39.56,39.558
		c-7.851,0-15.16-2.301-21.312-6.247c1.087,0.13,2.197,0.195,3.315,0.195c6.514,0,12.51-2.223,17.27-5.952
		c-6.086-0.111-11.221-4.131-12.99-9.655c0.85,0.162,1.722,0.251,2.618,0.251c1.268,0,2.494-0.172,3.661-0.488
		c-6.362-1.279-11.152-6.897-11.152-13.632c0-0.06,0-0.116,0-0.177c1.873,1.042,4.016,1.666,6.297,1.739
		c-3.729-2.494-6.185-6.749-6.185-11.572c0-2.55,0.688-4.936,1.883-6.989c6.856,8.41,17.102,13.946,28.656,14.526
		c-0.238-1.019-0.363-2.078-0.363-3.169c0-7.677,6.228-13.902,13.909-13.902c3.995,0,7.609,1.689,10.146,4.391
		c3.169-0.624,6.142-1.782,8.829-3.376c-1.039,3.247-3.244,5.971-6.114,7.693c2.812-0.337,5.493-1.085,7.986-2.19
		C84.845,38.416,82.485,40.865,79.77,42.825z"/>
	<path fill="#73B0C3" d="M79.679,42.734c0.027,0.597,0.042,1.196,0.042,1.798c0,18.372-13.987,39.558-39.56,39.558
		c-7.851,0-15.16-2.301-21.312-6.247c1.087,0.13,2.197,0.195,3.315,0.195c6.514,0,12.51-2.223,17.27-5.952
		c-6.086-0.111-11.221-4.131-12.99-9.655c0.85,0.162,1.722,0.251,2.618,0.251c1.268,0,2.494-0.172,3.661-0.488
		c-6.362-1.279-11.152-6.897-11.152-13.632c0-0.06,0-0.116,0-0.177c1.873,1.042,4.016,1.666,6.297,1.739
		c-3.729-2.494-6.185-6.749-6.185-11.572c0-2.55,0.688-4.936,1.883-6.989c6.856,8.41,17.102,13.946,28.656,14.526
		c-0.238-1.019-0.363-2.078-0.363-3.169c0-7.677,6.228-13.902,13.909-13.902c3.995,0,7.609,1.689,10.146,4.391
		c3.169-0.624,6.142-1.782,8.829-3.376c-1.039,3.247-3.244,5.971-6.114,7.693c2.812-0.337,5.493-1.085,7.986-2.19
		C84.754,38.325,82.394,40.774,79.679,42.734z"/>
	<path fill="#73AFC3" d="M79.588,42.644c0.027,0.597,0.042,1.196,0.042,1.798C79.631,62.813,65.644,84,40.071,84
		c-7.851,0-15.16-2.301-21.312-6.247c1.087,0.13,2.197,0.195,3.315,0.195c6.514,0,12.51-2.223,17.27-5.952
		c-6.086-0.111-11.221-4.131-12.99-9.655c0.85,0.162,1.722,0.251,2.618,0.251c1.268,0,2.494-0.172,3.661-0.488
		c-6.362-1.279-11.152-6.897-11.152-13.632c0-0.06,0-0.116,0-0.177c1.873,1.042,4.016,1.666,6.297,1.739
		c-3.729-2.494-6.185-6.749-6.185-11.572c0-2.55,0.688-4.936,1.883-6.989c6.856,8.41,17.102,13.946,28.656,14.526
		c-0.238-1.019-0.363-2.078-0.363-3.169c0-7.677,6.228-13.902,13.909-13.902c3.995,0,7.609,1.689,10.146,4.391
		c3.169-0.624,6.142-1.782,8.829-3.376c-1.039,3.247-3.244,5.971-6.114,7.693c2.812-0.337,5.493-1.085,7.986-2.19
		C84.664,38.234,82.304,40.683,79.588,42.644z"/>
	<path fill="#72AFC2" d="M79.497,42.553c0.027,0.597,0.042,1.196,0.042,1.798c0,18.372-13.987,39.558-39.56,39.558
		c-7.851,0-15.16-2.301-21.312-6.247c1.087,0.13,2.197,0.195,3.315,0.195c6.514,0,12.51-2.223,17.27-5.952
		c-6.086-0.111-11.221-4.131-12.99-9.655c0.85,0.162,1.722,0.251,2.618,0.251c1.268,0,2.494-0.172,3.661-0.488
		c-6.362-1.279-11.152-6.897-11.152-13.632c0-0.06,0-0.116,0-0.177c1.873,1.042,4.016,1.666,6.297,1.739
		c-3.729-2.494-6.185-6.749-6.185-11.572c0-2.55,0.688-4.936,1.883-6.989c6.856,8.41,17.102,13.946,28.656,14.526
		c-0.238-1.019-0.363-2.078-0.363-3.169c0-7.677,6.228-13.902,13.909-13.902c3.995,0,7.609,1.689,10.146,4.391
		c3.169-0.624,6.142-1.782,8.829-3.376c-1.039,3.247-3.244,5.971-6.114,7.693c2.812-0.337,5.493-1.085,7.986-2.19
		C84.573,38.143,82.213,40.593,79.497,42.553z"/>
	<path fill="#72AEC1" d="M79.407,42.462c0.027,0.597,0.042,1.196,0.042,1.798c0,18.372-13.987,39.558-39.56,39.558
		c-7.851,0-15.16-2.301-21.312-6.247c1.087,0.13,2.197,0.195,3.315,0.195c6.514,0,12.51-2.223,17.27-5.952
		c-6.086-0.111-11.221-4.131-12.99-9.655c0.85,0.162,1.722,0.251,2.618,0.251c1.268,0,2.494-0.172,3.661-0.488
		C26.09,60.642,21.3,55.024,21.3,48.289c0-0.06,0-0.116,0-0.177c1.873,1.042,4.016,1.666,6.297,1.739
		c-3.729-2.494-6.185-6.749-6.185-11.572c0-2.55,0.688-4.936,1.883-6.989c6.856,8.41,17.102,13.946,28.656,14.526
		c-0.238-1.019-0.363-2.078-0.363-3.169c0-7.677,6.228-13.902,13.909-13.902c3.995,0,7.609,1.689,10.146,4.391
		c3.169-0.624,6.142-1.782,8.829-3.376c-1.039,3.247-3.244,5.971-6.114,7.693c2.812-0.337,5.493-1.085,7.986-2.19
		C84.482,38.053,82.122,40.502,79.407,42.462z"/>
	<path fill="#71AEC1" d="M79.316,42.372c0.027,0.597,0.042,1.196,0.042,1.798c0,18.372-13.987,39.558-39.56,39.558
		c-7.851,0-15.16-2.301-21.312-6.247c1.087,0.13,2.197,0.195,3.315,0.195c6.514,0,12.51-2.223,17.27-5.952
		c-6.086-0.111-11.221-4.131-12.99-9.655c0.85,0.162,1.722,0.251,2.618,0.251c1.268,0,2.494-0.172,3.661-0.488
		C26,60.552,21.21,54.933,21.21,48.198c0-0.06,0-0.116,0-0.177c1.873,1.042,4.016,1.666,6.297,1.739
		c-3.729-2.494-6.185-6.749-6.185-11.572c0-2.55,0.688-4.936,1.883-6.989c6.856,8.41,17.102,13.946,28.656,14.526
		c-0.238-1.019-0.363-2.078-0.363-3.169c0-7.677,6.228-13.902,13.909-13.902c3.995,0,7.609,1.689,10.146,4.391
		c3.169-0.624,6.142-1.782,8.829-3.376c-1.039,3.247-3.244,5.971-6.114,7.693c2.812-0.337,5.493-1.085,7.986-2.19
		C84.392,37.962,82.032,40.411,79.316,42.372z"/>
	<path fill="#71ADC0" d="M79.225,42.281c0.027,0.597,0.042,1.196,0.042,1.798c0,18.372-13.987,39.558-39.56,39.558
		c-7.851,0-15.16-2.301-21.312-6.247c1.087,0.13,2.197,0.195,3.315,0.195c6.514,0,12.51-2.223,17.27-5.952
		c-6.086-0.111-11.221-4.131-12.99-9.655c0.85,0.162,1.722,0.251,2.618,0.251c1.268,0,2.494-0.172,3.661-0.488
		c-6.362-1.279-11.152-6.897-11.152-13.632c0-0.06,0-0.116,0-0.177c1.873,1.042,4.016,1.666,6.297,1.739
		c-3.729-2.494-6.185-6.749-6.185-11.572c0-2.55,0.688-4.936,1.883-6.989c6.856,8.41,17.102,13.946,28.656,14.526
		c-0.238-1.019-0.363-2.078-0.363-3.169c0-7.677,6.228-13.902,13.909-13.902c3.995,0,7.609,1.689,10.146,4.391
		c3.169-0.624,6.142-1.782,8.829-3.376c-1.039,3.247-3.244,5.971-6.114,7.693c2.812-0.337,5.493-1.085,7.986-2.19
		C84.301,37.871,81.941,40.321,79.225,42.281z"/>
	<path fill="#71ACBF" d="M79.135,42.19c0.027,0.597,0.042,1.196,0.042,1.798c0,18.372-13.987,39.558-39.56,39.558
		c-7.851,0-15.16-2.301-21.312-6.247c1.087,0.13,2.197,0.195,3.315,0.195c6.514,0,12.51-2.223,17.27-5.952
		c-6.086-0.111-11.221-4.131-12.99-9.655c0.85,0.162,1.722,0.251,2.618,0.251c1.268,0,2.494-0.172,3.661-0.488
		c-6.362-1.279-11.152-6.897-11.152-13.632c0-0.06,0-0.116,0-0.177c1.873,1.042,4.016,1.666,6.297,1.739
		c-3.729-2.494-6.185-6.749-6.185-11.572c0-2.55,0.688-4.936,1.883-6.989c6.856,8.41,17.102,13.946,28.656,14.526
		c-0.238-1.019-0.363-2.078-0.363-3.169c0-7.677,6.228-13.902,13.909-13.902c3.995,0,7.609,1.689,10.146,4.391
		c3.169-0.624,6.142-1.782,8.829-3.376c-1.039,3.247-3.244,5.971-6.114,7.693c2.812-0.337,5.493-1.085,7.986-2.19
		C84.21,37.781,81.85,40.23,79.135,42.19z"/>
	<path fill="#70ACBF" d="M79.044,42.099c0.027,0.597,0.042,1.196,0.042,1.798c0,18.372-13.987,39.558-39.56,39.558
		c-7.851,0-15.16-2.301-21.312-6.247c1.087,0.13,2.197,0.195,3.315,0.195c6.514,0,12.51-2.223,17.27-5.952
		c-6.086-0.111-11.221-4.131-12.99-9.655c0.85,0.162,1.722,0.251,2.618,0.251c1.268,0,2.494-0.172,3.661-0.488
		c-6.362-1.279-11.152-6.897-11.152-13.632c0-0.06,0-0.116,0-0.177c1.873,1.042,4.016,1.666,6.297,1.739
		c-3.729-2.494-6.185-6.749-6.185-11.572c0-2.55,0.688-4.936,1.883-6.989c6.856,8.41,17.102,13.946,28.656,14.526
		c-0.238-1.019-0.363-2.078-0.363-3.169c0-7.677,6.228-13.902,13.909-13.902c3.995,0,7.609,1.689,10.146,4.391
		c3.169-0.624,6.142-1.782,8.829-3.376c-1.039,3.247-3.244,5.971-6.114,7.693c2.812-0.337,5.493-1.085,7.986-2.19
		C84.12,37.69,81.76,40.139,79.044,42.099z"/>
	<path fill="#70ABBE" d="M78.953,42.009c0.027,0.597,0.042,1.196,0.042,1.798c0,18.372-13.987,39.558-39.56,39.558
		c-7.851,0-15.16-2.301-21.312-6.247c1.087,0.13,2.197,0.195,3.315,0.195c6.514,0,12.51-2.223,17.27-5.952
		c-6.086-0.111-11.221-4.131-12.99-9.655c0.85,0.162,1.722,0.251,2.618,0.251c1.268,0,2.494-0.172,3.661-0.488
		c-6.362-1.279-11.152-6.897-11.152-13.632c0-0.06,0-0.116,0-0.177c1.873,1.042,4.016,1.666,6.297,1.739
		c-3.729-2.494-6.185-6.749-6.185-11.572c0-2.55,0.688-4.936,1.883-6.989c6.856,8.41,17.102,13.946,28.656,14.526
		c-0.238-1.019-0.363-2.078-0.363-3.169c0-7.677,6.228-13.902,13.909-13.902c3.995,0,7.609,1.689,10.146,4.391
		c3.169-0.624,6.142-1.782,8.829-3.376c-1.039,3.247-3.244,5.971-6.114,7.693c2.812-0.337,5.493-1.085,7.986-2.19
		C84.029,37.599,81.669,40.049,78.953,42.009z"/>
	<path fill="#70ABBD" d="M78.863,41.918c0.027,0.597,0.042,1.196,0.042,1.798c0,18.372-13.987,39.558-39.56,39.558
		c-7.851,0-15.16-2.301-21.312-6.247c1.087,0.13,2.197,0.195,3.315,0.195c6.514,0,12.51-2.223,17.27-5.952
		c-6.086-0.111-11.221-4.131-12.99-9.655c0.85,0.162,1.722,0.251,2.618,0.251c1.268,0,2.494-0.172,3.661-0.488
		c-6.362-1.279-11.152-6.897-11.152-13.632c0-0.06,0-0.116,0-0.177c1.873,1.042,4.016,1.666,6.297,1.739
		c-3.729-2.494-6.185-6.749-6.185-11.572c0-2.55,0.688-4.936,1.883-6.989c6.856,8.41,17.102,13.946,28.656,14.526
		c-0.238-1.019-0.363-2.078-0.363-3.169c0-7.677,6.228-13.902,13.909-13.902c3.995,0,7.609,1.689,10.146,4.391
		c3.169-0.624,6.142-1.782,8.829-3.376c-1.039,3.247-3.244,5.971-6.114,7.693c2.812-0.337,5.493-1.085,7.986-2.19
		C83.938,37.509,81.578,39.958,78.863,41.918z"/>
	<path fill="#6FAABD" d="M78.772,41.827c0.027,0.597,0.042,1.196,0.042,1.798c0,18.372-13.987,39.558-39.56,39.558
		c-7.851,0-15.16-2.301-21.312-6.247c1.087,0.13,2.197,0.195,3.315,0.195c6.514,0,12.51-2.223,17.27-5.952
		c-6.086-0.111-11.221-4.131-12.99-9.655c0.85,0.162,1.722,0.251,2.618,0.251c1.268,0,2.494-0.172,3.661-0.488
		c-6.362-1.279-11.152-6.897-11.152-13.632c0-0.06,0-0.116,0-0.177c1.873,1.042,4.016,1.666,6.297,1.739
		c-3.729-2.494-6.185-6.749-6.185-11.572c0-2.55,0.688-4.936,1.883-6.989c6.856,8.41,17.102,13.946,28.656,14.526
		c-0.238-1.019-0.363-2.078-0.363-3.169c0-7.677,6.228-13.902,13.909-13.902c3.995,0,7.609,1.689,10.146,4.391
		c3.169-0.624,6.142-1.782,8.829-3.376c-1.039,3.247-3.244,5.971-6.114,7.693c2.812-0.337,5.493-1.085,7.986-2.19
		C83.847,37.418,81.487,39.867,78.772,41.827z"/>
	<path fill="#6FA9BC" d="M78.681,41.737c0.027,0.597,0.042,1.196,0.042,1.798c0,18.372-13.987,39.558-39.56,39.558
		c-7.851,0-15.16-2.301-21.312-6.247c1.087,0.13,2.197,0.195,3.315,0.195c6.514,0,12.51-2.223,17.27-5.952
		c-6.086-0.111-11.221-4.131-12.99-9.655c0.85,0.162,1.722,0.251,2.618,0.251c1.268,0,2.494-0.172,3.661-0.488
		c-6.362-1.279-11.152-6.897-11.152-13.632c0-0.06,0-0.116,0-0.177c1.873,1.042,4.016,1.666,6.297,1.739
		c-3.729-2.494-6.185-6.749-6.185-11.572c0-2.55,0.688-4.936,1.883-6.989c6.856,8.41,17.102,13.946,28.656,14.526
		c-0.238-1.019-0.363-2.078-0.363-3.169c0-7.677,6.228-13.902,13.909-13.902c3.995,0,7.609,1.689,10.146,4.391
		c3.169-0.624,6.142-1.782,8.829-3.376c-1.039,3.247-3.244,5.971-6.114,7.693c2.812-0.337,5.493-1.085,7.986-2.19
		C83.757,37.327,81.397,39.776,78.681,41.737z"/>
	<path fill="#6EA9BB" d="M78.59,41.646c0.027,0.597,0.042,1.196,0.042,1.798c0,18.372-13.987,39.558-39.56,39.558
		c-7.851,0-15.16-2.301-21.312-6.247c1.087,0.13,2.197,0.195,3.315,0.195c6.514,0,12.51-2.223,17.27-5.952
		c-6.086-0.111-11.221-4.131-12.99-9.655c0.85,0.162,1.722,0.251,2.618,0.251c1.268,0,2.494-0.172,3.661-0.488
		c-6.362-1.279-11.152-6.897-11.152-13.632c0-0.06,0-0.116,0-0.177c1.873,1.042,4.016,1.666,6.297,1.739
		c-3.729-2.494-6.185-6.749-6.185-11.572c0-2.55,0.688-4.936,1.883-6.989C29.335,38.885,39.582,44.42,51.135,45
		c-0.238-1.019-0.363-2.078-0.363-3.169c0-7.677,6.228-13.902,13.909-13.902c3.995,0,7.609,1.689,10.146,4.391
		c3.169-0.624,6.142-1.782,8.829-3.376c-1.039,3.247-3.244,5.971-6.114,7.693c2.812-0.337,5.493-1.085,7.986-2.19
		C83.666,37.236,81.306,39.686,78.59,41.646z"/>
	<path fill="#6EA8BB" d="M78.5,41.555c0.027,0.597,0.042,1.196,0.042,1.798c0,18.372-13.987,39.558-39.56,39.558
		c-7.851,0-15.16-2.301-21.312-6.247c1.087,0.13,2.197,0.195,3.315,0.195c6.514,0,12.51-2.223,17.27-5.952
		c-6.086-0.111-11.221-4.131-12.99-9.655c0.85,0.162,1.722,0.251,2.618,0.251c1.268,0,2.494-0.172,3.661-0.488
		c-6.362-1.279-11.152-6.897-11.152-13.632c0-0.06,0-0.116,0-0.177c1.873,1.042,4.016,1.666,6.297,1.739
		c-3.729-2.494-6.185-6.749-6.185-11.572c0-2.55,0.688-4.936,1.883-6.989c6.856,8.41,17.102,13.946,28.656,14.526
		c-0.238-1.019-0.363-2.078-0.363-3.169c0-7.677,6.228-13.902,13.909-13.902c3.995,0,7.609,1.689,10.146,4.391
		c3.169-0.624,6.142-1.782,8.829-3.376c-1.039,3.247-3.244,5.971-6.114,7.693c2.812-0.337,5.493-1.085,7.986-2.19
		C83.575,37.146,81.215,39.595,78.5,41.555z"/>
	<path fill="#6EA8BA" d="M78.409,41.465c0.027,0.597,0.042,1.196,0.042,1.798c0,18.372-13.987,39.558-39.56,39.558
		c-7.851,0-15.16-2.301-21.312-6.247c1.087,0.13,2.197,0.195,3.315,0.195c6.514,0,12.51-2.223,17.27-5.952
		c-6.086-0.111-11.221-4.131-12.99-9.655c0.85,0.162,1.722,0.251,2.618,0.251c1.268,0,2.494-0.172,3.661-0.488
		c-6.362-1.279-11.152-6.897-11.152-13.632c0-0.06,0-0.116,0-0.177c1.873,1.042,4.016,1.666,6.297,1.739
		c-3.729-2.494-6.185-6.749-6.185-11.572c0-2.55,0.688-4.936,1.883-6.989c6.856,8.41,17.102,13.946,28.656,14.526
		c-0.238-1.019-0.363-2.078-0.363-3.169c0-7.677,6.228-13.902,13.909-13.902c3.995,0,7.609,1.689,10.146,4.391
		c3.169-0.624,6.142-1.782,8.829-3.376c-1.039,3.247-3.244,5.971-6.114,7.693c2.812-0.337,5.493-1.085,7.986-2.19
		C83.485,37.055,81.125,39.504,78.409,41.465z"/>
	<path fill="#6DA7B9" d="M78.318,41.374c0.027,0.597,0.042,1.196,0.042,1.798c0,18.372-13.987,39.558-39.56,39.558
		c-7.851,0-15.16-2.301-21.312-6.247c1.087,0.13,2.197,0.195,3.315,0.195c6.514,0,12.51-2.223,17.27-5.952
		c-6.086-0.111-11.221-4.131-12.99-9.655c0.85,0.162,1.722,0.251,2.618,0.251c1.268,0,2.494-0.172,3.661-0.488
		c-6.362-1.279-11.152-6.897-11.152-13.632c0-0.06,0-0.116,0-0.177c1.873,1.042,4.016,1.666,6.297,1.739
		c-3.729-2.494-6.185-6.749-6.185-11.572c0-2.55,0.688-4.936,1.883-6.989c6.856,8.41,17.102,13.946,28.656,14.526
		C50.626,43.71,50.5,42.65,50.5,41.559c0-7.677,6.228-13.902,13.909-13.902c3.995,0,7.609,1.689,10.146,4.391
		c3.169-0.624,6.142-1.782,8.829-3.376c-1.039,3.247-3.244,5.971-6.114,7.693c2.812-0.337,5.493-1.085,7.986-2.19
		C83.394,36.964,81.034,39.414,78.318,41.374z"/>
	<path fill="#6DA6B9" d="M78.228,41.283c0.027,0.597,0.042,1.196,0.042,1.798c0,18.372-13.987,39.558-39.56,39.558
		c-7.851,0-15.16-2.301-21.312-6.247c1.087,0.13,2.197,0.195,3.315,0.195c6.514,0,12.51-2.223,17.27-5.952
		c-6.086-0.111-11.221-4.131-12.99-9.655c0.85,0.162,1.722,0.251,2.618,0.251c1.268,0,2.494-0.172,3.661-0.488
		c-6.362-1.279-11.152-6.897-11.152-13.632c0-0.06,0-0.116,0-0.177c1.873,1.042,4.016,1.666,6.297,1.739
		c-3.729-2.494-6.185-6.749-6.185-11.572c0-2.55,0.688-4.936,1.883-6.989c6.856,8.41,17.102,13.946,28.656,14.526
		c-0.238-1.019-0.363-2.078-0.363-3.169c0-7.677,6.228-13.902,13.909-13.902c3.995,0,7.609,1.689,10.146,4.391
		c3.169-0.624,6.142-1.782,8.829-3.376c-1.039,3.247-3.244,5.971-6.114,7.693c2.812-0.337,5.493-1.085,7.986-2.19
		C83.303,36.874,80.943,39.323,78.228,41.283z"/>
	<path fill="#6CA6B8" d="M78.137,41.192c0.027,0.597,0.042,1.196,0.042,1.798c0,18.372-13.987,39.558-39.56,39.558
		c-7.851,0-15.16-2.301-21.312-6.247c1.087,0.13,2.197,0.195,3.315,0.195c6.514,0,12.51-2.223,17.27-5.952
		c-6.086-0.111-11.221-4.131-12.99-9.655c0.85,0.162,1.722,0.251,2.618,0.251c1.268,0,2.494-0.172,3.661-0.488
		c-6.362-1.279-11.152-6.897-11.152-13.632c0-0.06,0-0.116,0-0.177c1.873,1.042,4.016,1.666,6.297,1.739
		c-3.729-2.494-6.185-6.749-6.185-11.572c0-2.55,0.688-4.936,1.883-6.989c6.856,8.41,17.102,13.946,28.656,14.526
		c-0.238-1.019-0.363-2.078-0.363-3.169c0-7.677,6.228-13.902,13.909-13.902c3.995,0,7.609,1.689,10.146,4.391
		c3.169-0.624,6.142-1.782,8.829-3.376c-1.039,3.247-3.244,5.971-6.114,7.693c2.812-0.337,5.493-1.085,7.986-2.19
		C83.213,36.783,80.853,39.232,78.137,41.192z"/>
	<path fill="#6CA5B7" d="M78.046,41.102c0.027,0.597,0.042,1.196,0.042,1.798c0,18.372-13.987,39.558-39.56,39.558
		c-7.851,0-15.16-2.301-21.312-6.247c1.087,0.13,2.197,0.195,3.315,0.195c6.514,0,12.51-2.223,17.27-5.952
		c-6.086-0.111-11.221-4.131-12.99-9.655c0.85,0.162,1.722,0.251,2.618,0.251c1.268,0,2.494-0.172,3.661-0.488
		C24.73,59.282,19.94,53.664,19.94,46.929c0-0.06,0-0.116,0-0.177c1.873,1.042,4.016,1.666,6.297,1.739
		c-3.729-2.494-6.185-6.749-6.185-11.572c0-2.55,0.688-4.936,1.883-6.989c6.856,8.41,17.102,13.946,28.656,14.526
		c-0.238-1.019-0.363-2.078-0.363-3.169c0-7.677,6.228-13.902,13.909-13.902c3.995,0,7.609,1.689,10.146,4.391
		c3.169-0.624,6.142-1.782,8.829-3.376c-1.039,3.247-3.244,5.971-6.114,7.693c2.812-0.337,5.493-1.085,7.986-2.19
		C83.122,36.692,80.762,39.142,78.046,41.102z"/>
	<path fill="#6CA5B7" d="M77.956,41.011c0.027,0.597,0.042,1.196,0.042,1.798c0,18.372-13.987,39.558-39.56,39.558
		c-7.851,0-15.16-2.301-21.312-6.247c1.087,0.13,2.197,0.195,3.315,0.195c6.514,0,12.51-2.223,17.27-5.952
		c-6.086-0.111-11.221-4.131-12.99-9.655c0.85,0.162,1.722,0.251,2.618,0.251c1.268,0,2.494-0.172,3.661-0.488
		c-6.362-1.279-11.152-6.897-11.152-13.632c0-0.06,0-0.116,0-0.177c1.873,1.042,4.016,1.666,6.297,1.739
		c-3.729-2.494-6.185-6.749-6.185-11.572c0-2.55,0.688-4.936,1.883-6.989c6.856,8.41,17.102,13.946,28.656,14.526
		c-0.238-1.019-0.363-2.078-0.363-3.169c0-7.677,6.228-13.902,13.909-13.902c3.995,0,7.609,1.689,10.146,4.391
		c3.169-0.624,6.142-1.782,8.829-3.376c-1.039,3.247-3.244,5.971-6.114,7.693c2.812-0.337,5.493-1.085,7.986-2.19
		C83.031,36.602,80.671,39.051,77.956,41.011z"/>
	<path fill="#6BA4B6" d="M77.865,40.92c0.027,0.597,0.042,1.196,0.042,1.798c0,18.372-13.987,39.558-39.56,39.558
		c-7.851,0-15.16-2.301-21.312-6.247c1.087,0.13,2.197,0.195,3.315,0.195c6.514,0,12.51-2.223,17.27-5.952
		c-6.086-0.111-11.221-4.131-12.99-9.655c0.85,0.162,1.722,0.251,2.618,0.251c1.268,0,2.494-0.172,3.661-0.488
		c-6.362-1.279-11.152-6.897-11.152-13.632c0-0.06,0-0.116,0-0.177c1.873,1.042,4.016,1.666,6.297,1.739
		c-3.729-2.494-6.185-6.749-6.185-11.572c0-2.55,0.688-4.936,1.883-6.989c6.856,8.41,17.102,13.946,28.656,14.526
		c-0.238-1.019-0.363-2.078-0.363-3.169c0-7.677,6.228-13.902,13.909-13.902c3.995,0,7.609,1.689,10.146,4.391
		c3.169-0.624,6.142-1.782,8.829-3.376c-1.039,3.247-3.244,5.971-6.114,7.693c2.812-0.337,5.493-1.085,7.986-2.19
		C82.941,36.511,80.581,38.96,77.865,40.92z"/>
	<path fill="#6BA3B6" d="M77.774,40.83c0.027,0.597,0.042,1.196,0.042,1.798c0,18.372-13.987,39.558-39.56,39.558
		c-7.851,0-15.16-2.301-21.312-6.247c1.087,0.13,2.197,0.195,3.315,0.195c6.514,0,12.51-2.223,17.27-5.952
		c-6.086-0.111-11.221-4.131-12.99-9.655c0.85,0.162,1.722,0.251,2.618,0.251c1.268,0,2.494-0.172,3.661-0.488
		c-6.362-1.279-11.152-6.897-11.152-13.632c0-0.06,0-0.116,0-0.177c1.873,1.042,4.016,1.666,6.297,1.739
		c-3.729-2.494-6.185-6.749-6.185-11.572c0-2.55,0.688-4.936,1.883-6.989c6.856,8.41,17.102,13.946,28.656,14.526
		c-0.238-1.019-0.363-2.078-0.363-3.169c0-7.677,6.228-13.902,13.909-13.902c3.995,0,7.609,1.689,10.146,4.391
		c3.169-0.624,6.142-1.782,8.829-3.376c-1.039,3.247-3.244,5.971-6.114,7.693c2.812-0.337,5.493-1.085,7.986-2.19
		C82.85,36.42,80.49,38.869,77.774,40.83z"/>
	<path fill="#6AA3B5" d="M77.683,40.739c0.027,0.597,0.042,1.196,0.042,1.798c0,18.372-13.987,39.558-39.56,39.558
		c-7.851,0-15.16-2.301-21.312-6.247c1.087,0.13,2.197,0.195,3.315,0.195c6.514,0,12.51-2.223,17.27-5.952
		c-6.086-0.111-11.221-4.131-12.99-9.655c0.85,0.162,1.722,0.251,2.618,0.251c1.268,0,2.494-0.172,3.661-0.488
		c-6.362-1.279-11.152-6.897-11.152-13.632c0-0.06,0-0.116,0-0.177c1.873,1.042,4.016,1.666,6.297,1.739
		c-3.729-2.494-6.185-6.749-6.185-11.572c0-2.55,0.688-4.936,1.883-6.989c6.856,8.41,17.102,13.946,28.656,14.526
		c-0.238-1.019-0.363-2.078-0.363-3.169c0-7.677,6.228-13.902,13.909-13.902c3.995,0,7.609,1.689,10.146,4.391
		c3.169-0.624,6.142-1.782,8.829-3.376c-1.039,3.247-3.244,5.971-6.114,7.693c2.812-0.337,5.493-1.085,7.986-2.19
		C82.759,36.33,80.399,38.779,77.683,40.739z"/>
	<path fill="#6AA2B4" d="M77.593,40.648c0.027,0.597,0.042,1.196,0.042,1.798c0,18.372-13.987,39.558-39.56,39.558
		c-7.851,0-15.16-2.301-21.312-6.247c1.087,0.13,2.197,0.195,3.315,0.195c6.514,0,12.51-2.223,17.27-5.952
		c-6.086-0.111-11.221-4.131-12.99-9.655c0.85,0.162,1.722,0.251,2.618,0.251c1.268,0,2.494-0.172,3.661-0.488
		c-6.362-1.279-11.152-6.897-11.152-13.632c0-0.06,0-0.116,0-0.177c1.873,1.042,4.016,1.666,6.297,1.739
		c-3.729-2.494-6.185-6.749-6.185-11.572c0-2.55,0.688-4.936,1.883-6.989c6.856,8.41,17.102,13.946,28.656,14.526
		c-0.238-1.019-0.363-2.078-0.363-3.169c0-7.677,6.228-13.902,13.909-13.902c3.995,0,7.609,1.689,10.146,4.391
		c3.169-0.624,6.142-1.782,8.829-3.376c-1.039,3.247-3.244,5.971-6.114,7.693c2.812-0.337,5.493-1.085,7.986-2.19
		C82.668,36.239,80.308,38.688,77.593,40.648z"/>
	<path fill="#6AA2B4" d="M77.502,40.558c0.027,0.597,0.042,1.196,0.042,1.798c0,18.372-13.987,39.558-39.56,39.558
		c-7.851,0-15.16-2.301-21.312-6.247c1.087,0.13,2.197,0.195,3.315,0.195c6.514,0,12.51-2.223,17.27-5.952
		c-6.086-0.111-11.221-4.131-12.99-9.655c0.85,0.162,1.722,0.251,2.618,0.251c1.268,0,2.494-0.172,3.661-0.488
		c-6.362-1.279-11.152-6.897-11.152-13.632c0-0.06,0-0.116,0-0.177c1.873,1.042,4.016,1.666,6.297,1.739
		c-3.729-2.494-6.185-6.749-6.185-11.572c0-2.55,0.688-4.936,1.883-6.989c6.856,8.41,17.102,13.946,28.656,14.526
		c-0.238-1.019-0.363-2.078-0.363-3.169c0-7.677,6.228-13.902,13.909-13.902c3.995,0,7.609,1.689,10.146,4.391
		c3.169-0.624,6.142-1.782,8.829-3.376c-1.039,3.247-3.244,5.971-6.114,7.693c2.812-0.337,5.493-1.085,7.986-2.19
		C82.578,36.148,80.218,38.597,77.502,40.558z"/>
	<path fill="#69A1B3" d="M77.411,40.467c0.027,0.597,0.042,1.196,0.042,1.798c0,18.372-13.987,39.558-39.56,39.558
		c-7.851,0-15.16-2.301-21.312-6.247c1.087,0.13,2.197,0.195,3.315,0.195c6.514,0,12.51-2.223,17.27-5.952
		c-6.086-0.111-11.221-4.131-12.99-9.655c0.85,0.162,1.722,0.251,2.618,0.251c1.268,0,2.494-0.172,3.661-0.488
		c-6.362-1.279-11.152-6.897-11.152-13.632c0-0.06,0-0.116,0-0.177c1.873,1.042,4.016,1.666,6.297,1.739
		c-3.729-2.494-6.185-6.749-6.185-11.572c0-2.55,0.688-4.936,1.883-6.989c6.856,8.41,17.102,13.946,28.656,14.526
		c-0.238-1.019-0.363-2.078-0.363-3.169c0-7.677,6.228-13.902,13.909-13.902c3.995,0,7.609,1.689,10.146,4.391
		c3.169-0.624,6.142-1.782,8.829-3.376c-1.039,3.247-3.244,5.971-6.114,7.693c2.812-0.337,5.493-1.085,7.986-2.19
		C82.487,36.057,80.127,38.507,77.411,40.467z"/>
	<path fill="#69A1B2" d="M77.321,40.376c0.027,0.597,0.042,1.196,0.042,1.798c0,18.372-13.987,39.558-39.56,39.558
		c-7.851,0-15.16-2.301-21.312-6.247c1.087,0.13,2.197,0.195,3.315,0.195c6.514,0,12.51-2.223,17.27-5.952
		c-6.086-0.111-11.221-4.131-12.99-9.655c0.85,0.162,1.722,0.251,2.618,0.251c1.268,0,2.494-0.172,3.661-0.488
		c-6.362-1.279-11.152-6.897-11.152-13.632c0-0.06,0-0.116,0-0.177c1.873,1.042,4.016,1.666,6.297,1.739
		c-3.729-2.494-6.185-6.749-6.185-11.572c0-2.55,0.688-4.936,1.883-6.989c6.856,8.41,17.102,13.946,28.656,14.526
		c-0.238-1.019-0.363-2.078-0.363-3.169c0-7.677,6.228-13.902,13.909-13.902c3.995,0,7.609,1.689,10.146,4.391
		c3.169-0.624,6.142-1.782,8.829-3.376c-1.039,3.247-3.244,5.971-6.114,7.693c2.812-0.337,5.493-1.085,7.986-2.19
		C82.396,35.967,80.036,38.416,77.321,40.376z"/>
	<path fill="#68A0B2" d="M77.23,40.285c0.027,0.597,0.042,1.196,0.042,1.798c0,18.372-13.987,39.558-39.56,39.558
		c-7.851,0-15.16-2.301-21.312-6.247c1.087,0.13,2.197,0.195,3.315,0.195c6.514,0,12.51-2.223,17.27-5.952
		c-6.086-0.111-11.221-4.131-12.99-9.655c0.85,0.162,1.722,0.251,2.618,0.251c1.268,0,2.494-0.172,3.661-0.488
		c-6.362-1.279-11.152-6.897-11.152-13.632c0-0.06,0-0.116,0-0.177c1.873,1.042,4.016,1.666,6.297,1.739
		c-3.729-2.494-6.185-6.749-6.185-11.572c0-2.55,0.688-4.936,1.883-6.989c6.856,8.41,17.102,13.946,28.656,14.526
		c-0.238-1.019-0.363-2.078-0.363-3.169c0-7.677,6.228-13.902,13.909-13.902c3.995,0,7.609,1.689,10.146,4.391
		c3.169-0.624,6.142-1.782,8.829-3.376c-1.039,3.247-3.244,5.971-6.114,7.693c2.812-0.337,5.493-1.085,7.986-2.19
		C82.306,35.876,79.946,38.325,77.23,40.285z"/>
	<path fill="#689FB1" d="M77.139,40.195c0.027,0.597,0.042,1.196,0.042,1.798c0,18.372-13.987,39.558-39.56,39.558
		c-7.851,0-15.16-2.301-21.312-6.247c1.087,0.13,2.197,0.195,3.315,0.195c6.514,0,12.51-2.223,17.27-5.952
		c-6.086-0.111-11.221-4.131-12.99-9.655c0.85,0.162,1.722,0.251,2.618,0.251c1.268,0,2.494-0.172,3.661-0.488
		c-6.362-1.279-11.152-6.897-11.152-13.632c0-0.06,0-0.116,0-0.177c1.873,1.042,4.016,1.666,6.297,1.739
		c-3.729-2.494-6.185-6.749-6.185-11.572c0-2.55,0.688-4.936,1.883-6.989c6.856,8.41,17.102,13.946,28.656,14.526
		c-0.238-1.019-0.363-2.078-0.363-3.169c0-7.677,6.228-13.902,13.909-13.902c3.995,0,7.609,1.689,10.146,4.391
		c3.169-0.624,6.142-1.782,8.829-3.376c-1.039,3.247-3.244,5.971-6.114,7.693c2.812-0.337,5.493-1.085,7.986-2.19
		C82.215,35.785,79.855,38.235,77.139,40.195z"/>
	<path fill="#689FB0" d="M77.049,40.104c0.027,0.597,0.042,1.196,0.042,1.798c0,18.372-13.987,39.558-39.56,39.558
		c-7.851,0-15.16-2.301-21.312-6.247c1.087,0.13,2.197,0.195,3.315,0.195c6.514,0,12.51-2.223,17.27-5.952
		c-6.086-0.111-11.221-4.131-12.99-9.655c0.85,0.162,1.722,0.251,2.618,0.251c1.268,0,2.494-0.172,3.661-0.488
		c-6.362-1.279-11.152-6.897-11.152-13.632c0-0.06,0-0.116,0-0.177c1.873,1.042,4.016,1.666,6.297,1.739
		c-3.729-2.494-6.185-6.749-6.185-11.572c0-2.55,0.688-4.936,1.883-6.989c6.856,8.41,17.102,13.946,28.656,14.526
		c-0.238-1.019-0.363-2.078-0.363-3.169c0-7.677,6.228-13.902,13.909-13.902c3.995,0,7.609,1.689,10.146,4.391
		c3.169-0.624,6.142-1.782,8.829-3.376c-1.039,3.247-3.244,5.971-6.114,7.693c2.812-0.337,5.493-1.085,7.986-2.19
		C82.124,35.695,79.764,38.144,77.049,40.104z"/>
	<path fill="#679EB0" d="M76.958,40.013C76.985,40.61,77,41.209,77,41.811c0,18.372-13.987,39.558-39.56,39.558
		c-7.851,0-15.16-2.301-21.312-6.247c1.087,0.13,2.197,0.195,3.315,0.195c6.514,0,12.51-2.223,17.27-5.952
		c-6.086-0.111-11.221-4.131-12.99-9.655c0.85,0.162,1.722,0.251,2.618,0.251c1.268,0,2.494-0.172,3.661-0.488
		c-6.362-1.279-11.152-6.897-11.152-13.632c0-0.06,0-0.116,0-0.177c1.873,1.042,4.016,1.666,6.297,1.739
		c-3.729-2.494-6.185-6.749-6.185-11.572c0-2.55,0.688-4.936,1.883-6.989c6.856,8.41,17.102,13.946,28.656,14.526
		c-0.238-1.019-0.363-2.078-0.363-3.169c0-7.677,6.228-13.902,13.909-13.902c3.995,0,7.609,1.689,10.146,4.391
		c3.169-0.624,6.142-1.782,8.829-3.376c-1.039,3.247-3.244,5.971-6.114,7.693c2.812-0.337,5.493-1.085,7.986-2.19
		C82.034,35.604,79.674,38.053,76.958,40.013z"/>
	<path fill="#679EAF" d="M76.867,39.923c0.027,0.597,0.042,1.196,0.042,1.798c0,18.372-13.987,39.558-39.56,39.558
		c-7.851,0-15.16-2.301-21.312-6.247c1.087,0.13,2.197,0.195,3.315,0.195c6.514,0,12.51-2.223,17.27-5.952
		c-6.086-0.111-11.221-4.131-12.99-9.655c0.85,0.162,1.722,0.251,2.618,0.251c1.268,0,2.494-0.172,3.661-0.488
		c-6.362-1.279-11.152-6.897-11.152-13.632c0-0.06,0-0.116,0-0.177c1.873,1.042,4.016,1.666,6.297,1.739
		c-3.729-2.494-6.185-6.749-6.185-11.572c0-2.55,0.688-4.936,1.883-6.989c6.856,8.41,17.102,13.946,28.656,14.526
		c-0.238-1.019-0.363-2.078-0.363-3.169c0-7.677,6.228-13.902,13.909-13.902c3.995,0,7.609,1.689,10.146,4.391
		c3.169-0.624,6.142-1.782,8.829-3.376c-1.039,3.247-3.244,5.971-6.114,7.693c2.812-0.337,5.493-1.085,7.986-2.19
		C81.943,35.513,79.583,37.963,76.867,39.923z"/>
	<path fill="#679DAF" d="M76.776,39.832c0.027,0.597,0.042,1.196,0.042,1.798c0,18.372-13.987,39.558-39.56,39.558
		c-7.851,0-15.16-2.301-21.312-6.247c1.087,0.13,2.197,0.195,3.315,0.195c6.514,0,12.51-2.223,17.27-5.952
		c-6.086-0.111-11.221-4.131-12.99-9.655c0.85,0.162,1.722,0.251,2.618,0.251c1.268,0,2.494-0.172,3.661-0.488
		C23.46,58.012,18.67,52.394,18.67,45.659c0-0.06,0-0.116,0-0.177c1.873,1.042,4.016,1.666,6.297,1.739
		c-3.729-2.494-6.185-6.749-6.185-11.572c0-2.55,0.688-4.936,1.883-6.989c6.856,8.41,17.102,13.946,28.656,14.526
		c-0.238-1.019-0.363-2.078-0.363-3.169c0-7.677,6.228-13.902,13.909-13.902c3.995,0,7.609,1.689,10.146,4.391
		c3.169-0.624,6.142-1.782,8.829-3.376c-1.039,3.247-3.244,5.971-6.114,7.693c2.812-0.337,5.493-1.085,7.986-2.19
		C81.852,35.423,79.492,37.872,76.776,39.832z"/>
	<path fill="#669CAE" d="M76.686,39.741c0.027,0.597,0.042,1.196,0.042,1.798c0,18.372-13.987,39.558-39.56,39.558
		c-7.851,0-15.16-2.301-21.312-6.247c1.087,0.13,2.197,0.195,3.315,0.195c6.514,0,12.51-2.223,17.27-5.952
		c-6.086-0.111-11.221-4.131-12.99-9.655c0.85,0.162,1.722,0.251,2.618,0.251c1.268,0,2.494-0.172,3.661-0.488
		C23.37,57.922,18.58,52.303,18.58,45.568c0-0.06,0-0.116,0-0.177c1.873,1.042,4.016,1.666,6.297,1.739
		c-3.729-2.494-6.185-6.749-6.185-11.572c0-2.55,0.688-4.936,1.883-6.989c6.856,8.41,17.102,13.946,28.656,14.526
		c-0.238-1.019-0.363-2.078-0.363-3.169c0-7.677,6.228-13.902,13.909-13.902c3.995,0,7.609,1.689,10.146,4.391
		c3.169-0.624,6.142-1.782,8.829-3.376c-1.039,3.247-3.244,5.971-6.114,7.693c2.812-0.337,5.493-1.085,7.986-2.19
		C81.761,35.332,79.401,37.781,76.686,39.741z"/>
	<path fill="#669CAD" d="M76.595,39.651c0.027,0.597,0.042,1.196,0.042,1.798c0,18.372-13.987,39.558-39.56,39.558
		c-7.851,0-15.16-2.301-21.312-6.247c1.087,0.13,2.197,0.195,3.315,0.195c6.514,0,12.51-2.223,17.27-5.952
		c-6.086-0.111-11.221-4.131-12.99-9.655c0.85,0.162,1.722,0.251,2.618,0.251c1.268,0,2.494-0.172,3.661-0.488
		c-6.362-1.279-11.152-6.897-11.152-13.632c0-0.06,0-0.116,0-0.177c1.873,1.042,4.016,1.666,6.297,1.739
		c-3.729-2.494-6.185-6.749-6.185-11.572c0-2.55,0.688-4.936,1.883-6.989c6.856,8.41,17.102,13.946,28.656,14.526
		c-0.238-1.019-0.363-2.078-0.363-3.169c0-7.677,6.228-13.902,13.909-13.902c3.995,0,7.609,1.689,10.146,4.391
		c3.169-0.624,6.142-1.782,8.829-3.376c-1.039,3.247-3.244,5.971-6.114,7.693c2.812-0.337,5.493-1.085,7.986-2.19
		C81.671,35.241,79.311,37.69,76.595,39.651z"/>
	<path fill="#669BAD" d="M76.504,39.56c0.027,0.597,0.042,1.196,0.042,1.798c0,18.372-13.987,39.558-39.56,39.558
		c-7.851,0-15.16-2.301-21.312-6.247c1.087,0.13,2.197,0.195,3.315,0.195c6.514,0,12.51-2.223,17.27-5.952
		c-6.086-0.111-11.221-4.131-12.99-9.655c0.85,0.162,1.722,0.251,2.618,0.251c1.268,0,2.494-0.172,3.661-0.488
		c-6.362-1.279-11.152-6.897-11.152-13.632c0-0.06,0-0.116,0-0.177c1.873,1.042,4.016,1.666,6.297,1.739
		c-3.729-2.494-6.185-6.749-6.185-11.572c0-2.55,0.688-4.936,1.883-6.989c6.856,8.41,17.102,13.946,28.656,14.526
		c-0.238-1.019-0.363-2.078-0.363-3.169c0-7.677,6.228-13.902,13.909-13.902c3.995,0,7.609,1.689,10.146,4.391
		c3.169-0.624,6.142-1.782,8.829-3.376c-1.039,3.247-3.244,5.971-6.114,7.693c2.812-0.337,5.493-1.085,7.986-2.19
		C81.58,35.15,79.22,37.6,76.504,39.56z"/>
	<path fill="#659BAC" d="M76.414,39.469c0.027,0.597,0.042,1.196,0.042,1.798c0,18.372-13.987,39.558-39.56,39.558
		c-7.851,0-15.16-2.301-21.312-6.247c1.087,0.13,2.197,0.195,3.315,0.195c6.514,0,12.51-2.223,17.27-5.952
		c-6.086-0.111-11.221-4.131-12.99-9.655c0.85,0.162,1.722,0.251,2.618,0.251c1.268,0,2.494-0.172,3.661-0.488
		c-6.362-1.279-11.152-6.897-11.152-13.632c0-0.06,0-0.116,0-0.177c1.873,1.042,4.016,1.666,6.297,1.739
		c-3.729-2.494-6.185-6.749-6.185-11.572c0-2.55,0.688-4.936,1.883-6.989c6.856,8.41,17.102,13.946,28.656,14.526
		c-0.238-1.019-0.363-2.078-0.363-3.169c0-7.677,6.228-13.902,13.909-13.902c3.995,0,7.609,1.689,10.146,4.391
		c3.169-0.624,6.142-1.782,8.829-3.376c-1.039,3.247-3.244,5.971-6.114,7.693c2.812-0.337,5.493-1.085,7.986-2.19
		C81.489,35.06,79.129,37.509,76.414,39.469z"/>
	<path fill="#659AAB" d="M76.323,39.378c0.027,0.597,0.042,1.196,0.042,1.798c0,18.372-13.987,39.558-39.56,39.558
		c-7.851,0-15.16-2.301-21.312-6.247c1.087,0.13,2.197,0.195,3.315,0.195c6.514,0,12.51-2.223,17.27-5.952
		c-6.086-0.111-11.221-4.131-12.99-9.655c0.85,0.162,1.722,0.251,2.618,0.251c1.268,0,2.494-0.172,3.661-0.488
		c-6.362-1.279-11.152-6.897-11.152-13.632c0-0.06,0-0.116,0-0.177c1.873,1.042,4.016,1.666,6.297,1.739
		c-3.729-2.494-6.185-6.749-6.185-11.572c0-2.55,0.688-4.936,1.883-6.989c6.856,8.41,17.102,13.946,28.656,14.526
		c-0.238-1.019-0.363-2.078-0.363-3.169c0-7.677,6.228-13.902,13.909-13.902c3.995,0,7.609,1.689,10.146,4.391
		c3.169-0.624,6.142-1.782,8.829-3.376c-1.039,3.247-3.244,5.971-6.114,7.693c2.812-0.337,5.493-1.085,7.986-2.19
		C81.399,34.969,79.039,37.418,76.323,39.378z"/>
	<path fill="#649AAB" d="M76.232,39.288c0.027,0.597,0.042,1.196,0.042,1.798c0,18.372-13.987,39.558-39.56,39.558
		c-7.851,0-15.16-2.301-21.312-6.247c1.087,0.13,2.197,0.195,3.315,0.195c6.514,0,12.51-2.223,17.27-5.952
		c-6.086-0.111-11.221-4.131-12.99-9.655c0.85,0.162,1.722,0.251,2.618,0.251c1.268,0,2.494-0.172,3.661-0.488
		c-6.362-1.279-11.152-6.897-11.152-13.632c0-0.06,0-0.116,0-0.177c1.873,1.042,4.016,1.666,6.297,1.739
		c-3.729-2.494-6.185-6.749-6.185-11.572c0-2.55,0.688-4.936,1.883-6.989c6.856,8.41,17.102,13.946,28.656,14.526
		c-0.238-1.019-0.363-2.078-0.363-3.169c0-7.677,6.228-13.902,13.909-13.902c3.995,0,7.609,1.689,10.146,4.391
		c3.169-0.624,6.142-1.782,8.829-3.376c-1.039,3.247-3.244,5.971-6.114,7.693c2.812-0.337,5.493-1.085,7.986-2.19
		C81.308,34.878,78.948,37.328,76.232,39.288z"/>
	<path fill="#6499AA" d="M76.142,39.197c0.027,0.597,0.042,1.196,0.042,1.798c0,18.372-13.987,39.558-39.56,39.558
		c-7.851,0-15.16-2.301-21.312-6.247c1.087,0.13,2.197,0.195,3.315,0.195c6.514,0,12.51-2.223,17.27-5.952
		c-6.086-0.111-11.221-4.131-12.99-9.655c0.85,0.162,1.722,0.251,2.618,0.251c1.268,0,2.494-0.172,3.661-0.488
		c-6.362-1.279-11.152-6.897-11.152-13.632c0-0.06,0-0.116,0-0.177c1.873,1.042,4.016,1.666,6.297,1.739
		c-3.729-2.494-6.185-6.749-6.185-11.572c0-2.55,0.688-4.936,1.883-6.989c6.856,8.41,17.102,13.946,28.656,14.526
		c-0.238-1.019-0.363-2.078-0.363-3.169c0-7.677,6.228-13.902,13.909-13.902c3.995,0,7.609,1.689,10.146,4.391
		c3.169-0.624,6.142-1.782,8.829-3.376c-1.039,3.247-3.244,5.971-6.114,7.693c2.812-0.337,5.493-1.085,7.986-2.19
		C81.217,34.788,78.857,37.237,76.142,39.197z"/>
	<path fill="#6498AA" d="M76.051,39.106c0.027,0.597,0.042,1.196,0.042,1.798c0,18.372-13.987,39.558-39.56,39.558
		c-7.851,0-15.16-2.301-21.312-6.247c1.087,0.13,2.197,0.195,3.315,0.195c6.514,0,12.51-2.223,17.27-5.952
		c-6.086-0.111-11.221-4.131-12.99-9.655c0.85,0.162,1.722,0.251,2.618,0.251c1.268,0,2.494-0.172,3.661-0.488
		c-6.362-1.279-11.152-6.897-11.152-13.632c0-0.06,0-0.116,0-0.177c1.873,1.042,4.016,1.666,6.297,1.739
		c-3.729-2.494-6.185-6.749-6.185-11.572c0-2.55,0.688-4.936,1.883-6.989c6.856,8.41,17.102,13.946,28.656,14.526
		c-0.238-1.019-0.363-2.078-0.363-3.169c0-7.677,6.228-13.902,13.909-13.902c3.995,0,7.609,1.689,10.146,4.391
		c3.169-0.624,6.142-1.782,8.829-3.376c-1.039,3.247-3.244,5.971-6.114,7.693c2.812-0.337,5.493-1.085,7.986-2.19
		C81.127,34.697,78.767,37.146,76.051,39.106z"/>
	<path fill="#6398A9" d="M75.96,39.016c0.027,0.597,0.042,1.196,0.042,1.798c0,18.372-13.987,39.558-39.56,39.558
		c-7.851,0-15.16-2.301-21.312-6.247c1.087,0.13,2.197,0.195,3.315,0.195c6.514,0,12.51-2.223,17.27-5.952
		c-6.086-0.111-11.221-4.131-12.99-9.655c0.85,0.162,1.722,0.251,2.618,0.251c1.268,0,2.494-0.172,3.661-0.488
		c-6.362-1.279-11.152-6.897-11.152-13.632c0-0.06,0-0.116,0-0.177c1.873,1.042,4.016,1.666,6.297,1.739
		c-3.729-2.494-6.185-6.749-6.185-11.572c0-2.55,0.688-4.936,1.883-6.989c6.856,8.41,17.102,13.946,28.656,14.526
		c-0.238-1.019-0.363-2.078-0.363-3.169c0-7.677,6.228-13.902,13.909-13.902c3.995,0,7.609,1.689,10.146,4.391
		c3.169-0.624,6.142-1.782,8.829-3.376c-1.039,3.247-3.244,5.971-6.114,7.693c2.812-0.337,5.493-1.085,7.986-2.19
		C81.036,34.606,78.676,37.056,75.96,39.016z"/>
	<path fill="#6397A8" d="M75.87,38.925c0.027,0.597,0.042,1.196,0.042,1.798c0,18.372-13.987,39.558-39.56,39.558
		c-7.851,0-15.16-2.301-21.312-6.247c1.087,0.13,2.197,0.195,3.315,0.195c6.514,0,12.51-2.223,17.27-5.952
		c-6.086-0.111-11.221-4.131-12.99-9.655c0.85,0.162,1.722,0.251,2.618,0.251c1.268,0,2.494-0.172,3.661-0.488
		c-6.362-1.279-11.152-6.897-11.152-13.632c0-0.06,0-0.116,0-0.177c1.873,1.042,4.016,1.666,6.297,1.739
		c-3.729-2.494-6.185-6.749-6.185-11.572c0-2.55,0.688-4.936,1.883-6.989c6.856,8.41,17.102,13.946,28.656,14.526
		c-0.238-1.019-0.363-2.078-0.363-3.169c0-7.677,6.228-13.902,13.909-13.902c3.995,0,7.609,1.689,10.146,4.391
		c3.169-0.624,6.142-1.782,8.829-3.376c-1.039,3.247-3.244,5.971-6.114,7.693c2.812-0.337,5.493-1.085,7.986-2.19
		C80.945,34.516,78.585,36.965,75.87,38.925z"/>
	<path fill="#6297A8" d="M75.779,38.834c0.027,0.597,0.042,1.196,0.042,1.798c0,18.372-13.987,39.558-39.56,39.558
		c-7.851,0-15.16-2.301-21.312-6.247c1.087,0.13,2.197,0.195,3.315,0.195c6.514,0,12.51-2.223,17.27-5.952
		c-6.086-0.111-11.221-4.131-12.99-9.655c0.85,0.162,1.722,0.251,2.618,0.251c1.268,0,2.494-0.172,3.661-0.488
		c-6.362-1.279-11.152-6.897-11.152-13.632c0-0.06,0-0.116,0-0.177c1.873,1.042,4.016,1.666,6.297,1.739
		c-3.729-2.494-6.185-6.749-6.185-11.572c0-2.55,0.688-4.936,1.883-6.989c6.856,8.41,17.102,13.946,28.656,14.526
		c-0.238-1.019-0.363-2.078-0.363-3.169c0-7.677,6.228-13.902,13.909-13.902c3.995,0,7.609,1.689,10.146,4.391
		c3.169-0.624,6.142-1.782,8.829-3.376c-1.039,3.247-3.244,5.971-6.114,7.693c2.812-0.337,5.493-1.085,7.986-2.19
		C80.854,34.425,78.494,36.874,75.779,38.834z"/>
	<path fill="#6296A7" d="M75.688,38.744c0.027,0.597,0.042,1.196,0.042,1.798c0,18.372-13.987,39.558-39.56,39.558
		c-7.851,0-15.16-2.301-21.312-6.247c1.087,0.13,2.197,0.195,3.315,0.195c6.514,0,12.51-2.223,17.27-5.952
		c-6.086-0.111-11.221-4.131-12.99-9.655c0.85,0.162,1.722,0.251,2.618,0.251c1.268,0,2.494-0.172,3.661-0.488
		c-6.362-1.279-11.152-6.897-11.152-13.632c0-0.06,0-0.116,0-0.177c1.873,1.042,4.016,1.666,6.297,1.739
		c-3.729-2.494-6.185-6.749-6.185-11.572c0-2.55,0.688-4.936,1.883-6.989c6.856,8.41,17.102,13.946,28.656,14.526
		c-0.238-1.019-0.363-2.078-0.363-3.169c0-7.677,6.228-13.902,13.909-13.902c3.995,0,7.609,1.689,10.146,4.391
		c3.169-0.624,6.142-1.782,8.829-3.376c-1.039,3.247-3.244,5.971-6.114,7.693c2.812-0.337,5.493-1.085,7.986-2.19
		C80.764,34.334,78.404,36.783,75.688,38.744z"/>
	<path fill="#6296A6" d="M75.597,38.653c0.027,0.597,0.042,1.196,0.042,1.798c0,18.372-13.987,39.558-39.56,39.558
		c-7.851,0-15.16-2.301-21.312-6.247c1.087,0.13,2.197,0.195,3.315,0.195c6.514,0,12.51-2.223,17.27-5.952
		c-6.086-0.111-11.221-4.131-12.99-9.655c0.85,0.162,1.722,0.251,2.618,0.251c1.268,0,2.494-0.172,3.661-0.488
		c-6.362-1.279-11.152-6.897-11.152-13.632c0-0.06,0-0.116,0-0.177c1.873,1.042,4.016,1.666,6.297,1.739
		c-3.729-2.494-6.185-6.749-6.185-11.572c0-2.55,0.688-4.936,1.883-6.989c6.856,8.41,17.102,13.946,28.656,14.526
		c-0.238-1.019-0.363-2.078-0.363-3.169c0-7.677,6.228-13.902,13.909-13.902c3.995,0,7.609,1.689,10.146,4.391
		c3.169-0.624,6.142-1.782,8.829-3.376c-1.039,3.247-3.244,5.971-6.114,7.693c2.812-0.337,5.493-1.085,7.986-2.19
		C80.673,34.243,78.313,36.693,75.597,38.653z"/>
	<path fill="#6195A6" d="M75.507,38.562c0.027,0.597,0.042,1.196,0.042,1.798c0,18.372-13.987,39.558-39.56,39.558
		c-7.851,0-15.16-2.301-21.312-6.247c1.087,0.13,2.197,0.195,3.315,0.195c6.514,0,12.51-2.223,17.27-5.952
		c-6.086-0.111-11.221-4.131-12.99-9.655c0.85,0.162,1.722,0.251,2.618,0.251c1.268,0,2.494-0.172,3.661-0.488
		c-6.362-1.279-11.152-6.897-11.152-13.632c0-0.06,0-0.116,0-0.177c1.873,1.042,4.016,1.666,6.297,1.739
		c-3.729-2.494-6.185-6.749-6.185-11.572c0-2.55,0.688-4.936,1.883-6.989c6.856,8.41,17.102,13.946,28.656,14.526
		c-0.238-1.019-0.363-2.078-0.363-3.169c0-7.677,6.228-13.902,13.909-13.902c3.995,0,7.609,1.689,10.146,4.391
		c3.169-0.624,6.142-1.782,8.829-3.376c-1.039,3.247-3.244,5.971-6.114,7.693c2.812-0.337,5.493-1.085,7.986-2.19
		C80.582,34.153,78.222,36.602,75.507,38.562z"/>
</g>
<path fill="#F7E8B1" d="M75.507,38.562c0.027,0.597,0.042,1.196,0.042,1.798c0,18.372-13.987,39.558-39.56,39.558
	c-7.851,0-15.16-2.301-21.312-6.247c1.087,0.13,2.197,0.195,3.315,0.195c6.514,0,12.51-2.223,17.27-5.952
	c-6.086-0.111-11.221-4.131-12.99-9.655c0.85,0.162,1.722,0.251,2.618,0.251c1.268,0,2.494-0.172,3.661-0.488
	c-6.362-1.279-11.152-6.897-11.152-13.632c0-0.06,0-0.116,0-0.177c1.873,1.042,4.016,1.666,6.297,1.739
	c-3.729-2.494-6.185-6.749-6.185-11.572c0-2.55,0.688-4.936,1.883-6.989c6.856,8.41,17.102,13.946,28.656,14.526
	c-0.238-1.019-0.363-2.078-0.363-3.169c0-7.677,6.228-13.902,13.909-13.902c3.995,0,7.609,1.689,10.146,4.391
	c3.169-0.624,6.142-1.782,8.829-3.376c-1.039,3.247-3.244,5.971-6.114,7.693c2.812-0.337,5.493-1.085,7.986-2.19
	C80.582,34.153,78.222,36.602,75.507,38.562z"/>
</svg>
