<?xml version="1.0" encoding="utf-8"?>
<!-- Generator: Adobe Illustrator 17.0.0, SVG Export Plug-In . SVG Version: 6.00 Build 0)  -->
<!DOCTYPE svg PUBLIC "-//W3C//DTD SVG 1.1//EN" "http://www.w3.org/Graphics/SVG/1.1/DTD/svg11.dtd">
<svg version="1.1" id="Layer_1" xmlns="http://www.w3.org/2000/svg" xmlns:xlink="http://www.w3.org/1999/xlink" x="0px" y="0px"
	 width="512px" height="512px" viewBox="0 0 512 512" enable-background="new 0 0 512 512" xml:space="preserve">
<g>
	<path fill="#FFFFFF" d="M257-2C115.609-2,1,112.609,1,254s114.609,256,256,256s256-114.609,256-256S398.391-2,257-2z M256.285,483
		C132.965,483,33,380.701,33,254.5S132.965,26,256.285,26s223.285,102.299,223.285,228.5S379.606,483,256.285,483z"/>
	<path fill="#FFFFFF" d="M346.736,315.463c-19.593-3.348-46.419-22.349-46.419-30.595v-20.838c0-7.769,10.524-22.311,15.001-35.704
		c0.421-1.263,3.119,0.191,5.741-3.004c4.936-6.085,5.664-15.327,6.793-19.536c1.799-6.62-6.238-6.888-6.238-6.888
		s5.989-34.748,0.67-56.695c-7.194-29.887-45.922-44.946-61.076-44.946c-15.174,0-53.844,15.059-61.076,44.946
		c-5.32,21.947,0.803,56.695,0.803,56.695s-7.749,0.268-5.97,6.888c1.149,4.21,2.411,13.451,7.385,19.536
		c2.602,3.195,4.171,1.741,4.592,3.004c4.477,13.395,15.001,27.935,15.001,35.704v20.838c0,8.246-26.845,27.247-46.439,30.595
		c-25.162,4.286-37.598,21.679-31.706,65.056c2.946,21.66,60.12,30.978,116.757,30.175c56.637,0.803,114.671-8.515,117.618-30.175
		C384.086,337.142,371.917,319.749,346.736,315.463z"/>
</g>
</svg>
